%TF.GenerationSoftware,KiCad,Pcbnew,7.0.9-7.0.9~ubuntu20.04.1*%
%TF.CreationDate,2024-01-29T08:29:47-05:00*%
%TF.ProjectId,power-board,706f7765-722d-4626-9f61-72642e6b6963,rev?*%
%TF.SameCoordinates,Original*%
%TF.FileFunction,Copper,L1,Top*%
%TF.FilePolarity,Positive*%
%FSLAX46Y46*%
G04 Gerber Fmt 4.6, Leading zero omitted, Abs format (unit mm)*
G04 Created by KiCad (PCBNEW 7.0.9-7.0.9~ubuntu20.04.1) date 2024-01-29 08:29:47*
%MOMM*%
%LPD*%
G01*
G04 APERTURE LIST*
G04 Aperture macros list*
%AMRoundRect*
0 Rectangle with rounded corners*
0 $1 Rounding radius*
0 $2 $3 $4 $5 $6 $7 $8 $9 X,Y pos of 4 corners*
0 Add a 4 corners polygon primitive as box body*
4,1,4,$2,$3,$4,$5,$6,$7,$8,$9,$2,$3,0*
0 Add four circle primitives for the rounded corners*
1,1,$1+$1,$2,$3*
1,1,$1+$1,$4,$5*
1,1,$1+$1,$6,$7*
1,1,$1+$1,$8,$9*
0 Add four rect primitives between the rounded corners*
20,1,$1+$1,$2,$3,$4,$5,0*
20,1,$1+$1,$4,$5,$6,$7,0*
20,1,$1+$1,$6,$7,$8,$9,0*
20,1,$1+$1,$8,$9,$2,$3,0*%
G04 Aperture macros list end*
%TA.AperFunction,ComponentPad*%
%ADD10R,1.530000X1.530000*%
%TD*%
%TA.AperFunction,ComponentPad*%
%ADD11C,1.530000*%
%TD*%
%TA.AperFunction,ComponentPad*%
%ADD12C,1.400000*%
%TD*%
%TA.AperFunction,ComponentPad*%
%ADD13O,1.400000X1.400000*%
%TD*%
%TA.AperFunction,ComponentPad*%
%ADD14C,7.400000*%
%TD*%
%TA.AperFunction,ComponentPad*%
%ADD15R,1.870000X1.870000*%
%TD*%
%TA.AperFunction,ComponentPad*%
%ADD16C,1.870000*%
%TD*%
%TA.AperFunction,ComponentPad*%
%ADD17R,1.524000X1.524000*%
%TD*%
%TA.AperFunction,ComponentPad*%
%ADD18C,1.524000*%
%TD*%
%TA.AperFunction,ComponentPad*%
%ADD19C,3.048000*%
%TD*%
%TA.AperFunction,ComponentPad*%
%ADD20R,1.800000X1.800000*%
%TD*%
%TA.AperFunction,ComponentPad*%
%ADD21C,1.800000*%
%TD*%
%TA.AperFunction,ComponentPad*%
%ADD22R,2.670000X2.670000*%
%TD*%
%TA.AperFunction,ComponentPad*%
%ADD23C,2.670000*%
%TD*%
%TA.AperFunction,ComponentPad*%
%ADD24R,1.700000X1.700000*%
%TD*%
%TA.AperFunction,ComponentPad*%
%ADD25O,1.700000X1.700000*%
%TD*%
%TA.AperFunction,ComponentPad*%
%ADD26RoundRect,0.250001X-0.949999X-0.949999X0.949999X-0.949999X0.949999X0.949999X-0.949999X0.949999X0*%
%TD*%
%TA.AperFunction,ComponentPad*%
%ADD27C,2.400000*%
%TD*%
%TA.AperFunction,ComponentPad*%
%ADD28O,1.600000X3.200000*%
%TD*%
%TA.AperFunction,ComponentPad*%
%ADD29O,3.500000X1.750000*%
%TD*%
%TA.AperFunction,ComponentPad*%
%ADD30R,1.600000X1.600000*%
%TD*%
%TA.AperFunction,ComponentPad*%
%ADD31C,1.600000*%
%TD*%
%TA.AperFunction,ViaPad*%
%ADD32C,1.143000*%
%TD*%
%TA.AperFunction,ViaPad*%
%ADD33C,2.159000*%
%TD*%
%TA.AperFunction,Conductor*%
%ADD34C,0.200000*%
%TD*%
%TA.AperFunction,Conductor*%
%ADD35C,0.254000*%
%TD*%
%TA.AperFunction,Conductor*%
%ADD36C,1.905000*%
%TD*%
%TA.AperFunction,Conductor*%
%ADD37C,2.540000*%
%TD*%
G04 APERTURE END LIST*
D10*
%TO.P,J36,1,Pin_1*%
%TO.N,+6V*%
X223520000Y-125730000D03*
D11*
%TO.P,J36,2,Pin_2*%
%TO.N,GND*%
X226060000Y-125730000D03*
%TO.P,J36,3,Pin_3*%
%TO.N,/HV_MON2+*%
X228600000Y-125730000D03*
%TO.P,J36,4,Pin_4*%
%TO.N,/HV_MON2-*%
X231140000Y-125730000D03*
%TO.P,J36,5,Pin_5*%
%TO.N,/TS_1*%
X233680000Y-125730000D03*
%TO.P,J36,6,Pin_6*%
%TO.N,/TS_2*%
X236220000Y-125730000D03*
%TO.P,J36,7,Pin_7*%
%TO.N,/TS_3*%
X238760000Y-125730000D03*
%TO.P,J36,8,Pin_8*%
%TO.N,unconnected-(J36-Pin_8-Pad8)*%
X241300000Y-125730000D03*
%TO.P,J36,9,Pin_9*%
%TO.N,unconnected-(J36-Pin_9-Pad9)*%
X243840000Y-125730000D03*
%TO.P,J36,10,Pin_10*%
%TO.N,unconnected-(J36-Pin_10-Pad10)*%
X246380000Y-125730000D03*
%TD*%
D10*
%TO.P,J20,1,Pin_1*%
%TO.N,+6V*%
X223520000Y-117475000D03*
D11*
%TO.P,J20,2,Pin_2*%
%TO.N,GND*%
X226060000Y-117475000D03*
%TO.P,J20,3,Pin_3*%
%TO.N,/HV_MON1+*%
X228600000Y-117475000D03*
%TO.P,J20,4,Pin_4*%
%TO.N,/HV_MON1-*%
X231140000Y-117475000D03*
%TO.P,J20,5,Pin_5*%
%TO.N,/TS_1*%
X233680000Y-117475000D03*
%TO.P,J20,6,Pin_6*%
%TO.N,/TS_2*%
X236220000Y-117475000D03*
%TO.P,J20,7,Pin_7*%
%TO.N,/TS_3*%
X238760000Y-117475000D03*
%TO.P,J20,8,Pin_8*%
%TO.N,unconnected-(J20-Pin_8-Pad8)*%
X241300000Y-117475000D03*
%TO.P,J20,9,Pin_9*%
%TO.N,unconnected-(J20-Pin_9-Pad9)*%
X243840000Y-117475000D03*
%TO.P,J20,10,Pin_10*%
%TO.N,unconnected-(J20-Pin_10-Pad10)*%
X246380000Y-117475000D03*
%TD*%
D12*
%TO.P,R7,1*%
%TO.N,+5V*%
X204470000Y-70485000D03*
D13*
%TO.P,R7,2*%
%TO.N,/GPIO_IN_2*%
X212090000Y-70485000D03*
%TD*%
D14*
%TO.P,H4,1*%
%TO.N,N/C*%
X243840000Y-139700000D03*
%TD*%
D15*
%TO.P,J14,1,Pin_1*%
%TO.N,+5V*%
X191176500Y-96264000D03*
D16*
%TO.P,J14,2,Pin_2*%
%TO.N,GND*%
X187216500Y-96264000D03*
%TD*%
D17*
%TO.P,TP2,1,Pin_1*%
%TO.N,/HV_MON1+*%
X83820000Y-25400000D03*
D18*
%TO.P,TP2,2,Pin_2*%
%TO.N,/HV_MON1-*%
X86360000Y-25400000D03*
%TO.P,TP2,3,Pin_3*%
%TO.N,GND*%
X88900000Y-25400000D03*
%TD*%
D12*
%TO.P,R3,1*%
%TO.N,+6V*%
X134620000Y-34290000D03*
D13*
%TO.P,R3,2*%
%TO.N,Net-(D1-A)*%
X127000000Y-34290000D03*
%TD*%
D12*
%TO.P,R1,1*%
%TO.N,+5V*%
X134620000Y-31115000D03*
D13*
%TO.P,R1,2*%
%TO.N,Net-(D2-A)*%
X127000000Y-31115000D03*
%TD*%
D14*
%TO.P,H3,1*%
%TO.N,N/C*%
X25400000Y-139700000D03*
%TD*%
D15*
%TO.P,J6,1,Pin_1*%
%TO.N,+12V*%
X245110000Y-42545000D03*
D16*
%TO.P,J6,2,Pin_2*%
%TO.N,GND*%
X245110000Y-46505000D03*
%TD*%
D15*
%TO.P,J22,1,Pin_1*%
%TO.N,Net-(J22-Pin_1)*%
X217170000Y-135890000D03*
D16*
%TO.P,J22,2,Pin_2*%
%TO.N,+12V*%
X213210000Y-135890000D03*
%TD*%
D15*
%TO.P,J17,1,Pin_1*%
%TO.N,+12V*%
X191135000Y-108204000D03*
D16*
%TO.P,J17,2,Pin_2*%
%TO.N,GND*%
X187175000Y-108204000D03*
%TD*%
D17*
%TO.P,J7,1,Pin_1*%
%TO.N,+5V*%
X179705000Y-50165000D03*
D18*
%TO.P,J7,2,Pin_2*%
%TO.N,Net-(J7-Pin_2)*%
X182245000Y-50165000D03*
%TO.P,J7,3,Pin_3*%
%TO.N,GND*%
X184785000Y-50165000D03*
%TD*%
D17*
%TO.P,J1,1,Pin_1*%
%TO.N,+5V*%
X184150000Y-25376500D03*
D18*
%TO.P,J1,2,Pin_2*%
%TO.N,Net-(J1-Pin_2)*%
X186690000Y-25376500D03*
%TO.P,J1,3,Pin_3*%
%TO.N,GND*%
X189230000Y-25376500D03*
%TD*%
D17*
%TO.P,J12,1,Pin_1*%
%TO.N,/TS_1*%
X244797500Y-85090000D03*
D18*
%TO.P,J12,2,Pin_2*%
%TO.N,/TS_2*%
X244797500Y-82550000D03*
%TO.P,J12,3,Pin_3*%
%TO.N,/TS_3*%
X244797500Y-80010000D03*
%TD*%
D19*
%TO.P,U1,1,IN+*%
%TO.N,+12V*%
X58547000Y-52197000D03*
%TO.P,U1,2,IN-*%
%TO.N,GND*%
X76327000Y-52197000D03*
%TO.P,U1,3,OUT+*%
%TO.N,+6V*%
X50927000Y-120777000D03*
%TO.P,U1,4,T/C*%
%TO.N,unconnected-(U1-T{slash}C-Pad4)*%
X63627000Y-120777000D03*
%TO.P,U1,5,OUT-*%
%TO.N,GND*%
X76327000Y-120777000D03*
%TD*%
D12*
%TO.P,R8,1*%
%TO.N,+5V*%
X218440000Y-70485000D03*
D13*
%TO.P,R8,2*%
%TO.N,/GPIO_IN_3*%
X226060000Y-70485000D03*
%TD*%
D17*
%TO.P,J9,1,Pin_1*%
%TO.N,+5V*%
X207645000Y-50165000D03*
D18*
%TO.P,J9,2,Pin_2*%
%TO.N,Net-(J9-Pin_2)*%
X210185000Y-50165000D03*
%TO.P,J9,3,Pin_3*%
%TO.N,GND*%
X212725000Y-50165000D03*
%TD*%
D17*
%TO.P,J2,1,Pin_1*%
%TO.N,+5V*%
X198120000Y-25376500D03*
D18*
%TO.P,J2,2,Pin_2*%
%TO.N,Net-(J2-Pin_2)*%
X200660000Y-25376500D03*
%TO.P,J2,3,Pin_3*%
%TO.N,GND*%
X203200000Y-25376500D03*
%TD*%
D20*
%TO.P,D4,1,K*%
%TO.N,GND*%
X149860000Y-25400000D03*
D21*
%TO.P,D4,2,A*%
%TO.N,Net-(D4-A)*%
X147320000Y-25400000D03*
%TD*%
D15*
%TO.P,J18,1,Pin_1*%
%TO.N,+12V*%
X203835000Y-107950000D03*
D16*
%TO.P,J18,2,Pin_2*%
%TO.N,GND*%
X199875000Y-107950000D03*
%TD*%
D22*
%TO.P,J11,1,Pin_1*%
%TO.N,/FAN+*%
X245062500Y-70075000D03*
D23*
%TO.P,J11,2,Pin_2*%
%TO.N,/FAN-*%
X245062500Y-66115000D03*
%TO.P,J11,3,Pin_3*%
%TO.N,/TEC+*%
X245062500Y-62155000D03*
%TO.P,J11,4,Pin_4*%
%TO.N,/TEC-*%
X245062500Y-58195000D03*
%TD*%
D17*
%TO.P,TP1,1,Pin_1*%
%TO.N,/HV_MON2+*%
X98425000Y-25400000D03*
D18*
%TO.P,TP1,2,Pin_2*%
%TO.N,/HV_MON2-*%
X100965000Y-25400000D03*
%TO.P,TP1,3,Pin_3*%
%TO.N,GND*%
X103505000Y-25400000D03*
%TD*%
D15*
%TO.P,J31,1,Pin_1*%
%TO.N,+5V*%
X124460000Y-137160000D03*
D16*
%TO.P,J31,2,Pin_2*%
%TO.N,GND*%
X120500000Y-137160000D03*
%TD*%
D20*
%TO.P,D3,1,K*%
%TO.N,GND*%
X139700000Y-25400000D03*
D21*
%TO.P,D3,2,A*%
%TO.N,Net-(D3-A)*%
X137160000Y-25400000D03*
%TD*%
D24*
%TO.P,JP1,1,A*%
%TO.N,/GPIO_OUT_0*%
X184135000Y-33655000D03*
D25*
%TO.P,JP1,2,C*%
%TO.N,Net-(J1-Pin_2)*%
X186675000Y-33655000D03*
%TO.P,JP1,3,B*%
%TO.N,/GPIO_IN_0*%
X189215000Y-33655000D03*
%TD*%
D15*
%TO.P,J25,1,Pin_1*%
%TO.N,+5VL*%
X52070000Y-137160000D03*
D16*
%TO.P,J25,2,Pin_2*%
%TO.N,GND*%
X48110000Y-137160000D03*
%TD*%
D24*
%TO.P,JP7,1,A*%
%TO.N,/GPIO_OUT_6*%
X207645000Y-60960000D03*
D25*
%TO.P,JP7,2,C*%
%TO.N,Net-(J9-Pin_2)*%
X210185000Y-60960000D03*
%TO.P,JP7,3,B*%
%TO.N,/GPIO_IN_2*%
X212725000Y-60960000D03*
%TD*%
D19*
%TO.P,U2,1,IN+*%
%TO.N,+12V*%
X129667000Y-52197000D03*
%TO.P,U2,2,IN-*%
%TO.N,GND*%
X147447000Y-52197000D03*
%TO.P,U2,3,OUT+*%
%TO.N,+5V*%
X122047000Y-120777000D03*
%TO.P,U2,4,T/C*%
%TO.N,unconnected-(U2-T{slash}C-Pad4)*%
X134747000Y-120777000D03*
%TO.P,U2,5,OUT-*%
%TO.N,GND*%
X147447000Y-120777000D03*
%TD*%
D24*
%TO.P,JP4,1,A*%
%TO.N,/GPIO_OUT_3*%
X226060000Y-33655000D03*
D25*
%TO.P,JP4,2,C*%
%TO.N,Net-(J4-Pin_2)*%
X228600000Y-33655000D03*
%TO.P,JP4,3,B*%
%TO.N,/GPIO_IN_3*%
X231140000Y-33655000D03*
%TD*%
D15*
%TO.P,J23,1,Pin_1*%
%TO.N,+5V*%
X231140000Y-135890000D03*
D16*
%TO.P,J23,2,Pin_2*%
%TO.N,+5VL*%
X227180000Y-135890000D03*
%TD*%
D15*
%TO.P,J32,1,Pin_1*%
%TO.N,+5V*%
X135890000Y-137160000D03*
D16*
%TO.P,J32,2,Pin_2*%
%TO.N,GND*%
X131930000Y-137160000D03*
%TD*%
D26*
%TO.P,J21,1,Pin_1*%
%TO.N,+12V*%
X181460000Y-135890000D03*
D27*
%TO.P,J21,2,Pin_2*%
X185420000Y-135890000D03*
%TO.P,J21,3,Pin_3*%
X189380000Y-135890000D03*
%TO.P,J21,4,Pin_4*%
%TO.N,GND*%
X193340000Y-135890000D03*
%TO.P,J21,5,Pin_5*%
X197300000Y-135890000D03*
%TO.P,J21,6,Pin_6*%
X201260000Y-135890000D03*
%TD*%
D12*
%TO.P,R5,1*%
%TO.N,+5V*%
X176530000Y-70485000D03*
D13*
%TO.P,R5,2*%
%TO.N,/GPIO_IN_0*%
X184150000Y-70485000D03*
%TD*%
D15*
%TO.P,J24,1,Pin_1*%
%TO.N,+5VL*%
X40640000Y-137160000D03*
D16*
%TO.P,J24,2,Pin_2*%
%TO.N,GND*%
X36680000Y-137160000D03*
%TD*%
D12*
%TO.P,R4,1*%
%TO.N,+12V*%
X152400000Y-34290000D03*
D13*
%TO.P,R4,2*%
%TO.N,Net-(D3-A)*%
X144780000Y-34290000D03*
%TD*%
D24*
%TO.P,J13,1,Pin_1*%
%TO.N,/GPIO_OUT_0*%
X185420000Y-83820000D03*
D25*
%TO.P,J13,2,Pin_2*%
%TO.N,GND*%
X185420000Y-81280000D03*
%TO.P,J13,3,Pin_3*%
%TO.N,/GPIO_OUT_1*%
X187960000Y-83820000D03*
%TO.P,J13,4,Pin_4*%
%TO.N,GND*%
X187960000Y-81280000D03*
%TO.P,J13,5,Pin_5*%
%TO.N,/GPIO_OUT_2*%
X190500000Y-83820000D03*
%TO.P,J13,6,Pin_6*%
%TO.N,GND*%
X190500000Y-81280000D03*
%TO.P,J13,7,Pin_7*%
%TO.N,/GPIO_OUT_3*%
X193040000Y-83820000D03*
%TO.P,J13,8,Pin_8*%
%TO.N,GND*%
X193040000Y-81280000D03*
%TO.P,J13,9,Pin_9*%
%TO.N,/GPIO_OUT_4*%
X195580000Y-83820000D03*
%TO.P,J13,10,Pin_10*%
%TO.N,GND*%
X195580000Y-81280000D03*
%TO.P,J13,11,Pin_11*%
%TO.N,/GPIO_OUT_5*%
X198120000Y-83820000D03*
%TO.P,J13,12,Pin_12*%
%TO.N,GND*%
X198120000Y-81280000D03*
%TO.P,J13,13,Pin_13*%
%TO.N,/GPIO_OUT_6*%
X200660000Y-83820000D03*
%TO.P,J13,14,Pin_14*%
%TO.N,GND*%
X200660000Y-81280000D03*
%TO.P,J13,15,Pin_15*%
%TO.N,/GPIO_OUT_7*%
X203200000Y-83820000D03*
%TO.P,J13,16,Pin_16*%
%TO.N,GND*%
X203200000Y-81280000D03*
%TO.P,J13,17,Pin_17*%
%TO.N,/GPIO_IN_0*%
X205740000Y-83820000D03*
%TO.P,J13,18,Pin_18*%
%TO.N,GND*%
X205740000Y-81280000D03*
%TO.P,J13,19,Pin_19*%
%TO.N,/GPIO_IN_1*%
X208280000Y-83820000D03*
%TO.P,J13,20,Pin_20*%
%TO.N,GND*%
X208280000Y-81280000D03*
%TO.P,J13,21,Pin_21*%
%TO.N,/GPIO_IN_2*%
X210820000Y-83820000D03*
%TO.P,J13,22,Pin_22*%
%TO.N,GND*%
X210820000Y-81280000D03*
%TO.P,J13,23,Pin_23*%
%TO.N,/GPIO_IN_3*%
X213360000Y-83820000D03*
%TO.P,J13,24,Pin_24*%
%TO.N,GND*%
X213360000Y-81280000D03*
%TD*%
D15*
%TO.P,J15,1,Pin_1*%
%TO.N,+5V*%
X203876500Y-96264000D03*
D16*
%TO.P,J15,2,Pin_2*%
%TO.N,GND*%
X199916500Y-96264000D03*
%TD*%
D24*
%TO.P,JP3,1,A*%
%TO.N,/GPIO_OUT_2*%
X212090000Y-33655000D03*
D25*
%TO.P,JP3,2,C*%
%TO.N,Net-(J3-Pin_2)*%
X214630000Y-33655000D03*
%TO.P,JP3,3,B*%
%TO.N,/GPIO_IN_2*%
X217170000Y-33655000D03*
%TD*%
D14*
%TO.P,H1,1*%
%TO.N,N/C*%
X25400000Y-22860000D03*
%TD*%
D17*
%TO.P,J3,1,Pin_1*%
%TO.N,+5V*%
X212090000Y-25376500D03*
D18*
%TO.P,J3,2,Pin_2*%
%TO.N,Net-(J3-Pin_2)*%
X214630000Y-25376500D03*
%TO.P,J3,3,Pin_3*%
%TO.N,GND*%
X217170000Y-25376500D03*
%TD*%
D15*
%TO.P,J29,1,Pin_1*%
%TO.N,+5VL*%
X97790000Y-137160000D03*
D16*
%TO.P,J29,2,Pin_2*%
%TO.N,GND*%
X93830000Y-137160000D03*
%TD*%
D12*
%TO.P,R6,1*%
%TO.N,+5V*%
X190500000Y-70485000D03*
D13*
%TO.P,R6,2*%
%TO.N,/GPIO_IN_1*%
X198120000Y-70485000D03*
%TD*%
D15*
%TO.P,J30,1,Pin_1*%
%TO.N,+5V*%
X113030000Y-137160000D03*
D16*
%TO.P,J30,2,Pin_2*%
%TO.N,GND*%
X109070000Y-137160000D03*
%TD*%
D28*
%TO.P,J5,1*%
%TO.N,Net-(J22-Pin_1)*%
X169865000Y-28740000D03*
%TO.P,J5,2*%
X164065000Y-28740000D03*
%TO.P,J5,3*%
%TO.N,GND*%
X169465000Y-25090000D03*
%TO.P,J5,4*%
X164465000Y-25090000D03*
D29*
%TO.P,J5,S1*%
%TO.N,N/C*%
X166965000Y-19590000D03*
D28*
%TO.P,J5,S2*%
X174765000Y-30090000D03*
%TO.P,J5,S3*%
X159165000Y-30090000D03*
%TD*%
D15*
%TO.P,J27,1,Pin_1*%
%TO.N,+5VL*%
X74930000Y-137160000D03*
D16*
%TO.P,J27,2,Pin_2*%
%TO.N,GND*%
X70970000Y-137160000D03*
%TD*%
D15*
%TO.P,J34,1,Pin_1*%
%TO.N,+5V*%
X158750000Y-137160000D03*
D16*
%TO.P,J34,2,Pin_2*%
%TO.N,GND*%
X154790000Y-137160000D03*
%TD*%
D24*
%TO.P,JP5,1,A*%
%TO.N,/GPIO_OUT_4*%
X179705000Y-60960000D03*
D25*
%TO.P,JP5,2,C*%
%TO.N,Net-(J7-Pin_2)*%
X182245000Y-60960000D03*
%TO.P,JP5,3,B*%
%TO.N,/GPIO_IN_0*%
X184785000Y-60960000D03*
%TD*%
D15*
%TO.P,J28,1,Pin_1*%
%TO.N,+5VL*%
X86360000Y-137160000D03*
D16*
%TO.P,J28,2,Pin_2*%
%TO.N,GND*%
X82400000Y-137160000D03*
%TD*%
D22*
%TO.P,J19,1,Pin_1*%
%TO.N,/FAN+*%
X211045000Y-120650000D03*
D23*
%TO.P,J19,2,Pin_2*%
%TO.N,/FAN-*%
X207085000Y-120650000D03*
%TO.P,J19,3,Pin_3*%
%TO.N,/TEC+*%
X203125000Y-120650000D03*
%TO.P,J19,4,Pin_4*%
%TO.N,/TEC-*%
X199165000Y-120650000D03*
%TD*%
D20*
%TO.P,D2,1,K*%
%TO.N,GND*%
X129540000Y-25400000D03*
D21*
%TO.P,D2,2,A*%
%TO.N,Net-(D2-A)*%
X127000000Y-25400000D03*
%TD*%
D15*
%TO.P,J35,1,Pin_1*%
%TO.N,+5V*%
X170330000Y-137160000D03*
D16*
%TO.P,J35,2,Pin_2*%
%TO.N,GND*%
X166370000Y-137160000D03*
%TD*%
D30*
%TO.P,J16,1,1*%
%TO.N,/TS_2*%
X237775000Y-103505000D03*
D31*
%TO.P,J16,2,2*%
%TO.N,/TS_1*%
X235005000Y-103505000D03*
%TO.P,J16,3,3*%
%TO.N,/TS_3*%
X232235000Y-103505000D03*
%TO.P,J16,4,4*%
%TO.N,+6V*%
X229465000Y-103505000D03*
%TO.P,J16,5,5*%
%TO.N,GND*%
X226695000Y-103505000D03*
%TO.P,J16,6,6*%
%TO.N,/FAN+*%
X236390000Y-106345000D03*
%TO.P,J16,7,7*%
%TO.N,/FAN-*%
X233620000Y-106345000D03*
%TO.P,J16,8,8*%
%TO.N,/TEC+*%
X230850000Y-106345000D03*
%TO.P,J16,9,9*%
%TO.N,/TEC-*%
X228080000Y-106345000D03*
%TD*%
D24*
%TO.P,JP2,1,A*%
%TO.N,/GPIO_OUT_1*%
X198120000Y-33655000D03*
D25*
%TO.P,JP2,2,C*%
%TO.N,Net-(J2-Pin_2)*%
X200660000Y-33655000D03*
%TO.P,JP2,3,B*%
%TO.N,/GPIO_IN_1*%
X203200000Y-33655000D03*
%TD*%
D14*
%TO.P,H2,1*%
%TO.N,N/C*%
X243840000Y-22860000D03*
%TD*%
D20*
%TO.P,D1,1,K*%
%TO.N,GND*%
X119380000Y-25400000D03*
D21*
%TO.P,D1,2,A*%
%TO.N,Net-(D1-A)*%
X116840000Y-25400000D03*
%TD*%
D17*
%TO.P,J4,1,Pin_1*%
%TO.N,+5V*%
X226060000Y-25376500D03*
D18*
%TO.P,J4,2,Pin_2*%
%TO.N,Net-(J4-Pin_2)*%
X228600000Y-25376500D03*
%TO.P,J4,3,Pin_3*%
%TO.N,GND*%
X231140000Y-25376500D03*
%TD*%
D24*
%TO.P,JP8,1,A*%
%TO.N,/GPIO_OUT_7*%
X221615000Y-60960000D03*
D25*
%TO.P,JP8,2,C*%
%TO.N,Net-(J10-Pin_2)*%
X224155000Y-60960000D03*
%TO.P,JP8,3,B*%
%TO.N,/GPIO_IN_3*%
X226695000Y-60960000D03*
%TD*%
D17*
%TO.P,J10,1,Pin_1*%
%TO.N,+5V*%
X221615000Y-50165000D03*
D18*
%TO.P,J10,2,Pin_2*%
%TO.N,Net-(J10-Pin_2)*%
X224155000Y-50165000D03*
%TO.P,J10,3,Pin_3*%
%TO.N,GND*%
X226695000Y-50165000D03*
%TD*%
D24*
%TO.P,JP6,1,A*%
%TO.N,/GPIO_OUT_5*%
X193675000Y-60960000D03*
D25*
%TO.P,JP6,2,C*%
%TO.N,Net-(J8-Pin_2)*%
X196215000Y-60960000D03*
%TO.P,JP6,3,B*%
%TO.N,/GPIO_IN_1*%
X198755000Y-60960000D03*
%TD*%
D12*
%TO.P,R2,1*%
%TO.N,Net-(J22-Pin_1)*%
X152400000Y-31115000D03*
D13*
%TO.P,R2,2*%
%TO.N,Net-(D4-A)*%
X144780000Y-31115000D03*
%TD*%
D15*
%TO.P,J33,1,Pin_1*%
%TO.N,+5V*%
X147320000Y-137160000D03*
D16*
%TO.P,J33,2,Pin_2*%
%TO.N,GND*%
X143360000Y-137160000D03*
%TD*%
D17*
%TO.P,J8,1,Pin_1*%
%TO.N,+5V*%
X193675000Y-50165000D03*
D18*
%TO.P,J8,2,Pin_2*%
%TO.N,Net-(J8-Pin_2)*%
X196215000Y-50165000D03*
%TO.P,J8,3,Pin_3*%
%TO.N,GND*%
X198755000Y-50165000D03*
%TD*%
D15*
%TO.P,J26,1,Pin_1*%
%TO.N,+5VL*%
X63500000Y-137160000D03*
D16*
%TO.P,J26,2,Pin_2*%
%TO.N,GND*%
X59540000Y-137160000D03*
%TD*%
D32*
%TO.N,/HV_MON1-*%
X187960000Y-123317000D03*
%TO.N,/HV_MON1+*%
X187960000Y-121158000D03*
%TO.N,/HV_MON2-*%
X189738000Y-123317000D03*
%TO.N,/HV_MON2+*%
X191643000Y-124333000D03*
%TO.N,+12V*%
X152400000Y-48260000D03*
%TO.N,+5V*%
X154940000Y-37465000D03*
%TO.N,/GPIO_IN_0*%
X186690000Y-88265000D03*
%TO.N,/GPIO_IN_1*%
X198120000Y-78740000D03*
%TO.N,/GPIO_OUT_2*%
X210820000Y-77470000D03*
%TO.N,/GPIO_OUT_3*%
X225425000Y-66040000D03*
X195580000Y-66040000D03*
%TO.N,/GPIO_OUT_4*%
X179705000Y-86995000D03*
%TO.N,/GPIO_OUT_5*%
X193675000Y-78740000D03*
%TO.N,/GPIO_OUT_7*%
X221615000Y-66675000D03*
X207645000Y-66040000D03*
%TO.N,Net-(D1-A)*%
X116840000Y-34290000D03*
%TO.N,/TS_1*%
X244475000Y-100965000D03*
%TO.N,/TS_2*%
X245940500Y-103309500D03*
%TO.N,/TS_3*%
X242570000Y-99695000D03*
D33*
%TO.N,Net-(J22-Pin_1)*%
X169865000Y-127635000D03*
D32*
%TO.N,/HV_MON1+*%
X173355000Y-41275000D03*
X83820000Y-40005000D03*
%TO.N,/HV_MON1-*%
X86456000Y-41179000D03*
X171984770Y-41525849D03*
%TO.N,/HV_MON2+*%
X175387000Y-40132000D03*
%TO.N,/HV_MON2-*%
X100940506Y-37509834D03*
X173990000Y-39210500D03*
%TD*%
D34*
%TO.N,/HV_MON2-*%
X189738000Y-123317000D02*
X189738000Y-121143423D01*
X189738000Y-121143423D02*
X189693849Y-121099272D01*
D35*
X189693849Y-117343429D02*
X189693849Y-120904000D01*
D34*
%TO.N,/HV_MON1-*%
X172085000Y-107315000D02*
X187452000Y-122682000D01*
X187452000Y-122682000D02*
X187459950Y-122689950D01*
X187960000Y-123317000D02*
X187452000Y-122809000D01*
X187452000Y-122809000D02*
X187452000Y-122682000D01*
D35*
%TO.N,/HV_MON2-*%
X189693849Y-120904000D02*
X189693849Y-121099272D01*
D34*
%TO.N,/HV_MON2+*%
X191643000Y-124333000D02*
X191643000Y-118618000D01*
X191643000Y-118618000D02*
X190246000Y-117221000D01*
D35*
%TO.N,/TS_3*%
X238760000Y-117475000D02*
X238760000Y-125730000D01*
%TO.N,/TS_1*%
X233680000Y-117475000D02*
X233680000Y-125730000D01*
%TO.N,/TS_2*%
X236220000Y-117475000D02*
X236220000Y-125730000D01*
%TO.N,/TS_3*%
X232235000Y-103505000D02*
X233416000Y-102324000D01*
X236347000Y-103124000D02*
X236347000Y-104631813D01*
X233416000Y-102324000D02*
X235547000Y-102324000D01*
X235547000Y-102324000D02*
X236347000Y-103124000D01*
X236347000Y-104631813D02*
X238760000Y-107044813D01*
X238760000Y-107044813D02*
X238760000Y-117475000D01*
%TO.N,/TS_1*%
X235005000Y-103505000D02*
X235005000Y-116150000D01*
X235005000Y-116150000D02*
X233680000Y-117475000D01*
%TO.N,+12V*%
X152400000Y-34290000D02*
X152400000Y-48260000D01*
%TO.N,+6V*%
X134620000Y-34290000D02*
X134620000Y-117475000D01*
%TO.N,/GPIO_IN_0*%
X184785000Y-69850000D02*
X184150000Y-70485000D01*
X184785000Y-60960000D02*
X184785000Y-69850000D01*
X186690000Y-88265000D02*
X186690000Y-73025000D01*
X186690000Y-73025000D02*
X184150000Y-70485000D01*
X189215000Y-56530000D02*
X184785000Y-60960000D01*
X189215000Y-33655000D02*
X189215000Y-56530000D01*
%TO.N,/GPIO_IN_1*%
X203200000Y-56515000D02*
X198755000Y-60960000D01*
X198120000Y-70485000D02*
X198120000Y-78740000D01*
X198755000Y-69850000D02*
X198120000Y-70485000D01*
X203200000Y-33655000D02*
X203200000Y-56515000D01*
X198755000Y-60960000D02*
X198755000Y-69850000D01*
%TO.N,/GPIO_OUT_0*%
X183069000Y-81469000D02*
X185420000Y-83820000D01*
X183554000Y-34236000D02*
X183554000Y-69176000D01*
X183554000Y-69176000D02*
X183069000Y-69661000D01*
X183069000Y-69661000D02*
X183069000Y-81469000D01*
X184135000Y-33655000D02*
X183554000Y-34236000D01*
%TO.N,/GPIO_OUT_1*%
X191770000Y-76835000D02*
X189191000Y-79414000D01*
X198120000Y-33655000D02*
X191770000Y-40005000D01*
X189191000Y-79414000D02*
X189191000Y-82589000D01*
X189191000Y-82589000D02*
X187960000Y-83820000D01*
X191770000Y-40005000D02*
X191770000Y-76835000D01*
%TO.N,/GPIO_OUT_2*%
X211416000Y-69254000D02*
X210820000Y-69850000D01*
X212090000Y-33655000D02*
X211416000Y-34329000D01*
X210820000Y-69850000D02*
X210820000Y-77470000D01*
X211416000Y-34329000D02*
X211416000Y-69254000D01*
%TO.N,/GPIO_OUT_3*%
X193040000Y-83820000D02*
X194271000Y-82589000D01*
X225425000Y-66040000D02*
X225425000Y-34290000D01*
X194271000Y-82589000D02*
X194271000Y-80049000D01*
X225425000Y-34290000D02*
X226060000Y-33655000D01*
X195580000Y-78740000D02*
X195580000Y-66040000D01*
X194271000Y-80049000D02*
X195580000Y-78740000D01*
%TO.N,/GPIO_OUT_4*%
X179705000Y-60960000D02*
X179705000Y-86995000D01*
%TO.N,/GPIO_OUT_5*%
X193675000Y-60960000D02*
X193675000Y-78740000D01*
%TO.N,/GPIO_OUT_6*%
X200660000Y-83820000D02*
X201969000Y-82511000D01*
X201969000Y-82511000D02*
X201969000Y-66636000D01*
X201969000Y-66636000D02*
X207645000Y-60960000D01*
%TO.N,/GPIO_OUT_7*%
X203200000Y-83820000D02*
X204431000Y-82589000D01*
X204431000Y-72429000D02*
X207645000Y-69215000D01*
X207645000Y-69215000D02*
X207645000Y-66040000D01*
X221615000Y-66675000D02*
X221615000Y-60960000D01*
X204431000Y-82589000D02*
X204431000Y-72429000D01*
%TO.N,/GPIO_IN_2*%
X217170000Y-56515000D02*
X212725000Y-60960000D01*
X212090000Y-70485000D02*
X212090000Y-82550000D01*
X212725000Y-69850000D02*
X212090000Y-70485000D01*
X212090000Y-82550000D02*
X210820000Y-83820000D01*
X212725000Y-60960000D02*
X212725000Y-69850000D01*
X217170000Y-33655000D02*
X217170000Y-56515000D01*
%TO.N,/GPIO_IN_3*%
X231140000Y-56515000D02*
X226695000Y-60960000D01*
X226695000Y-69850000D02*
X226060000Y-70485000D01*
X213360000Y-83185000D02*
X213360000Y-83820000D01*
X226695000Y-60960000D02*
X226695000Y-69850000D01*
X231140000Y-33655000D02*
X231140000Y-56515000D01*
X226060000Y-70485000D02*
X213360000Y-83185000D01*
%TO.N,Net-(D1-A)*%
X116840000Y-25400000D02*
X116840000Y-34290000D01*
%TO.N,Net-(D2-A)*%
X127000000Y-25400000D02*
X127000000Y-31115000D01*
%TO.N,Net-(D4-A)*%
X147320000Y-25400000D02*
X147320000Y-28575000D01*
X147320000Y-28575000D02*
X144780000Y-31115000D01*
%TO.N,Net-(J2-Pin_2)*%
X200660000Y-25376500D02*
X200660000Y-33655000D01*
%TO.N,Net-(J3-Pin_2)*%
X214630000Y-25376500D02*
X214630000Y-33655000D01*
%TO.N,Net-(J4-Pin_2)*%
X228600000Y-25376500D02*
X228600000Y-33655000D01*
%TO.N,Net-(J8-Pin_2)*%
X196215000Y-50165000D02*
X196215000Y-60960000D01*
%TO.N,Net-(J9-Pin_2)*%
X210185000Y-50165000D02*
X210185000Y-60960000D01*
%TO.N,/TS_1*%
X244797500Y-100642500D02*
X244475000Y-100965000D01*
X244797500Y-85090000D02*
X244797500Y-100642500D01*
%TO.N,/TS_2*%
X245745000Y-103505000D02*
X245940500Y-103309500D01*
X245940500Y-83693000D02*
X245940500Y-103309500D01*
X244797500Y-82550000D02*
X245940500Y-83693000D01*
%TO.N,/TS_3*%
X242570000Y-82237500D02*
X242570000Y-99695000D01*
X244797500Y-80010000D02*
X242570000Y-82237500D01*
D36*
%TO.N,/FAN+*%
X216535000Y-120650000D02*
X211045000Y-120650000D01*
X221894199Y-93243301D02*
X221894199Y-107075007D01*
X245062500Y-70075000D02*
X221894199Y-93243301D01*
X221894199Y-107075007D02*
X218313000Y-110656206D01*
X218313000Y-118872000D02*
X216535000Y-120650000D01*
X218313000Y-110656206D02*
X218313000Y-118872000D01*
%TO.N,/FAN-*%
X245062500Y-66115000D02*
X243174525Y-66115000D01*
X208420000Y-117495918D02*
X208420000Y-119315000D01*
X219735199Y-89554326D02*
X219735199Y-106180719D01*
X208420000Y-119315000D02*
X207085000Y-120650000D01*
X243174525Y-66115000D02*
X219735199Y-89554326D01*
X219735199Y-106180719D02*
X208420000Y-117495918D01*
%TO.N,/TEC+*%
X203125000Y-119737630D02*
X203125000Y-120650000D01*
X217576199Y-87220262D02*
X217576199Y-105286431D01*
X242641461Y-62155000D02*
X217576199Y-87220262D01*
X217576199Y-105286431D02*
X203125000Y-119737630D01*
X245062500Y-62155000D02*
X242641461Y-62155000D01*
%TO.N,/TEC-*%
X215421199Y-83820000D02*
X215421199Y-104393801D01*
X215421199Y-104393801D02*
X199165000Y-120650000D01*
X245062500Y-58195000D02*
X241046199Y-58195000D01*
X241046199Y-58195000D02*
X215421199Y-83820000D01*
D35*
%TO.N,Net-(J1-Pin_2)*%
X186690000Y-33640000D02*
X186675000Y-33655000D01*
X186690000Y-25376500D02*
X186690000Y-33640000D01*
D37*
%TO.N,Net-(J22-Pin_1)*%
X169865000Y-28415000D02*
X169865000Y-34290000D01*
X165100000Y-34290000D02*
X169865000Y-34290000D01*
X169865000Y-34290000D02*
X169865000Y-127635000D01*
X164065000Y-33255000D02*
X165100000Y-34290000D01*
X164065000Y-28415000D02*
X164065000Y-33255000D01*
D35*
%TO.N,Net-(J10-Pin_2)*%
X224155000Y-50165000D02*
X224155000Y-60960000D01*
%TO.N,Net-(J7-Pin_2)*%
X182245000Y-50165000D02*
X182245000Y-60960000D01*
D34*
%TO.N,/HV_MON1+*%
X173355000Y-41275000D02*
X173355000Y-106680000D01*
X83820000Y-25400000D02*
X83820000Y-40005000D01*
X173355000Y-106680000D02*
X187960000Y-121285000D01*
%TO.N,/HV_MON1-*%
X171984770Y-41525849D02*
X172085000Y-41626079D01*
X172085000Y-41626079D02*
X172085000Y-107315000D01*
X86360000Y-41083000D02*
X86360000Y-25400000D01*
X86456000Y-41179000D02*
X86360000Y-41083000D01*
%TO.N,/HV_MON2+*%
X175387000Y-102362000D02*
X190246000Y-117221000D01*
X175387000Y-40132000D02*
X175387000Y-102362000D01*
D35*
%TO.N,/HV_MON2-*%
X173990000Y-39210500D02*
X174307500Y-39528000D01*
X100965000Y-25400000D02*
X100965000Y-37485340D01*
X100965000Y-37485340D02*
X100940506Y-37509834D01*
X174307500Y-101957080D02*
X189693849Y-117343429D01*
X174307500Y-39528000D02*
X174307500Y-101957080D01*
%TD*%
%TA.AperFunction,Conductor*%
%TO.N,+6V*%
G36*
X242131539Y-95904685D02*
G01*
X242177294Y-95957489D01*
X242188500Y-96009000D01*
X242188500Y-98888002D01*
X242168815Y-98955041D01*
X242137386Y-98988320D01*
X242014252Y-99077782D01*
X241898070Y-99206816D01*
X241811254Y-99357186D01*
X241757601Y-99522314D01*
X241757600Y-99522317D01*
X241757600Y-99522319D01*
X241739450Y-99695000D01*
X241757600Y-99867681D01*
X241811255Y-100032815D01*
X241898071Y-100183185D01*
X242014254Y-100312219D01*
X242154720Y-100414274D01*
X242154725Y-100414277D01*
X242313341Y-100484898D01*
X242313346Y-100484900D01*
X242483184Y-100521000D01*
X242483185Y-100521000D01*
X242656814Y-100521000D01*
X242656816Y-100521000D01*
X242826654Y-100484900D01*
X242985275Y-100414277D01*
X243125746Y-100312219D01*
X243241929Y-100183185D01*
X243328745Y-100032815D01*
X243382400Y-99867681D01*
X243400550Y-99695000D01*
X243382400Y-99522319D01*
X243328745Y-99357185D01*
X243241929Y-99206815D01*
X243125746Y-99077781D01*
X243082308Y-99046222D01*
X243002614Y-98988320D01*
X242959949Y-98932990D01*
X242951500Y-98888002D01*
X242951500Y-96009000D01*
X242971185Y-95941961D01*
X243023989Y-95896206D01*
X243075500Y-95885000D01*
X244292000Y-95885000D01*
X244359039Y-95904685D01*
X244404794Y-95957489D01*
X244416000Y-96009000D01*
X244416000Y-100032674D01*
X244396315Y-100099713D01*
X244343511Y-100145468D01*
X244317781Y-100153964D01*
X244218346Y-100175099D01*
X244218341Y-100175101D01*
X244059725Y-100245722D01*
X244059720Y-100245725D01*
X243919254Y-100347780D01*
X243803070Y-100476816D01*
X243716254Y-100627186D01*
X243662601Y-100792314D01*
X243662600Y-100792317D01*
X243662600Y-100792319D01*
X243644450Y-100965000D01*
X243662600Y-101137681D01*
X243716255Y-101302815D01*
X243803071Y-101453185D01*
X243919254Y-101582219D01*
X244059720Y-101684274D01*
X244059725Y-101684277D01*
X244218341Y-101754898D01*
X244218346Y-101754900D01*
X244388184Y-101791000D01*
X244388185Y-101791000D01*
X244561814Y-101791000D01*
X244561816Y-101791000D01*
X244731654Y-101754900D01*
X244890275Y-101684277D01*
X245030746Y-101582219D01*
X245146929Y-101453185D01*
X245233745Y-101302815D01*
X245287400Y-101137681D01*
X245305550Y-100965000D01*
X245287400Y-100792319D01*
X245233745Y-100627185D01*
X245195613Y-100561137D01*
X245179000Y-100499137D01*
X245179000Y-96009000D01*
X245198685Y-95941961D01*
X245251489Y-95896206D01*
X245303000Y-95885000D01*
X245435000Y-95885000D01*
X245502039Y-95904685D01*
X245547794Y-95957489D01*
X245559000Y-96009000D01*
X245559000Y-102502502D01*
X245539315Y-102569541D01*
X245507886Y-102602820D01*
X245384752Y-102692282D01*
X245268570Y-102821316D01*
X245181754Y-102971686D01*
X245128101Y-103136814D01*
X245128100Y-103136817D01*
X245109950Y-103309500D01*
X245128100Y-103482182D01*
X245128101Y-103482185D01*
X245171954Y-103617152D01*
X245181755Y-103647315D01*
X245268571Y-103797685D01*
X245323377Y-103858553D01*
X245384754Y-103926719D01*
X245525220Y-104028774D01*
X245525225Y-104028777D01*
X245683841Y-104099398D01*
X245683846Y-104099400D01*
X245853684Y-104135500D01*
X245853685Y-104135500D01*
X246027314Y-104135500D01*
X246027316Y-104135500D01*
X246197154Y-104099400D01*
X246355775Y-104028777D01*
X246496246Y-103926719D01*
X246612429Y-103797685D01*
X246699245Y-103647315D01*
X246752900Y-103482181D01*
X246771050Y-103309500D01*
X246752900Y-103136819D01*
X246699245Y-102971685D01*
X246612429Y-102821315D01*
X246496246Y-102692281D01*
X246452808Y-102660722D01*
X246373114Y-102602820D01*
X246330449Y-102547490D01*
X246322000Y-102502502D01*
X246322000Y-96009000D01*
X246341685Y-95941961D01*
X246394489Y-95896206D01*
X246446000Y-95885000D01*
X248160500Y-95885000D01*
X248227539Y-95904685D01*
X248273294Y-95957489D01*
X248284500Y-96009000D01*
X248284500Y-131956000D01*
X248264815Y-132023039D01*
X248212011Y-132068794D01*
X248160500Y-132080000D01*
X21079500Y-132080000D01*
X21012461Y-132060315D01*
X20966706Y-132007511D01*
X20955500Y-131956000D01*
X20955500Y-124529630D01*
X33781685Y-124529630D01*
X33812128Y-124806301D01*
X33812130Y-124806312D01*
X33882529Y-125075593D01*
X33882531Y-125075599D01*
X33937807Y-125205675D01*
X33976424Y-125296549D01*
X33991393Y-125331772D01*
X34028508Y-125392587D01*
X34136390Y-125569360D01*
X34136397Y-125569369D01*
X34228125Y-125679592D01*
X34314442Y-125783312D01*
X34521745Y-125969056D01*
X34753883Y-126122637D01*
X35005909Y-126240782D01*
X35005916Y-126240784D01*
X35005918Y-126240785D01*
X35272439Y-126320970D01*
X35272446Y-126320971D01*
X35272451Y-126320973D01*
X35547828Y-126361500D01*
X35547833Y-126361500D01*
X35756494Y-126361500D01*
X35809412Y-126357626D01*
X35964601Y-126346268D01*
X36078155Y-126320973D01*
X36236279Y-126285750D01*
X36236281Y-126285749D01*
X36236286Y-126285748D01*
X36496263Y-126186315D01*
X36738993Y-126050089D01*
X36959301Y-125879972D01*
X37152492Y-125679592D01*
X37314449Y-125453218D01*
X37376888Y-125331772D01*
X37441712Y-125205690D01*
X37441714Y-125205683D01*
X37441719Y-125205675D01*
X37531591Y-124942239D01*
X37582148Y-124668526D01*
X37587224Y-124529630D01*
X89661685Y-124529630D01*
X89692128Y-124806301D01*
X89692130Y-124806312D01*
X89762529Y-125075593D01*
X89762531Y-125075599D01*
X89817807Y-125205675D01*
X89856424Y-125296549D01*
X89871393Y-125331772D01*
X89908508Y-125392587D01*
X90016390Y-125569360D01*
X90016397Y-125569369D01*
X90108125Y-125679592D01*
X90194442Y-125783312D01*
X90401745Y-125969056D01*
X90633883Y-126122637D01*
X90885909Y-126240782D01*
X90885916Y-126240784D01*
X90885918Y-126240785D01*
X91152439Y-126320970D01*
X91152446Y-126320971D01*
X91152451Y-126320973D01*
X91427828Y-126361500D01*
X91427833Y-126361500D01*
X91636494Y-126361500D01*
X91689412Y-126357626D01*
X91844601Y-126346268D01*
X91958155Y-126320973D01*
X92116279Y-126285750D01*
X92116281Y-126285749D01*
X92116286Y-126285748D01*
X92376263Y-126186315D01*
X92618993Y-126050089D01*
X92839301Y-125879972D01*
X93032492Y-125679592D01*
X93194449Y-125453218D01*
X93256888Y-125331772D01*
X93321712Y-125205690D01*
X93321714Y-125205683D01*
X93321719Y-125205675D01*
X93411591Y-124942239D01*
X93462148Y-124668526D01*
X93467224Y-124529630D01*
X104901685Y-124529630D01*
X104932128Y-124806301D01*
X104932130Y-124806312D01*
X105002529Y-125075593D01*
X105002531Y-125075599D01*
X105057807Y-125205675D01*
X105096424Y-125296549D01*
X105111393Y-125331772D01*
X105148508Y-125392587D01*
X105256390Y-125569360D01*
X105256397Y-125569369D01*
X105348125Y-125679592D01*
X105434442Y-125783312D01*
X105641745Y-125969056D01*
X105873883Y-126122637D01*
X106125909Y-126240782D01*
X106125916Y-126240784D01*
X106125918Y-126240785D01*
X106392439Y-126320970D01*
X106392446Y-126320971D01*
X106392451Y-126320973D01*
X106667828Y-126361500D01*
X106667833Y-126361500D01*
X106876494Y-126361500D01*
X106929412Y-126357626D01*
X107084601Y-126346268D01*
X107198155Y-126320973D01*
X107356279Y-126285750D01*
X107356281Y-126285749D01*
X107356286Y-126285748D01*
X107616263Y-126186315D01*
X107858993Y-126050089D01*
X108079301Y-125879972D01*
X108272492Y-125679592D01*
X108434449Y-125453218D01*
X108496888Y-125331772D01*
X108561712Y-125205690D01*
X108561714Y-125205683D01*
X108561719Y-125205675D01*
X108651591Y-124942239D01*
X108702148Y-124668526D01*
X108707224Y-124529630D01*
X160781685Y-124529630D01*
X160812128Y-124806301D01*
X160812130Y-124806312D01*
X160882529Y-125075593D01*
X160882531Y-125075599D01*
X160937807Y-125205675D01*
X160976424Y-125296549D01*
X160991393Y-125331772D01*
X161028508Y-125392587D01*
X161136390Y-125569360D01*
X161136397Y-125569369D01*
X161228125Y-125679592D01*
X161314442Y-125783312D01*
X161521745Y-125969056D01*
X161753883Y-126122637D01*
X162005909Y-126240782D01*
X162005916Y-126240784D01*
X162005918Y-126240785D01*
X162272439Y-126320970D01*
X162272446Y-126320971D01*
X162272451Y-126320973D01*
X162547828Y-126361500D01*
X162547833Y-126361500D01*
X162756494Y-126361500D01*
X162809412Y-126357626D01*
X162964601Y-126346268D01*
X163078155Y-126320973D01*
X163236279Y-126285750D01*
X163236281Y-126285749D01*
X163236286Y-126285748D01*
X163496263Y-126186315D01*
X163738993Y-126050089D01*
X163959301Y-125879972D01*
X164152492Y-125679592D01*
X164314449Y-125453218D01*
X164376888Y-125331772D01*
X164441712Y-125205690D01*
X164441714Y-125205683D01*
X164441719Y-125205675D01*
X164531591Y-124942239D01*
X164582148Y-124668526D01*
X164592314Y-124390368D01*
X164561871Y-124113694D01*
X164491469Y-123844401D01*
X164382607Y-123588228D01*
X164237607Y-123350636D01*
X164209615Y-123317000D01*
X164059559Y-123136689D01*
X164059553Y-123136683D01*
X163852255Y-122950944D01*
X163620119Y-122797364D01*
X163547441Y-122763294D01*
X163368091Y-122679218D01*
X163368086Y-122679216D01*
X163368081Y-122679214D01*
X163101560Y-122599029D01*
X163101546Y-122599026D01*
X162960568Y-122578279D01*
X162826172Y-122558500D01*
X162617511Y-122558500D01*
X162617506Y-122558500D01*
X162409399Y-122573732D01*
X162409385Y-122573734D01*
X162137720Y-122634249D01*
X162137713Y-122634252D01*
X161877734Y-122733686D01*
X161635010Y-122869909D01*
X161414694Y-123040031D01*
X161221511Y-123240404D01*
X161221509Y-123240406D01*
X161059552Y-123466780D01*
X161059549Y-123466784D01*
X160932287Y-123714309D01*
X160932278Y-123714331D01*
X160842412Y-123977747D01*
X160842408Y-123977765D01*
X160791852Y-124251474D01*
X160791851Y-124251481D01*
X160781685Y-124529630D01*
X108707224Y-124529630D01*
X108712314Y-124390368D01*
X108681871Y-124113694D01*
X108611469Y-123844401D01*
X108502607Y-123588228D01*
X108357607Y-123350636D01*
X108329615Y-123317000D01*
X108179559Y-123136689D01*
X108179553Y-123136683D01*
X107972255Y-122950944D01*
X107740119Y-122797364D01*
X107667441Y-122763294D01*
X107488091Y-122679218D01*
X107488086Y-122679216D01*
X107488081Y-122679214D01*
X107221560Y-122599029D01*
X107221546Y-122599026D01*
X107080568Y-122578279D01*
X106946172Y-122558500D01*
X106737511Y-122558500D01*
X106737506Y-122558500D01*
X106529399Y-122573732D01*
X106529385Y-122573734D01*
X106257720Y-122634249D01*
X106257713Y-122634252D01*
X105997734Y-122733686D01*
X105755010Y-122869909D01*
X105534694Y-123040031D01*
X105341511Y-123240404D01*
X105341509Y-123240406D01*
X105179552Y-123466780D01*
X105179549Y-123466784D01*
X105052287Y-123714309D01*
X105052278Y-123714331D01*
X104962412Y-123977747D01*
X104962408Y-123977765D01*
X104911852Y-124251474D01*
X104911851Y-124251481D01*
X104901685Y-124529630D01*
X93467224Y-124529630D01*
X93472314Y-124390368D01*
X93441871Y-124113694D01*
X93371469Y-123844401D01*
X93262607Y-123588228D01*
X93117607Y-123350636D01*
X93089615Y-123317000D01*
X92939559Y-123136689D01*
X92939553Y-123136683D01*
X92732255Y-122950944D01*
X92500119Y-122797364D01*
X92427441Y-122763294D01*
X92248091Y-122679218D01*
X92248086Y-122679216D01*
X92248081Y-122679214D01*
X91981560Y-122599029D01*
X91981546Y-122599026D01*
X91840568Y-122578279D01*
X91706172Y-122558500D01*
X91497511Y-122558500D01*
X91497506Y-122558500D01*
X91289399Y-122573732D01*
X91289385Y-122573734D01*
X91017720Y-122634249D01*
X91017713Y-122634252D01*
X90757734Y-122733686D01*
X90515010Y-122869909D01*
X90294694Y-123040031D01*
X90101511Y-123240404D01*
X90101509Y-123240406D01*
X89939552Y-123466780D01*
X89939549Y-123466784D01*
X89812287Y-123714309D01*
X89812278Y-123714331D01*
X89722412Y-123977747D01*
X89722408Y-123977765D01*
X89671852Y-124251474D01*
X89671851Y-124251481D01*
X89661685Y-124529630D01*
X37587224Y-124529630D01*
X37592314Y-124390368D01*
X37561871Y-124113694D01*
X37491469Y-123844401D01*
X37382607Y-123588228D01*
X37237607Y-123350636D01*
X37209615Y-123317000D01*
X37059559Y-123136689D01*
X37059553Y-123136683D01*
X36852255Y-122950944D01*
X36620119Y-122797364D01*
X36547441Y-122763294D01*
X36368091Y-122679218D01*
X36368086Y-122679216D01*
X36368081Y-122679214D01*
X36101560Y-122599029D01*
X36101546Y-122599026D01*
X35960568Y-122578279D01*
X35826172Y-122558500D01*
X35617511Y-122558500D01*
X35617506Y-122558500D01*
X35409399Y-122573732D01*
X35409385Y-122573734D01*
X35137720Y-122634249D01*
X35137713Y-122634252D01*
X34877734Y-122733686D01*
X34635010Y-122869909D01*
X34414694Y-123040031D01*
X34221511Y-123240404D01*
X34221509Y-123240406D01*
X34059552Y-123466780D01*
X34059549Y-123466784D01*
X33932287Y-123714309D01*
X33932278Y-123714331D01*
X33842412Y-123977747D01*
X33842408Y-123977765D01*
X33791852Y-124251474D01*
X33791851Y-124251481D01*
X33781685Y-124529630D01*
X20955500Y-124529630D01*
X20955500Y-120777000D01*
X48898271Y-120777000D01*
X48917166Y-121053239D01*
X48973502Y-121324347D01*
X48973503Y-121324350D01*
X49066225Y-121585244D01*
X49066224Y-121585244D01*
X49193615Y-121831095D01*
X49328402Y-122022043D01*
X50099828Y-121250616D01*
X50169902Y-121363038D01*
X50303368Y-121503444D01*
X50451208Y-121606343D01*
X49683221Y-122374329D01*
X49683221Y-122374330D01*
X49757061Y-122434403D01*
X49757074Y-122434411D01*
X49993654Y-122578279D01*
X50247616Y-122688590D01*
X50514236Y-122763294D01*
X50514243Y-122763295D01*
X50788554Y-122801000D01*
X51065446Y-122801000D01*
X51339756Y-122763295D01*
X51339763Y-122763294D01*
X51606383Y-122688590D01*
X51860345Y-122578279D01*
X52096924Y-122434413D01*
X52170777Y-122374329D01*
X51400190Y-121603742D01*
X51473939Y-121562809D01*
X51620925Y-121436625D01*
X51739502Y-121283436D01*
X51755129Y-121251576D01*
X52525596Y-122022043D01*
X52525597Y-122022043D01*
X52660384Y-121831095D01*
X52787774Y-121585244D01*
X52880496Y-121324350D01*
X52880497Y-121324347D01*
X52936833Y-121053239D01*
X52955728Y-120777004D01*
X61843513Y-120777004D01*
X61863432Y-121042812D01*
X61900902Y-121206980D01*
X61922748Y-121302692D01*
X62020134Y-121550826D01*
X62153414Y-121781674D01*
X62229655Y-121877277D01*
X62319615Y-121990083D01*
X62504074Y-122161235D01*
X62515014Y-122171386D01*
X62735257Y-122321545D01*
X62975415Y-122437199D01*
X62975416Y-122437199D01*
X62975419Y-122437201D01*
X63230137Y-122515771D01*
X63493720Y-122555500D01*
X63493721Y-122555500D01*
X63760279Y-122555500D01*
X63760280Y-122555500D01*
X64023863Y-122515771D01*
X64278581Y-122437201D01*
X64518744Y-122321545D01*
X64738986Y-122171386D01*
X64934388Y-121990079D01*
X65100586Y-121781674D01*
X65233866Y-121550826D01*
X65331252Y-121302692D01*
X65390567Y-121042815D01*
X65403339Y-120872389D01*
X65410487Y-120777004D01*
X74543513Y-120777004D01*
X74563432Y-121042812D01*
X74600902Y-121206980D01*
X74622748Y-121302692D01*
X74720134Y-121550826D01*
X74853414Y-121781674D01*
X74929655Y-121877277D01*
X75019615Y-121990083D01*
X75204074Y-122161235D01*
X75215014Y-122171386D01*
X75435257Y-122321545D01*
X75675415Y-122437199D01*
X75675416Y-122437199D01*
X75675419Y-122437201D01*
X75930137Y-122515771D01*
X76193720Y-122555500D01*
X76193721Y-122555500D01*
X76460279Y-122555500D01*
X76460280Y-122555500D01*
X76723863Y-122515771D01*
X76978581Y-122437201D01*
X77218744Y-122321545D01*
X77438986Y-122171386D01*
X77634388Y-121990079D01*
X77800586Y-121781674D01*
X77933866Y-121550826D01*
X78031252Y-121302692D01*
X78090567Y-121042815D01*
X78103339Y-120872389D01*
X78110487Y-120777004D01*
X120263513Y-120777004D01*
X120283432Y-121042812D01*
X120320902Y-121206980D01*
X120342748Y-121302692D01*
X120440134Y-121550826D01*
X120573414Y-121781674D01*
X120649655Y-121877277D01*
X120739615Y-121990083D01*
X120924074Y-122161235D01*
X120935014Y-122171386D01*
X121155257Y-122321545D01*
X121395415Y-122437199D01*
X121395416Y-122437199D01*
X121395419Y-122437201D01*
X121650137Y-122515771D01*
X121913720Y-122555500D01*
X121913721Y-122555500D01*
X122180279Y-122555500D01*
X122180280Y-122555500D01*
X122443863Y-122515771D01*
X122698581Y-122437201D01*
X122938744Y-122321545D01*
X123158986Y-122171386D01*
X123354388Y-121990079D01*
X123520586Y-121781674D01*
X123653866Y-121550826D01*
X123751252Y-121302692D01*
X123810567Y-121042815D01*
X123823339Y-120872389D01*
X123830487Y-120777004D01*
X132963513Y-120777004D01*
X132983432Y-121042812D01*
X133020902Y-121206980D01*
X133042748Y-121302692D01*
X133140134Y-121550826D01*
X133273414Y-121781674D01*
X133349655Y-121877277D01*
X133439615Y-121990083D01*
X133624074Y-122161235D01*
X133635014Y-122171386D01*
X133855257Y-122321545D01*
X134095415Y-122437199D01*
X134095416Y-122437199D01*
X134095419Y-122437201D01*
X134350137Y-122515771D01*
X134613720Y-122555500D01*
X134613721Y-122555500D01*
X134880279Y-122555500D01*
X134880280Y-122555500D01*
X135143863Y-122515771D01*
X135398581Y-122437201D01*
X135638744Y-122321545D01*
X135858986Y-122171386D01*
X136054388Y-121990079D01*
X136220586Y-121781674D01*
X136353866Y-121550826D01*
X136451252Y-121302692D01*
X136510567Y-121042815D01*
X136523339Y-120872389D01*
X136530487Y-120777004D01*
X145663513Y-120777004D01*
X145683432Y-121042812D01*
X145720902Y-121206980D01*
X145742748Y-121302692D01*
X145840134Y-121550826D01*
X145973414Y-121781674D01*
X146049655Y-121877277D01*
X146139615Y-121990083D01*
X146324074Y-122161235D01*
X146335014Y-122171386D01*
X146555257Y-122321545D01*
X146795415Y-122437199D01*
X146795416Y-122437199D01*
X146795419Y-122437201D01*
X147050137Y-122515771D01*
X147313720Y-122555500D01*
X147313721Y-122555500D01*
X147580279Y-122555500D01*
X147580280Y-122555500D01*
X147843863Y-122515771D01*
X148098581Y-122437201D01*
X148338744Y-122321545D01*
X148558986Y-122171386D01*
X148754388Y-121990079D01*
X148920586Y-121781674D01*
X149053866Y-121550826D01*
X149151252Y-121302692D01*
X149210567Y-121042815D01*
X149223339Y-120872389D01*
X149230487Y-120777004D01*
X149230487Y-120776995D01*
X149210567Y-120511187D01*
X149210567Y-120511185D01*
X149151252Y-120251308D01*
X149053866Y-120003174D01*
X148920586Y-119772326D01*
X148754388Y-119563921D01*
X148754387Y-119563920D01*
X148754384Y-119563916D01*
X148558986Y-119382614D01*
X148449565Y-119308012D01*
X148338744Y-119232455D01*
X148338740Y-119232453D01*
X148338737Y-119232451D01*
X148338736Y-119232450D01*
X148098583Y-119116800D01*
X148098585Y-119116800D01*
X147843871Y-119038231D01*
X147843867Y-119038230D01*
X147843863Y-119038229D01*
X147717074Y-119019118D01*
X147580285Y-118998500D01*
X147580280Y-118998500D01*
X147313720Y-118998500D01*
X147313714Y-118998500D01*
X147149566Y-119023242D01*
X147050137Y-119038229D01*
X147050134Y-119038230D01*
X147050128Y-119038231D01*
X146795415Y-119116800D01*
X146555265Y-119232450D01*
X146555263Y-119232451D01*
X146335013Y-119382614D01*
X146139615Y-119563916D01*
X145973414Y-119772326D01*
X145840134Y-120003173D01*
X145742750Y-120251302D01*
X145742745Y-120251319D01*
X145683432Y-120511187D01*
X145663513Y-120776995D01*
X145663513Y-120777004D01*
X136530487Y-120777004D01*
X136530487Y-120776995D01*
X136510567Y-120511187D01*
X136510567Y-120511185D01*
X136451252Y-120251308D01*
X136353866Y-120003174D01*
X136220586Y-119772326D01*
X136054388Y-119563921D01*
X136054387Y-119563920D01*
X136054384Y-119563916D01*
X135858986Y-119382614D01*
X135749565Y-119308012D01*
X135638744Y-119232455D01*
X135638740Y-119232453D01*
X135638737Y-119232451D01*
X135638736Y-119232450D01*
X135398583Y-119116800D01*
X135398585Y-119116800D01*
X135143871Y-119038231D01*
X135143867Y-119038230D01*
X135143863Y-119038229D01*
X135017074Y-119019118D01*
X134880285Y-118998500D01*
X134880280Y-118998500D01*
X134613720Y-118998500D01*
X134613714Y-118998500D01*
X134449566Y-119023242D01*
X134350137Y-119038229D01*
X134350134Y-119038230D01*
X134350128Y-119038231D01*
X134095415Y-119116800D01*
X133855265Y-119232450D01*
X133855263Y-119232451D01*
X133635013Y-119382614D01*
X133439615Y-119563916D01*
X133273414Y-119772326D01*
X133140134Y-120003173D01*
X133042750Y-120251302D01*
X133042745Y-120251319D01*
X132983432Y-120511187D01*
X132963513Y-120776995D01*
X132963513Y-120777004D01*
X123830487Y-120777004D01*
X123830487Y-120776995D01*
X123810567Y-120511187D01*
X123810567Y-120511185D01*
X123751252Y-120251308D01*
X123653866Y-120003174D01*
X123520586Y-119772326D01*
X123354388Y-119563921D01*
X123354387Y-119563920D01*
X123354384Y-119563916D01*
X123158986Y-119382614D01*
X123049565Y-119308012D01*
X122938744Y-119232455D01*
X122938740Y-119232453D01*
X122938737Y-119232451D01*
X122938736Y-119232450D01*
X122698583Y-119116800D01*
X122698585Y-119116800D01*
X122443871Y-119038231D01*
X122443867Y-119038230D01*
X122443863Y-119038229D01*
X122317074Y-119019118D01*
X122180285Y-118998500D01*
X122180280Y-118998500D01*
X121913720Y-118998500D01*
X121913714Y-118998500D01*
X121749566Y-119023242D01*
X121650137Y-119038229D01*
X121650134Y-119038230D01*
X121650128Y-119038231D01*
X121395415Y-119116800D01*
X121155265Y-119232450D01*
X121155263Y-119232451D01*
X120935013Y-119382614D01*
X120739615Y-119563916D01*
X120573414Y-119772326D01*
X120440134Y-120003173D01*
X120342750Y-120251302D01*
X120342745Y-120251319D01*
X120283432Y-120511187D01*
X120263513Y-120776995D01*
X120263513Y-120777004D01*
X78110487Y-120777004D01*
X78110487Y-120776995D01*
X78090567Y-120511187D01*
X78090567Y-120511185D01*
X78031252Y-120251308D01*
X77933866Y-120003174D01*
X77800586Y-119772326D01*
X77634388Y-119563921D01*
X77634387Y-119563920D01*
X77634384Y-119563916D01*
X77438986Y-119382614D01*
X77329565Y-119308012D01*
X77218744Y-119232455D01*
X77218740Y-119232453D01*
X77218737Y-119232451D01*
X77218736Y-119232450D01*
X76978583Y-119116800D01*
X76978585Y-119116800D01*
X76723871Y-119038231D01*
X76723867Y-119038230D01*
X76723863Y-119038229D01*
X76597074Y-119019118D01*
X76460285Y-118998500D01*
X76460280Y-118998500D01*
X76193720Y-118998500D01*
X76193714Y-118998500D01*
X76029566Y-119023242D01*
X75930137Y-119038229D01*
X75930134Y-119038230D01*
X75930128Y-119038231D01*
X75675415Y-119116800D01*
X75435265Y-119232450D01*
X75435263Y-119232451D01*
X75215013Y-119382614D01*
X75019615Y-119563916D01*
X74853414Y-119772326D01*
X74720134Y-120003173D01*
X74622750Y-120251302D01*
X74622745Y-120251319D01*
X74563432Y-120511187D01*
X74543513Y-120776995D01*
X74543513Y-120777004D01*
X65410487Y-120777004D01*
X65410487Y-120776995D01*
X65390567Y-120511187D01*
X65390567Y-120511185D01*
X65331252Y-120251308D01*
X65233866Y-120003174D01*
X65100586Y-119772326D01*
X64934388Y-119563921D01*
X64934387Y-119563920D01*
X64934384Y-119563916D01*
X64738986Y-119382614D01*
X64629565Y-119308012D01*
X64518744Y-119232455D01*
X64518740Y-119232453D01*
X64518737Y-119232451D01*
X64518736Y-119232450D01*
X64278583Y-119116800D01*
X64278585Y-119116800D01*
X64023871Y-119038231D01*
X64023867Y-119038230D01*
X64023863Y-119038229D01*
X63897074Y-119019118D01*
X63760285Y-118998500D01*
X63760280Y-118998500D01*
X63493720Y-118998500D01*
X63493714Y-118998500D01*
X63329566Y-119023242D01*
X63230137Y-119038229D01*
X63230134Y-119038230D01*
X63230128Y-119038231D01*
X62975415Y-119116800D01*
X62735265Y-119232450D01*
X62735263Y-119232451D01*
X62515013Y-119382614D01*
X62319615Y-119563916D01*
X62153414Y-119772326D01*
X62020134Y-120003173D01*
X61922750Y-120251302D01*
X61922745Y-120251319D01*
X61863432Y-120511187D01*
X61843513Y-120776995D01*
X61843513Y-120777004D01*
X52955728Y-120777004D01*
X52955728Y-120777000D01*
X52936833Y-120500760D01*
X52880497Y-120229652D01*
X52880496Y-120229649D01*
X52787774Y-119968755D01*
X52787775Y-119968755D01*
X52660384Y-119722904D01*
X52525596Y-119531955D01*
X51754169Y-120303381D01*
X51684098Y-120190962D01*
X51550632Y-120050556D01*
X51402791Y-119947655D01*
X52170777Y-119179669D01*
X52096928Y-119119590D01*
X52096925Y-119119588D01*
X51860345Y-118975720D01*
X51606383Y-118865409D01*
X51339763Y-118790705D01*
X51339756Y-118790704D01*
X51065446Y-118753000D01*
X50788554Y-118753000D01*
X50514243Y-118790704D01*
X50514236Y-118790705D01*
X50247616Y-118865409D01*
X49993654Y-118975720D01*
X49757077Y-119119586D01*
X49757067Y-119119592D01*
X49683221Y-119179669D01*
X50453809Y-119950257D01*
X50380061Y-119991191D01*
X50233075Y-120117375D01*
X50114498Y-120270564D01*
X50098870Y-120302423D01*
X49328402Y-119531955D01*
X49328401Y-119531955D01*
X49193619Y-119722897D01*
X49193615Y-119722903D01*
X49066225Y-119968755D01*
X48973503Y-120229649D01*
X48973502Y-120229652D01*
X48917166Y-120500760D01*
X48898271Y-120777000D01*
X20955500Y-120777000D01*
X20955500Y-116964000D01*
X20975185Y-116896961D01*
X21027989Y-116851206D01*
X21079500Y-116840000D01*
X168216500Y-116840000D01*
X168283539Y-116859685D01*
X168329294Y-116912489D01*
X168340500Y-116964000D01*
X168340500Y-127696442D01*
X168355345Y-127880342D01*
X168385091Y-128001024D01*
X168414251Y-128119331D01*
X168510730Y-128345776D01*
X168642284Y-128553811D01*
X168642287Y-128553815D01*
X168805503Y-128738048D01*
X168996166Y-128893719D01*
X168996169Y-128893722D01*
X169110187Y-128959550D01*
X169209332Y-129016791D01*
X169439478Y-129104074D01*
X169680644Y-129153309D01*
X169754426Y-129156282D01*
X169926578Y-129163220D01*
X169926579Y-129163220D01*
X169926580Y-129163219D01*
X169926585Y-129163220D01*
X170170931Y-129133551D01*
X170407354Y-129065070D01*
X170629730Y-128959551D01*
X170832300Y-128819727D01*
X171009817Y-128649220D01*
X171157684Y-128452444D01*
X171272072Y-128234497D01*
X171350017Y-128001024D01*
X171389500Y-127758070D01*
X171389500Y-126542844D01*
X222255000Y-126542844D01*
X222261401Y-126602372D01*
X222261403Y-126602379D01*
X222311645Y-126737086D01*
X222311649Y-126737093D01*
X222397809Y-126852187D01*
X222397812Y-126852190D01*
X222512906Y-126938350D01*
X222512913Y-126938354D01*
X222647620Y-126988596D01*
X222647627Y-126988598D01*
X222707155Y-126994999D01*
X222707172Y-126995000D01*
X223270000Y-126995000D01*
X223270000Y-126176494D01*
X223374839Y-126224373D01*
X223483527Y-126240000D01*
X223556473Y-126240000D01*
X223665161Y-126224373D01*
X223770000Y-126176494D01*
X223770000Y-126995000D01*
X224332828Y-126995000D01*
X224332844Y-126994999D01*
X224392372Y-126988598D01*
X224392379Y-126988596D01*
X224527086Y-126938354D01*
X224527093Y-126938350D01*
X224642187Y-126852190D01*
X224642190Y-126852187D01*
X224728350Y-126737093D01*
X224728354Y-126737086D01*
X224778596Y-126602379D01*
X224778598Y-126602372D01*
X224784999Y-126542844D01*
X224785000Y-126542827D01*
X224785000Y-125980000D01*
X223965572Y-125980000D01*
X223988682Y-125944040D01*
X224030000Y-125803327D01*
X224030000Y-125730000D01*
X225035567Y-125730000D01*
X225055250Y-125929855D01*
X225113548Y-126122038D01*
X225208210Y-126299138D01*
X225208215Y-126299144D01*
X225335615Y-126454384D01*
X225490855Y-126581784D01*
X225490861Y-126581789D01*
X225667961Y-126676451D01*
X225667963Y-126676451D01*
X225667966Y-126676453D01*
X225860143Y-126734749D01*
X226060000Y-126754433D01*
X226259857Y-126734749D01*
X226452034Y-126676453D01*
X226452038Y-126676451D01*
X226629138Y-126581789D01*
X226629140Y-126581786D01*
X226629144Y-126581785D01*
X226784384Y-126454384D01*
X226911785Y-126299144D01*
X226911786Y-126299140D01*
X226911789Y-126299138D01*
X227006451Y-126122038D01*
X227006451Y-126122037D01*
X227006453Y-126122034D01*
X227064749Y-125929857D01*
X227084433Y-125730000D01*
X227575567Y-125730000D01*
X227595250Y-125929855D01*
X227653548Y-126122038D01*
X227748210Y-126299138D01*
X227748215Y-126299144D01*
X227875615Y-126454384D01*
X228030855Y-126581784D01*
X228030861Y-126581789D01*
X228207961Y-126676451D01*
X228207963Y-126676451D01*
X228207966Y-126676453D01*
X228400143Y-126734749D01*
X228600000Y-126754433D01*
X228799857Y-126734749D01*
X228992034Y-126676453D01*
X228992038Y-126676451D01*
X229169138Y-126581789D01*
X229169140Y-126581786D01*
X229169144Y-126581785D01*
X229324384Y-126454384D01*
X229451785Y-126299144D01*
X229451786Y-126299140D01*
X229451789Y-126299138D01*
X229546451Y-126122038D01*
X229546451Y-126122037D01*
X229546453Y-126122034D01*
X229604749Y-125929857D01*
X229624433Y-125730000D01*
X230115567Y-125730000D01*
X230135250Y-125929855D01*
X230193548Y-126122038D01*
X230288210Y-126299138D01*
X230288215Y-126299144D01*
X230415615Y-126454384D01*
X230570855Y-126581784D01*
X230570861Y-126581789D01*
X230747961Y-126676451D01*
X230747963Y-126676451D01*
X230747966Y-126676453D01*
X230940143Y-126734749D01*
X231140000Y-126754433D01*
X231339857Y-126734749D01*
X231532034Y-126676453D01*
X231532038Y-126676451D01*
X231709138Y-126581789D01*
X231709140Y-126581786D01*
X231709144Y-126581785D01*
X231864384Y-126454384D01*
X231991785Y-126299144D01*
X231991786Y-126299140D01*
X231991789Y-126299138D01*
X232086451Y-126122038D01*
X232086451Y-126122037D01*
X232086453Y-126122034D01*
X232144749Y-125929857D01*
X232164433Y-125730000D01*
X232144749Y-125530143D01*
X232086453Y-125337966D01*
X232086451Y-125337963D01*
X232086451Y-125337961D01*
X231991789Y-125160861D01*
X231991784Y-125160855D01*
X231864384Y-125005615D01*
X231709144Y-124878215D01*
X231709138Y-124878210D01*
X231532038Y-124783548D01*
X231339855Y-124725250D01*
X231140000Y-124705567D01*
X230940144Y-124725250D01*
X230747961Y-124783548D01*
X230570861Y-124878210D01*
X230570855Y-124878215D01*
X230415615Y-125005615D01*
X230288215Y-125160855D01*
X230288210Y-125160861D01*
X230193548Y-125337961D01*
X230135250Y-125530144D01*
X230115567Y-125730000D01*
X229624433Y-125730000D01*
X229604749Y-125530143D01*
X229546453Y-125337966D01*
X229546451Y-125337963D01*
X229546451Y-125337961D01*
X229451789Y-125160861D01*
X229451784Y-125160855D01*
X229324384Y-125005615D01*
X229169144Y-124878215D01*
X229169138Y-124878210D01*
X228992038Y-124783548D01*
X228799855Y-124725250D01*
X228600000Y-124705567D01*
X228400144Y-124725250D01*
X228207961Y-124783548D01*
X228030861Y-124878210D01*
X228030855Y-124878215D01*
X227875615Y-125005615D01*
X227748215Y-125160855D01*
X227748210Y-125160861D01*
X227653548Y-125337961D01*
X227595250Y-125530144D01*
X227575567Y-125730000D01*
X227084433Y-125730000D01*
X227064749Y-125530143D01*
X227006453Y-125337966D01*
X227006451Y-125337963D01*
X227006451Y-125337961D01*
X226911789Y-125160861D01*
X226911784Y-125160855D01*
X226784384Y-125005615D01*
X226629144Y-124878215D01*
X226629138Y-124878210D01*
X226452038Y-124783548D01*
X226259855Y-124725250D01*
X226060000Y-124705567D01*
X225860144Y-124725250D01*
X225667961Y-124783548D01*
X225490861Y-124878210D01*
X225490855Y-124878215D01*
X225335615Y-125005615D01*
X225208215Y-125160855D01*
X225208210Y-125160861D01*
X225113548Y-125337961D01*
X225055250Y-125530144D01*
X225035567Y-125730000D01*
X224030000Y-125730000D01*
X224030000Y-125656673D01*
X223988682Y-125515960D01*
X223965572Y-125480000D01*
X224785000Y-125480000D01*
X224785000Y-124917172D01*
X224784999Y-124917155D01*
X224778598Y-124857627D01*
X224778596Y-124857620D01*
X224728354Y-124722913D01*
X224728350Y-124722906D01*
X224642190Y-124607812D01*
X224642187Y-124607809D01*
X224527093Y-124521649D01*
X224527086Y-124521645D01*
X224392379Y-124471403D01*
X224392372Y-124471401D01*
X224332844Y-124465000D01*
X223770000Y-124465000D01*
X223770000Y-125283505D01*
X223665161Y-125235627D01*
X223556473Y-125220000D01*
X223483527Y-125220000D01*
X223374839Y-125235627D01*
X223270000Y-125283505D01*
X223270000Y-124465000D01*
X222707155Y-124465000D01*
X222647627Y-124471401D01*
X222647620Y-124471403D01*
X222512913Y-124521645D01*
X222512906Y-124521649D01*
X222397812Y-124607809D01*
X222397809Y-124607812D01*
X222311649Y-124722906D01*
X222311645Y-124722913D01*
X222261403Y-124857620D01*
X222261401Y-124857627D01*
X222255000Y-124917155D01*
X222255000Y-125480000D01*
X223074428Y-125480000D01*
X223051318Y-125515960D01*
X223010000Y-125656673D01*
X223010000Y-125803327D01*
X223051318Y-125944040D01*
X223074428Y-125980000D01*
X222255000Y-125980000D01*
X222255000Y-126542844D01*
X171389500Y-126542844D01*
X171389500Y-116964000D01*
X171409185Y-116896961D01*
X171461989Y-116851206D01*
X171513500Y-116840000D01*
X181057299Y-116840000D01*
X181124338Y-116859685D01*
X181144980Y-116876319D01*
X186653681Y-122385020D01*
X186687166Y-122446343D01*
X186690000Y-122472701D01*
X186690000Y-123825000D01*
X187250704Y-123825000D01*
X187317743Y-123844685D01*
X187342854Y-123866028D01*
X187404248Y-123934214D01*
X187404255Y-123934220D01*
X187544720Y-124036274D01*
X187544725Y-124036277D01*
X187703341Y-124106898D01*
X187703346Y-124106900D01*
X187873184Y-124143000D01*
X187873185Y-124143000D01*
X188046814Y-124143000D01*
X188046816Y-124143000D01*
X188216654Y-124106900D01*
X188375275Y-124036277D01*
X188515746Y-123934219D01*
X188577146Y-123866028D01*
X188636632Y-123829379D01*
X188669296Y-123825000D01*
X189028704Y-123825000D01*
X189095743Y-123844685D01*
X189120854Y-123866028D01*
X189182248Y-123934214D01*
X189182255Y-123934220D01*
X189322720Y-124036274D01*
X189322725Y-124036277D01*
X189481341Y-124106898D01*
X189481346Y-124106900D01*
X189651184Y-124143000D01*
X189651185Y-124143000D01*
X189824814Y-124143000D01*
X189824816Y-124143000D01*
X189994654Y-124106900D01*
X190153275Y-124036277D01*
X190293746Y-123934219D01*
X190355146Y-123866028D01*
X190414632Y-123829379D01*
X190447296Y-123825000D01*
X190769083Y-123825000D01*
X190836122Y-123844685D01*
X190881877Y-123897489D01*
X190891821Y-123966647D01*
X190885448Y-123988740D01*
X190886263Y-123989005D01*
X190830601Y-124160314D01*
X190830600Y-124160317D01*
X190812450Y-124333000D01*
X190830600Y-124505682D01*
X190830601Y-124505685D01*
X190883508Y-124668518D01*
X190884255Y-124670815D01*
X190971071Y-124821185D01*
X191087254Y-124950219D01*
X191227720Y-125052274D01*
X191227725Y-125052277D01*
X191386341Y-125122898D01*
X191386346Y-125122900D01*
X191556184Y-125159000D01*
X191556185Y-125159000D01*
X191729814Y-125159000D01*
X191729816Y-125159000D01*
X191899654Y-125122900D01*
X192058275Y-125052277D01*
X192198746Y-124950219D01*
X192314929Y-124821185D01*
X192401745Y-124670815D01*
X192455400Y-124505681D01*
X192473550Y-124333000D01*
X192455400Y-124160319D01*
X192401745Y-123995185D01*
X192401744Y-123995184D01*
X192399737Y-123989005D01*
X192402133Y-123988226D01*
X192394354Y-123930179D01*
X192423985Y-123866904D01*
X192483122Y-123829694D01*
X192516917Y-123825000D01*
X219710000Y-123825000D01*
X219710000Y-118287844D01*
X222255000Y-118287844D01*
X222261401Y-118347372D01*
X222261403Y-118347379D01*
X222311645Y-118482086D01*
X222311649Y-118482093D01*
X222397809Y-118597187D01*
X222397812Y-118597190D01*
X222512906Y-118683350D01*
X222512913Y-118683354D01*
X222647620Y-118733596D01*
X222647627Y-118733598D01*
X222707155Y-118739999D01*
X222707172Y-118740000D01*
X223270000Y-118740000D01*
X223270000Y-117921494D01*
X223374839Y-117969373D01*
X223483527Y-117985000D01*
X223556473Y-117985000D01*
X223665161Y-117969373D01*
X223770000Y-117921494D01*
X223770000Y-118740000D01*
X224332828Y-118740000D01*
X224332844Y-118739999D01*
X224392372Y-118733598D01*
X224392379Y-118733596D01*
X224527086Y-118683354D01*
X224527093Y-118683350D01*
X224642187Y-118597190D01*
X224642190Y-118597187D01*
X224728350Y-118482093D01*
X224728354Y-118482086D01*
X224778596Y-118347379D01*
X224778598Y-118347372D01*
X224784999Y-118287844D01*
X224785000Y-118287827D01*
X224785000Y-117725000D01*
X223965572Y-117725000D01*
X223988682Y-117689040D01*
X224030000Y-117548327D01*
X224030000Y-117475000D01*
X225035567Y-117475000D01*
X225055250Y-117674855D01*
X225113548Y-117867038D01*
X225208210Y-118044138D01*
X225208215Y-118044144D01*
X225335615Y-118199384D01*
X225490855Y-118326784D01*
X225490861Y-118326789D01*
X225667961Y-118421451D01*
X225667963Y-118421451D01*
X225667966Y-118421453D01*
X225860143Y-118479749D01*
X226060000Y-118499433D01*
X226259857Y-118479749D01*
X226452034Y-118421453D01*
X226452038Y-118421451D01*
X226629138Y-118326789D01*
X226629140Y-118326786D01*
X226629144Y-118326785D01*
X226784384Y-118199384D01*
X226911785Y-118044144D01*
X226911786Y-118044140D01*
X226911789Y-118044138D01*
X227006451Y-117867038D01*
X227006451Y-117867037D01*
X227006453Y-117867034D01*
X227064749Y-117674857D01*
X227084433Y-117475000D01*
X227575567Y-117475000D01*
X227595250Y-117674855D01*
X227653548Y-117867038D01*
X227748210Y-118044138D01*
X227748215Y-118044144D01*
X227875615Y-118199384D01*
X228030855Y-118326784D01*
X228030861Y-118326789D01*
X228207961Y-118421451D01*
X228207963Y-118421451D01*
X228207966Y-118421453D01*
X228400143Y-118479749D01*
X228600000Y-118499433D01*
X228799857Y-118479749D01*
X228992034Y-118421453D01*
X228992038Y-118421451D01*
X229169138Y-118326789D01*
X229169140Y-118326786D01*
X229169144Y-118326785D01*
X229324384Y-118199384D01*
X229451785Y-118044144D01*
X229451786Y-118044140D01*
X229451789Y-118044138D01*
X229546451Y-117867038D01*
X229546451Y-117867037D01*
X229546453Y-117867034D01*
X229604749Y-117674857D01*
X229624433Y-117475000D01*
X230115567Y-117475000D01*
X230135250Y-117674855D01*
X230193548Y-117867038D01*
X230288210Y-118044138D01*
X230288215Y-118044144D01*
X230415615Y-118199384D01*
X230570855Y-118326784D01*
X230570861Y-118326789D01*
X230747961Y-118421451D01*
X230747963Y-118421451D01*
X230747966Y-118421453D01*
X230940143Y-118479749D01*
X231140000Y-118499433D01*
X231339857Y-118479749D01*
X231532034Y-118421453D01*
X231532038Y-118421451D01*
X231709138Y-118326789D01*
X231709140Y-118326786D01*
X231709144Y-118326785D01*
X231864384Y-118199384D01*
X231991785Y-118044144D01*
X231991786Y-118044140D01*
X231991789Y-118044138D01*
X232086451Y-117867038D01*
X232086451Y-117867037D01*
X232086453Y-117867034D01*
X232144749Y-117674857D01*
X232164433Y-117475000D01*
X232144749Y-117275143D01*
X232086453Y-117082966D01*
X232086451Y-117082963D01*
X232086451Y-117082961D01*
X231991789Y-116905861D01*
X231991784Y-116905855D01*
X231864384Y-116750615D01*
X231709144Y-116623215D01*
X231709138Y-116623210D01*
X231532038Y-116528548D01*
X231339855Y-116470250D01*
X231140000Y-116450567D01*
X230940144Y-116470250D01*
X230747961Y-116528548D01*
X230570861Y-116623210D01*
X230570855Y-116623215D01*
X230415615Y-116750615D01*
X230288215Y-116905855D01*
X230288210Y-116905861D01*
X230193548Y-117082961D01*
X230135250Y-117275144D01*
X230115567Y-117475000D01*
X229624433Y-117475000D01*
X229604749Y-117275143D01*
X229546453Y-117082966D01*
X229546451Y-117082963D01*
X229546451Y-117082961D01*
X229451789Y-116905861D01*
X229451784Y-116905855D01*
X229324384Y-116750615D01*
X229169144Y-116623215D01*
X229169138Y-116623210D01*
X228992038Y-116528548D01*
X228799855Y-116470250D01*
X228600000Y-116450567D01*
X228400144Y-116470250D01*
X228207961Y-116528548D01*
X228030861Y-116623210D01*
X228030855Y-116623215D01*
X227875615Y-116750615D01*
X227748215Y-116905855D01*
X227748210Y-116905861D01*
X227653548Y-117082961D01*
X227595250Y-117275144D01*
X227575567Y-117475000D01*
X227084433Y-117475000D01*
X227064749Y-117275143D01*
X227006453Y-117082966D01*
X227006451Y-117082963D01*
X227006451Y-117082961D01*
X226911789Y-116905861D01*
X226911784Y-116905855D01*
X226784384Y-116750615D01*
X226629144Y-116623215D01*
X226629138Y-116623210D01*
X226452038Y-116528548D01*
X226259855Y-116470250D01*
X226060000Y-116450567D01*
X225860144Y-116470250D01*
X225667961Y-116528548D01*
X225490861Y-116623210D01*
X225490855Y-116623215D01*
X225335615Y-116750615D01*
X225208215Y-116905855D01*
X225208210Y-116905861D01*
X225113548Y-117082961D01*
X225055250Y-117275144D01*
X225035567Y-117475000D01*
X224030000Y-117475000D01*
X224030000Y-117401673D01*
X223988682Y-117260960D01*
X223965572Y-117225000D01*
X224785000Y-117225000D01*
X224785000Y-116662172D01*
X224784999Y-116662155D01*
X224778598Y-116602627D01*
X224778596Y-116602620D01*
X224728354Y-116467913D01*
X224728350Y-116467906D01*
X224642190Y-116352812D01*
X224642187Y-116352809D01*
X224527093Y-116266649D01*
X224527086Y-116266645D01*
X224392379Y-116216403D01*
X224392372Y-116216401D01*
X224332844Y-116210000D01*
X223770000Y-116210000D01*
X223770000Y-117028505D01*
X223665161Y-116980627D01*
X223556473Y-116965000D01*
X223483527Y-116965000D01*
X223374839Y-116980627D01*
X223270000Y-117028505D01*
X223270000Y-116210000D01*
X222707155Y-116210000D01*
X222647627Y-116216401D01*
X222647620Y-116216403D01*
X222512913Y-116266645D01*
X222512906Y-116266649D01*
X222397812Y-116352809D01*
X222397809Y-116352812D01*
X222311649Y-116467906D01*
X222311645Y-116467913D01*
X222261403Y-116602620D01*
X222261401Y-116602627D01*
X222255000Y-116662155D01*
X222255000Y-117225000D01*
X223074428Y-117225000D01*
X223051318Y-117260960D01*
X223010000Y-117401673D01*
X223010000Y-117548327D01*
X223051318Y-117689040D01*
X223074428Y-117725000D01*
X222255000Y-117725000D01*
X222255000Y-118287844D01*
X219710000Y-118287844D01*
X219710000Y-111017523D01*
X219729685Y-110950484D01*
X219746319Y-110929842D01*
X220166094Y-110510067D01*
X222697290Y-107978870D01*
X222702459Y-107974250D01*
X222731683Y-107950947D01*
X222775049Y-107901309D01*
X222777882Y-107898278D01*
X222786010Y-107890152D01*
X222812069Y-107858937D01*
X222874630Y-107787332D01*
X222876613Y-107784012D01*
X222887880Y-107768131D01*
X222890366Y-107765154D01*
X222937288Y-107682459D01*
X222986064Y-107600822D01*
X222987428Y-107597185D01*
X222995672Y-107579563D01*
X222997587Y-107576190D01*
X223028990Y-107486442D01*
X223062405Y-107397411D01*
X223063098Y-107393588D01*
X223068063Y-107374778D01*
X223069345Y-107371118D01*
X223084218Y-107277210D01*
X223088394Y-107254197D01*
X223101199Y-107183641D01*
X223101199Y-107179752D01*
X223102726Y-107160353D01*
X223103332Y-107156529D01*
X223101199Y-107061472D01*
X223101199Y-106345000D01*
X227020398Y-106345000D01*
X227040757Y-106551716D01*
X227101056Y-106750496D01*
X227198969Y-106933677D01*
X227198974Y-106933684D01*
X227330747Y-107094252D01*
X227439667Y-107183639D01*
X227491317Y-107226027D01*
X227491320Y-107226028D01*
X227491322Y-107226030D01*
X227674503Y-107323943D01*
X227674505Y-107323943D01*
X227674508Y-107323945D01*
X227873282Y-107384242D01*
X228080000Y-107404602D01*
X228286718Y-107384242D01*
X228485492Y-107323945D01*
X228668683Y-107226027D01*
X228829252Y-107094252D01*
X228961027Y-106933683D01*
X229045703Y-106775266D01*
X229058943Y-106750496D01*
X229058943Y-106750495D01*
X229058945Y-106750492D01*
X229119242Y-106551718D01*
X229139602Y-106345000D01*
X229790398Y-106345000D01*
X229810757Y-106551716D01*
X229871056Y-106750496D01*
X229968969Y-106933677D01*
X229968974Y-106933684D01*
X230100747Y-107094252D01*
X230209667Y-107183639D01*
X230261317Y-107226027D01*
X230261320Y-107226028D01*
X230261322Y-107226030D01*
X230444503Y-107323943D01*
X230444505Y-107323943D01*
X230444508Y-107323945D01*
X230643282Y-107384242D01*
X230850000Y-107404602D01*
X231056718Y-107384242D01*
X231255492Y-107323945D01*
X231438683Y-107226027D01*
X231599252Y-107094252D01*
X231731027Y-106933683D01*
X231815703Y-106775266D01*
X231828943Y-106750496D01*
X231828943Y-106750495D01*
X231828945Y-106750492D01*
X231889242Y-106551718D01*
X231909602Y-106345000D01*
X231889242Y-106138282D01*
X231828945Y-105939508D01*
X231828943Y-105939505D01*
X231828943Y-105939503D01*
X231731030Y-105756322D01*
X231731028Y-105756320D01*
X231731027Y-105756317D01*
X231661655Y-105671786D01*
X231599252Y-105595747D01*
X231438684Y-105463974D01*
X231438677Y-105463969D01*
X231255496Y-105366056D01*
X231056716Y-105305757D01*
X230850000Y-105285398D01*
X230643283Y-105305757D01*
X230444503Y-105366056D01*
X230261322Y-105463969D01*
X230261315Y-105463974D01*
X230100747Y-105595747D01*
X229968974Y-105756315D01*
X229968969Y-105756322D01*
X229871056Y-105939503D01*
X229810757Y-106138283D01*
X229790398Y-106345000D01*
X229139602Y-106345000D01*
X229119242Y-106138282D01*
X229058945Y-105939508D01*
X229058943Y-105939505D01*
X229058943Y-105939503D01*
X228961030Y-105756322D01*
X228961028Y-105756320D01*
X228961027Y-105756317D01*
X228891655Y-105671786D01*
X228829252Y-105595747D01*
X228668684Y-105463974D01*
X228668677Y-105463969D01*
X228485496Y-105366056D01*
X228286716Y-105305757D01*
X228080000Y-105285398D01*
X227873283Y-105305757D01*
X227674503Y-105366056D01*
X227491322Y-105463969D01*
X227491315Y-105463974D01*
X227330747Y-105595747D01*
X227198974Y-105756315D01*
X227198969Y-105756322D01*
X227101056Y-105939503D01*
X227040757Y-106138283D01*
X227020398Y-106345000D01*
X223101199Y-106345000D01*
X223101199Y-103505000D01*
X225635398Y-103505000D01*
X225655757Y-103711716D01*
X225716056Y-103910496D01*
X225813969Y-104093677D01*
X225813974Y-104093684D01*
X225945747Y-104254252D01*
X226038129Y-104330067D01*
X226106317Y-104386027D01*
X226106320Y-104386028D01*
X226106322Y-104386030D01*
X226289503Y-104483943D01*
X226289505Y-104483943D01*
X226289508Y-104483945D01*
X226488282Y-104544242D01*
X226695000Y-104564602D01*
X226901718Y-104544242D01*
X227100492Y-104483945D01*
X227142050Y-104461732D01*
X227249495Y-104404301D01*
X227283683Y-104386027D01*
X227444252Y-104254252D01*
X227576027Y-104093683D01*
X227662129Y-103932598D01*
X227673943Y-103910496D01*
X227673943Y-103910495D01*
X227673945Y-103910492D01*
X227734242Y-103711718D01*
X227754602Y-103505002D01*
X228160034Y-103505002D01*
X228179858Y-103731599D01*
X228179860Y-103731610D01*
X228238730Y-103951317D01*
X228238734Y-103951326D01*
X228334865Y-104157481D01*
X228334866Y-104157483D01*
X228385973Y-104230471D01*
X228385974Y-104230472D01*
X228942368Y-103674077D01*
X228945594Y-103689597D01*
X229014658Y-103822886D01*
X229117123Y-103932598D01*
X229245388Y-104010598D01*
X229298166Y-104025386D01*
X228739526Y-104584025D01*
X228739526Y-104584026D01*
X228812512Y-104635131D01*
X228812516Y-104635133D01*
X229018673Y-104731265D01*
X229018682Y-104731269D01*
X229238389Y-104790139D01*
X229238400Y-104790141D01*
X229464998Y-104809966D01*
X229465002Y-104809966D01*
X229691599Y-104790141D01*
X229691610Y-104790139D01*
X229911317Y-104731269D01*
X229911331Y-104731264D01*
X230117478Y-104635136D01*
X230190472Y-104584025D01*
X229633604Y-104027156D01*
X229751412Y-103975985D01*
X229867862Y-103881246D01*
X229954433Y-103758603D01*
X229985300Y-103671747D01*
X230544025Y-104230472D01*
X230595136Y-104157478D01*
X230691264Y-103951331D01*
X230691269Y-103951317D01*
X230750139Y-103731610D01*
X230750141Y-103731599D01*
X230769966Y-103505002D01*
X230769966Y-103505000D01*
X231175398Y-103505000D01*
X231195757Y-103711716D01*
X231256056Y-103910496D01*
X231353969Y-104093677D01*
X231353974Y-104093684D01*
X231485747Y-104254252D01*
X231578129Y-104330067D01*
X231646317Y-104386027D01*
X231646320Y-104386028D01*
X231646322Y-104386030D01*
X231829503Y-104483943D01*
X231829505Y-104483943D01*
X231829508Y-104483945D01*
X232028282Y-104544242D01*
X232235000Y-104564602D01*
X232441718Y-104544242D01*
X232640492Y-104483945D01*
X232682050Y-104461732D01*
X232789495Y-104404301D01*
X232823683Y-104386027D01*
X232984252Y-104254252D01*
X233116027Y-104093683D01*
X233202129Y-103932598D01*
X233213943Y-103910496D01*
X233213943Y-103910495D01*
X233213945Y-103910492D01*
X233274242Y-103711718D01*
X233294602Y-103505000D01*
X233274242Y-103298282D01*
X233227620Y-103144591D01*
X233226998Y-103074729D01*
X233258597Y-103020923D01*
X233537704Y-102741816D01*
X233599026Y-102708334D01*
X233625384Y-102705500D01*
X234034810Y-102705500D01*
X234101849Y-102725185D01*
X234147604Y-102777989D01*
X234157548Y-102847147D01*
X234130662Y-102908166D01*
X234123974Y-102916314D01*
X234123969Y-102916322D01*
X234026056Y-103099503D01*
X233965757Y-103298283D01*
X233945398Y-103505000D01*
X233965757Y-103711716D01*
X234026056Y-103910496D01*
X234123969Y-104093677D01*
X234123974Y-104093684D01*
X234255747Y-104254252D01*
X234416315Y-104386025D01*
X234416317Y-104386027D01*
X234557955Y-104461734D01*
X234607797Y-104510695D01*
X234623500Y-104571091D01*
X234623500Y-105558992D01*
X234603815Y-105626031D01*
X234551011Y-105671786D01*
X234481853Y-105681730D01*
X234418297Y-105652705D01*
X234403647Y-105637657D01*
X234369252Y-105595747D01*
X234208684Y-105463974D01*
X234208677Y-105463969D01*
X234025496Y-105366056D01*
X233826716Y-105305757D01*
X233620000Y-105285398D01*
X233413283Y-105305757D01*
X233214503Y-105366056D01*
X233031322Y-105463969D01*
X233031315Y-105463974D01*
X232870747Y-105595747D01*
X232738974Y-105756315D01*
X232738969Y-105756322D01*
X232641056Y-105939503D01*
X232580757Y-106138283D01*
X232560398Y-106345000D01*
X232580757Y-106551716D01*
X232641056Y-106750496D01*
X232738969Y-106933677D01*
X232738974Y-106933684D01*
X232870747Y-107094252D01*
X232979667Y-107183639D01*
X233031317Y-107226027D01*
X233031320Y-107226028D01*
X233031322Y-107226030D01*
X233214503Y-107323943D01*
X233214505Y-107323943D01*
X233214508Y-107323945D01*
X233413282Y-107384242D01*
X233620000Y-107404602D01*
X233826718Y-107384242D01*
X234025492Y-107323945D01*
X234208683Y-107226027D01*
X234369252Y-107094252D01*
X234396711Y-107060793D01*
X234403646Y-107052343D01*
X234461392Y-107013008D01*
X234531237Y-107011137D01*
X234591005Y-107047324D01*
X234621721Y-107110080D01*
X234623500Y-107131007D01*
X234623500Y-115940614D01*
X234603815Y-116007653D01*
X234587181Y-116028295D01*
X234136016Y-116479459D01*
X234074693Y-116512944D01*
X234012340Y-116510439D01*
X233879855Y-116470250D01*
X233680000Y-116450567D01*
X233480144Y-116470250D01*
X233287961Y-116528548D01*
X233110861Y-116623210D01*
X233110855Y-116623215D01*
X232955615Y-116750615D01*
X232828215Y-116905855D01*
X232828210Y-116905861D01*
X232733548Y-117082961D01*
X232675250Y-117275144D01*
X232655567Y-117475000D01*
X232675250Y-117674855D01*
X232733548Y-117867038D01*
X232828210Y-118044138D01*
X232828215Y-118044144D01*
X232955615Y-118199384D01*
X233063385Y-118287827D01*
X233110856Y-118326785D01*
X233110858Y-118326786D01*
X233110861Y-118326788D01*
X233232953Y-118392048D01*
X233282797Y-118441010D01*
X233298500Y-118501406D01*
X233298500Y-124703593D01*
X233278815Y-124770632D01*
X233232954Y-124812951D01*
X233110857Y-124878213D01*
X233110855Y-124878215D01*
X232955615Y-125005615D01*
X232828215Y-125160855D01*
X232828210Y-125160861D01*
X232733548Y-125337961D01*
X232675250Y-125530144D01*
X232655567Y-125730000D01*
X232675250Y-125929855D01*
X232733548Y-126122038D01*
X232828210Y-126299138D01*
X232828215Y-126299144D01*
X232955615Y-126454384D01*
X233110855Y-126581784D01*
X233110861Y-126581789D01*
X233287961Y-126676451D01*
X233287963Y-126676451D01*
X233287966Y-126676453D01*
X233480143Y-126734749D01*
X233680000Y-126754433D01*
X233879857Y-126734749D01*
X234072034Y-126676453D01*
X234072038Y-126676451D01*
X234249138Y-126581789D01*
X234249140Y-126581786D01*
X234249144Y-126581785D01*
X234404384Y-126454384D01*
X234531785Y-126299144D01*
X234531786Y-126299140D01*
X234531789Y-126299138D01*
X234626451Y-126122038D01*
X234626451Y-126122037D01*
X234626453Y-126122034D01*
X234684749Y-125929857D01*
X234704433Y-125730000D01*
X235195567Y-125730000D01*
X235215250Y-125929855D01*
X235273548Y-126122038D01*
X235368210Y-126299138D01*
X235368215Y-126299144D01*
X235495615Y-126454384D01*
X235650855Y-126581784D01*
X235650861Y-126581789D01*
X235827961Y-126676451D01*
X235827963Y-126676451D01*
X235827966Y-126676453D01*
X236020143Y-126734749D01*
X236220000Y-126754433D01*
X236419857Y-126734749D01*
X236612034Y-126676453D01*
X236612038Y-126676451D01*
X236789138Y-126581789D01*
X236789140Y-126581786D01*
X236789144Y-126581785D01*
X236944384Y-126454384D01*
X237071785Y-126299144D01*
X237071786Y-126299140D01*
X237071789Y-126299138D01*
X237166451Y-126122038D01*
X237166451Y-126122037D01*
X237166453Y-126122034D01*
X237224749Y-125929857D01*
X237244433Y-125730000D01*
X237224749Y-125530143D01*
X237166453Y-125337966D01*
X237166451Y-125337963D01*
X237166451Y-125337961D01*
X237071789Y-125160861D01*
X237071784Y-125160855D01*
X236944384Y-125005615D01*
X236789144Y-124878215D01*
X236789142Y-124878213D01*
X236667046Y-124812951D01*
X236617202Y-124763988D01*
X236601500Y-124703593D01*
X236601500Y-118501406D01*
X236621185Y-118434367D01*
X236667047Y-118392048D01*
X236750629Y-118347372D01*
X236789144Y-118326785D01*
X236944384Y-118199384D01*
X237071785Y-118044144D01*
X237071786Y-118044140D01*
X237071789Y-118044138D01*
X237166451Y-117867038D01*
X237166451Y-117867037D01*
X237166453Y-117867034D01*
X237224749Y-117674857D01*
X237244433Y-117475000D01*
X237224749Y-117275143D01*
X237166453Y-117082966D01*
X237166451Y-117082963D01*
X237166451Y-117082961D01*
X237071789Y-116905861D01*
X237071784Y-116905855D01*
X236944384Y-116750615D01*
X236789144Y-116623215D01*
X236789138Y-116623210D01*
X236612038Y-116528548D01*
X236419855Y-116470250D01*
X236220000Y-116450567D01*
X236020144Y-116470250D01*
X235827961Y-116528548D01*
X235650861Y-116623210D01*
X235650855Y-116623215D01*
X235495615Y-116750615D01*
X235368215Y-116905855D01*
X235368210Y-116905861D01*
X235273548Y-117082961D01*
X235215250Y-117275144D01*
X235195567Y-117475000D01*
X235215250Y-117674855D01*
X235273548Y-117867038D01*
X235368210Y-118044138D01*
X235368215Y-118044144D01*
X235495615Y-118199384D01*
X235603385Y-118287827D01*
X235650856Y-118326785D01*
X235650858Y-118326786D01*
X235650861Y-118326788D01*
X235772953Y-118392048D01*
X235822797Y-118441010D01*
X235838500Y-118501406D01*
X235838500Y-124703593D01*
X235818815Y-124770632D01*
X235772954Y-124812951D01*
X235650857Y-124878213D01*
X235650855Y-124878215D01*
X235495615Y-125005615D01*
X235368215Y-125160855D01*
X235368210Y-125160861D01*
X235273548Y-125337961D01*
X235215250Y-125530144D01*
X235195567Y-125730000D01*
X234704433Y-125730000D01*
X234684749Y-125530143D01*
X234626453Y-125337966D01*
X234626451Y-125337963D01*
X234626451Y-125337961D01*
X234531789Y-125160861D01*
X234531784Y-125160855D01*
X234404384Y-125005615D01*
X234249144Y-124878215D01*
X234249142Y-124878213D01*
X234127046Y-124812951D01*
X234077202Y-124763988D01*
X234061500Y-124703593D01*
X234061500Y-118501406D01*
X234081185Y-118434367D01*
X234127047Y-118392048D01*
X234210629Y-118347372D01*
X234249144Y-118326785D01*
X234404384Y-118199384D01*
X234531785Y-118044144D01*
X234531786Y-118044140D01*
X234531789Y-118044138D01*
X234626451Y-117867038D01*
X234626451Y-117867037D01*
X234626453Y-117867034D01*
X234684749Y-117674857D01*
X234704433Y-117475000D01*
X234684749Y-117275143D01*
X234644559Y-117142656D01*
X234643936Y-117072792D01*
X234675537Y-117018984D01*
X235237693Y-116456828D01*
X235257542Y-116440709D01*
X235266956Y-116434560D01*
X235289155Y-116406036D01*
X235294226Y-116400296D01*
X235297114Y-116397409D01*
X235310900Y-116378099D01*
X235345158Y-116334085D01*
X235345159Y-116334079D01*
X235348957Y-116327064D01*
X235352468Y-116319878D01*
X235352475Y-116319870D01*
X235362257Y-116287009D01*
X235368390Y-116266413D01*
X235377311Y-116240424D01*
X235386500Y-116213661D01*
X235386500Y-116213658D01*
X235387815Y-116205780D01*
X235388805Y-116197839D01*
X235386500Y-116142116D01*
X235386500Y-107131007D01*
X235406185Y-107063968D01*
X235458989Y-107018213D01*
X235528147Y-107008269D01*
X235591703Y-107037294D01*
X235606354Y-107052343D01*
X235622318Y-107071795D01*
X235640748Y-107094252D01*
X235801317Y-107226027D01*
X235801320Y-107226028D01*
X235801322Y-107226030D01*
X235984503Y-107323943D01*
X235984505Y-107323943D01*
X235984508Y-107323945D01*
X236183282Y-107384242D01*
X236390000Y-107404602D01*
X236596718Y-107384242D01*
X236795492Y-107323945D01*
X236978683Y-107226027D01*
X237139252Y-107094252D01*
X237271027Y-106933683D01*
X237355703Y-106775266D01*
X237368943Y-106750496D01*
X237368943Y-106750495D01*
X237368945Y-106750492D01*
X237429242Y-106551718D01*
X237430275Y-106541224D01*
X237456432Y-106476439D01*
X237513464Y-106436077D01*
X237583264Y-106432956D01*
X237641359Y-106465694D01*
X238342181Y-107166516D01*
X238375666Y-107227839D01*
X238378500Y-107254197D01*
X238378500Y-116448593D01*
X238358815Y-116515632D01*
X238312954Y-116557951D01*
X238190857Y-116623213D01*
X238190855Y-116623215D01*
X238035615Y-116750615D01*
X237908215Y-116905855D01*
X237908210Y-116905861D01*
X237813548Y-117082961D01*
X237755250Y-117275144D01*
X237735567Y-117475000D01*
X237755250Y-117674855D01*
X237813548Y-117867038D01*
X237908210Y-118044138D01*
X237908215Y-118044144D01*
X238035615Y-118199384D01*
X238143385Y-118287827D01*
X238190856Y-118326785D01*
X238190858Y-118326786D01*
X238190861Y-118326788D01*
X238312953Y-118392048D01*
X238362797Y-118441010D01*
X238378500Y-118501406D01*
X238378500Y-124703593D01*
X238358815Y-124770632D01*
X238312954Y-124812951D01*
X238190857Y-124878213D01*
X238190855Y-124878215D01*
X238035615Y-125005615D01*
X237908215Y-125160855D01*
X237908210Y-125160861D01*
X237813548Y-125337961D01*
X237755250Y-125530144D01*
X237735567Y-125730000D01*
X237755250Y-125929855D01*
X237813548Y-126122038D01*
X237908210Y-126299138D01*
X237908215Y-126299144D01*
X238035615Y-126454384D01*
X238190855Y-126581784D01*
X238190861Y-126581789D01*
X238367961Y-126676451D01*
X238367963Y-126676451D01*
X238367966Y-126676453D01*
X238560143Y-126734749D01*
X238760000Y-126754433D01*
X238959857Y-126734749D01*
X239152034Y-126676453D01*
X239152038Y-126676451D01*
X239329138Y-126581789D01*
X239329140Y-126581786D01*
X239329144Y-126581785D01*
X239484384Y-126454384D01*
X239611785Y-126299144D01*
X239611786Y-126299140D01*
X239611789Y-126299138D01*
X239706451Y-126122038D01*
X239706451Y-126122037D01*
X239706453Y-126122034D01*
X239764749Y-125929857D01*
X239784433Y-125730000D01*
X240275567Y-125730000D01*
X240295250Y-125929855D01*
X240353548Y-126122038D01*
X240448210Y-126299138D01*
X240448215Y-126299144D01*
X240575615Y-126454384D01*
X240730855Y-126581784D01*
X240730861Y-126581789D01*
X240907961Y-126676451D01*
X240907963Y-126676451D01*
X240907966Y-126676453D01*
X241100143Y-126734749D01*
X241300000Y-126754433D01*
X241499857Y-126734749D01*
X241692034Y-126676453D01*
X241692038Y-126676451D01*
X241869138Y-126581789D01*
X241869140Y-126581786D01*
X241869144Y-126581785D01*
X242024384Y-126454384D01*
X242151785Y-126299144D01*
X242151786Y-126299140D01*
X242151789Y-126299138D01*
X242246451Y-126122038D01*
X242246451Y-126122037D01*
X242246453Y-126122034D01*
X242304749Y-125929857D01*
X242324433Y-125730000D01*
X242815567Y-125730000D01*
X242835250Y-125929855D01*
X242893548Y-126122038D01*
X242988210Y-126299138D01*
X242988215Y-126299144D01*
X243115615Y-126454384D01*
X243270855Y-126581784D01*
X243270861Y-126581789D01*
X243447961Y-126676451D01*
X243447963Y-126676451D01*
X243447966Y-126676453D01*
X243640143Y-126734749D01*
X243840000Y-126754433D01*
X244039857Y-126734749D01*
X244232034Y-126676453D01*
X244232038Y-126676451D01*
X244409138Y-126581789D01*
X244409140Y-126581786D01*
X244409144Y-126581785D01*
X244564384Y-126454384D01*
X244691785Y-126299144D01*
X244691786Y-126299140D01*
X244691789Y-126299138D01*
X244786451Y-126122038D01*
X244786451Y-126122037D01*
X244786453Y-126122034D01*
X244844749Y-125929857D01*
X244864433Y-125730000D01*
X245355567Y-125730000D01*
X245375250Y-125929855D01*
X245433548Y-126122038D01*
X245528210Y-126299138D01*
X245528215Y-126299144D01*
X245655615Y-126454384D01*
X245810855Y-126581784D01*
X245810861Y-126581789D01*
X245987961Y-126676451D01*
X245987963Y-126676451D01*
X245987966Y-126676453D01*
X246180143Y-126734749D01*
X246380000Y-126754433D01*
X246579857Y-126734749D01*
X246772034Y-126676453D01*
X246772038Y-126676451D01*
X246949138Y-126581789D01*
X246949140Y-126581786D01*
X246949144Y-126581785D01*
X247104384Y-126454384D01*
X247231785Y-126299144D01*
X247231786Y-126299140D01*
X247231789Y-126299138D01*
X247326451Y-126122038D01*
X247326451Y-126122037D01*
X247326453Y-126122034D01*
X247384749Y-125929857D01*
X247404433Y-125730000D01*
X247384749Y-125530143D01*
X247326453Y-125337966D01*
X247326451Y-125337963D01*
X247326451Y-125337961D01*
X247231789Y-125160861D01*
X247231784Y-125160855D01*
X247104384Y-125005615D01*
X246949144Y-124878215D01*
X246949138Y-124878210D01*
X246772038Y-124783548D01*
X246579855Y-124725250D01*
X246380000Y-124705567D01*
X246180144Y-124725250D01*
X245987961Y-124783548D01*
X245810861Y-124878210D01*
X245810855Y-124878215D01*
X245655615Y-125005615D01*
X245528215Y-125160855D01*
X245528210Y-125160861D01*
X245433548Y-125337961D01*
X245375250Y-125530144D01*
X245355567Y-125730000D01*
X244864433Y-125730000D01*
X244844749Y-125530143D01*
X244786453Y-125337966D01*
X244786451Y-125337963D01*
X244786451Y-125337961D01*
X244691789Y-125160861D01*
X244691784Y-125160855D01*
X244564384Y-125005615D01*
X244409144Y-124878215D01*
X244409138Y-124878210D01*
X244232038Y-124783548D01*
X244039855Y-124725250D01*
X243840000Y-124705567D01*
X243640144Y-124725250D01*
X243447961Y-124783548D01*
X243270861Y-124878210D01*
X243270855Y-124878215D01*
X243115615Y-125005615D01*
X242988215Y-125160855D01*
X242988210Y-125160861D01*
X242893548Y-125337961D01*
X242835250Y-125530144D01*
X242815567Y-125730000D01*
X242324433Y-125730000D01*
X242304749Y-125530143D01*
X242246453Y-125337966D01*
X242246451Y-125337963D01*
X242246451Y-125337961D01*
X242151789Y-125160861D01*
X242151784Y-125160855D01*
X242024384Y-125005615D01*
X241869144Y-124878215D01*
X241869138Y-124878210D01*
X241692038Y-124783548D01*
X241499855Y-124725250D01*
X241300000Y-124705567D01*
X241100144Y-124725250D01*
X240907961Y-124783548D01*
X240730861Y-124878210D01*
X240730855Y-124878215D01*
X240575615Y-125005615D01*
X240448215Y-125160855D01*
X240448210Y-125160861D01*
X240353548Y-125337961D01*
X240295250Y-125530144D01*
X240275567Y-125730000D01*
X239784433Y-125730000D01*
X239764749Y-125530143D01*
X239706453Y-125337966D01*
X239706451Y-125337963D01*
X239706451Y-125337961D01*
X239611789Y-125160861D01*
X239611784Y-125160855D01*
X239484384Y-125005615D01*
X239329144Y-124878215D01*
X239329142Y-124878213D01*
X239207046Y-124812951D01*
X239157202Y-124763988D01*
X239141500Y-124703593D01*
X239141500Y-118501406D01*
X239161185Y-118434367D01*
X239207047Y-118392048D01*
X239290629Y-118347372D01*
X239329144Y-118326785D01*
X239484384Y-118199384D01*
X239611785Y-118044144D01*
X239611786Y-118044140D01*
X239611789Y-118044138D01*
X239706451Y-117867038D01*
X239706451Y-117867037D01*
X239706453Y-117867034D01*
X239764749Y-117674857D01*
X239784433Y-117475000D01*
X240275567Y-117475000D01*
X240295250Y-117674855D01*
X240353548Y-117867038D01*
X240448210Y-118044138D01*
X240448215Y-118044144D01*
X240575615Y-118199384D01*
X240730855Y-118326784D01*
X240730861Y-118326789D01*
X240907961Y-118421451D01*
X240907963Y-118421451D01*
X240907966Y-118421453D01*
X241100143Y-118479749D01*
X241300000Y-118499433D01*
X241499857Y-118479749D01*
X241692034Y-118421453D01*
X241692038Y-118421451D01*
X241869138Y-118326789D01*
X241869140Y-118326786D01*
X241869144Y-118326785D01*
X242024384Y-118199384D01*
X242151785Y-118044144D01*
X242151786Y-118044140D01*
X242151789Y-118044138D01*
X242246451Y-117867038D01*
X242246451Y-117867037D01*
X242246453Y-117867034D01*
X242304749Y-117674857D01*
X242324433Y-117475000D01*
X242815567Y-117475000D01*
X242835250Y-117674855D01*
X242893548Y-117867038D01*
X242988210Y-118044138D01*
X242988215Y-118044144D01*
X243115615Y-118199384D01*
X243270855Y-118326784D01*
X243270861Y-118326789D01*
X243447961Y-118421451D01*
X243447963Y-118421451D01*
X243447966Y-118421453D01*
X243640143Y-118479749D01*
X243840000Y-118499433D01*
X244039857Y-118479749D01*
X244232034Y-118421453D01*
X244232038Y-118421451D01*
X244409138Y-118326789D01*
X244409140Y-118326786D01*
X244409144Y-118326785D01*
X244564384Y-118199384D01*
X244691785Y-118044144D01*
X244691786Y-118044140D01*
X244691789Y-118044138D01*
X244786451Y-117867038D01*
X244786451Y-117867037D01*
X244786453Y-117867034D01*
X244844749Y-117674857D01*
X244864433Y-117475000D01*
X245355567Y-117475000D01*
X245375250Y-117674855D01*
X245433548Y-117867038D01*
X245528210Y-118044138D01*
X245528215Y-118044144D01*
X245655615Y-118199384D01*
X245810855Y-118326784D01*
X245810861Y-118326789D01*
X245987961Y-118421451D01*
X245987963Y-118421451D01*
X245987966Y-118421453D01*
X246180143Y-118479749D01*
X246380000Y-118499433D01*
X246579857Y-118479749D01*
X246772034Y-118421453D01*
X246772038Y-118421451D01*
X246949138Y-118326789D01*
X246949140Y-118326786D01*
X246949144Y-118326785D01*
X247104384Y-118199384D01*
X247231785Y-118044144D01*
X247231786Y-118044140D01*
X247231789Y-118044138D01*
X247326451Y-117867038D01*
X247326451Y-117867037D01*
X247326453Y-117867034D01*
X247384749Y-117674857D01*
X247404433Y-117475000D01*
X247384749Y-117275143D01*
X247326453Y-117082966D01*
X247326451Y-117082963D01*
X247326451Y-117082961D01*
X247231789Y-116905861D01*
X247231784Y-116905855D01*
X247104384Y-116750615D01*
X246949144Y-116623215D01*
X246949138Y-116623210D01*
X246772038Y-116528548D01*
X246579855Y-116470250D01*
X246380000Y-116450567D01*
X246180144Y-116470250D01*
X245987961Y-116528548D01*
X245810861Y-116623210D01*
X245810855Y-116623215D01*
X245655615Y-116750615D01*
X245528215Y-116905855D01*
X245528210Y-116905861D01*
X245433548Y-117082961D01*
X245375250Y-117275144D01*
X245355567Y-117475000D01*
X244864433Y-117475000D01*
X244844749Y-117275143D01*
X244786453Y-117082966D01*
X244786451Y-117082963D01*
X244786451Y-117082961D01*
X244691789Y-116905861D01*
X244691784Y-116905855D01*
X244564384Y-116750615D01*
X244409144Y-116623215D01*
X244409138Y-116623210D01*
X244232038Y-116528548D01*
X244039855Y-116470250D01*
X243840000Y-116450567D01*
X243640144Y-116470250D01*
X243447961Y-116528548D01*
X243270861Y-116623210D01*
X243270855Y-116623215D01*
X243115615Y-116750615D01*
X242988215Y-116905855D01*
X242988210Y-116905861D01*
X242893548Y-117082961D01*
X242835250Y-117275144D01*
X242815567Y-117475000D01*
X242324433Y-117475000D01*
X242304749Y-117275143D01*
X242246453Y-117082966D01*
X242246451Y-117082963D01*
X242246451Y-117082961D01*
X242151789Y-116905861D01*
X242151784Y-116905855D01*
X242024384Y-116750615D01*
X241869144Y-116623215D01*
X241869138Y-116623210D01*
X241692038Y-116528548D01*
X241499855Y-116470250D01*
X241300000Y-116450567D01*
X241100144Y-116470250D01*
X240907961Y-116528548D01*
X240730861Y-116623210D01*
X240730855Y-116623215D01*
X240575615Y-116750615D01*
X240448215Y-116905855D01*
X240448210Y-116905861D01*
X240353548Y-117082961D01*
X240295250Y-117275144D01*
X240275567Y-117475000D01*
X239784433Y-117475000D01*
X239764749Y-117275143D01*
X239706453Y-117082966D01*
X239706451Y-117082963D01*
X239706451Y-117082961D01*
X239611789Y-116905861D01*
X239611784Y-116905855D01*
X239484384Y-116750615D01*
X239329144Y-116623215D01*
X239329142Y-116623213D01*
X239207046Y-116557951D01*
X239157202Y-116508988D01*
X239141500Y-116448593D01*
X239141500Y-107097240D01*
X239144139Y-107071795D01*
X239144810Y-107068592D01*
X239146445Y-107060796D01*
X239144353Y-107044013D01*
X239141977Y-107024946D01*
X239141500Y-107017270D01*
X239141500Y-107013205D01*
X239141500Y-107013202D01*
X239137596Y-106989809D01*
X239130696Y-106934452D01*
X239130695Y-106934449D01*
X239128418Y-106926801D01*
X239125819Y-106919230D01*
X239125818Y-106919228D01*
X239125818Y-106919227D01*
X239099272Y-106870175D01*
X239074776Y-106820067D01*
X239074773Y-106820064D01*
X239074773Y-106820063D01*
X239070131Y-106813560D01*
X239065220Y-106807250D01*
X239024180Y-106769471D01*
X237025890Y-104771180D01*
X236992405Y-104709857D01*
X236997389Y-104640165D01*
X237039261Y-104584232D01*
X237104725Y-104559815D01*
X237113545Y-104559499D01*
X238600066Y-104559499D01*
X238674301Y-104544734D01*
X238758484Y-104488484D01*
X238814734Y-104404301D01*
X238829500Y-104330067D01*
X238829499Y-102679934D01*
X238814734Y-102605699D01*
X238790574Y-102569541D01*
X238758484Y-102521515D01*
X238698442Y-102481397D01*
X238674301Y-102465266D01*
X238674299Y-102465265D01*
X238674296Y-102465264D01*
X238600069Y-102450500D01*
X236949936Y-102450500D01*
X236875698Y-102465266D01*
X236791515Y-102521515D01*
X236735266Y-102605699D01*
X236735264Y-102605702D01*
X236719627Y-102684317D01*
X236687242Y-102746228D01*
X236626526Y-102780802D01*
X236556757Y-102777062D01*
X236510329Y-102747806D01*
X235853833Y-102091310D01*
X235837705Y-102071450D01*
X235835085Y-102067440D01*
X235831560Y-102062044D01*
X235803049Y-102039853D01*
X235797287Y-102034764D01*
X235794409Y-102031886D01*
X235775099Y-102018099D01*
X235753092Y-102000970D01*
X235731086Y-101983842D01*
X235724070Y-101980045D01*
X235716872Y-101976526D01*
X235716870Y-101976525D01*
X235716867Y-101976524D01*
X235663413Y-101960609D01*
X235610662Y-101942499D01*
X235602779Y-101941184D01*
X235594839Y-101940194D01*
X235541167Y-101942415D01*
X235539116Y-101942500D01*
X233468427Y-101942500D01*
X233442982Y-101939861D01*
X233431984Y-101937555D01*
X233431980Y-101937555D01*
X233396134Y-101942023D01*
X233388458Y-101942500D01*
X233384389Y-101942500D01*
X233376591Y-101943801D01*
X233360993Y-101946403D01*
X233305644Y-101953302D01*
X233297966Y-101955588D01*
X233290413Y-101958181D01*
X233241359Y-101984728D01*
X233191252Y-102009225D01*
X233184742Y-102013872D01*
X233178435Y-102018781D01*
X233140658Y-102059819D01*
X232719078Y-102481397D01*
X232657755Y-102514882D01*
X232595402Y-102512377D01*
X232441716Y-102465757D01*
X232235000Y-102445398D01*
X232028283Y-102465757D01*
X231829503Y-102526056D01*
X231646322Y-102623969D01*
X231646315Y-102623974D01*
X231485747Y-102755747D01*
X231353974Y-102916315D01*
X231353969Y-102916322D01*
X231256056Y-103099503D01*
X231195757Y-103298283D01*
X231175398Y-103505000D01*
X230769966Y-103505000D01*
X230769966Y-103504997D01*
X230750141Y-103278400D01*
X230750139Y-103278389D01*
X230691269Y-103058682D01*
X230691265Y-103058673D01*
X230595133Y-102852516D01*
X230595131Y-102852512D01*
X230544026Y-102779526D01*
X230544025Y-102779526D01*
X229987630Y-103335921D01*
X229984406Y-103320403D01*
X229915342Y-103187114D01*
X229812877Y-103077402D01*
X229684612Y-102999402D01*
X229631832Y-102984613D01*
X230190472Y-102425974D01*
X230190471Y-102425973D01*
X230117483Y-102374866D01*
X230117481Y-102374865D01*
X229911326Y-102278734D01*
X229911317Y-102278730D01*
X229691610Y-102219860D01*
X229691599Y-102219858D01*
X229465002Y-102200034D01*
X229464998Y-102200034D01*
X229238400Y-102219858D01*
X229238389Y-102219860D01*
X229018682Y-102278730D01*
X229018673Y-102278734D01*
X228812513Y-102374868D01*
X228739527Y-102425972D01*
X228739526Y-102425973D01*
X229296396Y-102982843D01*
X229178588Y-103034015D01*
X229062138Y-103128754D01*
X228975567Y-103251397D01*
X228944699Y-103338252D01*
X228385973Y-102779526D01*
X228385972Y-102779527D01*
X228334868Y-102852513D01*
X228238734Y-103058673D01*
X228238730Y-103058682D01*
X228179860Y-103278389D01*
X228179858Y-103278400D01*
X228160034Y-103504997D01*
X228160034Y-103505002D01*
X227754602Y-103505002D01*
X227754602Y-103505000D01*
X227734242Y-103298282D01*
X227673945Y-103099508D01*
X227673943Y-103099505D01*
X227673943Y-103099503D01*
X227576030Y-102916322D01*
X227576028Y-102916320D01*
X227576027Y-102916317D01*
X227498062Y-102821316D01*
X227444252Y-102755747D01*
X227283684Y-102623974D01*
X227283677Y-102623969D01*
X227100496Y-102526056D01*
X226901716Y-102465757D01*
X226695000Y-102445398D01*
X226488283Y-102465757D01*
X226289503Y-102526056D01*
X226106322Y-102623969D01*
X226106315Y-102623974D01*
X225945747Y-102755747D01*
X225813974Y-102916315D01*
X225813969Y-102916322D01*
X225716056Y-103099503D01*
X225655757Y-103298283D01*
X225635398Y-103505000D01*
X223101199Y-103505000D01*
X223101199Y-96009000D01*
X223120884Y-95941961D01*
X223173688Y-95896206D01*
X223225199Y-95885000D01*
X242064500Y-95885000D01*
X242131539Y-95904685D01*
G37*
%TD.AperFunction*%
%TD*%
%TA.AperFunction,Conductor*%
%TO.N,+5VL*%
G36*
X248227539Y-132359185D02*
G01*
X248273294Y-132411989D01*
X248284500Y-132463500D01*
X248284500Y-144020500D01*
X248264815Y-144087539D01*
X248212011Y-144133294D01*
X248160500Y-144144500D01*
X21079500Y-144144500D01*
X21012461Y-144124815D01*
X20966706Y-144072011D01*
X20955500Y-144020500D01*
X20955500Y-139700000D01*
X21440418Y-139700000D01*
X21460732Y-140100583D01*
X21521470Y-140497053D01*
X21622009Y-140885361D01*
X21761307Y-141261475D01*
X21761313Y-141261488D01*
X21937952Y-141621592D01*
X21937953Y-141621593D01*
X22150120Y-141961983D01*
X22395635Y-142279163D01*
X22671979Y-142569876D01*
X22976313Y-142831139D01*
X22976316Y-142831141D01*
X23305524Y-143060277D01*
X23656223Y-143254931D01*
X24024816Y-143413106D01*
X24024819Y-143413107D01*
X24024824Y-143413109D01*
X24407510Y-143533178D01*
X24407513Y-143533178D01*
X24407521Y-143533181D01*
X24800409Y-143613921D01*
X25119641Y-143646384D01*
X25199449Y-143654500D01*
X25199450Y-143654500D01*
X25600551Y-143654500D01*
X25667056Y-143647736D01*
X25999591Y-143613921D01*
X26392479Y-143533181D01*
X26392489Y-143533178D01*
X26775175Y-143413109D01*
X26775176Y-143413108D01*
X26775184Y-143413106D01*
X27143777Y-143254931D01*
X27494476Y-143060277D01*
X27823684Y-142831141D01*
X28128021Y-142569876D01*
X28404365Y-142279163D01*
X28649880Y-141961983D01*
X28862047Y-141621593D01*
X29038689Y-141261484D01*
X29177993Y-140885353D01*
X29278529Y-140497058D01*
X29339267Y-140100584D01*
X29359582Y-139700000D01*
X239880418Y-139700000D01*
X239900732Y-140100583D01*
X239961470Y-140497053D01*
X240062009Y-140885361D01*
X240201307Y-141261475D01*
X240201313Y-141261488D01*
X240377952Y-141621592D01*
X240377953Y-141621593D01*
X240590120Y-141961983D01*
X240835635Y-142279163D01*
X241111979Y-142569876D01*
X241416313Y-142831139D01*
X241416316Y-142831141D01*
X241745524Y-143060277D01*
X242096223Y-143254931D01*
X242464816Y-143413106D01*
X242464819Y-143413107D01*
X242464824Y-143413109D01*
X242847510Y-143533178D01*
X242847513Y-143533178D01*
X242847521Y-143533181D01*
X243240409Y-143613921D01*
X243559641Y-143646384D01*
X243639449Y-143654500D01*
X243639450Y-143654500D01*
X244040551Y-143654500D01*
X244107056Y-143647736D01*
X244439591Y-143613921D01*
X244832479Y-143533181D01*
X244832489Y-143533178D01*
X245215175Y-143413109D01*
X245215176Y-143413108D01*
X245215184Y-143413106D01*
X245583777Y-143254931D01*
X245934476Y-143060277D01*
X246263684Y-142831141D01*
X246568021Y-142569876D01*
X246844365Y-142279163D01*
X247089880Y-141961983D01*
X247302047Y-141621593D01*
X247478689Y-141261484D01*
X247617993Y-140885353D01*
X247718529Y-140497058D01*
X247779267Y-140100584D01*
X247799582Y-139700000D01*
X247779267Y-139299416D01*
X247718529Y-138902942D01*
X247617993Y-138514647D01*
X247594861Y-138452190D01*
X247478692Y-138138524D01*
X247478691Y-138138523D01*
X247478689Y-138138516D01*
X247302047Y-137778407D01*
X247089880Y-137438017D01*
X246844365Y-137120837D01*
X246568021Y-136830124D01*
X246568020Y-136830123D01*
X246263686Y-136568860D01*
X245934476Y-136339723D01*
X245934471Y-136339720D01*
X245583776Y-136145068D01*
X245215175Y-135986890D01*
X244832489Y-135866821D01*
X244832483Y-135866820D01*
X244832480Y-135866819D01*
X244832479Y-135866819D01*
X244439591Y-135786079D01*
X244439590Y-135786078D01*
X244439586Y-135786078D01*
X244040551Y-135745500D01*
X244040550Y-135745500D01*
X243639450Y-135745500D01*
X243639449Y-135745500D01*
X243240413Y-135786078D01*
X242847516Y-135866820D01*
X242847510Y-135866821D01*
X242464824Y-135986890D01*
X242096223Y-136145068D01*
X241745528Y-136339720D01*
X241745523Y-136339723D01*
X241416313Y-136568860D01*
X241111979Y-136830123D01*
X240835630Y-137120842D01*
X240590123Y-137438012D01*
X240377952Y-137778407D01*
X240201313Y-138138511D01*
X240201307Y-138138524D01*
X240062009Y-138514638D01*
X239961470Y-138902946D01*
X239900732Y-139299416D01*
X239880418Y-139700000D01*
X29359582Y-139700000D01*
X29339267Y-139299416D01*
X29278529Y-138902942D01*
X29177993Y-138514647D01*
X29154861Y-138452190D01*
X29038692Y-138138524D01*
X29038691Y-138138523D01*
X29038689Y-138138516D01*
X28862047Y-137778407D01*
X28649880Y-137438017D01*
X28434679Y-137160000D01*
X35485404Y-137160000D01*
X35505743Y-137379501D01*
X35505743Y-137379503D01*
X35505744Y-137379506D01*
X35566072Y-137591538D01*
X35566073Y-137591541D01*
X35664330Y-137788868D01*
X35664335Y-137788876D01*
X35797184Y-137964796D01*
X35960094Y-138113307D01*
X35960096Y-138113309D01*
X36147519Y-138229356D01*
X36147525Y-138229359D01*
X36170670Y-138238325D01*
X36353083Y-138308993D01*
X36569777Y-138349500D01*
X36569779Y-138349500D01*
X36790221Y-138349500D01*
X36790223Y-138349500D01*
X37006917Y-138308993D01*
X37212477Y-138229358D01*
X37352203Y-138142844D01*
X39205000Y-138142844D01*
X39211401Y-138202372D01*
X39211403Y-138202379D01*
X39261645Y-138337086D01*
X39261649Y-138337093D01*
X39347809Y-138452187D01*
X39347812Y-138452190D01*
X39462906Y-138538350D01*
X39462913Y-138538354D01*
X39597620Y-138588596D01*
X39597627Y-138588598D01*
X39657155Y-138594999D01*
X39657172Y-138595000D01*
X40390000Y-138595000D01*
X40390000Y-137881802D01*
X40551169Y-137920000D01*
X40684267Y-137920000D01*
X40816461Y-137904549D01*
X40890000Y-137877782D01*
X40890000Y-138595000D01*
X41622828Y-138595000D01*
X41622844Y-138594999D01*
X41682372Y-138588598D01*
X41682379Y-138588596D01*
X41817086Y-138538354D01*
X41817093Y-138538350D01*
X41932187Y-138452190D01*
X41932190Y-138452187D01*
X42018350Y-138337093D01*
X42018354Y-138337086D01*
X42068596Y-138202379D01*
X42068598Y-138202372D01*
X42074999Y-138142844D01*
X42075000Y-138142827D01*
X42075000Y-137410000D01*
X41358483Y-137410000D01*
X41393549Y-137292871D01*
X41401288Y-137160000D01*
X46915404Y-137160000D01*
X46935743Y-137379501D01*
X46935743Y-137379503D01*
X46935744Y-137379506D01*
X46996072Y-137591538D01*
X46996073Y-137591541D01*
X47094330Y-137788868D01*
X47094335Y-137788876D01*
X47227184Y-137964796D01*
X47390094Y-138113307D01*
X47390096Y-138113309D01*
X47577519Y-138229356D01*
X47577525Y-138229359D01*
X47600670Y-138238325D01*
X47783083Y-138308993D01*
X47999777Y-138349500D01*
X47999779Y-138349500D01*
X48220221Y-138349500D01*
X48220223Y-138349500D01*
X48436917Y-138308993D01*
X48642477Y-138229358D01*
X48782203Y-138142844D01*
X50635000Y-138142844D01*
X50641401Y-138202372D01*
X50641403Y-138202379D01*
X50691645Y-138337086D01*
X50691649Y-138337093D01*
X50777809Y-138452187D01*
X50777812Y-138452190D01*
X50892906Y-138538350D01*
X50892913Y-138538354D01*
X51027620Y-138588596D01*
X51027627Y-138588598D01*
X51087155Y-138594999D01*
X51087172Y-138595000D01*
X51820000Y-138595000D01*
X51820000Y-137881802D01*
X51981169Y-137920000D01*
X52114267Y-137920000D01*
X52246461Y-137904549D01*
X52320000Y-137877782D01*
X52320000Y-138595000D01*
X53052828Y-138595000D01*
X53052844Y-138594999D01*
X53112372Y-138588598D01*
X53112379Y-138588596D01*
X53247086Y-138538354D01*
X53247093Y-138538350D01*
X53362187Y-138452190D01*
X53362190Y-138452187D01*
X53448350Y-138337093D01*
X53448354Y-138337086D01*
X53498596Y-138202379D01*
X53498598Y-138202372D01*
X53504999Y-138142844D01*
X53505000Y-138142827D01*
X53505000Y-137410000D01*
X52788483Y-137410000D01*
X52823549Y-137292871D01*
X52831288Y-137160000D01*
X58345404Y-137160000D01*
X58365743Y-137379501D01*
X58365743Y-137379503D01*
X58365744Y-137379506D01*
X58426072Y-137591538D01*
X58426073Y-137591541D01*
X58524330Y-137788868D01*
X58524335Y-137788876D01*
X58657184Y-137964796D01*
X58820094Y-138113307D01*
X58820096Y-138113309D01*
X59007519Y-138229356D01*
X59007525Y-138229359D01*
X59030670Y-138238325D01*
X59213083Y-138308993D01*
X59429777Y-138349500D01*
X59429779Y-138349500D01*
X59650221Y-138349500D01*
X59650223Y-138349500D01*
X59866917Y-138308993D01*
X60072477Y-138229358D01*
X60212203Y-138142844D01*
X62065000Y-138142844D01*
X62071401Y-138202372D01*
X62071403Y-138202379D01*
X62121645Y-138337086D01*
X62121649Y-138337093D01*
X62207809Y-138452187D01*
X62207812Y-138452190D01*
X62322906Y-138538350D01*
X62322913Y-138538354D01*
X62457620Y-138588596D01*
X62457627Y-138588598D01*
X62517155Y-138594999D01*
X62517172Y-138595000D01*
X63250000Y-138595000D01*
X63250000Y-137881802D01*
X63411169Y-137920000D01*
X63544267Y-137920000D01*
X63676461Y-137904549D01*
X63750000Y-137877782D01*
X63750000Y-138595000D01*
X64482828Y-138595000D01*
X64482844Y-138594999D01*
X64542372Y-138588598D01*
X64542379Y-138588596D01*
X64677086Y-138538354D01*
X64677093Y-138538350D01*
X64792187Y-138452190D01*
X64792190Y-138452187D01*
X64878350Y-138337093D01*
X64878354Y-138337086D01*
X64928596Y-138202379D01*
X64928598Y-138202372D01*
X64934999Y-138142844D01*
X64935000Y-138142827D01*
X64935000Y-137410000D01*
X64218483Y-137410000D01*
X64253549Y-137292871D01*
X64261288Y-137160000D01*
X69775404Y-137160000D01*
X69795743Y-137379501D01*
X69795743Y-137379503D01*
X69795744Y-137379506D01*
X69856072Y-137591538D01*
X69856073Y-137591541D01*
X69954330Y-137788868D01*
X69954335Y-137788876D01*
X70087184Y-137964796D01*
X70250094Y-138113307D01*
X70250096Y-138113309D01*
X70437519Y-138229356D01*
X70437525Y-138229359D01*
X70460670Y-138238325D01*
X70643083Y-138308993D01*
X70859777Y-138349500D01*
X70859779Y-138349500D01*
X71080221Y-138349500D01*
X71080223Y-138349500D01*
X71296917Y-138308993D01*
X71502477Y-138229358D01*
X71642203Y-138142844D01*
X73495000Y-138142844D01*
X73501401Y-138202372D01*
X73501403Y-138202379D01*
X73551645Y-138337086D01*
X73551649Y-138337093D01*
X73637809Y-138452187D01*
X73637812Y-138452190D01*
X73752906Y-138538350D01*
X73752913Y-138538354D01*
X73887620Y-138588596D01*
X73887627Y-138588598D01*
X73947155Y-138594999D01*
X73947172Y-138595000D01*
X74680000Y-138595000D01*
X74680000Y-137881802D01*
X74841169Y-137920000D01*
X74974267Y-137920000D01*
X75106461Y-137904549D01*
X75180000Y-137877782D01*
X75180000Y-138595000D01*
X75912828Y-138595000D01*
X75912844Y-138594999D01*
X75972372Y-138588598D01*
X75972379Y-138588596D01*
X76107086Y-138538354D01*
X76107093Y-138538350D01*
X76222187Y-138452190D01*
X76222190Y-138452187D01*
X76308350Y-138337093D01*
X76308354Y-138337086D01*
X76358596Y-138202379D01*
X76358598Y-138202372D01*
X76364999Y-138142844D01*
X76365000Y-138142827D01*
X76365000Y-137410000D01*
X75648483Y-137410000D01*
X75683549Y-137292871D01*
X75691288Y-137160000D01*
X81205404Y-137160000D01*
X81225743Y-137379501D01*
X81225743Y-137379503D01*
X81225744Y-137379506D01*
X81286072Y-137591538D01*
X81286073Y-137591541D01*
X81384330Y-137788868D01*
X81384335Y-137788876D01*
X81517184Y-137964796D01*
X81680094Y-138113307D01*
X81680096Y-138113309D01*
X81867519Y-138229356D01*
X81867525Y-138229359D01*
X81890670Y-138238325D01*
X82073083Y-138308993D01*
X82289777Y-138349500D01*
X82289779Y-138349500D01*
X82510221Y-138349500D01*
X82510223Y-138349500D01*
X82726917Y-138308993D01*
X82932477Y-138229358D01*
X83072203Y-138142844D01*
X84925000Y-138142844D01*
X84931401Y-138202372D01*
X84931403Y-138202379D01*
X84981645Y-138337086D01*
X84981649Y-138337093D01*
X85067809Y-138452187D01*
X85067812Y-138452190D01*
X85182906Y-138538350D01*
X85182913Y-138538354D01*
X85317620Y-138588596D01*
X85317627Y-138588598D01*
X85377155Y-138594999D01*
X85377172Y-138595000D01*
X86110000Y-138595000D01*
X86110000Y-137881802D01*
X86271169Y-137920000D01*
X86404267Y-137920000D01*
X86536461Y-137904549D01*
X86610000Y-137877782D01*
X86610000Y-138595000D01*
X87342828Y-138595000D01*
X87342844Y-138594999D01*
X87402372Y-138588598D01*
X87402379Y-138588596D01*
X87537086Y-138538354D01*
X87537093Y-138538350D01*
X87652187Y-138452190D01*
X87652190Y-138452187D01*
X87738350Y-138337093D01*
X87738354Y-138337086D01*
X87788596Y-138202379D01*
X87788598Y-138202372D01*
X87794999Y-138142844D01*
X87795000Y-138142827D01*
X87795000Y-137410000D01*
X87078483Y-137410000D01*
X87113549Y-137292871D01*
X87121288Y-137160000D01*
X92635404Y-137160000D01*
X92655743Y-137379501D01*
X92655743Y-137379503D01*
X92655744Y-137379506D01*
X92716072Y-137591538D01*
X92716073Y-137591541D01*
X92814330Y-137788868D01*
X92814335Y-137788876D01*
X92947184Y-137964796D01*
X93110094Y-138113307D01*
X93110096Y-138113309D01*
X93297519Y-138229356D01*
X93297525Y-138229359D01*
X93320670Y-138238325D01*
X93503083Y-138308993D01*
X93719777Y-138349500D01*
X93719779Y-138349500D01*
X93940221Y-138349500D01*
X93940223Y-138349500D01*
X94156917Y-138308993D01*
X94362477Y-138229358D01*
X94502203Y-138142844D01*
X96355000Y-138142844D01*
X96361401Y-138202372D01*
X96361403Y-138202379D01*
X96411645Y-138337086D01*
X96411649Y-138337093D01*
X96497809Y-138452187D01*
X96497812Y-138452190D01*
X96612906Y-138538350D01*
X96612913Y-138538354D01*
X96747620Y-138588596D01*
X96747627Y-138588598D01*
X96807155Y-138594999D01*
X96807172Y-138595000D01*
X97540000Y-138595000D01*
X97540000Y-137881802D01*
X97701169Y-137920000D01*
X97834267Y-137920000D01*
X97966461Y-137904549D01*
X98040000Y-137877782D01*
X98040000Y-138595000D01*
X98772828Y-138595000D01*
X98772844Y-138594999D01*
X98832372Y-138588598D01*
X98832379Y-138588596D01*
X98967086Y-138538354D01*
X98967093Y-138538350D01*
X99082187Y-138452190D01*
X99082190Y-138452187D01*
X99168350Y-138337093D01*
X99168354Y-138337086D01*
X99218596Y-138202379D01*
X99218598Y-138202372D01*
X99224999Y-138142844D01*
X99225000Y-138142827D01*
X99225000Y-137410000D01*
X98508483Y-137410000D01*
X98543549Y-137292871D01*
X98551288Y-137160000D01*
X107875404Y-137160000D01*
X107895743Y-137379501D01*
X107895743Y-137379503D01*
X107895744Y-137379506D01*
X107956072Y-137591538D01*
X107956073Y-137591541D01*
X108054330Y-137788868D01*
X108054335Y-137788876D01*
X108187184Y-137964796D01*
X108350094Y-138113307D01*
X108350096Y-138113309D01*
X108537519Y-138229356D01*
X108537525Y-138229359D01*
X108560670Y-138238325D01*
X108743083Y-138308993D01*
X108959777Y-138349500D01*
X108959779Y-138349500D01*
X109180221Y-138349500D01*
X109180223Y-138349500D01*
X109396917Y-138308993D01*
X109602477Y-138229358D01*
X109778995Y-138120063D01*
X111840500Y-138120063D01*
X111855266Y-138194301D01*
X111911515Y-138278484D01*
X111945234Y-138301014D01*
X111995699Y-138334734D01*
X111995702Y-138334734D01*
X111995703Y-138334735D01*
X112020666Y-138339700D01*
X112069933Y-138349500D01*
X113990066Y-138349499D01*
X114064301Y-138334734D01*
X114148484Y-138278484D01*
X114204734Y-138194301D01*
X114219500Y-138120067D01*
X114219499Y-137160000D01*
X119305404Y-137160000D01*
X119325743Y-137379501D01*
X119325743Y-137379503D01*
X119325744Y-137379506D01*
X119386072Y-137591538D01*
X119386073Y-137591541D01*
X119484330Y-137788868D01*
X119484335Y-137788876D01*
X119617184Y-137964796D01*
X119780094Y-138113307D01*
X119780096Y-138113309D01*
X119967519Y-138229356D01*
X119967525Y-138229359D01*
X119990670Y-138238325D01*
X120173083Y-138308993D01*
X120389777Y-138349500D01*
X120389779Y-138349500D01*
X120610221Y-138349500D01*
X120610223Y-138349500D01*
X120826917Y-138308993D01*
X121032477Y-138229358D01*
X121208995Y-138120063D01*
X123270500Y-138120063D01*
X123285266Y-138194301D01*
X123341515Y-138278484D01*
X123375234Y-138301014D01*
X123425699Y-138334734D01*
X123425702Y-138334734D01*
X123425703Y-138334735D01*
X123450666Y-138339700D01*
X123499933Y-138349500D01*
X125420066Y-138349499D01*
X125494301Y-138334734D01*
X125578484Y-138278484D01*
X125634734Y-138194301D01*
X125649500Y-138120067D01*
X125649499Y-137160000D01*
X130735404Y-137160000D01*
X130755743Y-137379501D01*
X130755743Y-137379503D01*
X130755744Y-137379506D01*
X130816072Y-137591538D01*
X130816073Y-137591541D01*
X130914330Y-137788868D01*
X130914335Y-137788876D01*
X131047184Y-137964796D01*
X131210094Y-138113307D01*
X131210096Y-138113309D01*
X131397519Y-138229356D01*
X131397525Y-138229359D01*
X131420670Y-138238325D01*
X131603083Y-138308993D01*
X131819777Y-138349500D01*
X131819779Y-138349500D01*
X132040221Y-138349500D01*
X132040223Y-138349500D01*
X132256917Y-138308993D01*
X132462477Y-138229358D01*
X132638995Y-138120063D01*
X134700500Y-138120063D01*
X134715266Y-138194301D01*
X134771515Y-138278484D01*
X134805234Y-138301014D01*
X134855699Y-138334734D01*
X134855702Y-138334734D01*
X134855703Y-138334735D01*
X134880666Y-138339700D01*
X134929933Y-138349500D01*
X136850066Y-138349499D01*
X136924301Y-138334734D01*
X137008484Y-138278484D01*
X137064734Y-138194301D01*
X137079500Y-138120067D01*
X137079499Y-137160000D01*
X142165404Y-137160000D01*
X142185743Y-137379501D01*
X142185743Y-137379503D01*
X142185744Y-137379506D01*
X142246072Y-137591538D01*
X142246073Y-137591541D01*
X142344330Y-137788868D01*
X142344335Y-137788876D01*
X142477184Y-137964796D01*
X142640094Y-138113307D01*
X142640096Y-138113309D01*
X142827519Y-138229356D01*
X142827525Y-138229359D01*
X142850670Y-138238325D01*
X143033083Y-138308993D01*
X143249777Y-138349500D01*
X143249779Y-138349500D01*
X143470221Y-138349500D01*
X143470223Y-138349500D01*
X143686917Y-138308993D01*
X143892477Y-138229358D01*
X144068995Y-138120063D01*
X146130500Y-138120063D01*
X146145266Y-138194301D01*
X146201515Y-138278484D01*
X146235234Y-138301014D01*
X146285699Y-138334734D01*
X146285702Y-138334734D01*
X146285703Y-138334735D01*
X146310666Y-138339700D01*
X146359933Y-138349500D01*
X148280066Y-138349499D01*
X148354301Y-138334734D01*
X148438484Y-138278484D01*
X148494734Y-138194301D01*
X148509500Y-138120067D01*
X148509499Y-137160000D01*
X153595404Y-137160000D01*
X153615743Y-137379501D01*
X153615743Y-137379503D01*
X153615744Y-137379506D01*
X153676072Y-137591538D01*
X153676073Y-137591541D01*
X153774330Y-137788868D01*
X153774335Y-137788876D01*
X153907184Y-137964796D01*
X154070094Y-138113307D01*
X154070096Y-138113309D01*
X154257519Y-138229356D01*
X154257525Y-138229359D01*
X154280670Y-138238325D01*
X154463083Y-138308993D01*
X154679777Y-138349500D01*
X154679779Y-138349500D01*
X154900221Y-138349500D01*
X154900223Y-138349500D01*
X155116917Y-138308993D01*
X155322477Y-138229358D01*
X155498995Y-138120063D01*
X157560500Y-138120063D01*
X157575266Y-138194301D01*
X157631515Y-138278484D01*
X157665234Y-138301014D01*
X157715699Y-138334734D01*
X157715702Y-138334734D01*
X157715703Y-138334735D01*
X157740666Y-138339700D01*
X157789933Y-138349500D01*
X159710066Y-138349499D01*
X159784301Y-138334734D01*
X159868484Y-138278484D01*
X159924734Y-138194301D01*
X159939500Y-138120067D01*
X159939499Y-137160000D01*
X165175404Y-137160000D01*
X165195743Y-137379501D01*
X165195743Y-137379503D01*
X165195744Y-137379506D01*
X165256072Y-137591538D01*
X165256073Y-137591541D01*
X165354330Y-137788868D01*
X165354335Y-137788876D01*
X165487184Y-137964796D01*
X165650094Y-138113307D01*
X165650096Y-138113309D01*
X165837519Y-138229356D01*
X165837525Y-138229359D01*
X165860670Y-138238325D01*
X166043083Y-138308993D01*
X166259777Y-138349500D01*
X166259779Y-138349500D01*
X166480221Y-138349500D01*
X166480223Y-138349500D01*
X166696917Y-138308993D01*
X166902477Y-138229358D01*
X167078995Y-138120063D01*
X169140500Y-138120063D01*
X169155266Y-138194301D01*
X169211515Y-138278484D01*
X169245234Y-138301014D01*
X169295699Y-138334734D01*
X169295702Y-138334734D01*
X169295703Y-138334735D01*
X169320666Y-138339700D01*
X169369933Y-138349500D01*
X171290066Y-138349499D01*
X171364301Y-138334734D01*
X171448484Y-138278484D01*
X171504734Y-138194301D01*
X171519500Y-138120067D01*
X171519499Y-136888270D01*
X180005500Y-136888270D01*
X180011959Y-136948338D01*
X180011962Y-136948349D01*
X180062655Y-137084261D01*
X180062656Y-137084264D01*
X180062658Y-137084267D01*
X180083293Y-137111832D01*
X180149595Y-137200404D01*
X180184535Y-137226559D01*
X180265733Y-137287342D01*
X180265737Y-137287343D01*
X180265738Y-137287344D01*
X180401650Y-137338037D01*
X180401653Y-137338037D01*
X180401659Y-137338040D01*
X180414047Y-137339371D01*
X180461729Y-137344499D01*
X180461746Y-137344500D01*
X182458254Y-137344500D01*
X182458270Y-137344499D01*
X182499757Y-137340037D01*
X182518341Y-137338040D01*
X182654267Y-137287342D01*
X182770404Y-137200404D01*
X182857342Y-137084267D01*
X182908040Y-136948341D01*
X182912162Y-136910000D01*
X182914499Y-136888270D01*
X182914500Y-136888253D01*
X182914500Y-135890006D01*
X183960515Y-135890006D01*
X183980418Y-136130215D01*
X183980420Y-136130226D01*
X184039593Y-136363892D01*
X184136421Y-136584639D01*
X184230383Y-136728458D01*
X184268261Y-136786434D01*
X184417304Y-136948338D01*
X184431520Y-136963780D01*
X184431524Y-136963783D01*
X184600687Y-137095448D01*
X184621737Y-137111832D01*
X184621739Y-137111833D01*
X184621742Y-137111835D01*
X184710744Y-137160000D01*
X184833732Y-137226557D01*
X185061718Y-137304825D01*
X185299477Y-137344500D01*
X185299478Y-137344500D01*
X185540522Y-137344500D01*
X185540523Y-137344500D01*
X185778282Y-137304825D01*
X186006268Y-137226557D01*
X186218263Y-137111832D01*
X186408482Y-136963778D01*
X186571739Y-136786434D01*
X186703579Y-136584638D01*
X186800406Y-136363894D01*
X186859580Y-136130223D01*
X186860624Y-136117627D01*
X186879485Y-135890006D01*
X187920515Y-135890006D01*
X187940418Y-136130215D01*
X187940420Y-136130226D01*
X187999593Y-136363892D01*
X188096421Y-136584639D01*
X188190383Y-136728458D01*
X188228261Y-136786434D01*
X188377304Y-136948338D01*
X188391520Y-136963780D01*
X188391524Y-136963783D01*
X188560687Y-137095448D01*
X188581737Y-137111832D01*
X188581739Y-137111833D01*
X188581742Y-137111835D01*
X188670744Y-137160000D01*
X188793732Y-137226557D01*
X189021718Y-137304825D01*
X189259477Y-137344500D01*
X189259478Y-137344500D01*
X189500522Y-137344500D01*
X189500523Y-137344500D01*
X189738282Y-137304825D01*
X189966268Y-137226557D01*
X190178263Y-137111832D01*
X190368482Y-136963778D01*
X190531739Y-136786434D01*
X190663579Y-136584638D01*
X190760406Y-136363894D01*
X190819580Y-136130223D01*
X190820624Y-136117627D01*
X190839485Y-135890006D01*
X191880515Y-135890006D01*
X191900418Y-136130215D01*
X191900420Y-136130226D01*
X191959593Y-136363892D01*
X192056421Y-136584639D01*
X192150383Y-136728458D01*
X192188261Y-136786434D01*
X192337304Y-136948338D01*
X192351520Y-136963780D01*
X192351524Y-136963783D01*
X192520687Y-137095448D01*
X192541737Y-137111832D01*
X192541739Y-137111833D01*
X192541742Y-137111835D01*
X192630744Y-137160000D01*
X192753732Y-137226557D01*
X192981718Y-137304825D01*
X193219477Y-137344500D01*
X193219478Y-137344500D01*
X193460522Y-137344500D01*
X193460523Y-137344500D01*
X193698282Y-137304825D01*
X193926268Y-137226557D01*
X194138263Y-137111832D01*
X194328482Y-136963778D01*
X194491739Y-136786434D01*
X194623579Y-136584638D01*
X194720406Y-136363894D01*
X194779580Y-136130223D01*
X194780624Y-136117627D01*
X194799485Y-135890006D01*
X195840515Y-135890006D01*
X195860418Y-136130215D01*
X195860420Y-136130226D01*
X195919593Y-136363892D01*
X196016421Y-136584639D01*
X196110383Y-136728458D01*
X196148261Y-136786434D01*
X196297304Y-136948338D01*
X196311520Y-136963780D01*
X196311524Y-136963783D01*
X196480687Y-137095448D01*
X196501737Y-137111832D01*
X196501739Y-137111833D01*
X196501742Y-137111835D01*
X196590744Y-137160000D01*
X196713732Y-137226557D01*
X196941718Y-137304825D01*
X197179477Y-137344500D01*
X197179478Y-137344500D01*
X197420522Y-137344500D01*
X197420523Y-137344500D01*
X197658282Y-137304825D01*
X197886268Y-137226557D01*
X198098263Y-137111832D01*
X198288482Y-136963778D01*
X198451739Y-136786434D01*
X198583579Y-136584638D01*
X198680406Y-136363894D01*
X198739580Y-136130223D01*
X198740624Y-136117627D01*
X198759485Y-135890006D01*
X199800515Y-135890006D01*
X199820418Y-136130215D01*
X199820420Y-136130226D01*
X199879593Y-136363892D01*
X199976421Y-136584639D01*
X200070383Y-136728458D01*
X200108261Y-136786434D01*
X200257304Y-136948338D01*
X200271520Y-136963780D01*
X200271524Y-136963783D01*
X200440687Y-137095448D01*
X200461737Y-137111832D01*
X200461739Y-137111833D01*
X200461742Y-137111835D01*
X200550744Y-137160000D01*
X200673732Y-137226557D01*
X200901718Y-137304825D01*
X201139477Y-137344500D01*
X201139478Y-137344500D01*
X201380522Y-137344500D01*
X201380523Y-137344500D01*
X201618282Y-137304825D01*
X201846268Y-137226557D01*
X202058263Y-137111832D01*
X202248482Y-136963778D01*
X202411739Y-136786434D01*
X202543579Y-136584638D01*
X202640406Y-136363894D01*
X202699580Y-136130223D01*
X202700624Y-136117627D01*
X202719485Y-135890006D01*
X202719485Y-135890000D01*
X212015404Y-135890000D01*
X212035743Y-136109501D01*
X212035743Y-136109503D01*
X212035744Y-136109506D01*
X212096072Y-136321538D01*
X212096073Y-136321541D01*
X212194330Y-136518868D01*
X212194335Y-136518876D01*
X212327184Y-136694796D01*
X212490094Y-136843307D01*
X212490096Y-136843309D01*
X212677519Y-136959356D01*
X212677525Y-136959359D01*
X212688932Y-136963778D01*
X212883083Y-137038993D01*
X213099777Y-137079500D01*
X213099779Y-137079500D01*
X213320221Y-137079500D01*
X213320223Y-137079500D01*
X213536917Y-137038993D01*
X213742477Y-136959358D01*
X213918995Y-136850063D01*
X215980500Y-136850063D01*
X215995266Y-136924301D01*
X216051515Y-137008484D01*
X216079420Y-137027129D01*
X216135699Y-137064734D01*
X216135702Y-137064734D01*
X216135703Y-137064735D01*
X216160666Y-137069700D01*
X216209933Y-137079500D01*
X218130066Y-137079499D01*
X218204301Y-137064734D01*
X218288484Y-137008484D01*
X218344734Y-136924301D01*
X218359500Y-136850067D01*
X218359500Y-135890005D01*
X225740082Y-135890005D01*
X225759720Y-136126999D01*
X225818101Y-136357541D01*
X225913629Y-136575324D01*
X226003524Y-136712920D01*
X226495195Y-136221250D01*
X226517340Y-136272587D01*
X226623433Y-136415094D01*
X226759530Y-136529294D01*
X226849216Y-136574335D01*
X226356260Y-137067290D01*
X226356261Y-137067291D01*
X226392437Y-137095448D01*
X226392443Y-137095453D01*
X226601585Y-137208634D01*
X226601599Y-137208640D01*
X226826517Y-137285856D01*
X227061094Y-137325000D01*
X227298906Y-137325000D01*
X227533482Y-137285856D01*
X227758400Y-137208640D01*
X227758409Y-137208637D01*
X227967562Y-137095448D01*
X227967565Y-137095447D01*
X228003737Y-137067291D01*
X228003737Y-137067290D01*
X227786510Y-136850063D01*
X229950500Y-136850063D01*
X229965266Y-136924301D01*
X230021515Y-137008484D01*
X230049420Y-137027129D01*
X230105699Y-137064734D01*
X230105702Y-137064734D01*
X230105703Y-137064735D01*
X230130666Y-137069700D01*
X230179933Y-137079500D01*
X232100066Y-137079499D01*
X232174301Y-137064734D01*
X232258484Y-137008484D01*
X232314734Y-136924301D01*
X232329500Y-136850067D01*
X232329499Y-134929934D01*
X232314734Y-134855699D01*
X232288352Y-134816216D01*
X232258484Y-134771515D01*
X232208019Y-134737796D01*
X232174301Y-134715266D01*
X232174299Y-134715265D01*
X232174296Y-134715264D01*
X232100069Y-134700500D01*
X230179936Y-134700500D01*
X230105698Y-134715266D01*
X230021515Y-134771515D01*
X229965266Y-134855699D01*
X229965264Y-134855703D01*
X229950500Y-134929928D01*
X229950500Y-136850063D01*
X227786510Y-136850063D01*
X227513747Y-136577300D01*
X227523409Y-136573784D01*
X227671844Y-136476157D01*
X227793764Y-136346930D01*
X227865767Y-136222215D01*
X228356473Y-136712921D01*
X228446371Y-136575321D01*
X228541898Y-136357541D01*
X228600279Y-136126999D01*
X228619918Y-135890005D01*
X228619918Y-135889994D01*
X228600279Y-135653000D01*
X228541898Y-135422458D01*
X228446370Y-135204675D01*
X228356473Y-135067077D01*
X227864803Y-135558747D01*
X227842660Y-135507413D01*
X227736567Y-135364906D01*
X227600470Y-135250706D01*
X227510782Y-135205663D01*
X228003737Y-134712708D01*
X228003737Y-134712707D01*
X227967561Y-134684550D01*
X227967556Y-134684546D01*
X227758414Y-134571365D01*
X227758400Y-134571359D01*
X227533482Y-134494143D01*
X227298906Y-134455000D01*
X227061094Y-134455000D01*
X226826517Y-134494143D01*
X226601599Y-134571359D01*
X226601585Y-134571365D01*
X226392442Y-134684547D01*
X226392431Y-134684554D01*
X226356261Y-134712706D01*
X226356261Y-134712708D01*
X226846252Y-135202699D01*
X226836591Y-135206216D01*
X226688156Y-135303843D01*
X226566236Y-135433070D01*
X226494232Y-135557784D01*
X226003524Y-135067077D01*
X225913632Y-135204669D01*
X225913627Y-135204680D01*
X225818101Y-135422458D01*
X225759720Y-135653000D01*
X225740082Y-135889994D01*
X225740082Y-135890005D01*
X218359500Y-135890005D01*
X218359499Y-134929934D01*
X218344734Y-134855699D01*
X218318352Y-134816216D01*
X218288484Y-134771515D01*
X218238019Y-134737796D01*
X218204301Y-134715266D01*
X218204299Y-134715265D01*
X218204296Y-134715264D01*
X218130069Y-134700500D01*
X216209936Y-134700500D01*
X216135698Y-134715266D01*
X216051515Y-134771515D01*
X215995266Y-134855699D01*
X215995264Y-134855703D01*
X215980500Y-134929928D01*
X215980500Y-136850063D01*
X213918995Y-136850063D01*
X213929905Y-136843308D01*
X214092817Y-136694794D01*
X214225666Y-136518874D01*
X214323928Y-136321538D01*
X214384256Y-136109506D01*
X214404596Y-135890000D01*
X214404595Y-135889994D01*
X214394556Y-135781649D01*
X214384256Y-135670494D01*
X214323928Y-135458462D01*
X214302837Y-135416106D01*
X214225669Y-135261131D01*
X214225664Y-135261123D01*
X214092815Y-135085203D01*
X213929905Y-134936692D01*
X213929903Y-134936690D01*
X213742480Y-134820643D01*
X213742474Y-134820640D01*
X213656366Y-134787282D01*
X213536917Y-134741007D01*
X213320223Y-134700500D01*
X213099777Y-134700500D01*
X212883083Y-134741007D01*
X212833701Y-134760137D01*
X212677525Y-134820640D01*
X212677519Y-134820643D01*
X212490096Y-134936690D01*
X212490094Y-134936692D01*
X212327184Y-135085203D01*
X212194335Y-135261123D01*
X212194330Y-135261131D01*
X212096073Y-135458458D01*
X212096072Y-135458462D01*
X212040722Y-135653000D01*
X212035743Y-135670498D01*
X212015404Y-135889999D01*
X212015404Y-135890000D01*
X202719485Y-135890000D01*
X202719485Y-135889993D01*
X202699581Y-135649784D01*
X202699579Y-135649773D01*
X202644702Y-135433070D01*
X202640406Y-135416106D01*
X202543579Y-135195362D01*
X202510970Y-135145451D01*
X202411740Y-134993568D01*
X202411739Y-134993566D01*
X202248482Y-134816222D01*
X202248481Y-134816221D01*
X202248479Y-134816219D01*
X202248475Y-134816216D01*
X202058266Y-134668170D01*
X202058257Y-134668164D01*
X201846274Y-134553446D01*
X201846271Y-134553445D01*
X201846268Y-134553443D01*
X201846262Y-134553441D01*
X201846260Y-134553440D01*
X201618284Y-134475175D01*
X201459776Y-134448725D01*
X201380523Y-134435500D01*
X201139477Y-134435500D01*
X201080037Y-134445418D01*
X200901715Y-134475175D01*
X200673739Y-134553440D01*
X200673725Y-134553446D01*
X200461742Y-134668164D01*
X200461733Y-134668170D01*
X200271524Y-134816216D01*
X200271520Y-134816219D01*
X200108262Y-134993564D01*
X200108259Y-134993568D01*
X199976421Y-135195360D01*
X199879593Y-135416107D01*
X199820420Y-135649773D01*
X199820418Y-135649784D01*
X199800515Y-135889993D01*
X199800515Y-135890006D01*
X198759485Y-135890006D01*
X198759485Y-135889993D01*
X198739581Y-135649784D01*
X198739579Y-135649773D01*
X198684702Y-135433070D01*
X198680406Y-135416106D01*
X198583579Y-135195362D01*
X198550970Y-135145451D01*
X198451740Y-134993568D01*
X198451739Y-134993566D01*
X198288482Y-134816222D01*
X198288481Y-134816221D01*
X198288479Y-134816219D01*
X198288475Y-134816216D01*
X198098266Y-134668170D01*
X198098257Y-134668164D01*
X197886274Y-134553446D01*
X197886271Y-134553445D01*
X197886268Y-134553443D01*
X197886262Y-134553441D01*
X197886260Y-134553440D01*
X197658284Y-134475175D01*
X197499776Y-134448725D01*
X197420523Y-134435500D01*
X197179477Y-134435500D01*
X197120037Y-134445418D01*
X196941715Y-134475175D01*
X196713739Y-134553440D01*
X196713725Y-134553446D01*
X196501742Y-134668164D01*
X196501733Y-134668170D01*
X196311524Y-134816216D01*
X196311520Y-134816219D01*
X196148262Y-134993564D01*
X196148259Y-134993568D01*
X196016421Y-135195360D01*
X195919593Y-135416107D01*
X195860420Y-135649773D01*
X195860418Y-135649784D01*
X195840515Y-135889993D01*
X195840515Y-135890006D01*
X194799485Y-135890006D01*
X194799485Y-135889993D01*
X194779581Y-135649784D01*
X194779579Y-135649773D01*
X194724702Y-135433070D01*
X194720406Y-135416106D01*
X194623579Y-135195362D01*
X194590970Y-135145451D01*
X194491740Y-134993568D01*
X194491739Y-134993566D01*
X194328482Y-134816222D01*
X194328481Y-134816221D01*
X194328479Y-134816219D01*
X194328475Y-134816216D01*
X194138266Y-134668170D01*
X194138257Y-134668164D01*
X193926274Y-134553446D01*
X193926271Y-134553445D01*
X193926268Y-134553443D01*
X193926262Y-134553441D01*
X193926260Y-134553440D01*
X193698284Y-134475175D01*
X193539776Y-134448725D01*
X193460523Y-134435500D01*
X193219477Y-134435500D01*
X193160037Y-134445418D01*
X192981715Y-134475175D01*
X192753739Y-134553440D01*
X192753725Y-134553446D01*
X192541742Y-134668164D01*
X192541733Y-134668170D01*
X192351524Y-134816216D01*
X192351520Y-134816219D01*
X192188262Y-134993564D01*
X192188259Y-134993568D01*
X192056421Y-135195360D01*
X191959593Y-135416107D01*
X191900420Y-135649773D01*
X191900418Y-135649784D01*
X191880515Y-135889993D01*
X191880515Y-135890006D01*
X190839485Y-135890006D01*
X190839485Y-135889993D01*
X190819581Y-135649784D01*
X190819579Y-135649773D01*
X190764702Y-135433070D01*
X190760406Y-135416106D01*
X190663579Y-135195362D01*
X190630970Y-135145451D01*
X190531740Y-134993568D01*
X190531739Y-134993566D01*
X190368482Y-134816222D01*
X190368481Y-134816221D01*
X190368479Y-134816219D01*
X190368475Y-134816216D01*
X190178266Y-134668170D01*
X190178257Y-134668164D01*
X189966274Y-134553446D01*
X189966271Y-134553445D01*
X189966268Y-134553443D01*
X189966262Y-134553441D01*
X189966260Y-134553440D01*
X189738284Y-134475175D01*
X189579776Y-134448725D01*
X189500523Y-134435500D01*
X189259477Y-134435500D01*
X189200037Y-134445418D01*
X189021715Y-134475175D01*
X188793739Y-134553440D01*
X188793725Y-134553446D01*
X188581742Y-134668164D01*
X188581733Y-134668170D01*
X188391524Y-134816216D01*
X188391520Y-134816219D01*
X188228262Y-134993564D01*
X188228259Y-134993568D01*
X188096421Y-135195360D01*
X187999593Y-135416107D01*
X187940420Y-135649773D01*
X187940418Y-135649784D01*
X187920515Y-135889993D01*
X187920515Y-135890006D01*
X186879485Y-135890006D01*
X186879485Y-135889993D01*
X186859581Y-135649784D01*
X186859579Y-135649773D01*
X186804702Y-135433070D01*
X186800406Y-135416106D01*
X186703579Y-135195362D01*
X186670970Y-135145451D01*
X186571740Y-134993568D01*
X186571739Y-134993566D01*
X186408482Y-134816222D01*
X186408481Y-134816221D01*
X186408479Y-134816219D01*
X186408475Y-134816216D01*
X186218266Y-134668170D01*
X186218257Y-134668164D01*
X186006274Y-134553446D01*
X186006271Y-134553445D01*
X186006268Y-134553443D01*
X186006262Y-134553441D01*
X186006260Y-134553440D01*
X185778284Y-134475175D01*
X185619776Y-134448725D01*
X185540523Y-134435500D01*
X185299477Y-134435500D01*
X185240037Y-134445418D01*
X185061715Y-134475175D01*
X184833739Y-134553440D01*
X184833725Y-134553446D01*
X184621742Y-134668164D01*
X184621733Y-134668170D01*
X184431524Y-134816216D01*
X184431520Y-134816219D01*
X184268262Y-134993564D01*
X184268259Y-134993568D01*
X184136421Y-135195360D01*
X184039593Y-135416107D01*
X183980420Y-135649773D01*
X183980418Y-135649784D01*
X183960515Y-135889993D01*
X183960515Y-135890006D01*
X182914500Y-135890006D01*
X182914500Y-134891746D01*
X182914499Y-134891729D01*
X182908040Y-134831661D01*
X182908040Y-134831659D01*
X182903931Y-134820643D01*
X182857344Y-134695738D01*
X182857343Y-134695737D01*
X182857342Y-134695733D01*
X182813707Y-134637443D01*
X182770404Y-134579595D01*
X182693126Y-134521747D01*
X182654267Y-134492658D01*
X182654264Y-134492656D01*
X182654261Y-134492655D01*
X182518349Y-134441962D01*
X182518338Y-134441959D01*
X182458270Y-134435500D01*
X182458254Y-134435500D01*
X180461746Y-134435500D01*
X180461729Y-134435500D01*
X180401661Y-134441959D01*
X180401650Y-134441962D01*
X180265738Y-134492655D01*
X180265730Y-134492660D01*
X180149595Y-134579595D01*
X180062660Y-134695730D01*
X180062655Y-134695738D01*
X180011962Y-134831650D01*
X180011959Y-134831661D01*
X180005500Y-134891729D01*
X180005500Y-136888270D01*
X171519499Y-136888270D01*
X171519499Y-136199934D01*
X171504734Y-136125699D01*
X171481308Y-136090640D01*
X171448484Y-136041515D01*
X171366731Y-135986890D01*
X171364301Y-135985266D01*
X171364299Y-135985265D01*
X171364296Y-135985264D01*
X171290069Y-135970500D01*
X169369936Y-135970500D01*
X169295698Y-135985266D01*
X169211515Y-136041515D01*
X169155266Y-136125699D01*
X169155264Y-136125703D01*
X169140500Y-136199928D01*
X169140500Y-138120063D01*
X167078995Y-138120063D01*
X167089905Y-138113308D01*
X167252817Y-137964794D01*
X167385666Y-137788874D01*
X167483928Y-137591538D01*
X167544256Y-137379506D01*
X167564596Y-137160000D01*
X167544256Y-136940494D01*
X167483928Y-136728462D01*
X167482366Y-136725326D01*
X167385669Y-136531131D01*
X167385664Y-136531123D01*
X167252815Y-136355203D01*
X167089905Y-136206692D01*
X167089903Y-136206690D01*
X166902480Y-136090643D01*
X166902474Y-136090640D01*
X166816366Y-136057282D01*
X166696917Y-136011007D01*
X166480223Y-135970500D01*
X166259777Y-135970500D01*
X166043083Y-136011007D01*
X166012459Y-136022871D01*
X165837525Y-136090640D01*
X165837519Y-136090643D01*
X165650096Y-136206690D01*
X165650094Y-136206692D01*
X165487184Y-136355203D01*
X165354335Y-136531123D01*
X165354330Y-136531131D01*
X165256073Y-136728458D01*
X165256072Y-136728462D01*
X165210608Y-136888254D01*
X165195743Y-136940498D01*
X165175404Y-137159999D01*
X165175404Y-137160000D01*
X159939499Y-137160000D01*
X159939499Y-136199934D01*
X159924734Y-136125699D01*
X159901308Y-136090640D01*
X159868484Y-136041515D01*
X159786731Y-135986890D01*
X159784301Y-135985266D01*
X159784299Y-135985265D01*
X159784296Y-135985264D01*
X159710069Y-135970500D01*
X157789936Y-135970500D01*
X157715698Y-135985266D01*
X157631515Y-136041515D01*
X157575266Y-136125699D01*
X157575264Y-136125703D01*
X157560500Y-136199928D01*
X157560500Y-138120063D01*
X155498995Y-138120063D01*
X155509905Y-138113308D01*
X155672817Y-137964794D01*
X155805666Y-137788874D01*
X155903928Y-137591538D01*
X155964256Y-137379506D01*
X155984596Y-137160000D01*
X155964256Y-136940494D01*
X155903928Y-136728462D01*
X155902366Y-136725326D01*
X155805669Y-136531131D01*
X155805664Y-136531123D01*
X155672815Y-136355203D01*
X155509905Y-136206692D01*
X155509903Y-136206690D01*
X155322480Y-136090643D01*
X155322474Y-136090640D01*
X155236366Y-136057282D01*
X155116917Y-136011007D01*
X154900223Y-135970500D01*
X154679777Y-135970500D01*
X154463083Y-136011007D01*
X154432459Y-136022871D01*
X154257525Y-136090640D01*
X154257519Y-136090643D01*
X154070096Y-136206690D01*
X154070094Y-136206692D01*
X153907184Y-136355203D01*
X153774335Y-136531123D01*
X153774330Y-136531131D01*
X153676073Y-136728458D01*
X153676072Y-136728462D01*
X153630608Y-136888254D01*
X153615743Y-136940498D01*
X153595404Y-137159999D01*
X153595404Y-137160000D01*
X148509499Y-137160000D01*
X148509499Y-136199934D01*
X148494734Y-136125699D01*
X148471308Y-136090640D01*
X148438484Y-136041515D01*
X148356731Y-135986890D01*
X148354301Y-135985266D01*
X148354299Y-135985265D01*
X148354296Y-135985264D01*
X148280069Y-135970500D01*
X146359936Y-135970500D01*
X146285698Y-135985266D01*
X146201515Y-136041515D01*
X146145266Y-136125699D01*
X146145264Y-136125703D01*
X146130500Y-136199928D01*
X146130500Y-138120063D01*
X144068995Y-138120063D01*
X144079905Y-138113308D01*
X144242817Y-137964794D01*
X144375666Y-137788874D01*
X144473928Y-137591538D01*
X144534256Y-137379506D01*
X144554596Y-137160000D01*
X144534256Y-136940494D01*
X144473928Y-136728462D01*
X144472366Y-136725326D01*
X144375669Y-136531131D01*
X144375664Y-136531123D01*
X144242815Y-136355203D01*
X144079905Y-136206692D01*
X144079903Y-136206690D01*
X143892480Y-136090643D01*
X143892474Y-136090640D01*
X143806366Y-136057282D01*
X143686917Y-136011007D01*
X143470223Y-135970500D01*
X143249777Y-135970500D01*
X143033083Y-136011007D01*
X143002459Y-136022871D01*
X142827525Y-136090640D01*
X142827519Y-136090643D01*
X142640096Y-136206690D01*
X142640094Y-136206692D01*
X142477184Y-136355203D01*
X142344335Y-136531123D01*
X142344330Y-136531131D01*
X142246073Y-136728458D01*
X142246072Y-136728462D01*
X142200608Y-136888254D01*
X142185743Y-136940498D01*
X142165404Y-137159999D01*
X142165404Y-137160000D01*
X137079499Y-137160000D01*
X137079499Y-136199934D01*
X137064734Y-136125699D01*
X137041308Y-136090640D01*
X137008484Y-136041515D01*
X136926731Y-135986890D01*
X136924301Y-135985266D01*
X136924299Y-135985265D01*
X136924296Y-135985264D01*
X136850069Y-135970500D01*
X134929936Y-135970500D01*
X134855698Y-135985266D01*
X134771515Y-136041515D01*
X134715266Y-136125699D01*
X134715264Y-136125703D01*
X134700500Y-136199928D01*
X134700500Y-138120063D01*
X132638995Y-138120063D01*
X132649905Y-138113308D01*
X132812817Y-137964794D01*
X132945666Y-137788874D01*
X133043928Y-137591538D01*
X133104256Y-137379506D01*
X133124596Y-137160000D01*
X133104256Y-136940494D01*
X133043928Y-136728462D01*
X133042366Y-136725326D01*
X132945669Y-136531131D01*
X132945664Y-136531123D01*
X132812815Y-136355203D01*
X132649905Y-136206692D01*
X132649903Y-136206690D01*
X132462480Y-136090643D01*
X132462474Y-136090640D01*
X132376366Y-136057282D01*
X132256917Y-136011007D01*
X132040223Y-135970500D01*
X131819777Y-135970500D01*
X131603083Y-136011007D01*
X131572459Y-136022871D01*
X131397525Y-136090640D01*
X131397519Y-136090643D01*
X131210096Y-136206690D01*
X131210094Y-136206692D01*
X131047184Y-136355203D01*
X130914335Y-136531123D01*
X130914330Y-136531131D01*
X130816073Y-136728458D01*
X130816072Y-136728462D01*
X130770608Y-136888254D01*
X130755743Y-136940498D01*
X130735404Y-137159999D01*
X130735404Y-137160000D01*
X125649499Y-137160000D01*
X125649499Y-136199934D01*
X125634734Y-136125699D01*
X125611308Y-136090640D01*
X125578484Y-136041515D01*
X125496731Y-135986890D01*
X125494301Y-135985266D01*
X125494299Y-135985265D01*
X125494296Y-135985264D01*
X125420069Y-135970500D01*
X123499936Y-135970500D01*
X123425698Y-135985266D01*
X123341515Y-136041515D01*
X123285266Y-136125699D01*
X123285264Y-136125703D01*
X123270500Y-136199928D01*
X123270500Y-138120063D01*
X121208995Y-138120063D01*
X121219905Y-138113308D01*
X121382817Y-137964794D01*
X121515666Y-137788874D01*
X121613928Y-137591538D01*
X121674256Y-137379506D01*
X121694596Y-137160000D01*
X121674256Y-136940494D01*
X121613928Y-136728462D01*
X121612366Y-136725326D01*
X121515669Y-136531131D01*
X121515664Y-136531123D01*
X121382815Y-136355203D01*
X121219905Y-136206692D01*
X121219903Y-136206690D01*
X121032480Y-136090643D01*
X121032474Y-136090640D01*
X120946366Y-136057282D01*
X120826917Y-136011007D01*
X120610223Y-135970500D01*
X120389777Y-135970500D01*
X120173083Y-136011007D01*
X120142459Y-136022871D01*
X119967525Y-136090640D01*
X119967519Y-136090643D01*
X119780096Y-136206690D01*
X119780094Y-136206692D01*
X119617184Y-136355203D01*
X119484335Y-136531123D01*
X119484330Y-136531131D01*
X119386073Y-136728458D01*
X119386072Y-136728462D01*
X119340608Y-136888254D01*
X119325743Y-136940498D01*
X119305404Y-137159999D01*
X119305404Y-137160000D01*
X114219499Y-137160000D01*
X114219499Y-136199934D01*
X114204734Y-136125699D01*
X114181308Y-136090640D01*
X114148484Y-136041515D01*
X114066731Y-135986890D01*
X114064301Y-135985266D01*
X114064299Y-135985265D01*
X114064296Y-135985264D01*
X113990069Y-135970500D01*
X112069936Y-135970500D01*
X111995698Y-135985266D01*
X111911515Y-136041515D01*
X111855266Y-136125699D01*
X111855264Y-136125703D01*
X111840500Y-136199928D01*
X111840500Y-138120063D01*
X109778995Y-138120063D01*
X109789905Y-138113308D01*
X109952817Y-137964794D01*
X110085666Y-137788874D01*
X110183928Y-137591538D01*
X110244256Y-137379506D01*
X110264596Y-137160000D01*
X110244256Y-136940494D01*
X110183928Y-136728462D01*
X110182366Y-136725326D01*
X110085669Y-136531131D01*
X110085664Y-136531123D01*
X109952815Y-136355203D01*
X109789905Y-136206692D01*
X109789903Y-136206690D01*
X109602480Y-136090643D01*
X109602474Y-136090640D01*
X109516366Y-136057282D01*
X109396917Y-136011007D01*
X109180223Y-135970500D01*
X108959777Y-135970500D01*
X108743083Y-136011007D01*
X108712459Y-136022871D01*
X108537525Y-136090640D01*
X108537519Y-136090643D01*
X108350096Y-136206690D01*
X108350094Y-136206692D01*
X108187184Y-136355203D01*
X108054335Y-136531123D01*
X108054330Y-136531131D01*
X107956073Y-136728458D01*
X107956072Y-136728462D01*
X107910608Y-136888254D01*
X107895743Y-136940498D01*
X107875404Y-137159999D01*
X107875404Y-137160000D01*
X98551288Y-137160000D01*
X98553879Y-137115509D01*
X98523029Y-136940546D01*
X98509853Y-136910000D01*
X99225000Y-136910000D01*
X99225000Y-136177172D01*
X99224999Y-136177155D01*
X99218598Y-136117627D01*
X99218596Y-136117620D01*
X99168354Y-135982913D01*
X99168350Y-135982906D01*
X99082190Y-135867812D01*
X99082187Y-135867809D01*
X98967093Y-135781649D01*
X98967086Y-135781645D01*
X98832379Y-135731403D01*
X98832372Y-135731401D01*
X98772844Y-135725000D01*
X98040000Y-135725000D01*
X98040000Y-136438197D01*
X97878831Y-136400000D01*
X97745733Y-136400000D01*
X97613539Y-136415451D01*
X97540000Y-136442217D01*
X97540000Y-135725000D01*
X96807155Y-135725000D01*
X96747627Y-135731401D01*
X96747620Y-135731403D01*
X96612913Y-135781645D01*
X96612906Y-135781649D01*
X96497812Y-135867809D01*
X96497809Y-135867812D01*
X96411649Y-135982906D01*
X96411645Y-135982913D01*
X96361403Y-136117620D01*
X96361401Y-136117627D01*
X96355000Y-136177155D01*
X96355000Y-136910000D01*
X97071517Y-136910000D01*
X97036451Y-137027129D01*
X97026121Y-137204491D01*
X97056971Y-137379454D01*
X97070147Y-137410000D01*
X96355000Y-137410000D01*
X96355000Y-138142844D01*
X94502203Y-138142844D01*
X94549905Y-138113308D01*
X94712817Y-137964794D01*
X94845666Y-137788874D01*
X94943928Y-137591538D01*
X95004256Y-137379506D01*
X95024596Y-137160000D01*
X95004256Y-136940494D01*
X94943928Y-136728462D01*
X94942366Y-136725326D01*
X94845669Y-136531131D01*
X94845664Y-136531123D01*
X94712815Y-136355203D01*
X94549905Y-136206692D01*
X94549903Y-136206690D01*
X94362480Y-136090643D01*
X94362474Y-136090640D01*
X94276366Y-136057282D01*
X94156917Y-136011007D01*
X93940223Y-135970500D01*
X93719777Y-135970500D01*
X93503083Y-136011007D01*
X93472459Y-136022871D01*
X93297525Y-136090640D01*
X93297519Y-136090643D01*
X93110096Y-136206690D01*
X93110094Y-136206692D01*
X92947184Y-136355203D01*
X92814335Y-136531123D01*
X92814330Y-136531131D01*
X92716073Y-136728458D01*
X92716072Y-136728462D01*
X92670608Y-136888254D01*
X92655743Y-136940498D01*
X92635404Y-137159999D01*
X92635404Y-137160000D01*
X87121288Y-137160000D01*
X87123879Y-137115509D01*
X87093029Y-136940546D01*
X87079853Y-136910000D01*
X87795000Y-136910000D01*
X87795000Y-136177172D01*
X87794999Y-136177155D01*
X87788598Y-136117627D01*
X87788596Y-136117620D01*
X87738354Y-135982913D01*
X87738350Y-135982906D01*
X87652190Y-135867812D01*
X87652187Y-135867809D01*
X87537093Y-135781649D01*
X87537086Y-135781645D01*
X87402379Y-135731403D01*
X87402372Y-135731401D01*
X87342844Y-135725000D01*
X86610000Y-135725000D01*
X86610000Y-136438197D01*
X86448831Y-136400000D01*
X86315733Y-136400000D01*
X86183539Y-136415451D01*
X86110000Y-136442217D01*
X86110000Y-135725000D01*
X85377155Y-135725000D01*
X85317627Y-135731401D01*
X85317620Y-135731403D01*
X85182913Y-135781645D01*
X85182906Y-135781649D01*
X85067812Y-135867809D01*
X85067809Y-135867812D01*
X84981649Y-135982906D01*
X84981645Y-135982913D01*
X84931403Y-136117620D01*
X84931401Y-136117627D01*
X84925000Y-136177155D01*
X84925000Y-136910000D01*
X85641517Y-136910000D01*
X85606451Y-137027129D01*
X85596121Y-137204491D01*
X85626971Y-137379454D01*
X85640147Y-137410000D01*
X84925000Y-137410000D01*
X84925000Y-138142844D01*
X83072203Y-138142844D01*
X83119905Y-138113308D01*
X83282817Y-137964794D01*
X83415666Y-137788874D01*
X83513928Y-137591538D01*
X83574256Y-137379506D01*
X83594596Y-137160000D01*
X83574256Y-136940494D01*
X83513928Y-136728462D01*
X83512366Y-136725326D01*
X83415669Y-136531131D01*
X83415664Y-136531123D01*
X83282815Y-136355203D01*
X83119905Y-136206692D01*
X83119903Y-136206690D01*
X82932480Y-136090643D01*
X82932474Y-136090640D01*
X82846366Y-136057282D01*
X82726917Y-136011007D01*
X82510223Y-135970500D01*
X82289777Y-135970500D01*
X82073083Y-136011007D01*
X82042459Y-136022871D01*
X81867525Y-136090640D01*
X81867519Y-136090643D01*
X81680096Y-136206690D01*
X81680094Y-136206692D01*
X81517184Y-136355203D01*
X81384335Y-136531123D01*
X81384330Y-136531131D01*
X81286073Y-136728458D01*
X81286072Y-136728462D01*
X81240608Y-136888254D01*
X81225743Y-136940498D01*
X81205404Y-137159999D01*
X81205404Y-137160000D01*
X75691288Y-137160000D01*
X75693879Y-137115509D01*
X75663029Y-136940546D01*
X75649853Y-136910000D01*
X76365000Y-136910000D01*
X76365000Y-136177172D01*
X76364999Y-136177155D01*
X76358598Y-136117627D01*
X76358596Y-136117620D01*
X76308354Y-135982913D01*
X76308350Y-135982906D01*
X76222190Y-135867812D01*
X76222187Y-135867809D01*
X76107093Y-135781649D01*
X76107086Y-135781645D01*
X75972379Y-135731403D01*
X75972372Y-135731401D01*
X75912844Y-135725000D01*
X75180000Y-135725000D01*
X75180000Y-136438197D01*
X75018831Y-136400000D01*
X74885733Y-136400000D01*
X74753539Y-136415451D01*
X74680000Y-136442217D01*
X74680000Y-135725000D01*
X73947155Y-135725000D01*
X73887627Y-135731401D01*
X73887620Y-135731403D01*
X73752913Y-135781645D01*
X73752906Y-135781649D01*
X73637812Y-135867809D01*
X73637809Y-135867812D01*
X73551649Y-135982906D01*
X73551645Y-135982913D01*
X73501403Y-136117620D01*
X73501401Y-136117627D01*
X73495000Y-136177155D01*
X73495000Y-136910000D01*
X74211517Y-136910000D01*
X74176451Y-137027129D01*
X74166121Y-137204491D01*
X74196971Y-137379454D01*
X74210147Y-137410000D01*
X73495000Y-137410000D01*
X73495000Y-138142844D01*
X71642203Y-138142844D01*
X71689905Y-138113308D01*
X71852817Y-137964794D01*
X71985666Y-137788874D01*
X72083928Y-137591538D01*
X72144256Y-137379506D01*
X72164596Y-137160000D01*
X72144256Y-136940494D01*
X72083928Y-136728462D01*
X72082366Y-136725326D01*
X71985669Y-136531131D01*
X71985664Y-136531123D01*
X71852815Y-136355203D01*
X71689905Y-136206692D01*
X71689903Y-136206690D01*
X71502480Y-136090643D01*
X71502474Y-136090640D01*
X71416366Y-136057282D01*
X71296917Y-136011007D01*
X71080223Y-135970500D01*
X70859777Y-135970500D01*
X70643083Y-136011007D01*
X70612459Y-136022871D01*
X70437525Y-136090640D01*
X70437519Y-136090643D01*
X70250096Y-136206690D01*
X70250094Y-136206692D01*
X70087184Y-136355203D01*
X69954335Y-136531123D01*
X69954330Y-136531131D01*
X69856073Y-136728458D01*
X69856072Y-136728462D01*
X69810608Y-136888254D01*
X69795743Y-136940498D01*
X69775404Y-137159999D01*
X69775404Y-137160000D01*
X64261288Y-137160000D01*
X64263879Y-137115509D01*
X64233029Y-136940546D01*
X64219853Y-136910000D01*
X64935000Y-136910000D01*
X64935000Y-136177172D01*
X64934999Y-136177155D01*
X64928598Y-136117627D01*
X64928596Y-136117620D01*
X64878354Y-135982913D01*
X64878350Y-135982906D01*
X64792190Y-135867812D01*
X64792187Y-135867809D01*
X64677093Y-135781649D01*
X64677086Y-135781645D01*
X64542379Y-135731403D01*
X64542372Y-135731401D01*
X64482844Y-135725000D01*
X63750000Y-135725000D01*
X63750000Y-136438197D01*
X63588831Y-136400000D01*
X63455733Y-136400000D01*
X63323539Y-136415451D01*
X63250000Y-136442217D01*
X63250000Y-135725000D01*
X62517155Y-135725000D01*
X62457627Y-135731401D01*
X62457620Y-135731403D01*
X62322913Y-135781645D01*
X62322906Y-135781649D01*
X62207812Y-135867809D01*
X62207809Y-135867812D01*
X62121649Y-135982906D01*
X62121645Y-135982913D01*
X62071403Y-136117620D01*
X62071401Y-136117627D01*
X62065000Y-136177155D01*
X62065000Y-136910000D01*
X62781517Y-136910000D01*
X62746451Y-137027129D01*
X62736121Y-137204491D01*
X62766971Y-137379454D01*
X62780147Y-137410000D01*
X62065000Y-137410000D01*
X62065000Y-138142844D01*
X60212203Y-138142844D01*
X60259905Y-138113308D01*
X60422817Y-137964794D01*
X60555666Y-137788874D01*
X60653928Y-137591538D01*
X60714256Y-137379506D01*
X60734596Y-137160000D01*
X60714256Y-136940494D01*
X60653928Y-136728462D01*
X60652366Y-136725326D01*
X60555669Y-136531131D01*
X60555664Y-136531123D01*
X60422815Y-136355203D01*
X60259905Y-136206692D01*
X60259903Y-136206690D01*
X60072480Y-136090643D01*
X60072474Y-136090640D01*
X59986366Y-136057282D01*
X59866917Y-136011007D01*
X59650223Y-135970500D01*
X59429777Y-135970500D01*
X59213083Y-136011007D01*
X59182459Y-136022871D01*
X59007525Y-136090640D01*
X59007519Y-136090643D01*
X58820096Y-136206690D01*
X58820094Y-136206692D01*
X58657184Y-136355203D01*
X58524335Y-136531123D01*
X58524330Y-136531131D01*
X58426073Y-136728458D01*
X58426072Y-136728462D01*
X58380608Y-136888254D01*
X58365743Y-136940498D01*
X58345404Y-137159999D01*
X58345404Y-137160000D01*
X52831288Y-137160000D01*
X52833879Y-137115509D01*
X52803029Y-136940546D01*
X52789853Y-136910000D01*
X53505000Y-136910000D01*
X53505000Y-136177172D01*
X53504999Y-136177155D01*
X53498598Y-136117627D01*
X53498596Y-136117620D01*
X53448354Y-135982913D01*
X53448350Y-135982906D01*
X53362190Y-135867812D01*
X53362187Y-135867809D01*
X53247093Y-135781649D01*
X53247086Y-135781645D01*
X53112379Y-135731403D01*
X53112372Y-135731401D01*
X53052844Y-135725000D01*
X52320000Y-135725000D01*
X52320000Y-136438197D01*
X52158831Y-136400000D01*
X52025733Y-136400000D01*
X51893539Y-136415451D01*
X51820000Y-136442217D01*
X51820000Y-135725000D01*
X51087155Y-135725000D01*
X51027627Y-135731401D01*
X51027620Y-135731403D01*
X50892913Y-135781645D01*
X50892906Y-135781649D01*
X50777812Y-135867809D01*
X50777809Y-135867812D01*
X50691649Y-135982906D01*
X50691645Y-135982913D01*
X50641403Y-136117620D01*
X50641401Y-136117627D01*
X50635000Y-136177155D01*
X50635000Y-136910000D01*
X51351517Y-136910000D01*
X51316451Y-137027129D01*
X51306121Y-137204491D01*
X51336971Y-137379454D01*
X51350147Y-137410000D01*
X50635000Y-137410000D01*
X50635000Y-138142844D01*
X48782203Y-138142844D01*
X48829905Y-138113308D01*
X48992817Y-137964794D01*
X49125666Y-137788874D01*
X49223928Y-137591538D01*
X49284256Y-137379506D01*
X49304596Y-137160000D01*
X49284256Y-136940494D01*
X49223928Y-136728462D01*
X49222366Y-136725326D01*
X49125669Y-136531131D01*
X49125664Y-136531123D01*
X48992815Y-136355203D01*
X48829905Y-136206692D01*
X48829903Y-136206690D01*
X48642480Y-136090643D01*
X48642474Y-136090640D01*
X48556366Y-136057282D01*
X48436917Y-136011007D01*
X48220223Y-135970500D01*
X47999777Y-135970500D01*
X47783083Y-136011007D01*
X47752459Y-136022871D01*
X47577525Y-136090640D01*
X47577519Y-136090643D01*
X47390096Y-136206690D01*
X47390094Y-136206692D01*
X47227184Y-136355203D01*
X47094335Y-136531123D01*
X47094330Y-136531131D01*
X46996073Y-136728458D01*
X46996072Y-136728462D01*
X46950608Y-136888254D01*
X46935743Y-136940498D01*
X46915404Y-137159999D01*
X46915404Y-137160000D01*
X41401288Y-137160000D01*
X41403879Y-137115509D01*
X41373029Y-136940546D01*
X41359853Y-136910000D01*
X42075000Y-136910000D01*
X42075000Y-136177172D01*
X42074999Y-136177155D01*
X42068598Y-136117627D01*
X42068596Y-136117620D01*
X42018354Y-135982913D01*
X42018350Y-135982906D01*
X41932190Y-135867812D01*
X41932187Y-135867809D01*
X41817093Y-135781649D01*
X41817086Y-135781645D01*
X41682379Y-135731403D01*
X41682372Y-135731401D01*
X41622844Y-135725000D01*
X40890000Y-135725000D01*
X40890000Y-136438197D01*
X40728831Y-136400000D01*
X40595733Y-136400000D01*
X40463539Y-136415451D01*
X40390000Y-136442217D01*
X40390000Y-135725000D01*
X39657155Y-135725000D01*
X39597627Y-135731401D01*
X39597620Y-135731403D01*
X39462913Y-135781645D01*
X39462906Y-135781649D01*
X39347812Y-135867809D01*
X39347809Y-135867812D01*
X39261649Y-135982906D01*
X39261645Y-135982913D01*
X39211403Y-136117620D01*
X39211401Y-136117627D01*
X39205000Y-136177155D01*
X39205000Y-136910000D01*
X39921517Y-136910000D01*
X39886451Y-137027129D01*
X39876121Y-137204491D01*
X39906971Y-137379454D01*
X39920147Y-137410000D01*
X39205000Y-137410000D01*
X39205000Y-138142844D01*
X37352203Y-138142844D01*
X37399905Y-138113308D01*
X37562817Y-137964794D01*
X37695666Y-137788874D01*
X37793928Y-137591538D01*
X37854256Y-137379506D01*
X37874596Y-137160000D01*
X37854256Y-136940494D01*
X37793928Y-136728462D01*
X37792366Y-136725326D01*
X37695669Y-136531131D01*
X37695664Y-136531123D01*
X37562815Y-136355203D01*
X37399905Y-136206692D01*
X37399903Y-136206690D01*
X37212480Y-136090643D01*
X37212474Y-136090640D01*
X37126366Y-136057282D01*
X37006917Y-136011007D01*
X36790223Y-135970500D01*
X36569777Y-135970500D01*
X36353083Y-136011007D01*
X36322459Y-136022871D01*
X36147525Y-136090640D01*
X36147519Y-136090643D01*
X35960096Y-136206690D01*
X35960094Y-136206692D01*
X35797184Y-136355203D01*
X35664335Y-136531123D01*
X35664330Y-136531131D01*
X35566073Y-136728458D01*
X35566072Y-136728462D01*
X35520608Y-136888254D01*
X35505743Y-136940498D01*
X35485404Y-137159999D01*
X35485404Y-137160000D01*
X28434679Y-137160000D01*
X28404365Y-137120837D01*
X28128021Y-136830124D01*
X28128020Y-136830123D01*
X27823686Y-136568860D01*
X27494476Y-136339723D01*
X27494471Y-136339720D01*
X27143776Y-136145068D01*
X26775175Y-135986890D01*
X26392489Y-135866821D01*
X26392483Y-135866820D01*
X26392480Y-135866819D01*
X26392479Y-135866819D01*
X25999591Y-135786079D01*
X25999590Y-135786078D01*
X25999586Y-135786078D01*
X25600551Y-135745500D01*
X25600550Y-135745500D01*
X25199450Y-135745500D01*
X25199449Y-135745500D01*
X24800413Y-135786078D01*
X24407516Y-135866820D01*
X24407510Y-135866821D01*
X24024824Y-135986890D01*
X23656223Y-136145068D01*
X23305528Y-136339720D01*
X23305523Y-136339723D01*
X22976313Y-136568860D01*
X22671979Y-136830123D01*
X22395630Y-137120842D01*
X22150123Y-137438012D01*
X21937952Y-137778407D01*
X21761313Y-138138511D01*
X21761307Y-138138524D01*
X21622009Y-138514638D01*
X21521470Y-138902946D01*
X21460732Y-139299416D01*
X21440418Y-139700000D01*
X20955500Y-139700000D01*
X20955500Y-132463500D01*
X20975185Y-132396461D01*
X21027989Y-132350706D01*
X21079500Y-132339500D01*
X248160500Y-132339500D01*
X248227539Y-132359185D01*
G37*
%TD.AperFunction*%
%TD*%
M02*
