%TF.GenerationSoftware,KiCad,Pcbnew,7.0.9-7.0.9~ubuntu20.04.1*%
%TF.CreationDate,2024-01-29T08:29:47-05:00*%
%TF.ProjectId,power-board,706f7765-722d-4626-9f61-72642e6b6963,rev?*%
%TF.SameCoordinates,Original*%
%TF.FileFunction,Soldermask,Top*%
%TF.FilePolarity,Negative*%
%FSLAX46Y46*%
G04 Gerber Fmt 4.6, Leading zero omitted, Abs format (unit mm)*
G04 Created by KiCad (PCBNEW 7.0.9-7.0.9~ubuntu20.04.1) date 2024-01-29 08:29:47*
%MOMM*%
%LPD*%
G01*
G04 APERTURE LIST*
G04 Aperture macros list*
%AMRoundRect*
0 Rectangle with rounded corners*
0 $1 Rounding radius*
0 $2 $3 $4 $5 $6 $7 $8 $9 X,Y pos of 4 corners*
0 Add a 4 corners polygon primitive as box body*
4,1,4,$2,$3,$4,$5,$6,$7,$8,$9,$2,$3,0*
0 Add four circle primitives for the rounded corners*
1,1,$1+$1,$2,$3*
1,1,$1+$1,$4,$5*
1,1,$1+$1,$6,$7*
1,1,$1+$1,$8,$9*
0 Add four rect primitives between the rounded corners*
20,1,$1+$1,$2,$3,$4,$5,0*
20,1,$1+$1,$4,$5,$6,$7,0*
20,1,$1+$1,$6,$7,$8,$9,0*
20,1,$1+$1,$8,$9,$2,$3,0*%
G04 Aperture macros list end*
%ADD10RoundRect,0.102000X-0.765000X-0.765000X0.765000X-0.765000X0.765000X0.765000X-0.765000X0.765000X0*%
%ADD11C,1.734000*%
%ADD12C,1.400000*%
%ADD13O,1.400000X1.400000*%
%ADD14C,7.400000*%
%ADD15RoundRect,0.102000X-0.935000X-0.935000X0.935000X-0.935000X0.935000X0.935000X-0.935000X0.935000X0*%
%ADD16C,2.074000*%
%ADD17RoundRect,0.102000X-0.762000X-0.762000X0.762000X-0.762000X0.762000X0.762000X-0.762000X0.762000X0*%
%ADD18C,1.728000*%
%ADD19RoundRect,0.102000X0.935000X-0.935000X0.935000X0.935000X-0.935000X0.935000X-0.935000X-0.935000X0*%
%ADD20RoundRect,0.102000X0.762000X-0.762000X0.762000X0.762000X-0.762000X0.762000X-0.762000X-0.762000X0*%
%ADD21C,3.302000*%
%ADD22C,3.048000*%
%ADD23R,1.800000X1.800000*%
%ADD24C,1.800000*%
%ADD25RoundRect,0.102000X1.335000X-1.335000X1.335000X1.335000X-1.335000X1.335000X-1.335000X-1.335000X0*%
%ADD26C,2.874000*%
%ADD27R,1.700000X1.700000*%
%ADD28O,1.700000X1.700000*%
%ADD29RoundRect,0.250001X-0.949999X-0.949999X0.949999X-0.949999X0.949999X0.949999X-0.949999X0.949999X0*%
%ADD30C,2.400000*%
%ADD31C,2.200000*%
%ADD32C,1.700000*%
%ADD33O,1.804000X3.404000*%
%ADD34O,3.704000X1.954000*%
%ADD35RoundRect,0.102000X1.335000X1.335000X-1.335000X1.335000X-1.335000X-1.335000X1.335000X-1.335000X0*%
%ADD36R,1.600000X1.600000*%
%ADD37C,1.600000*%
G04 APERTURE END LIST*
D10*
%TO.C,J36*%
X223520000Y-125730000D03*
D11*
X226060000Y-125730000D03*
X228600000Y-125730000D03*
X231140000Y-125730000D03*
X233680000Y-125730000D03*
X236220000Y-125730000D03*
X238760000Y-125730000D03*
X241300000Y-125730000D03*
X243840000Y-125730000D03*
X246380000Y-125730000D03*
%TD*%
D10*
%TO.C,J20*%
X223520000Y-117475000D03*
D11*
X226060000Y-117475000D03*
X228600000Y-117475000D03*
X231140000Y-117475000D03*
X233680000Y-117475000D03*
X236220000Y-117475000D03*
X238760000Y-117475000D03*
X241300000Y-117475000D03*
X243840000Y-117475000D03*
X246380000Y-117475000D03*
%TD*%
D12*
%TO.C,R7*%
X204470000Y-70485000D03*
D13*
X212090000Y-70485000D03*
%TD*%
D14*
%TO.C,H4*%
X243840000Y-139700000D03*
%TD*%
D15*
%TO.C,J14*%
X191176500Y-96264000D03*
D16*
X187216500Y-96264000D03*
%TD*%
D17*
%TO.C,TP2*%
X83820000Y-25400000D03*
D18*
X86360000Y-25400000D03*
X88900000Y-25400000D03*
%TD*%
D12*
%TO.C,R3*%
X134620000Y-34290000D03*
D13*
X127000000Y-34290000D03*
%TD*%
D12*
%TO.C,R1*%
X134620000Y-31115000D03*
D13*
X127000000Y-31115000D03*
%TD*%
D14*
%TO.C,H3*%
X25400000Y-139700000D03*
%TD*%
D19*
%TO.C,J6*%
X245110000Y-42545000D03*
D16*
X245110000Y-46505000D03*
%TD*%
D15*
%TO.C,J22*%
X217170000Y-135890000D03*
D16*
X213210000Y-135890000D03*
%TD*%
D15*
%TO.C,J17*%
X191135000Y-108204000D03*
D16*
X187175000Y-108204000D03*
%TD*%
D17*
%TO.C,J7*%
X179705000Y-50165000D03*
D18*
X182245000Y-50165000D03*
X184785000Y-50165000D03*
%TD*%
D17*
%TO.C,J1*%
X184150000Y-25376500D03*
D18*
X186690000Y-25376500D03*
X189230000Y-25376500D03*
%TD*%
D20*
%TO.C,J12*%
X244797500Y-85090000D03*
D18*
X244797500Y-82550000D03*
X244797500Y-80010000D03*
%TD*%
D21*
%TO.C,U1*%
X91567000Y-43180000D03*
X35687000Y-43180000D03*
X91567000Y-124460000D03*
X35687000Y-124460000D03*
D22*
X58547000Y-52197000D03*
X76327000Y-52197000D03*
X50927000Y-120777000D03*
X63627000Y-120777000D03*
X76327000Y-120777000D03*
%TD*%
D12*
%TO.C,R8*%
X218440000Y-70485000D03*
D13*
X226060000Y-70485000D03*
%TD*%
D17*
%TO.C,J9*%
X207645000Y-50165000D03*
D18*
X210185000Y-50165000D03*
X212725000Y-50165000D03*
%TD*%
D17*
%TO.C,J2*%
X198120000Y-25376500D03*
D18*
X200660000Y-25376500D03*
X203200000Y-25376500D03*
%TD*%
D23*
%TO.C,D4*%
X149860000Y-25400000D03*
D24*
X147320000Y-25400000D03*
%TD*%
D15*
%TO.C,J18*%
X203835000Y-107950000D03*
D16*
X199875000Y-107950000D03*
%TD*%
D25*
%TO.C,J11*%
X245062500Y-70075000D03*
D26*
X245062500Y-66115000D03*
X245062500Y-62155000D03*
X245062500Y-58195000D03*
%TD*%
D17*
%TO.C,TP1*%
X98425000Y-25400000D03*
D18*
X100965000Y-25400000D03*
X103505000Y-25400000D03*
%TD*%
D15*
%TO.C,J31*%
X124460000Y-137160000D03*
D16*
X120500000Y-137160000D03*
%TD*%
D23*
%TO.C,D3*%
X139700000Y-25400000D03*
D24*
X137160000Y-25400000D03*
%TD*%
D27*
%TO.C,JP1*%
X184135000Y-33655000D03*
D28*
X186675000Y-33655000D03*
X189215000Y-33655000D03*
%TD*%
D15*
%TO.C,J25*%
X52070000Y-137160000D03*
D16*
X48110000Y-137160000D03*
%TD*%
D27*
%TO.C,JP7*%
X207645000Y-60960000D03*
D28*
X210185000Y-60960000D03*
X212725000Y-60960000D03*
%TD*%
D21*
%TO.C,U2*%
X162687000Y-43180000D03*
X106807000Y-43180000D03*
X162687000Y-124460000D03*
X106807000Y-124460000D03*
D22*
X129667000Y-52197000D03*
X147447000Y-52197000D03*
X122047000Y-120777000D03*
X134747000Y-120777000D03*
X147447000Y-120777000D03*
%TD*%
D27*
%TO.C,JP4*%
X226060000Y-33655000D03*
D28*
X228600000Y-33655000D03*
X231140000Y-33655000D03*
%TD*%
D15*
%TO.C,J23*%
X231140000Y-135890000D03*
D16*
X227180000Y-135890000D03*
%TD*%
D15*
%TO.C,J32*%
X135890000Y-137160000D03*
D16*
X131930000Y-137160000D03*
%TD*%
D29*
%TO.C,J21*%
X181460000Y-135890000D03*
D30*
X185420000Y-135890000D03*
X189380000Y-135890000D03*
X193340000Y-135890000D03*
X197300000Y-135890000D03*
X201260000Y-135890000D03*
%TD*%
D12*
%TO.C,R5*%
X176530000Y-70485000D03*
D13*
X184150000Y-70485000D03*
%TD*%
D15*
%TO.C,J24*%
X40640000Y-137160000D03*
D16*
X36680000Y-137160000D03*
%TD*%
D12*
%TO.C,R4*%
X152400000Y-34290000D03*
D13*
X144780000Y-34290000D03*
%TD*%
D27*
%TO.C,J13*%
X185420000Y-83820000D03*
D28*
X185420000Y-81280000D03*
X187960000Y-83820000D03*
X187960000Y-81280000D03*
X190500000Y-83820000D03*
X190500000Y-81280000D03*
X193040000Y-83820000D03*
X193040000Y-81280000D03*
X195580000Y-83820000D03*
X195580000Y-81280000D03*
X198120000Y-83820000D03*
X198120000Y-81280000D03*
X200660000Y-83820000D03*
X200660000Y-81280000D03*
X203200000Y-83820000D03*
X203200000Y-81280000D03*
X205740000Y-83820000D03*
X205740000Y-81280000D03*
X208280000Y-83820000D03*
X208280000Y-81280000D03*
X210820000Y-83820000D03*
X210820000Y-81280000D03*
X213360000Y-83820000D03*
X213360000Y-81280000D03*
%TD*%
D15*
%TO.C,J15*%
X203876500Y-96264000D03*
D16*
X199916500Y-96264000D03*
%TD*%
D27*
%TO.C,JP3*%
X212090000Y-33655000D03*
D28*
X214630000Y-33655000D03*
X217170000Y-33655000D03*
%TD*%
D14*
%TO.C,H1*%
X25400000Y-22860000D03*
%TD*%
D17*
%TO.C,J3*%
X212090000Y-25376500D03*
D18*
X214630000Y-25376500D03*
X217170000Y-25376500D03*
%TD*%
D15*
%TO.C,J29*%
X97790000Y-137160000D03*
D16*
X93830000Y-137160000D03*
%TD*%
D12*
%TO.C,R6*%
X190500000Y-70485000D03*
D13*
X198120000Y-70485000D03*
%TD*%
D15*
%TO.C,J30*%
X113030000Y-137160000D03*
D16*
X109070000Y-137160000D03*
%TD*%
D31*
%TO.C,J5*%
X174765000Y-21590000D03*
D32*
X169465000Y-21590000D03*
X164465000Y-21590000D03*
D31*
X159165000Y-21590000D03*
D33*
X169865000Y-28740000D03*
X164065000Y-28740000D03*
X169465000Y-25090000D03*
X164465000Y-25090000D03*
D34*
X166965000Y-19590000D03*
D33*
X174765000Y-30090000D03*
X159165000Y-30090000D03*
%TD*%
D15*
%TO.C,J27*%
X74930000Y-137160000D03*
D16*
X70970000Y-137160000D03*
%TD*%
D15*
%TO.C,J34*%
X158750000Y-137160000D03*
D16*
X154790000Y-137160000D03*
%TD*%
D27*
%TO.C,JP5*%
X179705000Y-60960000D03*
D28*
X182245000Y-60960000D03*
X184785000Y-60960000D03*
%TD*%
D15*
%TO.C,J28*%
X86360000Y-137160000D03*
D16*
X82400000Y-137160000D03*
%TD*%
D35*
%TO.C,J19*%
X211045000Y-120650000D03*
D26*
X207085000Y-120650000D03*
X203125000Y-120650000D03*
X199165000Y-120650000D03*
%TD*%
D23*
%TO.C,D2*%
X129540000Y-25400000D03*
D24*
X127000000Y-25400000D03*
%TD*%
D15*
%TO.C,J35*%
X170330000Y-137160000D03*
D16*
X166370000Y-137160000D03*
%TD*%
D36*
%TO.C,J16*%
X237775000Y-103505000D03*
D37*
X235005000Y-103505000D03*
X232235000Y-103505000D03*
X229465000Y-103505000D03*
X226695000Y-103505000D03*
X236390000Y-106345000D03*
X233620000Y-106345000D03*
X230850000Y-106345000D03*
X228080000Y-106345000D03*
%TD*%
D27*
%TO.C,JP2*%
X198120000Y-33655000D03*
D28*
X200660000Y-33655000D03*
X203200000Y-33655000D03*
%TD*%
D14*
%TO.C,H2*%
X243840000Y-22860000D03*
%TD*%
D23*
%TO.C,D1*%
X119380000Y-25400000D03*
D24*
X116840000Y-25400000D03*
%TD*%
D17*
%TO.C,J4*%
X226060000Y-25376500D03*
D18*
X228600000Y-25376500D03*
X231140000Y-25376500D03*
%TD*%
D27*
%TO.C,JP8*%
X221615000Y-60960000D03*
D28*
X224155000Y-60960000D03*
X226695000Y-60960000D03*
%TD*%
D17*
%TO.C,J10*%
X221615000Y-50165000D03*
D18*
X224155000Y-50165000D03*
X226695000Y-50165000D03*
%TD*%
D27*
%TO.C,JP6*%
X193675000Y-60960000D03*
D28*
X196215000Y-60960000D03*
X198755000Y-60960000D03*
%TD*%
D12*
%TO.C,R2*%
X152400000Y-31115000D03*
D13*
X144780000Y-31115000D03*
%TD*%
D15*
%TO.C,J33*%
X147320000Y-137160000D03*
D16*
X143360000Y-137160000D03*
%TD*%
D17*
%TO.C,J8*%
X193675000Y-50165000D03*
D18*
X196215000Y-50165000D03*
X198755000Y-50165000D03*
%TD*%
D15*
%TO.C,J26*%
X63500000Y-137160000D03*
D16*
X59540000Y-137160000D03*
%TD*%
M02*
