%TF.GenerationSoftware,KiCad,Pcbnew,7.0.10-7.0.10~ubuntu22.04.1*%
%TF.CreationDate,2024-01-18T15:24:53-05:00*%
%TF.ProjectId,power-board,706f7765-722d-4626-9f61-72642e6b6963,rev?*%
%TF.SameCoordinates,Original*%
%TF.FileFunction,Copper,L1,Top*%
%TF.FilePolarity,Positive*%
%FSLAX46Y46*%
G04 Gerber Fmt 4.6, Leading zero omitted, Abs format (unit mm)*
G04 Created by KiCad (PCBNEW 7.0.10-7.0.10~ubuntu22.04.1) date 2024-01-18 15:24:53*
%MOMM*%
%LPD*%
G01*
G04 APERTURE LIST*
G04 Aperture macros list*
%AMRoundRect*
0 Rectangle with rounded corners*
0 $1 Rounding radius*
0 $2 $3 $4 $5 $6 $7 $8 $9 X,Y pos of 4 corners*
0 Add a 4 corners polygon primitive as box body*
4,1,4,$2,$3,$4,$5,$6,$7,$8,$9,$2,$3,0*
0 Add four circle primitives for the rounded corners*
1,1,$1+$1,$2,$3*
1,1,$1+$1,$4,$5*
1,1,$1+$1,$6,$7*
1,1,$1+$1,$8,$9*
0 Add four rect primitives between the rounded corners*
20,1,$1+$1,$2,$3,$4,$5,0*
20,1,$1+$1,$4,$5,$6,$7,0*
20,1,$1+$1,$6,$7,$8,$9,0*
20,1,$1+$1,$8,$9,$2,$3,0*%
G04 Aperture macros list end*
%TA.AperFunction,ComponentPad*%
%ADD10R,1.524000X1.524000*%
%TD*%
%TA.AperFunction,ComponentPad*%
%ADD11C,1.524000*%
%TD*%
%TA.AperFunction,ComponentPad*%
%ADD12C,1.400000*%
%TD*%
%TA.AperFunction,ComponentPad*%
%ADD13O,1.400000X1.400000*%
%TD*%
%TA.AperFunction,ComponentPad*%
%ADD14C,7.400000*%
%TD*%
%TA.AperFunction,ComponentPad*%
%ADD15R,1.870000X1.870000*%
%TD*%
%TA.AperFunction,ComponentPad*%
%ADD16C,1.870000*%
%TD*%
%TA.AperFunction,ComponentPad*%
%ADD17C,3.048000*%
%TD*%
%TA.AperFunction,ComponentPad*%
%ADD18R,1.800000X1.800000*%
%TD*%
%TA.AperFunction,ComponentPad*%
%ADD19C,1.800000*%
%TD*%
%TA.AperFunction,ComponentPad*%
%ADD20R,2.670000X2.670000*%
%TD*%
%TA.AperFunction,ComponentPad*%
%ADD21C,2.670000*%
%TD*%
%TA.AperFunction,ComponentPad*%
%ADD22R,1.700000X1.700000*%
%TD*%
%TA.AperFunction,ComponentPad*%
%ADD23O,1.700000X1.700000*%
%TD*%
%TA.AperFunction,ComponentPad*%
%ADD24RoundRect,0.250001X-0.949999X-0.949999X0.949999X-0.949999X0.949999X0.949999X-0.949999X0.949999X0*%
%TD*%
%TA.AperFunction,ComponentPad*%
%ADD25C,2.400000*%
%TD*%
%TA.AperFunction,ComponentPad*%
%ADD26O,1.600000X3.200000*%
%TD*%
%TA.AperFunction,ComponentPad*%
%ADD27O,3.500000X1.750000*%
%TD*%
%TA.AperFunction,ComponentPad*%
%ADD28R,1.600000X1.600000*%
%TD*%
%TA.AperFunction,ComponentPad*%
%ADD29C,1.600000*%
%TD*%
%TA.AperFunction,ViaPad*%
%ADD30C,1.143000*%
%TD*%
%TA.AperFunction,ViaPad*%
%ADD31C,2.159000*%
%TD*%
%TA.AperFunction,Conductor*%
%ADD32C,0.254000*%
%TD*%
%TA.AperFunction,Conductor*%
%ADD33C,2.540000*%
%TD*%
%TA.AperFunction,Conductor*%
%ADD34C,1.905000*%
%TD*%
G04 APERTURE END LIST*
D10*
%TO.P,TP1,1,Pin_1*%
%TO.N,/HV_MON+*%
X98425000Y-25400000D03*
D11*
%TO.P,TP1,2,Pin_2*%
%TO.N,/HV_MON-*%
X100965000Y-25400000D03*
%TO.P,TP1,3,Pin_3*%
%TO.N,GND*%
X103505000Y-25400000D03*
%TD*%
D12*
%TO.P,R7,1*%
%TO.N,+5V*%
X204470000Y-70485000D03*
D13*
%TO.P,R7,2*%
%TO.N,/GPIO_IN_2*%
X212090000Y-70485000D03*
%TD*%
D14*
%TO.P,H4,1*%
%TO.N,N/C*%
X243840000Y-139700000D03*
%TD*%
D15*
%TO.P,J14,1,Pin_1*%
%TO.N,+5V*%
X191176500Y-96264000D03*
D16*
%TO.P,J14,2,Pin_2*%
%TO.N,GND*%
X187216500Y-96264000D03*
%TD*%
D12*
%TO.P,R3,1*%
%TO.N,+6V*%
X134620000Y-34290000D03*
D13*
%TO.P,R3,2*%
%TO.N,Net-(D1-A)*%
X127000000Y-34290000D03*
%TD*%
D12*
%TO.P,R1,1*%
%TO.N,+5V*%
X134620000Y-31115000D03*
D13*
%TO.P,R1,2*%
%TO.N,Net-(D2-A)*%
X127000000Y-31115000D03*
%TD*%
D14*
%TO.P,H3,1*%
%TO.N,N/C*%
X25400000Y-139700000D03*
%TD*%
D15*
%TO.P,J6,1,Pin_1*%
%TO.N,+12V*%
X245110000Y-42545000D03*
D16*
%TO.P,J6,2,Pin_2*%
%TO.N,GND*%
X245110000Y-46505000D03*
%TD*%
D15*
%TO.P,J22,1,Pin_1*%
%TO.N,Net-(J23-Pin_1)*%
X217170000Y-135890000D03*
D16*
%TO.P,J22,2,Pin_2*%
%TO.N,+12V*%
X213210000Y-135890000D03*
%TD*%
D15*
%TO.P,J17,1,Pin_1*%
%TO.N,+12V*%
X191135000Y-108204000D03*
D16*
%TO.P,J17,2,Pin_2*%
%TO.N,GND*%
X187175000Y-108204000D03*
%TD*%
D10*
%TO.P,J7,1,Pin_1*%
%TO.N,+5V*%
X179705000Y-50165000D03*
D11*
%TO.P,J7,2,Pin_2*%
%TO.N,Net-(J8-Pin_2)*%
X182245000Y-50165000D03*
%TO.P,J7,3,Pin_3*%
%TO.N,GND*%
X184785000Y-50165000D03*
%TD*%
D10*
%TO.P,J1,1,Pin_1*%
%TO.N,+5V*%
X184150000Y-25376500D03*
D11*
%TO.P,J1,2,Pin_2*%
%TO.N,Net-(J2-Pin_2)*%
X186690000Y-25376500D03*
%TO.P,J1,3,Pin_3*%
%TO.N,GND*%
X189230000Y-25376500D03*
%TD*%
D10*
%TO.P,J12,1,Pin_1*%
%TO.N,/TS_1*%
X244797500Y-85090000D03*
D11*
%TO.P,J12,2,Pin_2*%
%TO.N,/TS_2*%
X244797500Y-82550000D03*
%TO.P,J12,3,Pin_3*%
%TO.N,/TS_3*%
X244797500Y-80010000D03*
%TD*%
D17*
%TO.P,U1,1,IN+*%
%TO.N,+12V*%
X58547000Y-52197000D03*
%TO.P,U1,2,IN-*%
%TO.N,GND*%
X76327000Y-52197000D03*
%TO.P,U1,3,OUT+*%
%TO.N,+6V*%
X50419000Y-120777000D03*
%TO.P,U1,4,T/C*%
%TO.N,unconnected-(U1-T{slash}C-Pad4)*%
X63373000Y-120777000D03*
%TO.P,U1,5,OUT-*%
%TO.N,GND*%
X76327000Y-120777000D03*
%TD*%
D12*
%TO.P,R8,1*%
%TO.N,+5V*%
X218440000Y-70485000D03*
D13*
%TO.P,R8,2*%
%TO.N,/GPIO_IN_3*%
X226060000Y-70485000D03*
%TD*%
D11*
%TO.P,J9,3,Pin_3*%
%TO.N,GND*%
X212725000Y-50165000D03*
%TO.P,J9,2,Pin_2*%
%TO.N,Net-(J10-Pin_2)*%
X210185000Y-50165000D03*
D10*
%TO.P,J9,1,Pin_1*%
%TO.N,+5V*%
X207645000Y-50165000D03*
%TD*%
%TO.P,J2,1,Pin_1*%
%TO.N,+5V*%
X198120000Y-25376500D03*
D11*
%TO.P,J2,2,Pin_2*%
%TO.N,Net-(J3-Pin_2)*%
X200660000Y-25376500D03*
%TO.P,J2,3,Pin_3*%
%TO.N,GND*%
X203200000Y-25376500D03*
%TD*%
D18*
%TO.P,D4,1,K*%
%TO.N,GND*%
X149860000Y-25400000D03*
D19*
%TO.P,D4,2,A*%
%TO.N,Net-(D4-A)*%
X147320000Y-25400000D03*
%TD*%
D15*
%TO.P,J18,1,Pin_1*%
%TO.N,+12V*%
X203835000Y-107950000D03*
D16*
%TO.P,J18,2,Pin_2*%
%TO.N,GND*%
X199875000Y-107950000D03*
%TD*%
D20*
%TO.P,J11,1,Pin_1*%
%TO.N,/FAN+*%
X245062500Y-70075000D03*
D21*
%TO.P,J11,2,Pin_2*%
%TO.N,/FAN-*%
X245062500Y-66115000D03*
%TO.P,J11,3,Pin_3*%
%TO.N,/TEC+*%
X245062500Y-62155000D03*
%TO.P,J11,4,Pin_4*%
%TO.N,/TEC-*%
X245062500Y-58195000D03*
%TD*%
D15*
%TO.P,J31,1,Pin_1*%
%TO.N,+5V*%
X124460000Y-137160000D03*
D16*
%TO.P,J31,2,Pin_2*%
%TO.N,GND*%
X120500000Y-137160000D03*
%TD*%
D18*
%TO.P,D3,1,K*%
%TO.N,GND*%
X139700000Y-25400000D03*
D19*
%TO.P,D3,2,A*%
%TO.N,Net-(D3-A)*%
X137160000Y-25400000D03*
%TD*%
D22*
%TO.P,JP1,1,A*%
%TO.N,/GPIO_OUT_0*%
X184135000Y-33655000D03*
D23*
%TO.P,JP1,2,C*%
%TO.N,Net-(J2-Pin_2)*%
X186675000Y-33655000D03*
%TO.P,JP1,3,B*%
%TO.N,/GPIO_IN_0*%
X189215000Y-33655000D03*
%TD*%
D15*
%TO.P,J25,1,Pin_1*%
%TO.N,+5VL*%
X52070000Y-137160000D03*
D16*
%TO.P,J25,2,Pin_2*%
%TO.N,GND*%
X48110000Y-137160000D03*
%TD*%
D22*
%TO.P,JP7,1,A*%
%TO.N,/GPIO_OUT_6*%
X207645000Y-60960000D03*
D23*
%TO.P,JP7,2,C*%
%TO.N,Net-(J10-Pin_2)*%
X210185000Y-60960000D03*
%TO.P,JP7,3,B*%
%TO.N,/GPIO_IN_2*%
X212725000Y-60960000D03*
%TD*%
D17*
%TO.P,U2,1,IN+*%
%TO.N,+12V*%
X129667000Y-52197000D03*
%TO.P,U2,2,IN-*%
%TO.N,GND*%
X147447000Y-52197000D03*
%TO.P,U2,3,OUT+*%
%TO.N,+5V*%
X121539000Y-120777000D03*
%TO.P,U2,4,T/C*%
%TO.N,unconnected-(U2-T{slash}C-Pad4)*%
X134493000Y-120777000D03*
%TO.P,U2,5,OUT-*%
%TO.N,GND*%
X147447000Y-120777000D03*
%TD*%
D22*
%TO.P,JP4,1,A*%
%TO.N,/GPIO_OUT_3*%
X226060000Y-33655000D03*
D23*
%TO.P,JP4,2,C*%
%TO.N,Net-(J5-Pin_2)*%
X228600000Y-33655000D03*
%TO.P,JP4,3,B*%
%TO.N,/GPIO_IN_3*%
X231140000Y-33655000D03*
%TD*%
D15*
%TO.P,J23,1,Pin_1*%
%TO.N,+5V*%
X231140000Y-135890000D03*
D16*
%TO.P,J23,2,Pin_2*%
%TO.N,+5VL*%
X227180000Y-135890000D03*
%TD*%
D15*
%TO.P,J32,1,Pin_1*%
%TO.N,+5V*%
X135890000Y-137160000D03*
D16*
%TO.P,J32,2,Pin_2*%
%TO.N,GND*%
X131930000Y-137160000D03*
%TD*%
D24*
%TO.P,J21,1,Pin_1*%
%TO.N,+12V*%
X181460000Y-135890000D03*
D25*
%TO.P,J21,2,Pin_2*%
X185420000Y-135890000D03*
%TO.P,J21,3,Pin_3*%
X189380000Y-135890000D03*
%TO.P,J21,4,Pin_4*%
%TO.N,GND*%
X193340000Y-135890000D03*
%TO.P,J21,5,Pin_5*%
X197300000Y-135890000D03*
%TO.P,J21,6,Pin_6*%
X201260000Y-135890000D03*
%TD*%
D12*
%TO.P,R5,1*%
%TO.N,+5V*%
X176530000Y-70485000D03*
D13*
%TO.P,R5,2*%
%TO.N,/GPIO_IN_0*%
X184150000Y-70485000D03*
%TD*%
D15*
%TO.P,J24,1,Pin_1*%
%TO.N,+5VL*%
X40640000Y-137160000D03*
D16*
%TO.P,J24,2,Pin_2*%
%TO.N,GND*%
X36680000Y-137160000D03*
%TD*%
D12*
%TO.P,R4,1*%
%TO.N,+12V*%
X152400000Y-34290000D03*
D13*
%TO.P,R4,2*%
%TO.N,Net-(D3-A)*%
X144780000Y-34290000D03*
%TD*%
D22*
%TO.P,J13,1,Pin_1*%
%TO.N,/GPIO_OUT_0*%
X185420000Y-83820000D03*
D23*
%TO.P,J13,2,Pin_2*%
%TO.N,GND*%
X185420000Y-81280000D03*
%TO.P,J13,3,Pin_3*%
%TO.N,/GPIO_OUT_1*%
X187960000Y-83820000D03*
%TO.P,J13,4,Pin_4*%
%TO.N,GND*%
X187960000Y-81280000D03*
%TO.P,J13,5,Pin_5*%
%TO.N,/GPIO_OUT_2*%
X190500000Y-83820000D03*
%TO.P,J13,6,Pin_6*%
%TO.N,GND*%
X190500000Y-81280000D03*
%TO.P,J13,7,Pin_7*%
%TO.N,/GPIO_OUT_3*%
X193040000Y-83820000D03*
%TO.P,J13,8,Pin_8*%
%TO.N,GND*%
X193040000Y-81280000D03*
%TO.P,J13,9,Pin_9*%
%TO.N,/GPIO_OUT_4*%
X195580000Y-83820000D03*
%TO.P,J13,10,Pin_10*%
%TO.N,GND*%
X195580000Y-81280000D03*
%TO.P,J13,11,Pin_11*%
%TO.N,/GPIO_OUT_5*%
X198120000Y-83820000D03*
%TO.P,J13,12,Pin_12*%
%TO.N,GND*%
X198120000Y-81280000D03*
%TO.P,J13,13,Pin_13*%
%TO.N,/GPIO_OUT_6*%
X200660000Y-83820000D03*
%TO.P,J13,14,Pin_14*%
%TO.N,GND*%
X200660000Y-81280000D03*
%TO.P,J13,15,Pin_15*%
%TO.N,/GPIO_OUT_7*%
X203200000Y-83820000D03*
%TO.P,J13,16,Pin_16*%
%TO.N,GND*%
X203200000Y-81280000D03*
%TO.P,J13,17,Pin_17*%
%TO.N,/GPIO_IN_0*%
X205740000Y-83820000D03*
%TO.P,J13,18,Pin_18*%
%TO.N,GND*%
X205740000Y-81280000D03*
%TO.P,J13,19,Pin_19*%
%TO.N,/GPIO_IN_1*%
X208280000Y-83820000D03*
%TO.P,J13,20,Pin_20*%
%TO.N,GND*%
X208280000Y-81280000D03*
%TO.P,J13,21,Pin_21*%
%TO.N,/GPIO_IN_2*%
X210820000Y-83820000D03*
%TO.P,J13,22,Pin_22*%
%TO.N,GND*%
X210820000Y-81280000D03*
%TO.P,J13,23,Pin_23*%
%TO.N,/GPIO_IN_3*%
X213360000Y-83820000D03*
%TO.P,J13,24,Pin_24*%
%TO.N,GND*%
X213360000Y-81280000D03*
%TD*%
D15*
%TO.P,J15,1,Pin_1*%
%TO.N,+5V*%
X203876500Y-96264000D03*
D16*
%TO.P,J15,2,Pin_2*%
%TO.N,GND*%
X199916500Y-96264000D03*
%TD*%
D22*
%TO.P,J20,1,Pin_1*%
%TO.N,+6V*%
X224790000Y-123190000D03*
D23*
%TO.P,J20,2,Pin_2*%
%TO.N,GND*%
X224790000Y-120650000D03*
%TO.P,J20,3,Pin_3*%
%TO.N,/HV_MON+*%
X227330000Y-123190000D03*
%TO.P,J20,4,Pin_4*%
%TO.N,/HV_MON-*%
X227330000Y-120650000D03*
%TO.P,J20,5,Pin_5*%
%TO.N,/TS_1*%
X229870000Y-123190000D03*
%TO.P,J20,6,Pin_6*%
%TO.N,/TS_2*%
X229870000Y-120650000D03*
%TO.P,J20,7,Pin_7*%
%TO.N,/TS_3*%
X232410000Y-123190000D03*
%TO.P,J20,8,Pin_8*%
%TO.N,unconnected-(J21-Pin_8-Pad8)*%
X232410000Y-120650000D03*
%TO.P,J20,9,Pin_9*%
%TO.N,unconnected-(J21-Pin_9-Pad9)*%
X234950000Y-123190000D03*
%TO.P,J20,10,Pin_10*%
%TO.N,unconnected-(J21-Pin_10-Pad10)*%
X234950000Y-120650000D03*
%TD*%
D22*
%TO.P,JP3,1,A*%
%TO.N,/GPIO_OUT_2*%
X212090000Y-33655000D03*
D23*
%TO.P,JP3,2,C*%
%TO.N,Net-(J4-Pin_2)*%
X214630000Y-33655000D03*
%TO.P,JP3,3,B*%
%TO.N,/GPIO_IN_2*%
X217170000Y-33655000D03*
%TD*%
D14*
%TO.P,H1,1*%
%TO.N,N/C*%
X25400000Y-22860000D03*
%TD*%
D10*
%TO.P,J3,1,Pin_1*%
%TO.N,+5V*%
X212090000Y-25376500D03*
D11*
%TO.P,J3,2,Pin_2*%
%TO.N,Net-(J4-Pin_2)*%
X214630000Y-25376500D03*
%TO.P,J3,3,Pin_3*%
%TO.N,GND*%
X217170000Y-25376500D03*
%TD*%
D15*
%TO.P,J29,1,Pin_1*%
%TO.N,+5VL*%
X97790000Y-137160000D03*
D16*
%TO.P,J29,2,Pin_2*%
%TO.N,GND*%
X93830000Y-137160000D03*
%TD*%
D12*
%TO.P,R6,1*%
%TO.N,+5V*%
X190500000Y-70485000D03*
D13*
%TO.P,R6,2*%
%TO.N,/GPIO_IN_1*%
X198120000Y-70485000D03*
%TD*%
D15*
%TO.P,J30,1,Pin_1*%
%TO.N,+5V*%
X113030000Y-137160000D03*
D16*
%TO.P,J30,2,Pin_2*%
%TO.N,GND*%
X109070000Y-137160000D03*
%TD*%
D26*
%TO.P,J5,1*%
%TO.N,Net-(J23-Pin_1)*%
X169865000Y-28740000D03*
%TO.P,J5,2*%
X164065000Y-28740000D03*
%TO.P,J5,3*%
%TO.N,GND*%
X169465000Y-25090000D03*
%TO.P,J5,4*%
X164465000Y-25090000D03*
D27*
%TO.P,J5,S1*%
%TO.N,N/C*%
X166965000Y-19590000D03*
D26*
%TO.P,J5,S2*%
X174765000Y-30090000D03*
%TO.P,J5,S3*%
X159165000Y-30090000D03*
%TD*%
D15*
%TO.P,J27,1,Pin_1*%
%TO.N,+5VL*%
X74930000Y-137160000D03*
D16*
%TO.P,J27,2,Pin_2*%
%TO.N,GND*%
X70970000Y-137160000D03*
%TD*%
D15*
%TO.P,J34,1,Pin_1*%
%TO.N,+5V*%
X158750000Y-137160000D03*
D16*
%TO.P,J34,2,Pin_2*%
%TO.N,GND*%
X154790000Y-137160000D03*
%TD*%
D22*
%TO.P,JP5,1,A*%
%TO.N,/GPIO_OUT_4*%
X179705000Y-60960000D03*
D23*
%TO.P,JP5,2,C*%
%TO.N,Net-(J8-Pin_2)*%
X182245000Y-60960000D03*
%TO.P,JP5,3,B*%
%TO.N,/GPIO_IN_0*%
X184785000Y-60960000D03*
%TD*%
D15*
%TO.P,J28,1,Pin_1*%
%TO.N,+5VL*%
X86360000Y-137160000D03*
D16*
%TO.P,J28,2,Pin_2*%
%TO.N,GND*%
X82400000Y-137160000D03*
%TD*%
D20*
%TO.P,J19,1,Pin_1*%
%TO.N,/FAN+*%
X211045000Y-120650000D03*
D21*
%TO.P,J19,2,Pin_2*%
%TO.N,/FAN-*%
X207085000Y-120650000D03*
%TO.P,J19,3,Pin_3*%
%TO.N,/TEC+*%
X203125000Y-120650000D03*
%TO.P,J19,4,Pin_4*%
%TO.N,/TEC-*%
X199165000Y-120650000D03*
%TD*%
D18*
%TO.P,D2,1,K*%
%TO.N,GND*%
X129540000Y-25400000D03*
D19*
%TO.P,D2,2,A*%
%TO.N,Net-(D2-A)*%
X127000000Y-25400000D03*
%TD*%
D15*
%TO.P,J35,1,Pin_1*%
%TO.N,+5V*%
X170330000Y-137160000D03*
D16*
%TO.P,J35,2,Pin_2*%
%TO.N,GND*%
X166370000Y-137160000D03*
%TD*%
D28*
%TO.P,J16,1,1*%
%TO.N,/TS_2*%
X237775000Y-103505000D03*
D29*
%TO.P,J16,2,2*%
%TO.N,/TS_1*%
X235005000Y-103505000D03*
%TO.P,J16,3,3*%
%TO.N,/TS_3*%
X232235000Y-103505000D03*
%TO.P,J16,4,4*%
%TO.N,+6V*%
X229465000Y-103505000D03*
%TO.P,J16,5,5*%
%TO.N,GND*%
X226695000Y-103505000D03*
%TO.P,J16,6,6*%
%TO.N,/FAN+*%
X236390000Y-106345000D03*
%TO.P,J16,7,7*%
%TO.N,/FAN-*%
X233620000Y-106345000D03*
%TO.P,J16,8,8*%
%TO.N,/TEC+*%
X230850000Y-106345000D03*
%TO.P,J16,9,9*%
%TO.N,/TEC-*%
X228080000Y-106345000D03*
%TD*%
D22*
%TO.P,JP2,1,A*%
%TO.N,/GPIO_OUT_1*%
X198120000Y-33655000D03*
D23*
%TO.P,JP2,2,C*%
%TO.N,Net-(J3-Pin_2)*%
X200660000Y-33655000D03*
%TO.P,JP2,3,B*%
%TO.N,/GPIO_IN_1*%
X203200000Y-33655000D03*
%TD*%
D14*
%TO.P,H2,1*%
%TO.N,N/C*%
X243840000Y-22860000D03*
%TD*%
D18*
%TO.P,D1,1,K*%
%TO.N,GND*%
X119380000Y-25400000D03*
D19*
%TO.P,D1,2,A*%
%TO.N,Net-(D1-A)*%
X116840000Y-25400000D03*
%TD*%
D10*
%TO.P,J4,1,Pin_1*%
%TO.N,+5V*%
X226060000Y-25376500D03*
D11*
%TO.P,J4,2,Pin_2*%
%TO.N,Net-(J5-Pin_2)*%
X228600000Y-25376500D03*
%TO.P,J4,3,Pin_3*%
%TO.N,GND*%
X231140000Y-25376500D03*
%TD*%
D22*
%TO.P,JP8,1,A*%
%TO.N,/GPIO_OUT_7*%
X221615000Y-60960000D03*
D23*
%TO.P,JP8,2,C*%
%TO.N,Net-(J11-Pin_2)*%
X224155000Y-60960000D03*
%TO.P,JP8,3,B*%
%TO.N,/GPIO_IN_3*%
X226695000Y-60960000D03*
%TD*%
D10*
%TO.P,J10,1,Pin_1*%
%TO.N,+5V*%
X221615000Y-50165000D03*
D11*
%TO.P,J10,2,Pin_2*%
%TO.N,Net-(J11-Pin_2)*%
X224155000Y-50165000D03*
%TO.P,J10,3,Pin_3*%
%TO.N,GND*%
X226695000Y-50165000D03*
%TD*%
D23*
%TO.P,JP6,3,B*%
%TO.N,/GPIO_IN_1*%
X198755000Y-60960000D03*
%TO.P,JP6,2,C*%
%TO.N,Net-(J9-Pin_2)*%
X196215000Y-60960000D03*
D22*
%TO.P,JP6,1,A*%
%TO.N,/GPIO_OUT_5*%
X193675000Y-60960000D03*
%TD*%
D12*
%TO.P,R2,1*%
%TO.N,Net-(J23-Pin_1)*%
X152400000Y-31115000D03*
D13*
%TO.P,R2,2*%
%TO.N,Net-(D4-A)*%
X144780000Y-31115000D03*
%TD*%
D15*
%TO.P,J33,1,Pin_1*%
%TO.N,+5V*%
X147320000Y-137160000D03*
D16*
%TO.P,J33,2,Pin_2*%
%TO.N,GND*%
X143360000Y-137160000D03*
%TD*%
D10*
%TO.P,J8,1,Pin_1*%
%TO.N,+5V*%
X193675000Y-50165000D03*
D11*
%TO.P,J8,2,Pin_2*%
%TO.N,Net-(J9-Pin_2)*%
X196215000Y-50165000D03*
%TO.P,J8,3,Pin_3*%
%TO.N,GND*%
X198755000Y-50165000D03*
%TD*%
D15*
%TO.P,J26,1,Pin_1*%
%TO.N,+5VL*%
X63500000Y-137160000D03*
D16*
%TO.P,J26,2,Pin_2*%
%TO.N,GND*%
X59540000Y-137160000D03*
%TD*%
D30*
%TO.N,/GPIO_OUT_7*%
X221615000Y-66675000D03*
X207645000Y-66040000D03*
%TO.N,/GPIO_IN_1*%
X198120000Y-78740000D03*
%TO.N,/GPIO_OUT_3*%
X225425000Y-66040000D03*
X195580000Y-66040000D03*
%TO.N,/GPIO_OUT_5*%
X193675000Y-78740000D03*
%TO.N,/GPIO_IN_0*%
X186690000Y-88265000D03*
%TO.N,/GPIO_OUT_2*%
X210820000Y-77470000D03*
%TO.N,/GPIO_OUT_4*%
X179705000Y-86995000D03*
%TO.N,Net-(D1-A)*%
X116840000Y-34290000D03*
%TO.N,+12V*%
X152400000Y-48260000D03*
%TO.N,+5V*%
X154940000Y-37465000D03*
%TO.N,/HV_MON-*%
X173990000Y-39370000D03*
X100965000Y-39370000D03*
X189230000Y-122555000D03*
%TO.N,/HV_MON+*%
X98425000Y-40005000D03*
X172720000Y-40640000D03*
X187836997Y-122555000D03*
%TO.N,/TS_3*%
X242570000Y-99695000D03*
%TO.N,/TS_2*%
X245940500Y-103309500D03*
%TO.N,/TS_1*%
X244475000Y-100965000D03*
X238125000Y-116840000D03*
X228600000Y-117475000D03*
%TO.N,/TS_2*%
X238760000Y-118110000D03*
X229924387Y-118427500D03*
D31*
%TO.N,Net-(J23-Pin_1)*%
X169865000Y-127635000D03*
%TD*%
D32*
%TO.N,/GPIO_IN_3*%
X226060000Y-70485000D02*
X213360000Y-83185000D01*
X213360000Y-83185000D02*
X213360000Y-83820000D01*
%TO.N,/GPIO_IN_2*%
X212090000Y-70485000D02*
X212090000Y-82550000D01*
X212090000Y-82550000D02*
X210820000Y-83820000D01*
%TO.N,/GPIO_OUT_7*%
X221615000Y-66675000D02*
X221615000Y-60960000D01*
X203200000Y-83820000D02*
X204431000Y-82589000D01*
X204431000Y-82589000D02*
X204431000Y-72429000D01*
X204431000Y-72429000D02*
X207645000Y-69215000D01*
X207645000Y-69215000D02*
X207645000Y-66040000D01*
%TO.N,/GPIO_IN_1*%
X198120000Y-70485000D02*
X198120000Y-78740000D01*
%TO.N,/GPIO_OUT_6*%
X200660000Y-83820000D02*
X201969000Y-82511000D01*
X201969000Y-82511000D02*
X201969000Y-66636000D01*
X201969000Y-66636000D02*
X207645000Y-60960000D01*
%TO.N,/GPIO_OUT_3*%
X225425000Y-66040000D02*
X225425000Y-34290000D01*
X225425000Y-34290000D02*
X226060000Y-33655000D01*
X193040000Y-83820000D02*
X194271000Y-82589000D01*
X194271000Y-82589000D02*
X194271000Y-80049000D01*
X194271000Y-80049000D02*
X195580000Y-78740000D01*
X195580000Y-78740000D02*
X195580000Y-66040000D01*
%TO.N,/GPIO_OUT_5*%
X193675000Y-60960000D02*
X193675000Y-78740000D01*
%TO.N,/GPIO_IN_0*%
X186690000Y-88265000D02*
X186690000Y-73025000D01*
X186690000Y-73025000D02*
X184150000Y-70485000D01*
%TO.N,/GPIO_OUT_2*%
X212090000Y-33655000D02*
X211416000Y-34329000D01*
X211416000Y-34329000D02*
X211416000Y-69254000D01*
X211416000Y-69254000D02*
X210820000Y-69850000D01*
X210820000Y-69850000D02*
X210820000Y-77470000D01*
%TO.N,/GPIO_OUT_1*%
X198120000Y-33655000D02*
X191770000Y-40005000D01*
X191770000Y-40005000D02*
X191770000Y-76835000D01*
X191770000Y-76835000D02*
X189191000Y-79414000D01*
X189191000Y-79414000D02*
X189191000Y-82589000D01*
X189191000Y-82589000D02*
X187960000Y-83820000D01*
%TO.N,/GPIO_OUT_0*%
X184135000Y-33655000D02*
X183554000Y-34236000D01*
X183069000Y-69661000D02*
X183069000Y-81469000D01*
X183554000Y-34236000D02*
X183554000Y-69176000D01*
X183554000Y-69176000D02*
X183069000Y-69661000D01*
X183069000Y-81469000D02*
X185420000Y-83820000D01*
%TO.N,/GPIO_OUT_4*%
X179705000Y-60960000D02*
X179705000Y-86995000D01*
%TO.N,/GPIO_IN_0*%
X184785000Y-60960000D02*
X184785000Y-69850000D01*
X184785000Y-69850000D02*
X184150000Y-70485000D01*
X189215000Y-33655000D02*
X189215000Y-56530000D01*
X189215000Y-56530000D02*
X184785000Y-60960000D01*
%TO.N,/GPIO_IN_1*%
X198755000Y-60960000D02*
X198755000Y-69850000D01*
X198755000Y-69850000D02*
X198120000Y-70485000D01*
X203200000Y-33655000D02*
X203200000Y-56515000D01*
X203200000Y-56515000D02*
X198755000Y-60960000D01*
%TO.N,/GPIO_IN_2*%
X212725000Y-60960000D02*
X212725000Y-69850000D01*
X212725000Y-69850000D02*
X212090000Y-70485000D01*
X217170000Y-33655000D02*
X217170000Y-56515000D01*
X217170000Y-56515000D02*
X212725000Y-60960000D01*
%TO.N,/GPIO_IN_3*%
X226695000Y-60960000D02*
X226695000Y-69850000D01*
X226695000Y-69850000D02*
X226060000Y-70485000D01*
X231140000Y-33655000D02*
X231140000Y-56515000D01*
X231140000Y-56515000D02*
X226695000Y-60960000D01*
%TO.N,Net-(J11-Pin_2)*%
X224155000Y-50165000D02*
X224155000Y-60960000D01*
%TO.N,Net-(J10-Pin_2)*%
X210185000Y-50165000D02*
X210185000Y-60960000D01*
%TO.N,Net-(J9-Pin_2)*%
X196215000Y-50165000D02*
X196215000Y-60960000D01*
%TO.N,Net-(J8-Pin_2)*%
X182245000Y-50165000D02*
X182245000Y-60960000D01*
%TO.N,Net-(J5-Pin_2)*%
X228600000Y-25376500D02*
X228600000Y-33655000D01*
%TO.N,Net-(J4-Pin_2)*%
X214630000Y-25376500D02*
X214630000Y-33655000D01*
%TO.N,Net-(J3-Pin_2)*%
X200660000Y-25376500D02*
X200660000Y-33655000D01*
%TO.N,Net-(J2-Pin_2)*%
X186690000Y-25376500D02*
X186690000Y-33640000D01*
X186690000Y-33640000D02*
X186675000Y-33655000D01*
%TO.N,Net-(D4-A)*%
X147320000Y-25400000D02*
X147320000Y-28575000D01*
X147320000Y-28575000D02*
X144780000Y-31115000D01*
%TO.N,Net-(D2-A)*%
X127000000Y-25400000D02*
X127000000Y-31115000D01*
%TO.N,Net-(D1-A)*%
X116840000Y-25400000D02*
X116840000Y-34290000D01*
%TO.N,+12V*%
X152400000Y-34290000D02*
X152400000Y-48260000D01*
%TO.N,+6V*%
X134620000Y-34290000D02*
X134620000Y-117475000D01*
%TO.N,/HV_MON-*%
X173990000Y-81915000D02*
X173990000Y-39370000D01*
X100965000Y-39370000D02*
X100965000Y-25400000D01*
X189230000Y-116840000D02*
X189230000Y-122555000D01*
X173990000Y-81915000D02*
X173990000Y-101600000D01*
X173990000Y-101600000D02*
X189230000Y-116840000D01*
%TO.N,/HV_MON+*%
X172720000Y-40640000D02*
X172720000Y-101600000D01*
X172720000Y-101600000D02*
X187960000Y-116840000D01*
X187960000Y-116840000D02*
X187960000Y-122431997D01*
X187960000Y-122431997D02*
X187836997Y-122555000D01*
X98425000Y-25400000D02*
X98425000Y-40005000D01*
D33*
%TO.N,Net-(J23-Pin_1)*%
X169865000Y-34290000D02*
X169865000Y-127635000D01*
D34*
%TO.N,/FAN+*%
X221894199Y-107075007D02*
X218313000Y-110656206D01*
%TO.N,/FAN-*%
X245062500Y-66115000D02*
X243174525Y-66115000D01*
X243174525Y-66115000D02*
X219735199Y-89554326D01*
X219735199Y-106180719D02*
X208420000Y-117495918D01*
%TO.N,/FAN+*%
X216535000Y-120650000D02*
X211045000Y-120650000D01*
%TO.N,/FAN-*%
X208420000Y-117495918D02*
X208420000Y-119315000D01*
%TO.N,/TEC+*%
X217576199Y-105286431D02*
X203125000Y-119737630D01*
X203125000Y-119737630D02*
X203125000Y-120650000D01*
%TO.N,/FAN+*%
X221894199Y-93243301D02*
X221894199Y-107075007D01*
X218313000Y-118872000D02*
X216535000Y-120650000D01*
%TO.N,/TEC+*%
X245062500Y-62155000D02*
X242641461Y-62155000D01*
%TO.N,/TEC-*%
X245062500Y-58195000D02*
X241046199Y-58195000D01*
X215421199Y-83820000D02*
X215421199Y-104393801D01*
%TO.N,/TEC+*%
X242641461Y-62155000D02*
X217576199Y-87220262D01*
X217576199Y-87220262D02*
X217576199Y-105286431D01*
%TO.N,/TEC-*%
X241046199Y-58195000D02*
X215421199Y-83820000D01*
%TO.N,/FAN+*%
X245062500Y-70075000D02*
X221894199Y-93243301D01*
%TO.N,/FAN-*%
X208420000Y-119315000D02*
X207085000Y-120650000D01*
%TO.N,/FAN+*%
X218313000Y-110656206D02*
X218313000Y-118872000D01*
%TO.N,/TEC-*%
X215421199Y-104393801D02*
X199165000Y-120650000D01*
%TO.N,/FAN-*%
X219735199Y-89554326D02*
X219735199Y-106180719D01*
D32*
%TO.N,/TS_3*%
X244797500Y-80010000D02*
X242570000Y-82237500D01*
X242570000Y-82237500D02*
X242570000Y-99695000D01*
%TO.N,/TS_2*%
X244797500Y-82550000D02*
X245940500Y-83693000D01*
X245940500Y-83693000D02*
X245940500Y-103309500D01*
X245745000Y-103505000D02*
X245940500Y-103309500D01*
%TO.N,/TS_1*%
X244797500Y-85090000D02*
X244797500Y-100642500D01*
X244797500Y-100642500D02*
X244475000Y-100965000D01*
%TO.N,/TS_2*%
X239077500Y-104807500D02*
X237775000Y-103505000D01*
X238760000Y-118110000D02*
X239077500Y-117792500D01*
%TO.N,/TS_1*%
X238125000Y-116840000D02*
X238125000Y-106409813D01*
%TO.N,/TS_2*%
X239077500Y-117792500D02*
X239077500Y-104807500D01*
X229870000Y-118481887D02*
X229924387Y-118427500D01*
X229870000Y-120650000D02*
X229870000Y-118481887D01*
%TO.N,/TS_1*%
X238125000Y-106409813D02*
X235220187Y-103505000D01*
X235220187Y-103505000D02*
X235005000Y-103505000D01*
X229870000Y-123190000D02*
X228600000Y-121920000D01*
X228600000Y-121920000D02*
X228600000Y-117475000D01*
%TO.N,/TS_3*%
X232235000Y-103505000D02*
X232235000Y-119084103D01*
X232235000Y-119084103D02*
X231179000Y-120140103D01*
X231179000Y-120140103D02*
X231179000Y-121959000D01*
X231179000Y-121959000D02*
X232410000Y-123190000D01*
D33*
%TO.N,Net-(J23-Pin_1)*%
X164065000Y-28415000D02*
X164065000Y-33255000D01*
X164065000Y-33255000D02*
X165100000Y-34290000D01*
X169865000Y-28415000D02*
X169865000Y-34290000D01*
X165100000Y-34290000D02*
X169865000Y-34290000D01*
%TD*%
%TA.AperFunction,Conductor*%
%TO.N,+5VL*%
G36*
X248227539Y-132359185D02*
G01*
X248273294Y-132411989D01*
X248284500Y-132463500D01*
X248284500Y-144020500D01*
X248264815Y-144087539D01*
X248212011Y-144133294D01*
X248160500Y-144144500D01*
X21079500Y-144144500D01*
X21012461Y-144124815D01*
X20966706Y-144072011D01*
X20955500Y-144020500D01*
X20955500Y-139700000D01*
X21440418Y-139700000D01*
X21460732Y-140100583D01*
X21521470Y-140497053D01*
X21622009Y-140885361D01*
X21761307Y-141261475D01*
X21761313Y-141261488D01*
X21937952Y-141621592D01*
X21937953Y-141621593D01*
X22150120Y-141961983D01*
X22395635Y-142279163D01*
X22671979Y-142569876D01*
X22976313Y-142831139D01*
X22976316Y-142831141D01*
X23305524Y-143060277D01*
X23656223Y-143254931D01*
X24024816Y-143413106D01*
X24024819Y-143413107D01*
X24024824Y-143413109D01*
X24407510Y-143533178D01*
X24407513Y-143533178D01*
X24407521Y-143533181D01*
X24800409Y-143613921D01*
X25119641Y-143646384D01*
X25199449Y-143654500D01*
X25199450Y-143654500D01*
X25600551Y-143654500D01*
X25667056Y-143647736D01*
X25999591Y-143613921D01*
X26392479Y-143533181D01*
X26392489Y-143533178D01*
X26775175Y-143413109D01*
X26775176Y-143413108D01*
X26775184Y-143413106D01*
X27143777Y-143254931D01*
X27494476Y-143060277D01*
X27823684Y-142831141D01*
X28128021Y-142569876D01*
X28404365Y-142279163D01*
X28649880Y-141961983D01*
X28862047Y-141621593D01*
X29038689Y-141261484D01*
X29177993Y-140885353D01*
X29278529Y-140497058D01*
X29339267Y-140100584D01*
X29359582Y-139700000D01*
X239880418Y-139700000D01*
X239900732Y-140100583D01*
X239961470Y-140497053D01*
X240062009Y-140885361D01*
X240201307Y-141261475D01*
X240201313Y-141261488D01*
X240377952Y-141621592D01*
X240377953Y-141621593D01*
X240590120Y-141961983D01*
X240835635Y-142279163D01*
X241111979Y-142569876D01*
X241416313Y-142831139D01*
X241416316Y-142831141D01*
X241745524Y-143060277D01*
X242096223Y-143254931D01*
X242464816Y-143413106D01*
X242464819Y-143413107D01*
X242464824Y-143413109D01*
X242847510Y-143533178D01*
X242847513Y-143533178D01*
X242847521Y-143533181D01*
X243240409Y-143613921D01*
X243559641Y-143646384D01*
X243639449Y-143654500D01*
X243639450Y-143654500D01*
X244040551Y-143654500D01*
X244107056Y-143647736D01*
X244439591Y-143613921D01*
X244832479Y-143533181D01*
X244832489Y-143533178D01*
X245215175Y-143413109D01*
X245215176Y-143413108D01*
X245215184Y-143413106D01*
X245583777Y-143254931D01*
X245934476Y-143060277D01*
X246263684Y-142831141D01*
X246568021Y-142569876D01*
X246844365Y-142279163D01*
X247089880Y-141961983D01*
X247302047Y-141621593D01*
X247478689Y-141261484D01*
X247617993Y-140885353D01*
X247718529Y-140497058D01*
X247779267Y-140100584D01*
X247799582Y-139700000D01*
X247779267Y-139299416D01*
X247718529Y-138902942D01*
X247617993Y-138514647D01*
X247594861Y-138452190D01*
X247478692Y-138138524D01*
X247478691Y-138138523D01*
X247478689Y-138138516D01*
X247302047Y-137778407D01*
X247089880Y-137438017D01*
X246844365Y-137120837D01*
X246568021Y-136830124D01*
X246568020Y-136830123D01*
X246263686Y-136568860D01*
X245934476Y-136339723D01*
X245934471Y-136339720D01*
X245583776Y-136145068D01*
X245215175Y-135986890D01*
X244832489Y-135866821D01*
X244832483Y-135866820D01*
X244832480Y-135866819D01*
X244832479Y-135866819D01*
X244439591Y-135786079D01*
X244439590Y-135786078D01*
X244439586Y-135786078D01*
X244040551Y-135745500D01*
X244040550Y-135745500D01*
X243639450Y-135745500D01*
X243639449Y-135745500D01*
X243240413Y-135786078D01*
X242847516Y-135866820D01*
X242847510Y-135866821D01*
X242464824Y-135986890D01*
X242096223Y-136145068D01*
X241745528Y-136339720D01*
X241745523Y-136339723D01*
X241416313Y-136568860D01*
X241111979Y-136830123D01*
X240835630Y-137120842D01*
X240590123Y-137438012D01*
X240377952Y-137778407D01*
X240201313Y-138138511D01*
X240201307Y-138138524D01*
X240062009Y-138514638D01*
X239961470Y-138902946D01*
X239900732Y-139299416D01*
X239880418Y-139700000D01*
X29359582Y-139700000D01*
X29339267Y-139299416D01*
X29278529Y-138902942D01*
X29177993Y-138514647D01*
X29154861Y-138452190D01*
X29038692Y-138138524D01*
X29038691Y-138138523D01*
X29038689Y-138138516D01*
X28862047Y-137778407D01*
X28649880Y-137438017D01*
X28434679Y-137160000D01*
X35485404Y-137160000D01*
X35505743Y-137379501D01*
X35505743Y-137379503D01*
X35505744Y-137379506D01*
X35566072Y-137591538D01*
X35566073Y-137591541D01*
X35664330Y-137788868D01*
X35664335Y-137788876D01*
X35797184Y-137964796D01*
X35960094Y-138113307D01*
X35960096Y-138113309D01*
X36147519Y-138229356D01*
X36147525Y-138229359D01*
X36170670Y-138238325D01*
X36353083Y-138308993D01*
X36569777Y-138349500D01*
X36569779Y-138349500D01*
X36790221Y-138349500D01*
X36790223Y-138349500D01*
X37006917Y-138308993D01*
X37212477Y-138229358D01*
X37352203Y-138142844D01*
X39205000Y-138142844D01*
X39211401Y-138202372D01*
X39211403Y-138202379D01*
X39261645Y-138337086D01*
X39261649Y-138337093D01*
X39347809Y-138452187D01*
X39347812Y-138452190D01*
X39462906Y-138538350D01*
X39462913Y-138538354D01*
X39597620Y-138588596D01*
X39597627Y-138588598D01*
X39657155Y-138594999D01*
X39657172Y-138595000D01*
X40390000Y-138595000D01*
X40390000Y-137881802D01*
X40551169Y-137920000D01*
X40684267Y-137920000D01*
X40816461Y-137904549D01*
X40890000Y-137877782D01*
X40890000Y-138595000D01*
X41622828Y-138595000D01*
X41622844Y-138594999D01*
X41682372Y-138588598D01*
X41682379Y-138588596D01*
X41817086Y-138538354D01*
X41817093Y-138538350D01*
X41932187Y-138452190D01*
X41932190Y-138452187D01*
X42018350Y-138337093D01*
X42018354Y-138337086D01*
X42068596Y-138202379D01*
X42068598Y-138202372D01*
X42074999Y-138142844D01*
X42075000Y-138142827D01*
X42075000Y-137410000D01*
X41358483Y-137410000D01*
X41393549Y-137292871D01*
X41401288Y-137160000D01*
X46915404Y-137160000D01*
X46935743Y-137379501D01*
X46935743Y-137379503D01*
X46935744Y-137379506D01*
X46996072Y-137591538D01*
X46996073Y-137591541D01*
X47094330Y-137788868D01*
X47094335Y-137788876D01*
X47227184Y-137964796D01*
X47390094Y-138113307D01*
X47390096Y-138113309D01*
X47577519Y-138229356D01*
X47577525Y-138229359D01*
X47600670Y-138238325D01*
X47783083Y-138308993D01*
X47999777Y-138349500D01*
X47999779Y-138349500D01*
X48220221Y-138349500D01*
X48220223Y-138349500D01*
X48436917Y-138308993D01*
X48642477Y-138229358D01*
X48782203Y-138142844D01*
X50635000Y-138142844D01*
X50641401Y-138202372D01*
X50641403Y-138202379D01*
X50691645Y-138337086D01*
X50691649Y-138337093D01*
X50777809Y-138452187D01*
X50777812Y-138452190D01*
X50892906Y-138538350D01*
X50892913Y-138538354D01*
X51027620Y-138588596D01*
X51027627Y-138588598D01*
X51087155Y-138594999D01*
X51087172Y-138595000D01*
X51820000Y-138595000D01*
X51820000Y-137881802D01*
X51981169Y-137920000D01*
X52114267Y-137920000D01*
X52246461Y-137904549D01*
X52320000Y-137877782D01*
X52320000Y-138595000D01*
X53052828Y-138595000D01*
X53052844Y-138594999D01*
X53112372Y-138588598D01*
X53112379Y-138588596D01*
X53247086Y-138538354D01*
X53247093Y-138538350D01*
X53362187Y-138452190D01*
X53362190Y-138452187D01*
X53448350Y-138337093D01*
X53448354Y-138337086D01*
X53498596Y-138202379D01*
X53498598Y-138202372D01*
X53504999Y-138142844D01*
X53505000Y-138142827D01*
X53505000Y-137410000D01*
X52788483Y-137410000D01*
X52823549Y-137292871D01*
X52831288Y-137160000D01*
X58345404Y-137160000D01*
X58365743Y-137379501D01*
X58365743Y-137379503D01*
X58365744Y-137379506D01*
X58426072Y-137591538D01*
X58426073Y-137591541D01*
X58524330Y-137788868D01*
X58524335Y-137788876D01*
X58657184Y-137964796D01*
X58820094Y-138113307D01*
X58820096Y-138113309D01*
X59007519Y-138229356D01*
X59007525Y-138229359D01*
X59030670Y-138238325D01*
X59213083Y-138308993D01*
X59429777Y-138349500D01*
X59429779Y-138349500D01*
X59650221Y-138349500D01*
X59650223Y-138349500D01*
X59866917Y-138308993D01*
X60072477Y-138229358D01*
X60212203Y-138142844D01*
X62065000Y-138142844D01*
X62071401Y-138202372D01*
X62071403Y-138202379D01*
X62121645Y-138337086D01*
X62121649Y-138337093D01*
X62207809Y-138452187D01*
X62207812Y-138452190D01*
X62322906Y-138538350D01*
X62322913Y-138538354D01*
X62457620Y-138588596D01*
X62457627Y-138588598D01*
X62517155Y-138594999D01*
X62517172Y-138595000D01*
X63250000Y-138595000D01*
X63250000Y-137881802D01*
X63411169Y-137920000D01*
X63544267Y-137920000D01*
X63676461Y-137904549D01*
X63750000Y-137877782D01*
X63750000Y-138595000D01*
X64482828Y-138595000D01*
X64482844Y-138594999D01*
X64542372Y-138588598D01*
X64542379Y-138588596D01*
X64677086Y-138538354D01*
X64677093Y-138538350D01*
X64792187Y-138452190D01*
X64792190Y-138452187D01*
X64878350Y-138337093D01*
X64878354Y-138337086D01*
X64928596Y-138202379D01*
X64928598Y-138202372D01*
X64934999Y-138142844D01*
X64935000Y-138142827D01*
X64935000Y-137410000D01*
X64218483Y-137410000D01*
X64253549Y-137292871D01*
X64261288Y-137160000D01*
X69775404Y-137160000D01*
X69795743Y-137379501D01*
X69795743Y-137379503D01*
X69795744Y-137379506D01*
X69856072Y-137591538D01*
X69856073Y-137591541D01*
X69954330Y-137788868D01*
X69954335Y-137788876D01*
X70087184Y-137964796D01*
X70250094Y-138113307D01*
X70250096Y-138113309D01*
X70437519Y-138229356D01*
X70437525Y-138229359D01*
X70460670Y-138238325D01*
X70643083Y-138308993D01*
X70859777Y-138349500D01*
X70859779Y-138349500D01*
X71080221Y-138349500D01*
X71080223Y-138349500D01*
X71296917Y-138308993D01*
X71502477Y-138229358D01*
X71642203Y-138142844D01*
X73495000Y-138142844D01*
X73501401Y-138202372D01*
X73501403Y-138202379D01*
X73551645Y-138337086D01*
X73551649Y-138337093D01*
X73637809Y-138452187D01*
X73637812Y-138452190D01*
X73752906Y-138538350D01*
X73752913Y-138538354D01*
X73887620Y-138588596D01*
X73887627Y-138588598D01*
X73947155Y-138594999D01*
X73947172Y-138595000D01*
X74680000Y-138595000D01*
X74680000Y-137881802D01*
X74841169Y-137920000D01*
X74974267Y-137920000D01*
X75106461Y-137904549D01*
X75180000Y-137877782D01*
X75180000Y-138595000D01*
X75912828Y-138595000D01*
X75912844Y-138594999D01*
X75972372Y-138588598D01*
X75972379Y-138588596D01*
X76107086Y-138538354D01*
X76107093Y-138538350D01*
X76222187Y-138452190D01*
X76222190Y-138452187D01*
X76308350Y-138337093D01*
X76308354Y-138337086D01*
X76358596Y-138202379D01*
X76358598Y-138202372D01*
X76364999Y-138142844D01*
X76365000Y-138142827D01*
X76365000Y-137410000D01*
X75648483Y-137410000D01*
X75683549Y-137292871D01*
X75691288Y-137160000D01*
X81205404Y-137160000D01*
X81225743Y-137379501D01*
X81225743Y-137379503D01*
X81225744Y-137379506D01*
X81286072Y-137591538D01*
X81286073Y-137591541D01*
X81384330Y-137788868D01*
X81384335Y-137788876D01*
X81517184Y-137964796D01*
X81680094Y-138113307D01*
X81680096Y-138113309D01*
X81867519Y-138229356D01*
X81867525Y-138229359D01*
X81890670Y-138238325D01*
X82073083Y-138308993D01*
X82289777Y-138349500D01*
X82289779Y-138349500D01*
X82510221Y-138349500D01*
X82510223Y-138349500D01*
X82726917Y-138308993D01*
X82932477Y-138229358D01*
X83072203Y-138142844D01*
X84925000Y-138142844D01*
X84931401Y-138202372D01*
X84931403Y-138202379D01*
X84981645Y-138337086D01*
X84981649Y-138337093D01*
X85067809Y-138452187D01*
X85067812Y-138452190D01*
X85182906Y-138538350D01*
X85182913Y-138538354D01*
X85317620Y-138588596D01*
X85317627Y-138588598D01*
X85377155Y-138594999D01*
X85377172Y-138595000D01*
X86110000Y-138595000D01*
X86110000Y-137881802D01*
X86271169Y-137920000D01*
X86404267Y-137920000D01*
X86536461Y-137904549D01*
X86610000Y-137877782D01*
X86610000Y-138595000D01*
X87342828Y-138595000D01*
X87342844Y-138594999D01*
X87402372Y-138588598D01*
X87402379Y-138588596D01*
X87537086Y-138538354D01*
X87537093Y-138538350D01*
X87652187Y-138452190D01*
X87652190Y-138452187D01*
X87738350Y-138337093D01*
X87738354Y-138337086D01*
X87788596Y-138202379D01*
X87788598Y-138202372D01*
X87794999Y-138142844D01*
X87795000Y-138142827D01*
X87795000Y-137410000D01*
X87078483Y-137410000D01*
X87113549Y-137292871D01*
X87121288Y-137160000D01*
X92635404Y-137160000D01*
X92655743Y-137379501D01*
X92655743Y-137379503D01*
X92655744Y-137379506D01*
X92716072Y-137591538D01*
X92716073Y-137591541D01*
X92814330Y-137788868D01*
X92814335Y-137788876D01*
X92947184Y-137964796D01*
X93110094Y-138113307D01*
X93110096Y-138113309D01*
X93297519Y-138229356D01*
X93297525Y-138229359D01*
X93320670Y-138238325D01*
X93503083Y-138308993D01*
X93719777Y-138349500D01*
X93719779Y-138349500D01*
X93940221Y-138349500D01*
X93940223Y-138349500D01*
X94156917Y-138308993D01*
X94362477Y-138229358D01*
X94502203Y-138142844D01*
X96355000Y-138142844D01*
X96361401Y-138202372D01*
X96361403Y-138202379D01*
X96411645Y-138337086D01*
X96411649Y-138337093D01*
X96497809Y-138452187D01*
X96497812Y-138452190D01*
X96612906Y-138538350D01*
X96612913Y-138538354D01*
X96747620Y-138588596D01*
X96747627Y-138588598D01*
X96807155Y-138594999D01*
X96807172Y-138595000D01*
X97540000Y-138595000D01*
X97540000Y-137881802D01*
X97701169Y-137920000D01*
X97834267Y-137920000D01*
X97966461Y-137904549D01*
X98040000Y-137877782D01*
X98040000Y-138595000D01*
X98772828Y-138595000D01*
X98772844Y-138594999D01*
X98832372Y-138588598D01*
X98832379Y-138588596D01*
X98967086Y-138538354D01*
X98967093Y-138538350D01*
X99082187Y-138452190D01*
X99082190Y-138452187D01*
X99168350Y-138337093D01*
X99168354Y-138337086D01*
X99218596Y-138202379D01*
X99218598Y-138202372D01*
X99224999Y-138142844D01*
X99225000Y-138142827D01*
X99225000Y-137410000D01*
X98508483Y-137410000D01*
X98543549Y-137292871D01*
X98551288Y-137160000D01*
X107875404Y-137160000D01*
X107895743Y-137379501D01*
X107895743Y-137379503D01*
X107895744Y-137379506D01*
X107956072Y-137591538D01*
X107956073Y-137591541D01*
X108054330Y-137788868D01*
X108054335Y-137788876D01*
X108187184Y-137964796D01*
X108350094Y-138113307D01*
X108350096Y-138113309D01*
X108537519Y-138229356D01*
X108537525Y-138229359D01*
X108560670Y-138238325D01*
X108743083Y-138308993D01*
X108959777Y-138349500D01*
X108959779Y-138349500D01*
X109180221Y-138349500D01*
X109180223Y-138349500D01*
X109396917Y-138308993D01*
X109602477Y-138229358D01*
X109778995Y-138120063D01*
X111840500Y-138120063D01*
X111855266Y-138194301D01*
X111911515Y-138278484D01*
X111945234Y-138301014D01*
X111995699Y-138334734D01*
X111995702Y-138334734D01*
X111995703Y-138334735D01*
X112020666Y-138339700D01*
X112069933Y-138349500D01*
X113990066Y-138349499D01*
X114064301Y-138334734D01*
X114148484Y-138278484D01*
X114204734Y-138194301D01*
X114219500Y-138120067D01*
X114219499Y-137160000D01*
X119305404Y-137160000D01*
X119325743Y-137379501D01*
X119325743Y-137379503D01*
X119325744Y-137379506D01*
X119386072Y-137591538D01*
X119386073Y-137591541D01*
X119484330Y-137788868D01*
X119484335Y-137788876D01*
X119617184Y-137964796D01*
X119780094Y-138113307D01*
X119780096Y-138113309D01*
X119967519Y-138229356D01*
X119967525Y-138229359D01*
X119990670Y-138238325D01*
X120173083Y-138308993D01*
X120389777Y-138349500D01*
X120389779Y-138349500D01*
X120610221Y-138349500D01*
X120610223Y-138349500D01*
X120826917Y-138308993D01*
X121032477Y-138229358D01*
X121208995Y-138120063D01*
X123270500Y-138120063D01*
X123285266Y-138194301D01*
X123341515Y-138278484D01*
X123375234Y-138301014D01*
X123425699Y-138334734D01*
X123425702Y-138334734D01*
X123425703Y-138334735D01*
X123450666Y-138339700D01*
X123499933Y-138349500D01*
X125420066Y-138349499D01*
X125494301Y-138334734D01*
X125578484Y-138278484D01*
X125634734Y-138194301D01*
X125649500Y-138120067D01*
X125649499Y-137160000D01*
X130735404Y-137160000D01*
X130755743Y-137379501D01*
X130755743Y-137379503D01*
X130755744Y-137379506D01*
X130816072Y-137591538D01*
X130816073Y-137591541D01*
X130914330Y-137788868D01*
X130914335Y-137788876D01*
X131047184Y-137964796D01*
X131210094Y-138113307D01*
X131210096Y-138113309D01*
X131397519Y-138229356D01*
X131397525Y-138229359D01*
X131420670Y-138238325D01*
X131603083Y-138308993D01*
X131819777Y-138349500D01*
X131819779Y-138349500D01*
X132040221Y-138349500D01*
X132040223Y-138349500D01*
X132256917Y-138308993D01*
X132462477Y-138229358D01*
X132638995Y-138120063D01*
X134700500Y-138120063D01*
X134715266Y-138194301D01*
X134771515Y-138278484D01*
X134805234Y-138301014D01*
X134855699Y-138334734D01*
X134855702Y-138334734D01*
X134855703Y-138334735D01*
X134880666Y-138339700D01*
X134929933Y-138349500D01*
X136850066Y-138349499D01*
X136924301Y-138334734D01*
X137008484Y-138278484D01*
X137064734Y-138194301D01*
X137079500Y-138120067D01*
X137079499Y-137160000D01*
X142165404Y-137160000D01*
X142185743Y-137379501D01*
X142185743Y-137379503D01*
X142185744Y-137379506D01*
X142246072Y-137591538D01*
X142246073Y-137591541D01*
X142344330Y-137788868D01*
X142344335Y-137788876D01*
X142477184Y-137964796D01*
X142640094Y-138113307D01*
X142640096Y-138113309D01*
X142827519Y-138229356D01*
X142827525Y-138229359D01*
X142850670Y-138238325D01*
X143033083Y-138308993D01*
X143249777Y-138349500D01*
X143249779Y-138349500D01*
X143470221Y-138349500D01*
X143470223Y-138349500D01*
X143686917Y-138308993D01*
X143892477Y-138229358D01*
X144068995Y-138120063D01*
X146130500Y-138120063D01*
X146145266Y-138194301D01*
X146201515Y-138278484D01*
X146235234Y-138301014D01*
X146285699Y-138334734D01*
X146285702Y-138334734D01*
X146285703Y-138334735D01*
X146310666Y-138339700D01*
X146359933Y-138349500D01*
X148280066Y-138349499D01*
X148354301Y-138334734D01*
X148438484Y-138278484D01*
X148494734Y-138194301D01*
X148509500Y-138120067D01*
X148509499Y-137160000D01*
X153595404Y-137160000D01*
X153615743Y-137379501D01*
X153615743Y-137379503D01*
X153615744Y-137379506D01*
X153676072Y-137591538D01*
X153676073Y-137591541D01*
X153774330Y-137788868D01*
X153774335Y-137788876D01*
X153907184Y-137964796D01*
X154070094Y-138113307D01*
X154070096Y-138113309D01*
X154257519Y-138229356D01*
X154257525Y-138229359D01*
X154280670Y-138238325D01*
X154463083Y-138308993D01*
X154679777Y-138349500D01*
X154679779Y-138349500D01*
X154900221Y-138349500D01*
X154900223Y-138349500D01*
X155116917Y-138308993D01*
X155322477Y-138229358D01*
X155498995Y-138120063D01*
X157560500Y-138120063D01*
X157575266Y-138194301D01*
X157631515Y-138278484D01*
X157665234Y-138301014D01*
X157715699Y-138334734D01*
X157715702Y-138334734D01*
X157715703Y-138334735D01*
X157740666Y-138339700D01*
X157789933Y-138349500D01*
X159710066Y-138349499D01*
X159784301Y-138334734D01*
X159868484Y-138278484D01*
X159924734Y-138194301D01*
X159939500Y-138120067D01*
X159939499Y-137160000D01*
X165175404Y-137160000D01*
X165195743Y-137379501D01*
X165195743Y-137379503D01*
X165195744Y-137379506D01*
X165256072Y-137591538D01*
X165256073Y-137591541D01*
X165354330Y-137788868D01*
X165354335Y-137788876D01*
X165487184Y-137964796D01*
X165650094Y-138113307D01*
X165650096Y-138113309D01*
X165837519Y-138229356D01*
X165837525Y-138229359D01*
X165860670Y-138238325D01*
X166043083Y-138308993D01*
X166259777Y-138349500D01*
X166259779Y-138349500D01*
X166480221Y-138349500D01*
X166480223Y-138349500D01*
X166696917Y-138308993D01*
X166902477Y-138229358D01*
X167078995Y-138120063D01*
X169140500Y-138120063D01*
X169155266Y-138194301D01*
X169211515Y-138278484D01*
X169245234Y-138301014D01*
X169295699Y-138334734D01*
X169295702Y-138334734D01*
X169295703Y-138334735D01*
X169320666Y-138339700D01*
X169369933Y-138349500D01*
X171290066Y-138349499D01*
X171364301Y-138334734D01*
X171448484Y-138278484D01*
X171504734Y-138194301D01*
X171519500Y-138120067D01*
X171519499Y-136888270D01*
X180005500Y-136888270D01*
X180011959Y-136948338D01*
X180011962Y-136948349D01*
X180062655Y-137084261D01*
X180062656Y-137084264D01*
X180062658Y-137084267D01*
X180083293Y-137111832D01*
X180149595Y-137200404D01*
X180184535Y-137226559D01*
X180265733Y-137287342D01*
X180265737Y-137287343D01*
X180265738Y-137287344D01*
X180401650Y-137338037D01*
X180401653Y-137338037D01*
X180401659Y-137338040D01*
X180414047Y-137339371D01*
X180461729Y-137344499D01*
X180461746Y-137344500D01*
X182458254Y-137344500D01*
X182458270Y-137344499D01*
X182499757Y-137340037D01*
X182518341Y-137338040D01*
X182654267Y-137287342D01*
X182770404Y-137200404D01*
X182857342Y-137084267D01*
X182908040Y-136948341D01*
X182912162Y-136910000D01*
X182914499Y-136888270D01*
X182914500Y-136888253D01*
X182914500Y-135890006D01*
X183960515Y-135890006D01*
X183980418Y-136130215D01*
X183980420Y-136130226D01*
X184039593Y-136363892D01*
X184136421Y-136584639D01*
X184220231Y-136712919D01*
X184268261Y-136786434D01*
X184417304Y-136948338D01*
X184431520Y-136963780D01*
X184431524Y-136963783D01*
X184586324Y-137084269D01*
X184621737Y-137111832D01*
X184621739Y-137111833D01*
X184621742Y-137111835D01*
X184710744Y-137160000D01*
X184833732Y-137226557D01*
X185061718Y-137304825D01*
X185299477Y-137344500D01*
X185299478Y-137344500D01*
X185540522Y-137344500D01*
X185540523Y-137344500D01*
X185778282Y-137304825D01*
X186006268Y-137226557D01*
X186218263Y-137111832D01*
X186408482Y-136963778D01*
X186571739Y-136786434D01*
X186703579Y-136584638D01*
X186800406Y-136363894D01*
X186859580Y-136130223D01*
X186860624Y-136117627D01*
X186879485Y-135890006D01*
X187920515Y-135890006D01*
X187940418Y-136130215D01*
X187940420Y-136130226D01*
X187999593Y-136363892D01*
X188096421Y-136584639D01*
X188180231Y-136712919D01*
X188228261Y-136786434D01*
X188377304Y-136948338D01*
X188391520Y-136963780D01*
X188391524Y-136963783D01*
X188546324Y-137084269D01*
X188581737Y-137111832D01*
X188581739Y-137111833D01*
X188581742Y-137111835D01*
X188670744Y-137160000D01*
X188793732Y-137226557D01*
X189021718Y-137304825D01*
X189259477Y-137344500D01*
X189259478Y-137344500D01*
X189500522Y-137344500D01*
X189500523Y-137344500D01*
X189738282Y-137304825D01*
X189966268Y-137226557D01*
X190178263Y-137111832D01*
X190368482Y-136963778D01*
X190531739Y-136786434D01*
X190663579Y-136584638D01*
X190760406Y-136363894D01*
X190819580Y-136130223D01*
X190820624Y-136117627D01*
X190839485Y-135890006D01*
X191880515Y-135890006D01*
X191900418Y-136130215D01*
X191900420Y-136130226D01*
X191959593Y-136363892D01*
X192056421Y-136584639D01*
X192140231Y-136712919D01*
X192188261Y-136786434D01*
X192337304Y-136948338D01*
X192351520Y-136963780D01*
X192351524Y-136963783D01*
X192506324Y-137084269D01*
X192541737Y-137111832D01*
X192541739Y-137111833D01*
X192541742Y-137111835D01*
X192630744Y-137160000D01*
X192753732Y-137226557D01*
X192981718Y-137304825D01*
X193219477Y-137344500D01*
X193219478Y-137344500D01*
X193460522Y-137344500D01*
X193460523Y-137344500D01*
X193698282Y-137304825D01*
X193926268Y-137226557D01*
X194138263Y-137111832D01*
X194328482Y-136963778D01*
X194491739Y-136786434D01*
X194623579Y-136584638D01*
X194720406Y-136363894D01*
X194779580Y-136130223D01*
X194780624Y-136117627D01*
X194799485Y-135890006D01*
X195840515Y-135890006D01*
X195860418Y-136130215D01*
X195860420Y-136130226D01*
X195919593Y-136363892D01*
X196016421Y-136584639D01*
X196100231Y-136712919D01*
X196148261Y-136786434D01*
X196297304Y-136948338D01*
X196311520Y-136963780D01*
X196311524Y-136963783D01*
X196466324Y-137084269D01*
X196501737Y-137111832D01*
X196501739Y-137111833D01*
X196501742Y-137111835D01*
X196590744Y-137160000D01*
X196713732Y-137226557D01*
X196941718Y-137304825D01*
X197179477Y-137344500D01*
X197179478Y-137344500D01*
X197420522Y-137344500D01*
X197420523Y-137344500D01*
X197658282Y-137304825D01*
X197886268Y-137226557D01*
X198098263Y-137111832D01*
X198288482Y-136963778D01*
X198451739Y-136786434D01*
X198583579Y-136584638D01*
X198680406Y-136363894D01*
X198739580Y-136130223D01*
X198740624Y-136117627D01*
X198759485Y-135890006D01*
X199800515Y-135890006D01*
X199820418Y-136130215D01*
X199820420Y-136130226D01*
X199879593Y-136363892D01*
X199976421Y-136584639D01*
X200060231Y-136712919D01*
X200108261Y-136786434D01*
X200257304Y-136948338D01*
X200271520Y-136963780D01*
X200271524Y-136963783D01*
X200426324Y-137084269D01*
X200461737Y-137111832D01*
X200461739Y-137111833D01*
X200461742Y-137111835D01*
X200550744Y-137160000D01*
X200673732Y-137226557D01*
X200901718Y-137304825D01*
X201139477Y-137344500D01*
X201139478Y-137344500D01*
X201380522Y-137344500D01*
X201380523Y-137344500D01*
X201618282Y-137304825D01*
X201846268Y-137226557D01*
X202058263Y-137111832D01*
X202248482Y-136963778D01*
X202411739Y-136786434D01*
X202543579Y-136584638D01*
X202640406Y-136363894D01*
X202699580Y-136130223D01*
X202700624Y-136117627D01*
X202719485Y-135890006D01*
X202719485Y-135890000D01*
X212015404Y-135890000D01*
X212035743Y-136109501D01*
X212035743Y-136109503D01*
X212035744Y-136109506D01*
X212096072Y-136321538D01*
X212096073Y-136321541D01*
X212194330Y-136518868D01*
X212194335Y-136518876D01*
X212327184Y-136694796D01*
X212490094Y-136843307D01*
X212490096Y-136843309D01*
X212677519Y-136959356D01*
X212677525Y-136959359D01*
X212688932Y-136963778D01*
X212883083Y-137038993D01*
X213099777Y-137079500D01*
X213099779Y-137079500D01*
X213320221Y-137079500D01*
X213320223Y-137079500D01*
X213536917Y-137038993D01*
X213742477Y-136959358D01*
X213918995Y-136850063D01*
X215980500Y-136850063D01*
X215995266Y-136924301D01*
X216051515Y-137008484D01*
X216079420Y-137027129D01*
X216135699Y-137064734D01*
X216135702Y-137064734D01*
X216135703Y-137064735D01*
X216148564Y-137067293D01*
X216209933Y-137079500D01*
X218130066Y-137079499D01*
X218204301Y-137064734D01*
X218288484Y-137008484D01*
X218344734Y-136924301D01*
X218359500Y-136850067D01*
X218359500Y-135890005D01*
X225740082Y-135890005D01*
X225759720Y-136126999D01*
X225818101Y-136357541D01*
X225913629Y-136575324D01*
X226003524Y-136712919D01*
X226495195Y-136221249D01*
X226517340Y-136272587D01*
X226623433Y-136415094D01*
X226759530Y-136529294D01*
X226849216Y-136574335D01*
X226356261Y-137067291D01*
X226356261Y-137067293D01*
X226392431Y-137095445D01*
X226392442Y-137095452D01*
X226601585Y-137208634D01*
X226601599Y-137208640D01*
X226826517Y-137285856D01*
X227061094Y-137325000D01*
X227298906Y-137325000D01*
X227533482Y-137285856D01*
X227758400Y-137208640D01*
X227758414Y-137208634D01*
X227967556Y-137095453D01*
X227967561Y-137095449D01*
X228003737Y-137067292D01*
X228003737Y-137067291D01*
X227786509Y-136850063D01*
X229950500Y-136850063D01*
X229965266Y-136924301D01*
X230021515Y-137008484D01*
X230049420Y-137027129D01*
X230105699Y-137064734D01*
X230105702Y-137064734D01*
X230105703Y-137064735D01*
X230118564Y-137067293D01*
X230179933Y-137079500D01*
X232100066Y-137079499D01*
X232174301Y-137064734D01*
X232258484Y-137008484D01*
X232314734Y-136924301D01*
X232329500Y-136850067D01*
X232329499Y-134929934D01*
X232314734Y-134855699D01*
X232288352Y-134816216D01*
X232258484Y-134771515D01*
X232208019Y-134737796D01*
X232174301Y-134715266D01*
X232174299Y-134715265D01*
X232174296Y-134715264D01*
X232100069Y-134700500D01*
X230179936Y-134700500D01*
X230105698Y-134715266D01*
X230021515Y-134771515D01*
X229965266Y-134855699D01*
X229965264Y-134855703D01*
X229950500Y-134929928D01*
X229950500Y-136850063D01*
X227786509Y-136850063D01*
X227513747Y-136577300D01*
X227523409Y-136573784D01*
X227671844Y-136476157D01*
X227793764Y-136346930D01*
X227865768Y-136222215D01*
X228356473Y-136712920D01*
X228446369Y-136575326D01*
X228541898Y-136357541D01*
X228600279Y-136126999D01*
X228619918Y-135890005D01*
X228619918Y-135889994D01*
X228600279Y-135653000D01*
X228541898Y-135422458D01*
X228446371Y-135204678D01*
X228356473Y-135067078D01*
X227864803Y-135558747D01*
X227842660Y-135507413D01*
X227736567Y-135364906D01*
X227600470Y-135250706D01*
X227510782Y-135205663D01*
X228003737Y-134712707D01*
X227967557Y-134684547D01*
X227967555Y-134684546D01*
X227758414Y-134571365D01*
X227758400Y-134571359D01*
X227533482Y-134494143D01*
X227298906Y-134455000D01*
X227061094Y-134455000D01*
X226826517Y-134494143D01*
X226601599Y-134571359D01*
X226601590Y-134571362D01*
X226392435Y-134684552D01*
X226356261Y-134712706D01*
X226356261Y-134712708D01*
X226846252Y-135202699D01*
X226836591Y-135206216D01*
X226688156Y-135303843D01*
X226566236Y-135433070D01*
X226494231Y-135557785D01*
X226003524Y-135067078D01*
X225913629Y-135204675D01*
X225818101Y-135422458D01*
X225759720Y-135653000D01*
X225740082Y-135889994D01*
X225740082Y-135890005D01*
X218359500Y-135890005D01*
X218359499Y-134929934D01*
X218344734Y-134855699D01*
X218318352Y-134816216D01*
X218288484Y-134771515D01*
X218238019Y-134737796D01*
X218204301Y-134715266D01*
X218204299Y-134715265D01*
X218204296Y-134715264D01*
X218130069Y-134700500D01*
X216209936Y-134700500D01*
X216135698Y-134715266D01*
X216051515Y-134771515D01*
X215995266Y-134855699D01*
X215995264Y-134855703D01*
X215980500Y-134929928D01*
X215980500Y-136850063D01*
X213918995Y-136850063D01*
X213929905Y-136843308D01*
X214092817Y-136694794D01*
X214225666Y-136518874D01*
X214323928Y-136321538D01*
X214384256Y-136109506D01*
X214404596Y-135890000D01*
X214404595Y-135889994D01*
X214394556Y-135781649D01*
X214384256Y-135670494D01*
X214323928Y-135458462D01*
X214302837Y-135416106D01*
X214225669Y-135261131D01*
X214225664Y-135261123D01*
X214092815Y-135085203D01*
X213929905Y-134936692D01*
X213929903Y-134936690D01*
X213742480Y-134820643D01*
X213742474Y-134820640D01*
X213656366Y-134787282D01*
X213536917Y-134741007D01*
X213320223Y-134700500D01*
X213099777Y-134700500D01*
X212883083Y-134741007D01*
X212833701Y-134760137D01*
X212677525Y-134820640D01*
X212677519Y-134820643D01*
X212490096Y-134936690D01*
X212490094Y-134936692D01*
X212327184Y-135085203D01*
X212194335Y-135261123D01*
X212194330Y-135261131D01*
X212096073Y-135458458D01*
X212096072Y-135458462D01*
X212040722Y-135653000D01*
X212035743Y-135670498D01*
X212015404Y-135889999D01*
X212015404Y-135890000D01*
X202719485Y-135890000D01*
X202719485Y-135889993D01*
X202699581Y-135649784D01*
X202699579Y-135649773D01*
X202644702Y-135433070D01*
X202640406Y-135416106D01*
X202543579Y-135195362D01*
X202510970Y-135145451D01*
X202411740Y-134993568D01*
X202411739Y-134993566D01*
X202248482Y-134816222D01*
X202248481Y-134816221D01*
X202248479Y-134816219D01*
X202248475Y-134816216D01*
X202058266Y-134668170D01*
X202058257Y-134668164D01*
X201846274Y-134553446D01*
X201846271Y-134553445D01*
X201846268Y-134553443D01*
X201846262Y-134553441D01*
X201846260Y-134553440D01*
X201618284Y-134475175D01*
X201459776Y-134448725D01*
X201380523Y-134435500D01*
X201139477Y-134435500D01*
X201080037Y-134445418D01*
X200901715Y-134475175D01*
X200673739Y-134553440D01*
X200673725Y-134553446D01*
X200461742Y-134668164D01*
X200461733Y-134668170D01*
X200271524Y-134816216D01*
X200271520Y-134816219D01*
X200108262Y-134993564D01*
X200108259Y-134993568D01*
X199976421Y-135195360D01*
X199879593Y-135416107D01*
X199820420Y-135649773D01*
X199820418Y-135649784D01*
X199800515Y-135889993D01*
X199800515Y-135890006D01*
X198759485Y-135890006D01*
X198759485Y-135889993D01*
X198739581Y-135649784D01*
X198739579Y-135649773D01*
X198684702Y-135433070D01*
X198680406Y-135416106D01*
X198583579Y-135195362D01*
X198550970Y-135145451D01*
X198451740Y-134993568D01*
X198451739Y-134993566D01*
X198288482Y-134816222D01*
X198288481Y-134816221D01*
X198288479Y-134816219D01*
X198288475Y-134816216D01*
X198098266Y-134668170D01*
X198098257Y-134668164D01*
X197886274Y-134553446D01*
X197886271Y-134553445D01*
X197886268Y-134553443D01*
X197886262Y-134553441D01*
X197886260Y-134553440D01*
X197658284Y-134475175D01*
X197499776Y-134448725D01*
X197420523Y-134435500D01*
X197179477Y-134435500D01*
X197120037Y-134445418D01*
X196941715Y-134475175D01*
X196713739Y-134553440D01*
X196713725Y-134553446D01*
X196501742Y-134668164D01*
X196501733Y-134668170D01*
X196311524Y-134816216D01*
X196311520Y-134816219D01*
X196148262Y-134993564D01*
X196148259Y-134993568D01*
X196016421Y-135195360D01*
X195919593Y-135416107D01*
X195860420Y-135649773D01*
X195860418Y-135649784D01*
X195840515Y-135889993D01*
X195840515Y-135890006D01*
X194799485Y-135890006D01*
X194799485Y-135889993D01*
X194779581Y-135649784D01*
X194779579Y-135649773D01*
X194724702Y-135433070D01*
X194720406Y-135416106D01*
X194623579Y-135195362D01*
X194590970Y-135145451D01*
X194491740Y-134993568D01*
X194491739Y-134993566D01*
X194328482Y-134816222D01*
X194328481Y-134816221D01*
X194328479Y-134816219D01*
X194328475Y-134816216D01*
X194138266Y-134668170D01*
X194138257Y-134668164D01*
X193926274Y-134553446D01*
X193926271Y-134553445D01*
X193926268Y-134553443D01*
X193926262Y-134553441D01*
X193926260Y-134553440D01*
X193698284Y-134475175D01*
X193539776Y-134448725D01*
X193460523Y-134435500D01*
X193219477Y-134435500D01*
X193160037Y-134445418D01*
X192981715Y-134475175D01*
X192753739Y-134553440D01*
X192753725Y-134553446D01*
X192541742Y-134668164D01*
X192541733Y-134668170D01*
X192351524Y-134816216D01*
X192351520Y-134816219D01*
X192188262Y-134993564D01*
X192188259Y-134993568D01*
X192056421Y-135195360D01*
X191959593Y-135416107D01*
X191900420Y-135649773D01*
X191900418Y-135649784D01*
X191880515Y-135889993D01*
X191880515Y-135890006D01*
X190839485Y-135890006D01*
X190839485Y-135889993D01*
X190819581Y-135649784D01*
X190819579Y-135649773D01*
X190764702Y-135433070D01*
X190760406Y-135416106D01*
X190663579Y-135195362D01*
X190630970Y-135145451D01*
X190531740Y-134993568D01*
X190531739Y-134993566D01*
X190368482Y-134816222D01*
X190368481Y-134816221D01*
X190368479Y-134816219D01*
X190368475Y-134816216D01*
X190178266Y-134668170D01*
X190178257Y-134668164D01*
X189966274Y-134553446D01*
X189966271Y-134553445D01*
X189966268Y-134553443D01*
X189966262Y-134553441D01*
X189966260Y-134553440D01*
X189738284Y-134475175D01*
X189579776Y-134448725D01*
X189500523Y-134435500D01*
X189259477Y-134435500D01*
X189200037Y-134445418D01*
X189021715Y-134475175D01*
X188793739Y-134553440D01*
X188793725Y-134553446D01*
X188581742Y-134668164D01*
X188581733Y-134668170D01*
X188391524Y-134816216D01*
X188391520Y-134816219D01*
X188228262Y-134993564D01*
X188228259Y-134993568D01*
X188096421Y-135195360D01*
X187999593Y-135416107D01*
X187940420Y-135649773D01*
X187940418Y-135649784D01*
X187920515Y-135889993D01*
X187920515Y-135890006D01*
X186879485Y-135890006D01*
X186879485Y-135889993D01*
X186859581Y-135649784D01*
X186859579Y-135649773D01*
X186804702Y-135433070D01*
X186800406Y-135416106D01*
X186703579Y-135195362D01*
X186670970Y-135145451D01*
X186571740Y-134993568D01*
X186571739Y-134993566D01*
X186408482Y-134816222D01*
X186408481Y-134816221D01*
X186408479Y-134816219D01*
X186408475Y-134816216D01*
X186218266Y-134668170D01*
X186218257Y-134668164D01*
X186006274Y-134553446D01*
X186006271Y-134553445D01*
X186006268Y-134553443D01*
X186006262Y-134553441D01*
X186006260Y-134553440D01*
X185778284Y-134475175D01*
X185619776Y-134448725D01*
X185540523Y-134435500D01*
X185299477Y-134435500D01*
X185240037Y-134445418D01*
X185061715Y-134475175D01*
X184833739Y-134553440D01*
X184833725Y-134553446D01*
X184621742Y-134668164D01*
X184621733Y-134668170D01*
X184431524Y-134816216D01*
X184431520Y-134816219D01*
X184268262Y-134993564D01*
X184268259Y-134993568D01*
X184136421Y-135195360D01*
X184039593Y-135416107D01*
X183980420Y-135649773D01*
X183980418Y-135649784D01*
X183960515Y-135889993D01*
X183960515Y-135890006D01*
X182914500Y-135890006D01*
X182914500Y-134891746D01*
X182914499Y-134891729D01*
X182908040Y-134831661D01*
X182908040Y-134831659D01*
X182903931Y-134820643D01*
X182857344Y-134695738D01*
X182857343Y-134695737D01*
X182857342Y-134695733D01*
X182813707Y-134637443D01*
X182770404Y-134579595D01*
X182693126Y-134521747D01*
X182654267Y-134492658D01*
X182654264Y-134492656D01*
X182654261Y-134492655D01*
X182518349Y-134441962D01*
X182518338Y-134441959D01*
X182458270Y-134435500D01*
X182458254Y-134435500D01*
X180461746Y-134435500D01*
X180461729Y-134435500D01*
X180401661Y-134441959D01*
X180401650Y-134441962D01*
X180265738Y-134492655D01*
X180265730Y-134492660D01*
X180149595Y-134579595D01*
X180062660Y-134695730D01*
X180062655Y-134695738D01*
X180011962Y-134831650D01*
X180011959Y-134831661D01*
X180005500Y-134891729D01*
X180005500Y-136888270D01*
X171519499Y-136888270D01*
X171519499Y-136199934D01*
X171504734Y-136125699D01*
X171481308Y-136090640D01*
X171448484Y-136041515D01*
X171366731Y-135986890D01*
X171364301Y-135985266D01*
X171364299Y-135985265D01*
X171364296Y-135985264D01*
X171290069Y-135970500D01*
X169369936Y-135970500D01*
X169295698Y-135985266D01*
X169211515Y-136041515D01*
X169155266Y-136125699D01*
X169155264Y-136125703D01*
X169140500Y-136199928D01*
X169140500Y-138120063D01*
X167078995Y-138120063D01*
X167089905Y-138113308D01*
X167252817Y-137964794D01*
X167385666Y-137788874D01*
X167483928Y-137591538D01*
X167544256Y-137379506D01*
X167564596Y-137160000D01*
X167544256Y-136940494D01*
X167483928Y-136728462D01*
X167476189Y-136712920D01*
X167385669Y-136531131D01*
X167385664Y-136531123D01*
X167252815Y-136355203D01*
X167089905Y-136206692D01*
X167089903Y-136206690D01*
X166902480Y-136090643D01*
X166902474Y-136090640D01*
X166816366Y-136057282D01*
X166696917Y-136011007D01*
X166480223Y-135970500D01*
X166259777Y-135970500D01*
X166043083Y-136011007D01*
X166012459Y-136022871D01*
X165837525Y-136090640D01*
X165837519Y-136090643D01*
X165650096Y-136206690D01*
X165650094Y-136206692D01*
X165487184Y-136355203D01*
X165354335Y-136531123D01*
X165354330Y-136531131D01*
X165256073Y-136728458D01*
X165256072Y-136728462D01*
X165210608Y-136888254D01*
X165195743Y-136940498D01*
X165175404Y-137159999D01*
X165175404Y-137160000D01*
X159939499Y-137160000D01*
X159939499Y-136199934D01*
X159924734Y-136125699D01*
X159901308Y-136090640D01*
X159868484Y-136041515D01*
X159786731Y-135986890D01*
X159784301Y-135985266D01*
X159784299Y-135985265D01*
X159784296Y-135985264D01*
X159710069Y-135970500D01*
X157789936Y-135970500D01*
X157715698Y-135985266D01*
X157631515Y-136041515D01*
X157575266Y-136125699D01*
X157575264Y-136125703D01*
X157560500Y-136199928D01*
X157560500Y-138120063D01*
X155498995Y-138120063D01*
X155509905Y-138113308D01*
X155672817Y-137964794D01*
X155805666Y-137788874D01*
X155903928Y-137591538D01*
X155964256Y-137379506D01*
X155984596Y-137160000D01*
X155964256Y-136940494D01*
X155903928Y-136728462D01*
X155896189Y-136712920D01*
X155805669Y-136531131D01*
X155805664Y-136531123D01*
X155672815Y-136355203D01*
X155509905Y-136206692D01*
X155509903Y-136206690D01*
X155322480Y-136090643D01*
X155322474Y-136090640D01*
X155236366Y-136057282D01*
X155116917Y-136011007D01*
X154900223Y-135970500D01*
X154679777Y-135970500D01*
X154463083Y-136011007D01*
X154432459Y-136022871D01*
X154257525Y-136090640D01*
X154257519Y-136090643D01*
X154070096Y-136206690D01*
X154070094Y-136206692D01*
X153907184Y-136355203D01*
X153774335Y-136531123D01*
X153774330Y-136531131D01*
X153676073Y-136728458D01*
X153676072Y-136728462D01*
X153630608Y-136888254D01*
X153615743Y-136940498D01*
X153595404Y-137159999D01*
X153595404Y-137160000D01*
X148509499Y-137160000D01*
X148509499Y-136199934D01*
X148494734Y-136125699D01*
X148471308Y-136090640D01*
X148438484Y-136041515D01*
X148356731Y-135986890D01*
X148354301Y-135985266D01*
X148354299Y-135985265D01*
X148354296Y-135985264D01*
X148280069Y-135970500D01*
X146359936Y-135970500D01*
X146285698Y-135985266D01*
X146201515Y-136041515D01*
X146145266Y-136125699D01*
X146145264Y-136125703D01*
X146130500Y-136199928D01*
X146130500Y-138120063D01*
X144068995Y-138120063D01*
X144079905Y-138113308D01*
X144242817Y-137964794D01*
X144375666Y-137788874D01*
X144473928Y-137591538D01*
X144534256Y-137379506D01*
X144554596Y-137160000D01*
X144534256Y-136940494D01*
X144473928Y-136728462D01*
X144466189Y-136712920D01*
X144375669Y-136531131D01*
X144375664Y-136531123D01*
X144242815Y-136355203D01*
X144079905Y-136206692D01*
X144079903Y-136206690D01*
X143892480Y-136090643D01*
X143892474Y-136090640D01*
X143806366Y-136057282D01*
X143686917Y-136011007D01*
X143470223Y-135970500D01*
X143249777Y-135970500D01*
X143033083Y-136011007D01*
X143002459Y-136022871D01*
X142827525Y-136090640D01*
X142827519Y-136090643D01*
X142640096Y-136206690D01*
X142640094Y-136206692D01*
X142477184Y-136355203D01*
X142344335Y-136531123D01*
X142344330Y-136531131D01*
X142246073Y-136728458D01*
X142246072Y-136728462D01*
X142200608Y-136888254D01*
X142185743Y-136940498D01*
X142165404Y-137159999D01*
X142165404Y-137160000D01*
X137079499Y-137160000D01*
X137079499Y-136199934D01*
X137064734Y-136125699D01*
X137041308Y-136090640D01*
X137008484Y-136041515D01*
X136926731Y-135986890D01*
X136924301Y-135985266D01*
X136924299Y-135985265D01*
X136924296Y-135985264D01*
X136850069Y-135970500D01*
X134929936Y-135970500D01*
X134855698Y-135985266D01*
X134771515Y-136041515D01*
X134715266Y-136125699D01*
X134715264Y-136125703D01*
X134700500Y-136199928D01*
X134700500Y-138120063D01*
X132638995Y-138120063D01*
X132649905Y-138113308D01*
X132812817Y-137964794D01*
X132945666Y-137788874D01*
X133043928Y-137591538D01*
X133104256Y-137379506D01*
X133124596Y-137160000D01*
X133104256Y-136940494D01*
X133043928Y-136728462D01*
X133036189Y-136712920D01*
X132945669Y-136531131D01*
X132945664Y-136531123D01*
X132812815Y-136355203D01*
X132649905Y-136206692D01*
X132649903Y-136206690D01*
X132462480Y-136090643D01*
X132462474Y-136090640D01*
X132376366Y-136057282D01*
X132256917Y-136011007D01*
X132040223Y-135970500D01*
X131819777Y-135970500D01*
X131603083Y-136011007D01*
X131572459Y-136022871D01*
X131397525Y-136090640D01*
X131397519Y-136090643D01*
X131210096Y-136206690D01*
X131210094Y-136206692D01*
X131047184Y-136355203D01*
X130914335Y-136531123D01*
X130914330Y-136531131D01*
X130816073Y-136728458D01*
X130816072Y-136728462D01*
X130770608Y-136888254D01*
X130755743Y-136940498D01*
X130735404Y-137159999D01*
X130735404Y-137160000D01*
X125649499Y-137160000D01*
X125649499Y-136199934D01*
X125634734Y-136125699D01*
X125611308Y-136090640D01*
X125578484Y-136041515D01*
X125496731Y-135986890D01*
X125494301Y-135985266D01*
X125494299Y-135985265D01*
X125494296Y-135985264D01*
X125420069Y-135970500D01*
X123499936Y-135970500D01*
X123425698Y-135985266D01*
X123341515Y-136041515D01*
X123285266Y-136125699D01*
X123285264Y-136125703D01*
X123270500Y-136199928D01*
X123270500Y-138120063D01*
X121208995Y-138120063D01*
X121219905Y-138113308D01*
X121382817Y-137964794D01*
X121515666Y-137788874D01*
X121613928Y-137591538D01*
X121674256Y-137379506D01*
X121694596Y-137160000D01*
X121674256Y-136940494D01*
X121613928Y-136728462D01*
X121606189Y-136712920D01*
X121515669Y-136531131D01*
X121515664Y-136531123D01*
X121382815Y-136355203D01*
X121219905Y-136206692D01*
X121219903Y-136206690D01*
X121032480Y-136090643D01*
X121032474Y-136090640D01*
X120946366Y-136057282D01*
X120826917Y-136011007D01*
X120610223Y-135970500D01*
X120389777Y-135970500D01*
X120173083Y-136011007D01*
X120142459Y-136022871D01*
X119967525Y-136090640D01*
X119967519Y-136090643D01*
X119780096Y-136206690D01*
X119780094Y-136206692D01*
X119617184Y-136355203D01*
X119484335Y-136531123D01*
X119484330Y-136531131D01*
X119386073Y-136728458D01*
X119386072Y-136728462D01*
X119340608Y-136888254D01*
X119325743Y-136940498D01*
X119305404Y-137159999D01*
X119305404Y-137160000D01*
X114219499Y-137160000D01*
X114219499Y-136199934D01*
X114204734Y-136125699D01*
X114181308Y-136090640D01*
X114148484Y-136041515D01*
X114066731Y-135986890D01*
X114064301Y-135985266D01*
X114064299Y-135985265D01*
X114064296Y-135985264D01*
X113990069Y-135970500D01*
X112069936Y-135970500D01*
X111995698Y-135985266D01*
X111911515Y-136041515D01*
X111855266Y-136125699D01*
X111855264Y-136125703D01*
X111840500Y-136199928D01*
X111840500Y-138120063D01*
X109778995Y-138120063D01*
X109789905Y-138113308D01*
X109952817Y-137964794D01*
X110085666Y-137788874D01*
X110183928Y-137591538D01*
X110244256Y-137379506D01*
X110264596Y-137160000D01*
X110244256Y-136940494D01*
X110183928Y-136728462D01*
X110176189Y-136712920D01*
X110085669Y-136531131D01*
X110085664Y-136531123D01*
X109952815Y-136355203D01*
X109789905Y-136206692D01*
X109789903Y-136206690D01*
X109602480Y-136090643D01*
X109602474Y-136090640D01*
X109516366Y-136057282D01*
X109396917Y-136011007D01*
X109180223Y-135970500D01*
X108959777Y-135970500D01*
X108743083Y-136011007D01*
X108712459Y-136022871D01*
X108537525Y-136090640D01*
X108537519Y-136090643D01*
X108350096Y-136206690D01*
X108350094Y-136206692D01*
X108187184Y-136355203D01*
X108054335Y-136531123D01*
X108054330Y-136531131D01*
X107956073Y-136728458D01*
X107956072Y-136728462D01*
X107910608Y-136888254D01*
X107895743Y-136940498D01*
X107875404Y-137159999D01*
X107875404Y-137160000D01*
X98551288Y-137160000D01*
X98553879Y-137115509D01*
X98523029Y-136940546D01*
X98509853Y-136910000D01*
X99225000Y-136910000D01*
X99225000Y-136177172D01*
X99224999Y-136177155D01*
X99218598Y-136117627D01*
X99218596Y-136117620D01*
X99168354Y-135982913D01*
X99168350Y-135982906D01*
X99082190Y-135867812D01*
X99082187Y-135867809D01*
X98967093Y-135781649D01*
X98967086Y-135781645D01*
X98832379Y-135731403D01*
X98832372Y-135731401D01*
X98772844Y-135725000D01*
X98040000Y-135725000D01*
X98040000Y-136438197D01*
X97878831Y-136400000D01*
X97745733Y-136400000D01*
X97613539Y-136415451D01*
X97540000Y-136442217D01*
X97540000Y-135725000D01*
X96807155Y-135725000D01*
X96747627Y-135731401D01*
X96747620Y-135731403D01*
X96612913Y-135781645D01*
X96612906Y-135781649D01*
X96497812Y-135867809D01*
X96497809Y-135867812D01*
X96411649Y-135982906D01*
X96411645Y-135982913D01*
X96361403Y-136117620D01*
X96361401Y-136117627D01*
X96355000Y-136177155D01*
X96355000Y-136910000D01*
X97071517Y-136910000D01*
X97036451Y-137027129D01*
X97026121Y-137204491D01*
X97056971Y-137379454D01*
X97070147Y-137410000D01*
X96355000Y-137410000D01*
X96355000Y-138142844D01*
X94502203Y-138142844D01*
X94549905Y-138113308D01*
X94712817Y-137964794D01*
X94845666Y-137788874D01*
X94943928Y-137591538D01*
X95004256Y-137379506D01*
X95024596Y-137160000D01*
X95004256Y-136940494D01*
X94943928Y-136728462D01*
X94936189Y-136712920D01*
X94845669Y-136531131D01*
X94845664Y-136531123D01*
X94712815Y-136355203D01*
X94549905Y-136206692D01*
X94549903Y-136206690D01*
X94362480Y-136090643D01*
X94362474Y-136090640D01*
X94276366Y-136057282D01*
X94156917Y-136011007D01*
X93940223Y-135970500D01*
X93719777Y-135970500D01*
X93503083Y-136011007D01*
X93472459Y-136022871D01*
X93297525Y-136090640D01*
X93297519Y-136090643D01*
X93110096Y-136206690D01*
X93110094Y-136206692D01*
X92947184Y-136355203D01*
X92814335Y-136531123D01*
X92814330Y-136531131D01*
X92716073Y-136728458D01*
X92716072Y-136728462D01*
X92670608Y-136888254D01*
X92655743Y-136940498D01*
X92635404Y-137159999D01*
X92635404Y-137160000D01*
X87121288Y-137160000D01*
X87123879Y-137115509D01*
X87093029Y-136940546D01*
X87079853Y-136910000D01*
X87795000Y-136910000D01*
X87795000Y-136177172D01*
X87794999Y-136177155D01*
X87788598Y-136117627D01*
X87788596Y-136117620D01*
X87738354Y-135982913D01*
X87738350Y-135982906D01*
X87652190Y-135867812D01*
X87652187Y-135867809D01*
X87537093Y-135781649D01*
X87537086Y-135781645D01*
X87402379Y-135731403D01*
X87402372Y-135731401D01*
X87342844Y-135725000D01*
X86610000Y-135725000D01*
X86610000Y-136438197D01*
X86448831Y-136400000D01*
X86315733Y-136400000D01*
X86183539Y-136415451D01*
X86110000Y-136442217D01*
X86110000Y-135725000D01*
X85377155Y-135725000D01*
X85317627Y-135731401D01*
X85317620Y-135731403D01*
X85182913Y-135781645D01*
X85182906Y-135781649D01*
X85067812Y-135867809D01*
X85067809Y-135867812D01*
X84981649Y-135982906D01*
X84981645Y-135982913D01*
X84931403Y-136117620D01*
X84931401Y-136117627D01*
X84925000Y-136177155D01*
X84925000Y-136910000D01*
X85641517Y-136910000D01*
X85606451Y-137027129D01*
X85596121Y-137204491D01*
X85626971Y-137379454D01*
X85640147Y-137410000D01*
X84925000Y-137410000D01*
X84925000Y-138142844D01*
X83072203Y-138142844D01*
X83119905Y-138113308D01*
X83282817Y-137964794D01*
X83415666Y-137788874D01*
X83513928Y-137591538D01*
X83574256Y-137379506D01*
X83594596Y-137160000D01*
X83574256Y-136940494D01*
X83513928Y-136728462D01*
X83506189Y-136712920D01*
X83415669Y-136531131D01*
X83415664Y-136531123D01*
X83282815Y-136355203D01*
X83119905Y-136206692D01*
X83119903Y-136206690D01*
X82932480Y-136090643D01*
X82932474Y-136090640D01*
X82846366Y-136057282D01*
X82726917Y-136011007D01*
X82510223Y-135970500D01*
X82289777Y-135970500D01*
X82073083Y-136011007D01*
X82042459Y-136022871D01*
X81867525Y-136090640D01*
X81867519Y-136090643D01*
X81680096Y-136206690D01*
X81680094Y-136206692D01*
X81517184Y-136355203D01*
X81384335Y-136531123D01*
X81384330Y-136531131D01*
X81286073Y-136728458D01*
X81286072Y-136728462D01*
X81240608Y-136888254D01*
X81225743Y-136940498D01*
X81205404Y-137159999D01*
X81205404Y-137160000D01*
X75691288Y-137160000D01*
X75693879Y-137115509D01*
X75663029Y-136940546D01*
X75649853Y-136910000D01*
X76365000Y-136910000D01*
X76365000Y-136177172D01*
X76364999Y-136177155D01*
X76358598Y-136117627D01*
X76358596Y-136117620D01*
X76308354Y-135982913D01*
X76308350Y-135982906D01*
X76222190Y-135867812D01*
X76222187Y-135867809D01*
X76107093Y-135781649D01*
X76107086Y-135781645D01*
X75972379Y-135731403D01*
X75972372Y-135731401D01*
X75912844Y-135725000D01*
X75180000Y-135725000D01*
X75180000Y-136438197D01*
X75018831Y-136400000D01*
X74885733Y-136400000D01*
X74753539Y-136415451D01*
X74680000Y-136442217D01*
X74680000Y-135725000D01*
X73947155Y-135725000D01*
X73887627Y-135731401D01*
X73887620Y-135731403D01*
X73752913Y-135781645D01*
X73752906Y-135781649D01*
X73637812Y-135867809D01*
X73637809Y-135867812D01*
X73551649Y-135982906D01*
X73551645Y-135982913D01*
X73501403Y-136117620D01*
X73501401Y-136117627D01*
X73495000Y-136177155D01*
X73495000Y-136910000D01*
X74211517Y-136910000D01*
X74176451Y-137027129D01*
X74166121Y-137204491D01*
X74196971Y-137379454D01*
X74210147Y-137410000D01*
X73495000Y-137410000D01*
X73495000Y-138142844D01*
X71642203Y-138142844D01*
X71689905Y-138113308D01*
X71852817Y-137964794D01*
X71985666Y-137788874D01*
X72083928Y-137591538D01*
X72144256Y-137379506D01*
X72164596Y-137160000D01*
X72144256Y-136940494D01*
X72083928Y-136728462D01*
X72076189Y-136712920D01*
X71985669Y-136531131D01*
X71985664Y-136531123D01*
X71852815Y-136355203D01*
X71689905Y-136206692D01*
X71689903Y-136206690D01*
X71502480Y-136090643D01*
X71502474Y-136090640D01*
X71416366Y-136057282D01*
X71296917Y-136011007D01*
X71080223Y-135970500D01*
X70859777Y-135970500D01*
X70643083Y-136011007D01*
X70612459Y-136022871D01*
X70437525Y-136090640D01*
X70437519Y-136090643D01*
X70250096Y-136206690D01*
X70250094Y-136206692D01*
X70087184Y-136355203D01*
X69954335Y-136531123D01*
X69954330Y-136531131D01*
X69856073Y-136728458D01*
X69856072Y-136728462D01*
X69810608Y-136888254D01*
X69795743Y-136940498D01*
X69775404Y-137159999D01*
X69775404Y-137160000D01*
X64261288Y-137160000D01*
X64263879Y-137115509D01*
X64233029Y-136940546D01*
X64219853Y-136910000D01*
X64935000Y-136910000D01*
X64935000Y-136177172D01*
X64934999Y-136177155D01*
X64928598Y-136117627D01*
X64928596Y-136117620D01*
X64878354Y-135982913D01*
X64878350Y-135982906D01*
X64792190Y-135867812D01*
X64792187Y-135867809D01*
X64677093Y-135781649D01*
X64677086Y-135781645D01*
X64542379Y-135731403D01*
X64542372Y-135731401D01*
X64482844Y-135725000D01*
X63750000Y-135725000D01*
X63750000Y-136438197D01*
X63588831Y-136400000D01*
X63455733Y-136400000D01*
X63323539Y-136415451D01*
X63250000Y-136442217D01*
X63250000Y-135725000D01*
X62517155Y-135725000D01*
X62457627Y-135731401D01*
X62457620Y-135731403D01*
X62322913Y-135781645D01*
X62322906Y-135781649D01*
X62207812Y-135867809D01*
X62207809Y-135867812D01*
X62121649Y-135982906D01*
X62121645Y-135982913D01*
X62071403Y-136117620D01*
X62071401Y-136117627D01*
X62065000Y-136177155D01*
X62065000Y-136910000D01*
X62781517Y-136910000D01*
X62746451Y-137027129D01*
X62736121Y-137204491D01*
X62766971Y-137379454D01*
X62780147Y-137410000D01*
X62065000Y-137410000D01*
X62065000Y-138142844D01*
X60212203Y-138142844D01*
X60259905Y-138113308D01*
X60422817Y-137964794D01*
X60555666Y-137788874D01*
X60653928Y-137591538D01*
X60714256Y-137379506D01*
X60734596Y-137160000D01*
X60714256Y-136940494D01*
X60653928Y-136728462D01*
X60646189Y-136712920D01*
X60555669Y-136531131D01*
X60555664Y-136531123D01*
X60422815Y-136355203D01*
X60259905Y-136206692D01*
X60259903Y-136206690D01*
X60072480Y-136090643D01*
X60072474Y-136090640D01*
X59986366Y-136057282D01*
X59866917Y-136011007D01*
X59650223Y-135970500D01*
X59429777Y-135970500D01*
X59213083Y-136011007D01*
X59182459Y-136022871D01*
X59007525Y-136090640D01*
X59007519Y-136090643D01*
X58820096Y-136206690D01*
X58820094Y-136206692D01*
X58657184Y-136355203D01*
X58524335Y-136531123D01*
X58524330Y-136531131D01*
X58426073Y-136728458D01*
X58426072Y-136728462D01*
X58380608Y-136888254D01*
X58365743Y-136940498D01*
X58345404Y-137159999D01*
X58345404Y-137160000D01*
X52831288Y-137160000D01*
X52833879Y-137115509D01*
X52803029Y-136940546D01*
X52789853Y-136910000D01*
X53505000Y-136910000D01*
X53505000Y-136177172D01*
X53504999Y-136177155D01*
X53498598Y-136117627D01*
X53498596Y-136117620D01*
X53448354Y-135982913D01*
X53448350Y-135982906D01*
X53362190Y-135867812D01*
X53362187Y-135867809D01*
X53247093Y-135781649D01*
X53247086Y-135781645D01*
X53112379Y-135731403D01*
X53112372Y-135731401D01*
X53052844Y-135725000D01*
X52320000Y-135725000D01*
X52320000Y-136438197D01*
X52158831Y-136400000D01*
X52025733Y-136400000D01*
X51893539Y-136415451D01*
X51820000Y-136442217D01*
X51820000Y-135725000D01*
X51087155Y-135725000D01*
X51027627Y-135731401D01*
X51027620Y-135731403D01*
X50892913Y-135781645D01*
X50892906Y-135781649D01*
X50777812Y-135867809D01*
X50777809Y-135867812D01*
X50691649Y-135982906D01*
X50691645Y-135982913D01*
X50641403Y-136117620D01*
X50641401Y-136117627D01*
X50635000Y-136177155D01*
X50635000Y-136910000D01*
X51351517Y-136910000D01*
X51316451Y-137027129D01*
X51306121Y-137204491D01*
X51336971Y-137379454D01*
X51350147Y-137410000D01*
X50635000Y-137410000D01*
X50635000Y-138142844D01*
X48782203Y-138142844D01*
X48829905Y-138113308D01*
X48992817Y-137964794D01*
X49125666Y-137788874D01*
X49223928Y-137591538D01*
X49284256Y-137379506D01*
X49304596Y-137160000D01*
X49284256Y-136940494D01*
X49223928Y-136728462D01*
X49216189Y-136712920D01*
X49125669Y-136531131D01*
X49125664Y-136531123D01*
X48992815Y-136355203D01*
X48829905Y-136206692D01*
X48829903Y-136206690D01*
X48642480Y-136090643D01*
X48642474Y-136090640D01*
X48556366Y-136057282D01*
X48436917Y-136011007D01*
X48220223Y-135970500D01*
X47999777Y-135970500D01*
X47783083Y-136011007D01*
X47752459Y-136022871D01*
X47577525Y-136090640D01*
X47577519Y-136090643D01*
X47390096Y-136206690D01*
X47390094Y-136206692D01*
X47227184Y-136355203D01*
X47094335Y-136531123D01*
X47094330Y-136531131D01*
X46996073Y-136728458D01*
X46996072Y-136728462D01*
X46950608Y-136888254D01*
X46935743Y-136940498D01*
X46915404Y-137159999D01*
X46915404Y-137160000D01*
X41401288Y-137160000D01*
X41403879Y-137115509D01*
X41373029Y-136940546D01*
X41359853Y-136910000D01*
X42075000Y-136910000D01*
X42075000Y-136177172D01*
X42074999Y-136177155D01*
X42068598Y-136117627D01*
X42068596Y-136117620D01*
X42018354Y-135982913D01*
X42018350Y-135982906D01*
X41932190Y-135867812D01*
X41932187Y-135867809D01*
X41817093Y-135781649D01*
X41817086Y-135781645D01*
X41682379Y-135731403D01*
X41682372Y-135731401D01*
X41622844Y-135725000D01*
X40890000Y-135725000D01*
X40890000Y-136438197D01*
X40728831Y-136400000D01*
X40595733Y-136400000D01*
X40463539Y-136415451D01*
X40390000Y-136442217D01*
X40390000Y-135725000D01*
X39657155Y-135725000D01*
X39597627Y-135731401D01*
X39597620Y-135731403D01*
X39462913Y-135781645D01*
X39462906Y-135781649D01*
X39347812Y-135867809D01*
X39347809Y-135867812D01*
X39261649Y-135982906D01*
X39261645Y-135982913D01*
X39211403Y-136117620D01*
X39211401Y-136117627D01*
X39205000Y-136177155D01*
X39205000Y-136910000D01*
X39921517Y-136910000D01*
X39886451Y-137027129D01*
X39876121Y-137204491D01*
X39906971Y-137379454D01*
X39920147Y-137410000D01*
X39205000Y-137410000D01*
X39205000Y-138142844D01*
X37352203Y-138142844D01*
X37399905Y-138113308D01*
X37562817Y-137964794D01*
X37695666Y-137788874D01*
X37793928Y-137591538D01*
X37854256Y-137379506D01*
X37874596Y-137160000D01*
X37854256Y-136940494D01*
X37793928Y-136728462D01*
X37786189Y-136712920D01*
X37695669Y-136531131D01*
X37695664Y-136531123D01*
X37562815Y-136355203D01*
X37399905Y-136206692D01*
X37399903Y-136206690D01*
X37212480Y-136090643D01*
X37212474Y-136090640D01*
X37126366Y-136057282D01*
X37006917Y-136011007D01*
X36790223Y-135970500D01*
X36569777Y-135970500D01*
X36353083Y-136011007D01*
X36322459Y-136022871D01*
X36147525Y-136090640D01*
X36147519Y-136090643D01*
X35960096Y-136206690D01*
X35960094Y-136206692D01*
X35797184Y-136355203D01*
X35664335Y-136531123D01*
X35664330Y-136531131D01*
X35566073Y-136728458D01*
X35566072Y-136728462D01*
X35520608Y-136888254D01*
X35505743Y-136940498D01*
X35485404Y-137159999D01*
X35485404Y-137160000D01*
X28434679Y-137160000D01*
X28404365Y-137120837D01*
X28128021Y-136830124D01*
X28128020Y-136830123D01*
X27823686Y-136568860D01*
X27494476Y-136339723D01*
X27494471Y-136339720D01*
X27143776Y-136145068D01*
X26775175Y-135986890D01*
X26392489Y-135866821D01*
X26392483Y-135866820D01*
X26392480Y-135866819D01*
X26392479Y-135866819D01*
X25999591Y-135786079D01*
X25999590Y-135786078D01*
X25999586Y-135786078D01*
X25600551Y-135745500D01*
X25600550Y-135745500D01*
X25199450Y-135745500D01*
X25199449Y-135745500D01*
X24800413Y-135786078D01*
X24407516Y-135866820D01*
X24407510Y-135866821D01*
X24024824Y-135986890D01*
X23656223Y-136145068D01*
X23305528Y-136339720D01*
X23305523Y-136339723D01*
X22976313Y-136568860D01*
X22671979Y-136830123D01*
X22395630Y-137120842D01*
X22150123Y-137438012D01*
X21937952Y-137778407D01*
X21761313Y-138138511D01*
X21761307Y-138138524D01*
X21622009Y-138514638D01*
X21521470Y-138902946D01*
X21460732Y-139299416D01*
X21440418Y-139700000D01*
X20955500Y-139700000D01*
X20955500Y-132463500D01*
X20975185Y-132396461D01*
X21027989Y-132350706D01*
X21079500Y-132339500D01*
X248160500Y-132339500D01*
X248227539Y-132359185D01*
G37*
%TD.AperFunction*%
%TD*%
%TA.AperFunction,Conductor*%
%TO.N,+6V*%
G36*
X242131539Y-95904685D02*
G01*
X242177294Y-95957489D01*
X242188500Y-96009000D01*
X242188500Y-98888002D01*
X242168815Y-98955041D01*
X242137386Y-98988320D01*
X242014252Y-99077782D01*
X241898070Y-99206816D01*
X241811254Y-99357186D01*
X241757601Y-99522314D01*
X241757600Y-99522317D01*
X241757600Y-99522319D01*
X241739450Y-99695000D01*
X241757600Y-99867681D01*
X241811255Y-100032815D01*
X241898071Y-100183185D01*
X242014254Y-100312219D01*
X242154720Y-100414274D01*
X242154725Y-100414277D01*
X242313341Y-100484898D01*
X242313346Y-100484900D01*
X242483184Y-100521000D01*
X242483185Y-100521000D01*
X242656814Y-100521000D01*
X242656816Y-100521000D01*
X242826654Y-100484900D01*
X242985275Y-100414277D01*
X243125746Y-100312219D01*
X243241929Y-100183185D01*
X243328745Y-100032815D01*
X243382400Y-99867681D01*
X243400550Y-99695000D01*
X243382400Y-99522319D01*
X243328745Y-99357185D01*
X243241929Y-99206815D01*
X243125746Y-99077781D01*
X243082308Y-99046222D01*
X243002614Y-98988320D01*
X242959949Y-98932990D01*
X242951500Y-98888002D01*
X242951500Y-96009000D01*
X242971185Y-95941961D01*
X243023989Y-95896206D01*
X243075500Y-95885000D01*
X244292000Y-95885000D01*
X244359039Y-95904685D01*
X244404794Y-95957489D01*
X244416000Y-96009000D01*
X244416000Y-100032674D01*
X244396315Y-100099713D01*
X244343511Y-100145468D01*
X244317781Y-100153964D01*
X244218346Y-100175099D01*
X244218341Y-100175101D01*
X244059725Y-100245722D01*
X244059720Y-100245725D01*
X243919254Y-100347780D01*
X243803070Y-100476816D01*
X243716254Y-100627186D01*
X243662601Y-100792314D01*
X243662600Y-100792317D01*
X243662600Y-100792319D01*
X243644450Y-100965000D01*
X243662600Y-101137681D01*
X243716255Y-101302815D01*
X243803071Y-101453185D01*
X243899638Y-101560433D01*
X243919254Y-101582219D01*
X244059720Y-101684274D01*
X244059725Y-101684277D01*
X244218341Y-101754898D01*
X244218346Y-101754900D01*
X244388184Y-101791000D01*
X244388185Y-101791000D01*
X244561814Y-101791000D01*
X244561816Y-101791000D01*
X244731654Y-101754900D01*
X244890275Y-101684277D01*
X245030746Y-101582219D01*
X245146929Y-101453185D01*
X245233745Y-101302815D01*
X245287400Y-101137681D01*
X245305550Y-100965000D01*
X245287400Y-100792319D01*
X245233745Y-100627185D01*
X245195613Y-100561137D01*
X245179000Y-100499137D01*
X245179000Y-96009000D01*
X245198685Y-95941961D01*
X245251489Y-95896206D01*
X245303000Y-95885000D01*
X245435000Y-95885000D01*
X245502039Y-95904685D01*
X245547794Y-95957489D01*
X245559000Y-96009000D01*
X245559000Y-102502502D01*
X245539315Y-102569541D01*
X245507886Y-102602820D01*
X245384752Y-102692282D01*
X245268570Y-102821316D01*
X245181754Y-102971686D01*
X245128101Y-103136814D01*
X245128100Y-103136817D01*
X245128100Y-103136819D01*
X245109950Y-103309500D01*
X245128100Y-103482181D01*
X245181755Y-103647315D01*
X245268571Y-103797685D01*
X245323377Y-103858553D01*
X245384754Y-103926719D01*
X245525220Y-104028774D01*
X245525225Y-104028777D01*
X245683841Y-104099398D01*
X245683846Y-104099400D01*
X245853684Y-104135500D01*
X245853685Y-104135500D01*
X246027314Y-104135500D01*
X246027316Y-104135500D01*
X246197154Y-104099400D01*
X246355775Y-104028777D01*
X246496246Y-103926719D01*
X246612429Y-103797685D01*
X246699245Y-103647315D01*
X246752900Y-103482181D01*
X246771050Y-103309500D01*
X246752900Y-103136819D01*
X246699245Y-102971685D01*
X246612429Y-102821315D01*
X246496246Y-102692281D01*
X246452808Y-102660722D01*
X246373114Y-102602820D01*
X246330449Y-102547490D01*
X246322000Y-102502502D01*
X246322000Y-96009000D01*
X246341685Y-95941961D01*
X246394489Y-95896206D01*
X246446000Y-95885000D01*
X248160500Y-95885000D01*
X248227539Y-95904685D01*
X248273294Y-95957489D01*
X248284500Y-96009000D01*
X248284500Y-131956000D01*
X248264815Y-132023039D01*
X248212011Y-132068794D01*
X248160500Y-132080000D01*
X21079500Y-132080000D01*
X21012461Y-132060315D01*
X20966706Y-132007511D01*
X20955500Y-131956000D01*
X20955500Y-124529630D01*
X33654685Y-124529630D01*
X33685128Y-124806301D01*
X33685130Y-124806312D01*
X33755529Y-125075593D01*
X33755531Y-125075599D01*
X33864393Y-125331772D01*
X33938508Y-125453215D01*
X34009390Y-125569360D01*
X34009397Y-125569369D01*
X34101125Y-125679592D01*
X34187442Y-125783312D01*
X34394745Y-125969056D01*
X34626883Y-126122637D01*
X34878909Y-126240782D01*
X34878916Y-126240784D01*
X34878918Y-126240785D01*
X35145439Y-126320970D01*
X35145446Y-126320971D01*
X35145451Y-126320973D01*
X35420828Y-126361500D01*
X35420833Y-126361500D01*
X35629487Y-126361500D01*
X35629489Y-126361500D01*
X35629494Y-126361499D01*
X35629506Y-126361499D01*
X35668086Y-126358675D01*
X35837601Y-126346268D01*
X35951155Y-126320973D01*
X36109279Y-126285750D01*
X36109281Y-126285749D01*
X36109286Y-126285748D01*
X36369263Y-126186315D01*
X36611993Y-126050089D01*
X36832301Y-125879972D01*
X37025492Y-125679592D01*
X37187449Y-125453218D01*
X37249888Y-125331772D01*
X37314712Y-125205690D01*
X37314714Y-125205683D01*
X37314719Y-125205675D01*
X37404591Y-124942239D01*
X37455148Y-124668526D01*
X37460224Y-124529630D01*
X89534685Y-124529630D01*
X89565128Y-124806301D01*
X89565130Y-124806312D01*
X89635529Y-125075593D01*
X89635531Y-125075599D01*
X89744393Y-125331772D01*
X89818508Y-125453215D01*
X89889390Y-125569360D01*
X89889397Y-125569369D01*
X89981125Y-125679592D01*
X90067442Y-125783312D01*
X90274745Y-125969056D01*
X90506883Y-126122637D01*
X90758909Y-126240782D01*
X90758916Y-126240784D01*
X90758918Y-126240785D01*
X91025439Y-126320970D01*
X91025446Y-126320971D01*
X91025451Y-126320973D01*
X91300828Y-126361500D01*
X91300833Y-126361500D01*
X91509487Y-126361500D01*
X91509489Y-126361500D01*
X91509494Y-126361499D01*
X91509506Y-126361499D01*
X91548086Y-126358675D01*
X91717601Y-126346268D01*
X91831155Y-126320973D01*
X91989279Y-126285750D01*
X91989281Y-126285749D01*
X91989286Y-126285748D01*
X92249263Y-126186315D01*
X92491993Y-126050089D01*
X92712301Y-125879972D01*
X92905492Y-125679592D01*
X93067449Y-125453218D01*
X93129888Y-125331772D01*
X93194712Y-125205690D01*
X93194714Y-125205683D01*
X93194719Y-125205675D01*
X93284591Y-124942239D01*
X93335148Y-124668526D01*
X93340224Y-124529630D01*
X104774685Y-124529630D01*
X104805128Y-124806301D01*
X104805130Y-124806312D01*
X104875529Y-125075593D01*
X104875531Y-125075599D01*
X104984393Y-125331772D01*
X105058508Y-125453215D01*
X105129390Y-125569360D01*
X105129397Y-125569369D01*
X105221125Y-125679592D01*
X105307442Y-125783312D01*
X105514745Y-125969056D01*
X105746883Y-126122637D01*
X105998909Y-126240782D01*
X105998916Y-126240784D01*
X105998918Y-126240785D01*
X106265439Y-126320970D01*
X106265446Y-126320971D01*
X106265451Y-126320973D01*
X106540828Y-126361500D01*
X106540833Y-126361500D01*
X106749487Y-126361500D01*
X106749489Y-126361500D01*
X106749494Y-126361499D01*
X106749506Y-126361499D01*
X106788086Y-126358675D01*
X106957601Y-126346268D01*
X107071155Y-126320973D01*
X107229279Y-126285750D01*
X107229281Y-126285749D01*
X107229286Y-126285748D01*
X107489263Y-126186315D01*
X107731993Y-126050089D01*
X107952301Y-125879972D01*
X108145492Y-125679592D01*
X108307449Y-125453218D01*
X108369888Y-125331772D01*
X108434712Y-125205690D01*
X108434714Y-125205683D01*
X108434719Y-125205675D01*
X108524591Y-124942239D01*
X108575148Y-124668526D01*
X108580224Y-124529630D01*
X160654685Y-124529630D01*
X160685128Y-124806301D01*
X160685130Y-124806312D01*
X160755529Y-125075593D01*
X160755531Y-125075599D01*
X160864393Y-125331772D01*
X160938508Y-125453215D01*
X161009390Y-125569360D01*
X161009397Y-125569369D01*
X161101125Y-125679592D01*
X161187442Y-125783312D01*
X161394745Y-125969056D01*
X161626883Y-126122637D01*
X161878909Y-126240782D01*
X161878916Y-126240784D01*
X161878918Y-126240785D01*
X162145439Y-126320970D01*
X162145446Y-126320971D01*
X162145451Y-126320973D01*
X162420828Y-126361500D01*
X162420833Y-126361500D01*
X162629487Y-126361500D01*
X162629489Y-126361500D01*
X162629494Y-126361499D01*
X162629506Y-126361499D01*
X162668086Y-126358675D01*
X162837601Y-126346268D01*
X162951155Y-126320973D01*
X163109279Y-126285750D01*
X163109281Y-126285749D01*
X163109286Y-126285748D01*
X163369263Y-126186315D01*
X163611993Y-126050089D01*
X163832301Y-125879972D01*
X164025492Y-125679592D01*
X164187449Y-125453218D01*
X164249888Y-125331772D01*
X164314712Y-125205690D01*
X164314714Y-125205683D01*
X164314719Y-125205675D01*
X164404591Y-124942239D01*
X164455148Y-124668526D01*
X164465314Y-124390368D01*
X164434871Y-124113694D01*
X164364469Y-123844401D01*
X164255607Y-123588228D01*
X164110607Y-123350636D01*
X164036751Y-123261889D01*
X163932559Y-123136689D01*
X163932553Y-123136683D01*
X163725255Y-122950944D01*
X163493119Y-122797364D01*
X163469142Y-122786124D01*
X163241091Y-122679218D01*
X163241086Y-122679216D01*
X163241081Y-122679214D01*
X162974560Y-122599029D01*
X162974546Y-122599026D01*
X162833568Y-122578279D01*
X162699172Y-122558500D01*
X162490511Y-122558500D01*
X162490493Y-122558500D01*
X162282399Y-122573732D01*
X162282385Y-122573734D01*
X162010720Y-122634249D01*
X162010713Y-122634252D01*
X161750734Y-122733686D01*
X161508010Y-122869909D01*
X161508008Y-122869910D01*
X161508007Y-122869911D01*
X161448781Y-122915643D01*
X161287694Y-123040031D01*
X161094511Y-123240404D01*
X161094509Y-123240406D01*
X160932552Y-123466780D01*
X160932549Y-123466784D01*
X160805287Y-123714309D01*
X160805278Y-123714331D01*
X160715412Y-123977747D01*
X160715408Y-123977765D01*
X160664852Y-124251474D01*
X160664851Y-124251481D01*
X160654685Y-124529630D01*
X108580224Y-124529630D01*
X108585314Y-124390368D01*
X108554871Y-124113694D01*
X108484469Y-123844401D01*
X108375607Y-123588228D01*
X108230607Y-123350636D01*
X108156751Y-123261889D01*
X108052559Y-123136689D01*
X108052553Y-123136683D01*
X107845255Y-122950944D01*
X107613119Y-122797364D01*
X107589142Y-122786124D01*
X107361091Y-122679218D01*
X107361086Y-122679216D01*
X107361081Y-122679214D01*
X107094560Y-122599029D01*
X107094546Y-122599026D01*
X106953568Y-122578279D01*
X106819172Y-122558500D01*
X106610511Y-122558500D01*
X106610493Y-122558500D01*
X106402399Y-122573732D01*
X106402385Y-122573734D01*
X106130720Y-122634249D01*
X106130713Y-122634252D01*
X105870734Y-122733686D01*
X105628010Y-122869909D01*
X105628008Y-122869910D01*
X105628007Y-122869911D01*
X105568781Y-122915643D01*
X105407694Y-123040031D01*
X105214511Y-123240404D01*
X105214509Y-123240406D01*
X105052552Y-123466780D01*
X105052549Y-123466784D01*
X104925287Y-123714309D01*
X104925278Y-123714331D01*
X104835412Y-123977747D01*
X104835408Y-123977765D01*
X104784852Y-124251474D01*
X104784851Y-124251481D01*
X104774685Y-124529630D01*
X93340224Y-124529630D01*
X93345314Y-124390368D01*
X93314871Y-124113694D01*
X93244469Y-123844401D01*
X93135607Y-123588228D01*
X92990607Y-123350636D01*
X92916751Y-123261889D01*
X92812559Y-123136689D01*
X92812553Y-123136683D01*
X92605255Y-122950944D01*
X92373119Y-122797364D01*
X92349142Y-122786124D01*
X92121091Y-122679218D01*
X92121086Y-122679216D01*
X92121081Y-122679214D01*
X91854560Y-122599029D01*
X91854546Y-122599026D01*
X91713568Y-122578279D01*
X91579172Y-122558500D01*
X91370511Y-122558500D01*
X91370493Y-122558500D01*
X91162399Y-122573732D01*
X91162385Y-122573734D01*
X90890720Y-122634249D01*
X90890713Y-122634252D01*
X90630734Y-122733686D01*
X90388010Y-122869909D01*
X90388008Y-122869910D01*
X90388007Y-122869911D01*
X90328781Y-122915643D01*
X90167694Y-123040031D01*
X89974511Y-123240404D01*
X89974509Y-123240406D01*
X89812552Y-123466780D01*
X89812549Y-123466784D01*
X89685287Y-123714309D01*
X89685278Y-123714331D01*
X89595412Y-123977747D01*
X89595408Y-123977765D01*
X89544852Y-124251474D01*
X89544851Y-124251481D01*
X89534685Y-124529630D01*
X37460224Y-124529630D01*
X37465314Y-124390368D01*
X37434871Y-124113694D01*
X37364469Y-123844401D01*
X37255607Y-123588228D01*
X37110607Y-123350636D01*
X37036751Y-123261889D01*
X36932559Y-123136689D01*
X36932553Y-123136683D01*
X36725255Y-122950944D01*
X36493119Y-122797364D01*
X36469142Y-122786124D01*
X36241091Y-122679218D01*
X36241086Y-122679216D01*
X36241081Y-122679214D01*
X35974560Y-122599029D01*
X35974546Y-122599026D01*
X35833568Y-122578279D01*
X35699172Y-122558500D01*
X35490511Y-122558500D01*
X35490493Y-122558500D01*
X35282399Y-122573732D01*
X35282385Y-122573734D01*
X35010720Y-122634249D01*
X35010713Y-122634252D01*
X34750734Y-122733686D01*
X34508010Y-122869909D01*
X34508008Y-122869910D01*
X34508007Y-122869911D01*
X34448781Y-122915643D01*
X34287694Y-123040031D01*
X34094511Y-123240404D01*
X34094509Y-123240406D01*
X33932552Y-123466780D01*
X33932549Y-123466784D01*
X33805287Y-123714309D01*
X33805278Y-123714331D01*
X33715412Y-123977747D01*
X33715408Y-123977765D01*
X33664852Y-124251474D01*
X33664851Y-124251481D01*
X33654685Y-124529630D01*
X20955500Y-124529630D01*
X20955500Y-120777000D01*
X48390271Y-120777000D01*
X48409166Y-121053239D01*
X48465502Y-121324347D01*
X48465503Y-121324350D01*
X48558225Y-121585244D01*
X48558224Y-121585244D01*
X48685615Y-121831095D01*
X48820402Y-122022043D01*
X49591828Y-121250616D01*
X49661902Y-121363038D01*
X49795368Y-121503444D01*
X49943208Y-121606343D01*
X49175221Y-122374329D01*
X49175221Y-122374330D01*
X49249061Y-122434403D01*
X49249074Y-122434411D01*
X49485654Y-122578279D01*
X49739616Y-122688590D01*
X50006236Y-122763294D01*
X50006243Y-122763295D01*
X50280554Y-122801000D01*
X50557446Y-122801000D01*
X50831756Y-122763295D01*
X50831763Y-122763294D01*
X51098383Y-122688590D01*
X51352345Y-122578279D01*
X51588924Y-122434413D01*
X51662777Y-122374329D01*
X50892190Y-121603742D01*
X50965939Y-121562809D01*
X51112925Y-121436625D01*
X51231502Y-121283436D01*
X51247129Y-121251576D01*
X52017596Y-122022043D01*
X52017597Y-122022043D01*
X52152384Y-121831095D01*
X52279774Y-121585244D01*
X52372496Y-121324350D01*
X52372497Y-121324347D01*
X52428833Y-121053239D01*
X52447728Y-120777004D01*
X61589513Y-120777004D01*
X61609432Y-121042812D01*
X61657766Y-121254576D01*
X61668748Y-121302692D01*
X61766134Y-121550826D01*
X61899414Y-121781674D01*
X62033649Y-121949999D01*
X62065615Y-121990083D01*
X62222820Y-122135947D01*
X62261014Y-122171386D01*
X62481257Y-122321545D01*
X62721415Y-122437199D01*
X62721416Y-122437199D01*
X62721419Y-122437201D01*
X62976137Y-122515771D01*
X63239720Y-122555500D01*
X63239721Y-122555500D01*
X63506279Y-122555500D01*
X63506280Y-122555500D01*
X63769863Y-122515771D01*
X64024581Y-122437201D01*
X64264744Y-122321545D01*
X64484986Y-122171386D01*
X64680388Y-121990079D01*
X64846586Y-121781674D01*
X64979866Y-121550826D01*
X65077252Y-121302692D01*
X65136567Y-121042815D01*
X65150730Y-120853821D01*
X65156487Y-120777004D01*
X74543513Y-120777004D01*
X74563432Y-121042812D01*
X74611766Y-121254576D01*
X74622748Y-121302692D01*
X74720134Y-121550826D01*
X74853414Y-121781674D01*
X74987649Y-121949999D01*
X75019615Y-121990083D01*
X75176820Y-122135947D01*
X75215014Y-122171386D01*
X75435257Y-122321545D01*
X75675415Y-122437199D01*
X75675416Y-122437199D01*
X75675419Y-122437201D01*
X75930137Y-122515771D01*
X76193720Y-122555500D01*
X76193721Y-122555500D01*
X76460279Y-122555500D01*
X76460280Y-122555500D01*
X76723863Y-122515771D01*
X76978581Y-122437201D01*
X77218744Y-122321545D01*
X77438986Y-122171386D01*
X77634388Y-121990079D01*
X77800586Y-121781674D01*
X77933866Y-121550826D01*
X78031252Y-121302692D01*
X78090567Y-121042815D01*
X78104730Y-120853821D01*
X78110487Y-120777004D01*
X119755513Y-120777004D01*
X119775432Y-121042812D01*
X119823766Y-121254576D01*
X119834748Y-121302692D01*
X119932134Y-121550826D01*
X120065414Y-121781674D01*
X120199649Y-121949999D01*
X120231615Y-121990083D01*
X120388820Y-122135947D01*
X120427014Y-122171386D01*
X120647257Y-122321545D01*
X120887415Y-122437199D01*
X120887416Y-122437199D01*
X120887419Y-122437201D01*
X121142137Y-122515771D01*
X121405720Y-122555500D01*
X121405721Y-122555500D01*
X121672279Y-122555500D01*
X121672280Y-122555500D01*
X121935863Y-122515771D01*
X122190581Y-122437201D01*
X122430744Y-122321545D01*
X122650986Y-122171386D01*
X122846388Y-121990079D01*
X123012586Y-121781674D01*
X123145866Y-121550826D01*
X123243252Y-121302692D01*
X123302567Y-121042815D01*
X123316730Y-120853821D01*
X123322487Y-120777004D01*
X132709513Y-120777004D01*
X132729432Y-121042812D01*
X132777766Y-121254576D01*
X132788748Y-121302692D01*
X132886134Y-121550826D01*
X133019414Y-121781674D01*
X133153649Y-121949999D01*
X133185615Y-121990083D01*
X133342820Y-122135947D01*
X133381014Y-122171386D01*
X133601257Y-122321545D01*
X133841415Y-122437199D01*
X133841416Y-122437199D01*
X133841419Y-122437201D01*
X134096137Y-122515771D01*
X134359720Y-122555500D01*
X134359721Y-122555500D01*
X134626279Y-122555500D01*
X134626280Y-122555500D01*
X134889863Y-122515771D01*
X135144581Y-122437201D01*
X135384744Y-122321545D01*
X135604986Y-122171386D01*
X135800388Y-121990079D01*
X135966586Y-121781674D01*
X136099866Y-121550826D01*
X136197252Y-121302692D01*
X136256567Y-121042815D01*
X136270730Y-120853821D01*
X136276487Y-120777004D01*
X145663513Y-120777004D01*
X145683432Y-121042812D01*
X145731766Y-121254576D01*
X145742748Y-121302692D01*
X145840134Y-121550826D01*
X145973414Y-121781674D01*
X146107649Y-121949999D01*
X146139615Y-121990083D01*
X146296820Y-122135947D01*
X146335014Y-122171386D01*
X146555257Y-122321545D01*
X146795415Y-122437199D01*
X146795416Y-122437199D01*
X146795419Y-122437201D01*
X147050137Y-122515771D01*
X147313720Y-122555500D01*
X147313721Y-122555500D01*
X147580279Y-122555500D01*
X147580280Y-122555500D01*
X147843863Y-122515771D01*
X148098581Y-122437201D01*
X148338744Y-122321545D01*
X148558986Y-122171386D01*
X148754388Y-121990079D01*
X148920586Y-121781674D01*
X149053866Y-121550826D01*
X149151252Y-121302692D01*
X149210567Y-121042815D01*
X149224730Y-120853821D01*
X149230487Y-120777004D01*
X149230487Y-120776995D01*
X149210567Y-120511187D01*
X149210567Y-120511185D01*
X149151252Y-120251308D01*
X149053866Y-120003174D01*
X148920586Y-119772326D01*
X148754388Y-119563921D01*
X148754387Y-119563920D01*
X148754384Y-119563916D01*
X148558986Y-119382614D01*
X148525649Y-119359885D01*
X148338744Y-119232455D01*
X148338740Y-119232453D01*
X148338737Y-119232451D01*
X148338736Y-119232450D01*
X148098583Y-119116800D01*
X148098585Y-119116800D01*
X147843871Y-119038231D01*
X147843867Y-119038230D01*
X147843863Y-119038229D01*
X147717074Y-119019118D01*
X147580285Y-118998500D01*
X147580280Y-118998500D01*
X147313720Y-118998500D01*
X147313714Y-118998500D01*
X147149566Y-119023242D01*
X147050137Y-119038229D01*
X147050134Y-119038230D01*
X147050128Y-119038231D01*
X146795415Y-119116800D01*
X146555265Y-119232450D01*
X146555263Y-119232451D01*
X146335013Y-119382614D01*
X146139615Y-119563916D01*
X145973414Y-119772326D01*
X145840134Y-120003173D01*
X145742750Y-120251302D01*
X145742745Y-120251319D01*
X145683432Y-120511187D01*
X145663513Y-120776995D01*
X145663513Y-120777004D01*
X136276487Y-120777004D01*
X136276487Y-120776995D01*
X136256567Y-120511187D01*
X136256567Y-120511185D01*
X136197252Y-120251308D01*
X136099866Y-120003174D01*
X135966586Y-119772326D01*
X135800388Y-119563921D01*
X135800387Y-119563920D01*
X135800384Y-119563916D01*
X135604986Y-119382614D01*
X135571649Y-119359885D01*
X135384744Y-119232455D01*
X135384740Y-119232453D01*
X135384737Y-119232451D01*
X135384736Y-119232450D01*
X135144583Y-119116800D01*
X135144585Y-119116800D01*
X134889871Y-119038231D01*
X134889867Y-119038230D01*
X134889863Y-119038229D01*
X134763074Y-119019118D01*
X134626285Y-118998500D01*
X134626280Y-118998500D01*
X134359720Y-118998500D01*
X134359714Y-118998500D01*
X134195566Y-119023242D01*
X134096137Y-119038229D01*
X134096134Y-119038230D01*
X134096128Y-119038231D01*
X133841415Y-119116800D01*
X133601265Y-119232450D01*
X133601263Y-119232451D01*
X133381013Y-119382614D01*
X133185615Y-119563916D01*
X133019414Y-119772326D01*
X132886134Y-120003173D01*
X132788750Y-120251302D01*
X132788745Y-120251319D01*
X132729432Y-120511187D01*
X132709513Y-120776995D01*
X132709513Y-120777004D01*
X123322487Y-120777004D01*
X123322487Y-120776995D01*
X123302567Y-120511187D01*
X123302567Y-120511185D01*
X123243252Y-120251308D01*
X123145866Y-120003174D01*
X123012586Y-119772326D01*
X122846388Y-119563921D01*
X122846387Y-119563920D01*
X122846384Y-119563916D01*
X122650986Y-119382614D01*
X122617649Y-119359885D01*
X122430744Y-119232455D01*
X122430740Y-119232453D01*
X122430737Y-119232451D01*
X122430736Y-119232450D01*
X122190583Y-119116800D01*
X122190585Y-119116800D01*
X121935871Y-119038231D01*
X121935867Y-119038230D01*
X121935863Y-119038229D01*
X121809074Y-119019118D01*
X121672285Y-118998500D01*
X121672280Y-118998500D01*
X121405720Y-118998500D01*
X121405714Y-118998500D01*
X121241566Y-119023242D01*
X121142137Y-119038229D01*
X121142134Y-119038230D01*
X121142128Y-119038231D01*
X120887415Y-119116800D01*
X120647265Y-119232450D01*
X120647263Y-119232451D01*
X120427013Y-119382614D01*
X120231615Y-119563916D01*
X120065414Y-119772326D01*
X119932134Y-120003173D01*
X119834750Y-120251302D01*
X119834745Y-120251319D01*
X119775432Y-120511187D01*
X119755513Y-120776995D01*
X119755513Y-120777004D01*
X78110487Y-120777004D01*
X78110487Y-120776995D01*
X78090567Y-120511187D01*
X78090567Y-120511185D01*
X78031252Y-120251308D01*
X77933866Y-120003174D01*
X77800586Y-119772326D01*
X77634388Y-119563921D01*
X77634387Y-119563920D01*
X77634384Y-119563916D01*
X77438986Y-119382614D01*
X77405649Y-119359885D01*
X77218744Y-119232455D01*
X77218740Y-119232453D01*
X77218737Y-119232451D01*
X77218736Y-119232450D01*
X76978583Y-119116800D01*
X76978585Y-119116800D01*
X76723871Y-119038231D01*
X76723867Y-119038230D01*
X76723863Y-119038229D01*
X76597074Y-119019118D01*
X76460285Y-118998500D01*
X76460280Y-118998500D01*
X76193720Y-118998500D01*
X76193714Y-118998500D01*
X76029566Y-119023242D01*
X75930137Y-119038229D01*
X75930134Y-119038230D01*
X75930128Y-119038231D01*
X75675415Y-119116800D01*
X75435265Y-119232450D01*
X75435263Y-119232451D01*
X75215013Y-119382614D01*
X75019615Y-119563916D01*
X74853414Y-119772326D01*
X74720134Y-120003173D01*
X74622750Y-120251302D01*
X74622745Y-120251319D01*
X74563432Y-120511187D01*
X74543513Y-120776995D01*
X74543513Y-120777004D01*
X65156487Y-120777004D01*
X65156487Y-120776995D01*
X65136567Y-120511187D01*
X65136567Y-120511185D01*
X65077252Y-120251308D01*
X64979866Y-120003174D01*
X64846586Y-119772326D01*
X64680388Y-119563921D01*
X64680387Y-119563920D01*
X64680384Y-119563916D01*
X64484986Y-119382614D01*
X64451649Y-119359885D01*
X64264744Y-119232455D01*
X64264740Y-119232453D01*
X64264737Y-119232451D01*
X64264736Y-119232450D01*
X64024583Y-119116800D01*
X64024585Y-119116800D01*
X63769871Y-119038231D01*
X63769867Y-119038230D01*
X63769863Y-119038229D01*
X63643074Y-119019118D01*
X63506285Y-118998500D01*
X63506280Y-118998500D01*
X63239720Y-118998500D01*
X63239714Y-118998500D01*
X63075566Y-119023242D01*
X62976137Y-119038229D01*
X62976134Y-119038230D01*
X62976128Y-119038231D01*
X62721415Y-119116800D01*
X62481265Y-119232450D01*
X62481263Y-119232451D01*
X62261013Y-119382614D01*
X62065615Y-119563916D01*
X61899414Y-119772326D01*
X61766134Y-120003173D01*
X61668750Y-120251302D01*
X61668745Y-120251319D01*
X61609432Y-120511187D01*
X61589513Y-120776995D01*
X61589513Y-120777004D01*
X52447728Y-120777004D01*
X52447728Y-120777000D01*
X52428833Y-120500760D01*
X52372497Y-120229652D01*
X52372496Y-120229649D01*
X52279774Y-119968755D01*
X52279775Y-119968755D01*
X52152384Y-119722904D01*
X52017596Y-119531955D01*
X51246169Y-120303381D01*
X51176098Y-120190962D01*
X51042632Y-120050556D01*
X50894791Y-119947655D01*
X51662777Y-119179669D01*
X51588928Y-119119590D01*
X51588925Y-119119588D01*
X51352345Y-118975720D01*
X51098383Y-118865409D01*
X50831763Y-118790705D01*
X50831756Y-118790704D01*
X50557446Y-118753000D01*
X50280554Y-118753000D01*
X50006243Y-118790704D01*
X50006236Y-118790705D01*
X49739616Y-118865409D01*
X49485654Y-118975720D01*
X49249077Y-119119586D01*
X49249067Y-119119592D01*
X49175221Y-119179669D01*
X49945809Y-119950257D01*
X49872061Y-119991191D01*
X49725075Y-120117375D01*
X49606498Y-120270564D01*
X49590870Y-120302423D01*
X48820402Y-119531955D01*
X48820401Y-119531955D01*
X48685619Y-119722897D01*
X48685615Y-119722903D01*
X48558225Y-119968755D01*
X48465503Y-120229649D01*
X48465502Y-120229652D01*
X48409166Y-120500760D01*
X48390271Y-120777000D01*
X20955500Y-120777000D01*
X20955500Y-116964000D01*
X20975185Y-116896961D01*
X21027989Y-116851206D01*
X21079500Y-116840000D01*
X168216500Y-116840000D01*
X168283539Y-116859685D01*
X168329294Y-116912489D01*
X168340500Y-116964000D01*
X168340500Y-127696450D01*
X168355345Y-127880342D01*
X168385091Y-128001024D01*
X168414251Y-128119331D01*
X168510730Y-128345776D01*
X168642284Y-128553811D01*
X168642287Y-128553815D01*
X168805503Y-128738048D01*
X168996166Y-128893719D01*
X168996169Y-128893722D01*
X169110187Y-128959550D01*
X169209332Y-129016791D01*
X169439478Y-129104074D01*
X169680644Y-129153309D01*
X169754426Y-129156282D01*
X169926578Y-129163220D01*
X169926579Y-129163220D01*
X169926580Y-129163219D01*
X169926585Y-129163220D01*
X170170931Y-129133551D01*
X170407354Y-129065070D01*
X170629730Y-128959551D01*
X170832300Y-128819727D01*
X171009817Y-128649220D01*
X171157684Y-128452444D01*
X171272072Y-128234497D01*
X171350017Y-128001024D01*
X171389500Y-127758070D01*
X171389500Y-124087844D01*
X223440000Y-124087844D01*
X223446401Y-124147372D01*
X223446403Y-124147379D01*
X223496645Y-124282086D01*
X223496649Y-124282093D01*
X223582809Y-124397187D01*
X223582812Y-124397190D01*
X223697906Y-124483350D01*
X223697913Y-124483354D01*
X223832620Y-124533596D01*
X223832627Y-124533598D01*
X223892155Y-124539999D01*
X223892172Y-124540000D01*
X224540000Y-124540000D01*
X224540000Y-123625501D01*
X224647685Y-123674680D01*
X224754237Y-123690000D01*
X224825763Y-123690000D01*
X224932315Y-123674680D01*
X225040000Y-123625501D01*
X225040000Y-124540000D01*
X225687828Y-124540000D01*
X225687844Y-124539999D01*
X225747372Y-124533598D01*
X225747379Y-124533596D01*
X225882086Y-124483354D01*
X225882093Y-124483350D01*
X225997187Y-124397190D01*
X225997190Y-124397187D01*
X226083350Y-124282093D01*
X226083354Y-124282086D01*
X226133596Y-124147379D01*
X226133598Y-124147372D01*
X226139999Y-124087844D01*
X226140000Y-124087827D01*
X226140000Y-123805284D01*
X226159685Y-123738245D01*
X226212489Y-123692490D01*
X226281647Y-123682546D01*
X226345203Y-123711571D01*
X226374998Y-123750010D01*
X226386912Y-123773935D01*
X226386913Y-123773937D01*
X226510269Y-123937287D01*
X226661537Y-124075185D01*
X226661539Y-124075187D01*
X226835569Y-124182942D01*
X226835575Y-124182945D01*
X226876010Y-124198609D01*
X227026444Y-124256888D01*
X227227653Y-124294500D01*
X227227656Y-124294500D01*
X227432344Y-124294500D01*
X227432347Y-124294500D01*
X227633556Y-124256888D01*
X227824427Y-124182944D01*
X227998462Y-124075186D01*
X228149732Y-123937285D01*
X228273088Y-123773935D01*
X228364328Y-123590701D01*
X228420345Y-123393821D01*
X228439232Y-123190000D01*
X228420345Y-122986179D01*
X228364328Y-122789299D01*
X228273088Y-122606065D01*
X228149732Y-122442715D01*
X228149730Y-122442712D01*
X227998462Y-122304814D01*
X227998460Y-122304812D01*
X227824430Y-122197057D01*
X227824424Y-122197054D01*
X227650223Y-122129569D01*
X227633556Y-122123112D01*
X227432347Y-122085500D01*
X227227653Y-122085500D01*
X227026444Y-122123112D01*
X227026441Y-122123112D01*
X227026441Y-122123113D01*
X226835575Y-122197054D01*
X226835569Y-122197057D01*
X226661539Y-122304812D01*
X226661537Y-122304814D01*
X226510269Y-122442712D01*
X226386913Y-122606062D01*
X226375000Y-122629988D01*
X226327496Y-122681224D01*
X226259833Y-122698645D01*
X226193493Y-122676719D01*
X226149538Y-122622407D01*
X226140000Y-122574715D01*
X226140000Y-122292172D01*
X226139999Y-122292155D01*
X226133598Y-122232627D01*
X226133596Y-122232620D01*
X226083354Y-122097913D01*
X226083350Y-122097906D01*
X225997190Y-121982812D01*
X225997187Y-121982809D01*
X225882093Y-121896649D01*
X225882086Y-121896645D01*
X225747379Y-121846403D01*
X225747372Y-121846401D01*
X225687844Y-121840000D01*
X225401985Y-121840000D01*
X225334946Y-121820315D01*
X225289191Y-121767511D01*
X225279247Y-121698353D01*
X225308272Y-121634797D01*
X225336708Y-121610573D01*
X225414137Y-121562631D01*
X225458462Y-121535186D01*
X225609732Y-121397285D01*
X225733088Y-121233935D01*
X225824328Y-121050701D01*
X225880345Y-120853821D01*
X225899232Y-120650000D01*
X226220768Y-120650000D01*
X226239654Y-120853816D01*
X226239654Y-120853818D01*
X226239655Y-120853821D01*
X226293428Y-121042815D01*
X226295673Y-121050704D01*
X226386912Y-121233935D01*
X226510269Y-121397287D01*
X226661537Y-121535185D01*
X226661539Y-121535187D01*
X226835569Y-121642942D01*
X226835575Y-121642945D01*
X226842723Y-121645714D01*
X227026444Y-121716888D01*
X227227653Y-121754500D01*
X227227656Y-121754500D01*
X227432344Y-121754500D01*
X227432347Y-121754500D01*
X227633556Y-121716888D01*
X227824427Y-121642944D01*
X227998462Y-121535186D01*
X228010962Y-121523790D01*
X228073765Y-121493174D01*
X228143153Y-121501371D01*
X228197093Y-121545781D01*
X228218461Y-121612303D01*
X228218500Y-121615428D01*
X228218500Y-121867572D01*
X228215861Y-121893018D01*
X228213555Y-121904017D01*
X228213873Y-121906572D01*
X228217548Y-121936048D01*
X228218500Y-121951387D01*
X228218500Y-121951611D01*
X228221979Y-121972461D01*
X228222716Y-121977525D01*
X228229302Y-122030356D01*
X228231580Y-122038009D01*
X228234183Y-122045590D01*
X228259510Y-122092389D01*
X228261843Y-122096921D01*
X228285224Y-122144746D01*
X228285225Y-122144747D01*
X228285226Y-122144749D01*
X228289869Y-122151253D01*
X228294782Y-122157564D01*
X228333943Y-122193615D01*
X228337641Y-122197163D01*
X228804988Y-122664510D01*
X228838473Y-122725833D01*
X228836574Y-122786124D01*
X228779654Y-122986181D01*
X228760768Y-123189999D01*
X228760768Y-123190000D01*
X228779654Y-123393816D01*
X228779654Y-123393818D01*
X228779655Y-123393821D01*
X228834970Y-123588233D01*
X228835673Y-123590704D01*
X228926912Y-123773935D01*
X229050269Y-123937287D01*
X229201537Y-124075185D01*
X229201539Y-124075187D01*
X229375569Y-124182942D01*
X229375575Y-124182945D01*
X229416010Y-124198609D01*
X229566444Y-124256888D01*
X229767653Y-124294500D01*
X229767656Y-124294500D01*
X229972344Y-124294500D01*
X229972347Y-124294500D01*
X230173556Y-124256888D01*
X230364427Y-124182944D01*
X230538462Y-124075186D01*
X230689732Y-123937285D01*
X230813088Y-123773935D01*
X230904328Y-123590701D01*
X230960345Y-123393821D01*
X230979232Y-123190000D01*
X230960345Y-122986179D01*
X230904328Y-122789299D01*
X230813088Y-122606065D01*
X230689732Y-122442715D01*
X230689730Y-122442712D01*
X230538462Y-122304814D01*
X230538460Y-122304812D01*
X230364430Y-122197057D01*
X230364424Y-122197054D01*
X230190223Y-122129569D01*
X230173556Y-122123112D01*
X229972347Y-122085500D01*
X229767653Y-122085500D01*
X229602289Y-122116411D01*
X229566438Y-122123113D01*
X229480468Y-122156418D01*
X229410845Y-122162279D01*
X229349105Y-122129569D01*
X229347994Y-122128472D01*
X229191983Y-121972461D01*
X229017819Y-121798296D01*
X228984334Y-121736973D01*
X228981500Y-121710615D01*
X228981500Y-121615428D01*
X229001185Y-121548389D01*
X229053989Y-121502634D01*
X229123147Y-121492690D01*
X229186703Y-121521715D01*
X229189011Y-121523766D01*
X229201538Y-121535186D01*
X229201540Y-121535187D01*
X229201541Y-121535188D01*
X229375569Y-121642942D01*
X229375575Y-121642945D01*
X229382723Y-121645714D01*
X229566444Y-121716888D01*
X229767653Y-121754500D01*
X229767656Y-121754500D01*
X229972344Y-121754500D01*
X229972347Y-121754500D01*
X230173556Y-121716888D01*
X230364427Y-121642944D01*
X230538462Y-121535186D01*
X230589961Y-121488237D01*
X230652765Y-121457620D01*
X230722152Y-121465817D01*
X230776092Y-121510226D01*
X230797461Y-121576748D01*
X230797500Y-121579874D01*
X230797500Y-121906572D01*
X230794861Y-121932018D01*
X230792555Y-121943017D01*
X230796542Y-121975004D01*
X230796548Y-121975048D01*
X230797500Y-121990387D01*
X230797500Y-121990611D01*
X230800746Y-122010066D01*
X230800979Y-122011461D01*
X230801716Y-122016525D01*
X230808302Y-122069356D01*
X230810580Y-122077009D01*
X230813183Y-122084590D01*
X230838510Y-122131389D01*
X230840843Y-122135921D01*
X230864224Y-122183746D01*
X230864225Y-122183747D01*
X230864226Y-122183749D01*
X230868869Y-122190253D01*
X230873782Y-122196564D01*
X230912943Y-122232615D01*
X230916641Y-122236163D01*
X231344988Y-122664510D01*
X231378473Y-122725833D01*
X231376574Y-122786124D01*
X231319654Y-122986181D01*
X231300768Y-123189999D01*
X231300768Y-123190000D01*
X231319654Y-123393816D01*
X231319654Y-123393818D01*
X231319655Y-123393821D01*
X231374970Y-123588233D01*
X231375673Y-123590704D01*
X231466912Y-123773935D01*
X231590269Y-123937287D01*
X231741537Y-124075185D01*
X231741539Y-124075187D01*
X231915569Y-124182942D01*
X231915575Y-124182945D01*
X231956010Y-124198609D01*
X232106444Y-124256888D01*
X232307653Y-124294500D01*
X232307656Y-124294500D01*
X232512344Y-124294500D01*
X232512347Y-124294500D01*
X232713556Y-124256888D01*
X232904427Y-124182944D01*
X233078462Y-124075186D01*
X233229732Y-123937285D01*
X233353088Y-123773935D01*
X233444328Y-123590701D01*
X233500345Y-123393821D01*
X233519232Y-123190000D01*
X233840768Y-123190000D01*
X233859654Y-123393816D01*
X233859654Y-123393818D01*
X233859655Y-123393821D01*
X233914970Y-123588233D01*
X233915673Y-123590704D01*
X234006912Y-123773935D01*
X234130269Y-123937287D01*
X234281537Y-124075185D01*
X234281539Y-124075187D01*
X234455569Y-124182942D01*
X234455575Y-124182945D01*
X234496010Y-124198609D01*
X234646444Y-124256888D01*
X234847653Y-124294500D01*
X234847656Y-124294500D01*
X235052344Y-124294500D01*
X235052347Y-124294500D01*
X235253556Y-124256888D01*
X235444427Y-124182944D01*
X235618462Y-124075186D01*
X235769732Y-123937285D01*
X235893088Y-123773935D01*
X235984328Y-123590701D01*
X236040345Y-123393821D01*
X236059232Y-123190000D01*
X236040345Y-122986179D01*
X235984328Y-122789299D01*
X235893088Y-122606065D01*
X235769732Y-122442715D01*
X235769730Y-122442712D01*
X235618462Y-122304814D01*
X235618460Y-122304812D01*
X235444430Y-122197057D01*
X235444424Y-122197054D01*
X235270223Y-122129569D01*
X235253556Y-122123112D01*
X235052347Y-122085500D01*
X234847653Y-122085500D01*
X234646444Y-122123112D01*
X234646441Y-122123112D01*
X234646441Y-122123113D01*
X234455575Y-122197054D01*
X234455569Y-122197057D01*
X234281539Y-122304812D01*
X234281537Y-122304814D01*
X234130269Y-122442712D01*
X234006912Y-122606064D01*
X233915673Y-122789295D01*
X233859654Y-122986183D01*
X233840768Y-123189999D01*
X233840768Y-123190000D01*
X233519232Y-123190000D01*
X233500345Y-122986179D01*
X233444328Y-122789299D01*
X233353088Y-122606065D01*
X233229732Y-122442715D01*
X233229730Y-122442712D01*
X233078462Y-122304814D01*
X233078460Y-122304812D01*
X232904430Y-122197057D01*
X232904424Y-122197054D01*
X232730223Y-122129569D01*
X232713556Y-122123112D01*
X232512347Y-122085500D01*
X232307653Y-122085500D01*
X232142289Y-122116411D01*
X232106438Y-122123113D01*
X232020468Y-122156418D01*
X231950845Y-122162279D01*
X231889105Y-122129569D01*
X231887994Y-122128472D01*
X231750133Y-121990611D01*
X231596819Y-121837296D01*
X231563334Y-121775973D01*
X231560500Y-121749615D01*
X231560500Y-121645714D01*
X231580185Y-121578675D01*
X231632989Y-121532920D01*
X231702147Y-121522976D01*
X231749774Y-121540285D01*
X231915573Y-121642944D01*
X231915575Y-121642944D01*
X231915575Y-121642945D01*
X231922723Y-121645714D01*
X232106444Y-121716888D01*
X232307653Y-121754500D01*
X232307656Y-121754500D01*
X232512344Y-121754500D01*
X232512347Y-121754500D01*
X232713556Y-121716888D01*
X232904427Y-121642944D01*
X233078462Y-121535186D01*
X233229732Y-121397285D01*
X233353088Y-121233935D01*
X233444328Y-121050701D01*
X233500345Y-120853821D01*
X233519232Y-120650000D01*
X233840768Y-120650000D01*
X233859654Y-120853816D01*
X233859654Y-120853818D01*
X233859655Y-120853821D01*
X233913428Y-121042815D01*
X233915673Y-121050704D01*
X234006912Y-121233935D01*
X234130269Y-121397287D01*
X234281537Y-121535185D01*
X234281539Y-121535187D01*
X234455569Y-121642942D01*
X234455575Y-121642945D01*
X234462723Y-121645714D01*
X234646444Y-121716888D01*
X234847653Y-121754500D01*
X234847656Y-121754500D01*
X235052344Y-121754500D01*
X235052347Y-121754500D01*
X235253556Y-121716888D01*
X235444427Y-121642944D01*
X235618462Y-121535186D01*
X235769732Y-121397285D01*
X235893088Y-121233935D01*
X235984328Y-121050701D01*
X236040345Y-120853821D01*
X236059232Y-120650000D01*
X236040345Y-120446179D01*
X235984328Y-120249299D01*
X235893088Y-120066065D01*
X235815754Y-119963658D01*
X235769730Y-119902712D01*
X235618462Y-119764814D01*
X235618460Y-119764812D01*
X235444430Y-119657057D01*
X235444424Y-119657054D01*
X235256687Y-119584325D01*
X235253556Y-119583112D01*
X235052347Y-119545500D01*
X234847653Y-119545500D01*
X234646444Y-119583112D01*
X234646441Y-119583112D01*
X234646441Y-119583113D01*
X234455575Y-119657054D01*
X234455569Y-119657057D01*
X234281539Y-119764812D01*
X234281537Y-119764814D01*
X234130269Y-119902712D01*
X234006912Y-120066064D01*
X233915673Y-120249295D01*
X233859654Y-120446183D01*
X233840768Y-120649999D01*
X233840768Y-120650000D01*
X233519232Y-120650000D01*
X233500345Y-120446179D01*
X233444328Y-120249299D01*
X233353088Y-120066065D01*
X233275754Y-119963658D01*
X233229730Y-119902712D01*
X233078462Y-119764814D01*
X233078460Y-119764812D01*
X232904430Y-119657057D01*
X232904424Y-119657054D01*
X232716687Y-119584325D01*
X232713556Y-119583112D01*
X232578857Y-119557932D01*
X232516577Y-119526265D01*
X232481304Y-119465952D01*
X232484238Y-119396144D01*
X232503785Y-119359888D01*
X232516784Y-119343186D01*
X232526964Y-119331661D01*
X232527114Y-119331512D01*
X232539421Y-119314271D01*
X232542446Y-119310213D01*
X232575158Y-119268188D01*
X232575159Y-119268184D01*
X232578946Y-119261186D01*
X232582476Y-119253969D01*
X232584160Y-119248310D01*
X232597665Y-119202948D01*
X232599219Y-119198099D01*
X232605546Y-119179669D01*
X232616500Y-119147764D01*
X232616500Y-119147763D01*
X232617814Y-119139886D01*
X232618805Y-119131941D01*
X232616606Y-119078770D01*
X232616500Y-119073646D01*
X232616500Y-107131007D01*
X232636185Y-107063968D01*
X232688989Y-107018213D01*
X232758147Y-107008269D01*
X232821703Y-107037294D01*
X232836354Y-107052343D01*
X232863579Y-107085516D01*
X232870748Y-107094252D01*
X233031317Y-107226027D01*
X233031320Y-107226028D01*
X233031322Y-107226030D01*
X233214503Y-107323943D01*
X233214505Y-107323943D01*
X233214508Y-107323945D01*
X233413282Y-107384242D01*
X233620000Y-107404602D01*
X233826718Y-107384242D01*
X234025492Y-107323945D01*
X234208683Y-107226027D01*
X234369252Y-107094252D01*
X234501027Y-106933683D01*
X234598945Y-106750492D01*
X234659242Y-106551718D01*
X234679602Y-106345000D01*
X234659242Y-106138282D01*
X234598945Y-105939508D01*
X234598943Y-105939505D01*
X234598943Y-105939503D01*
X234501030Y-105756322D01*
X234501028Y-105756320D01*
X234501027Y-105756317D01*
X234431655Y-105671786D01*
X234369252Y-105595747D01*
X234208684Y-105463974D01*
X234208677Y-105463969D01*
X234025496Y-105366056D01*
X233826716Y-105305757D01*
X233620000Y-105285398D01*
X233413283Y-105305757D01*
X233214503Y-105366056D01*
X233031322Y-105463969D01*
X233031315Y-105463974D01*
X232870747Y-105595747D01*
X232836353Y-105637657D01*
X232778607Y-105676992D01*
X232708762Y-105678862D01*
X232648994Y-105642674D01*
X232618278Y-105579918D01*
X232616500Y-105558992D01*
X232616500Y-104571091D01*
X232636185Y-104504052D01*
X232682043Y-104461735D01*
X232823683Y-104386027D01*
X232984252Y-104254252D01*
X233116027Y-104093683D01*
X233174777Y-103983768D01*
X233213943Y-103910496D01*
X233213943Y-103910495D01*
X233213945Y-103910492D01*
X233274242Y-103711718D01*
X233294602Y-103505000D01*
X233945398Y-103505000D01*
X233965757Y-103711716D01*
X234026056Y-103910496D01*
X234123969Y-104093677D01*
X234123974Y-104093684D01*
X234255747Y-104254252D01*
X234286175Y-104279223D01*
X234416317Y-104386027D01*
X234416320Y-104386028D01*
X234416322Y-104386030D01*
X234599503Y-104483943D01*
X234599505Y-104483943D01*
X234599508Y-104483945D01*
X234798282Y-104544242D01*
X235005000Y-104564602D01*
X235211718Y-104544242D01*
X235410492Y-104483945D01*
X235491730Y-104440521D01*
X235560131Y-104426280D01*
X235625376Y-104451279D01*
X235637864Y-104462199D01*
X236269305Y-105093640D01*
X236302790Y-105154963D01*
X236297806Y-105224655D01*
X236255934Y-105280588D01*
X236193779Y-105304724D01*
X236183283Y-105305757D01*
X235984503Y-105366056D01*
X235801322Y-105463969D01*
X235801315Y-105463974D01*
X235640747Y-105595747D01*
X235508974Y-105756315D01*
X235508969Y-105756322D01*
X235411056Y-105939503D01*
X235350757Y-106138283D01*
X235330398Y-106345000D01*
X235350757Y-106551716D01*
X235411056Y-106750496D01*
X235508969Y-106933677D01*
X235508974Y-106933684D01*
X235640747Y-107094252D01*
X235749667Y-107183639D01*
X235801317Y-107226027D01*
X235801320Y-107226028D01*
X235801322Y-107226030D01*
X235984503Y-107323943D01*
X235984505Y-107323943D01*
X235984508Y-107323945D01*
X236183282Y-107384242D01*
X236390000Y-107404602D01*
X236596718Y-107384242D01*
X236795492Y-107323945D01*
X236978683Y-107226027D01*
X237139252Y-107094252D01*
X237271027Y-106933683D01*
X237368945Y-106750492D01*
X237429242Y-106551718D01*
X237430275Y-106541224D01*
X237456432Y-106476439D01*
X237513465Y-106436078D01*
X237583265Y-106432957D01*
X237641358Y-106465693D01*
X237707182Y-106531517D01*
X237740666Y-106592838D01*
X237743500Y-106619197D01*
X237743500Y-116033002D01*
X237723815Y-116100041D01*
X237692386Y-116133320D01*
X237569252Y-116222782D01*
X237453070Y-116351816D01*
X237366254Y-116502186D01*
X237312601Y-116667314D01*
X237312600Y-116667317D01*
X237294450Y-116840000D01*
X237312600Y-117012682D01*
X237312601Y-117012685D01*
X237353053Y-117137185D01*
X237366255Y-117177815D01*
X237453071Y-117328185D01*
X237506286Y-117387286D01*
X237569254Y-117457219D01*
X237709720Y-117559274D01*
X237709725Y-117559277D01*
X237868341Y-117629898D01*
X237868342Y-117629898D01*
X237868346Y-117629900D01*
X237901207Y-117636884D01*
X237962686Y-117670075D01*
X237996464Y-117731237D01*
X237993356Y-117796491D01*
X237947602Y-117937311D01*
X237947600Y-117937317D01*
X237929450Y-118110000D01*
X237947600Y-118282682D01*
X237947601Y-118282685D01*
X237976635Y-118372044D01*
X238001255Y-118447815D01*
X238088071Y-118598185D01*
X238204254Y-118727219D01*
X238344720Y-118829274D01*
X238344725Y-118829277D01*
X238503341Y-118899898D01*
X238503346Y-118899900D01*
X238673184Y-118936000D01*
X238673185Y-118936000D01*
X238846814Y-118936000D01*
X238846816Y-118936000D01*
X239016654Y-118899900D01*
X239175275Y-118829277D01*
X239315746Y-118727219D01*
X239431929Y-118598185D01*
X239518745Y-118447815D01*
X239572400Y-118282681D01*
X239590550Y-118110000D01*
X239572400Y-117937319D01*
X239518745Y-117772185D01*
X239481817Y-117708223D01*
X239475613Y-117697477D01*
X239459000Y-117635477D01*
X239459000Y-104859927D01*
X239461639Y-104834482D01*
X239462310Y-104831279D01*
X239463945Y-104823483D01*
X239459952Y-104791449D01*
X239459000Y-104776111D01*
X239459000Y-104775893D01*
X239459000Y-104775889D01*
X239455518Y-104755022D01*
X239454778Y-104749947D01*
X239452450Y-104731269D01*
X239448196Y-104697140D01*
X239448195Y-104697137D01*
X239445919Y-104689494D01*
X239443318Y-104681917D01*
X239443318Y-104681914D01*
X239443316Y-104681910D01*
X239417988Y-104635107D01*
X239415643Y-104630551D01*
X239392275Y-104582752D01*
X239387631Y-104576247D01*
X239382717Y-104569934D01*
X239343556Y-104533884D01*
X239339857Y-104530335D01*
X238865818Y-104056296D01*
X238832333Y-103994973D01*
X238829499Y-103968615D01*
X238829499Y-102679936D01*
X238829499Y-102679934D01*
X238814734Y-102605699D01*
X238790574Y-102569541D01*
X238758484Y-102521515D01*
X238708019Y-102487796D01*
X238674301Y-102465266D01*
X238674299Y-102465265D01*
X238674296Y-102465264D01*
X238600069Y-102450500D01*
X236949936Y-102450500D01*
X236875698Y-102465266D01*
X236791515Y-102521515D01*
X236735266Y-102605699D01*
X236735264Y-102605703D01*
X236720500Y-102679928D01*
X236720500Y-104166429D01*
X236700815Y-104233468D01*
X236648011Y-104279223D01*
X236578853Y-104289167D01*
X236515297Y-104260142D01*
X236508830Y-104254120D01*
X236078198Y-103823488D01*
X236044713Y-103762165D01*
X236044321Y-103717847D01*
X236043645Y-103717781D01*
X236050585Y-103647313D01*
X236064602Y-103505000D01*
X236044242Y-103298282D01*
X235983945Y-103099508D01*
X235983943Y-103099505D01*
X235983943Y-103099503D01*
X235886030Y-102916322D01*
X235886028Y-102916320D01*
X235886027Y-102916317D01*
X235808062Y-102821316D01*
X235754252Y-102755747D01*
X235593684Y-102623974D01*
X235593677Y-102623969D01*
X235410496Y-102526056D01*
X235211716Y-102465757D01*
X235005000Y-102445398D01*
X234798283Y-102465757D01*
X234599503Y-102526056D01*
X234416322Y-102623969D01*
X234416315Y-102623974D01*
X234255747Y-102755747D01*
X234123974Y-102916315D01*
X234123969Y-102916322D01*
X234026056Y-103099503D01*
X233965757Y-103298283D01*
X233945398Y-103505000D01*
X233294602Y-103505000D01*
X233274242Y-103298282D01*
X233213945Y-103099508D01*
X233213943Y-103099505D01*
X233213943Y-103099503D01*
X233116030Y-102916322D01*
X233116028Y-102916320D01*
X233116027Y-102916317D01*
X233038062Y-102821316D01*
X232984252Y-102755747D01*
X232823684Y-102623974D01*
X232823677Y-102623969D01*
X232640496Y-102526056D01*
X232441716Y-102465757D01*
X232235000Y-102445398D01*
X232028283Y-102465757D01*
X231829503Y-102526056D01*
X231646322Y-102623969D01*
X231646315Y-102623974D01*
X231485747Y-102755747D01*
X231353974Y-102916315D01*
X231353969Y-102916322D01*
X231256056Y-103099503D01*
X231195757Y-103298283D01*
X231175398Y-103505000D01*
X231195757Y-103711716D01*
X231256056Y-103910496D01*
X231353969Y-104093677D01*
X231353974Y-104093684D01*
X231485747Y-104254252D01*
X231646315Y-104386025D01*
X231646317Y-104386027D01*
X231787955Y-104461734D01*
X231837797Y-104510695D01*
X231853500Y-104571091D01*
X231853500Y-105558992D01*
X231833815Y-105626031D01*
X231781011Y-105671786D01*
X231711853Y-105681730D01*
X231648297Y-105652705D01*
X231633647Y-105637657D01*
X231599252Y-105595747D01*
X231438684Y-105463974D01*
X231438677Y-105463969D01*
X231255496Y-105366056D01*
X231056716Y-105305757D01*
X230850000Y-105285398D01*
X230643283Y-105305757D01*
X230444503Y-105366056D01*
X230261322Y-105463969D01*
X230261315Y-105463974D01*
X230100747Y-105595747D01*
X229968974Y-105756315D01*
X229968969Y-105756322D01*
X229871056Y-105939503D01*
X229810757Y-106138283D01*
X229790398Y-106345000D01*
X229810757Y-106551716D01*
X229871056Y-106750496D01*
X229968969Y-106933677D01*
X229968974Y-106933684D01*
X230100747Y-107094252D01*
X230209667Y-107183639D01*
X230261317Y-107226027D01*
X230261320Y-107226028D01*
X230261322Y-107226030D01*
X230444503Y-107323943D01*
X230444505Y-107323943D01*
X230444508Y-107323945D01*
X230643282Y-107384242D01*
X230850000Y-107404602D01*
X231056718Y-107384242D01*
X231255492Y-107323945D01*
X231438683Y-107226027D01*
X231599252Y-107094252D01*
X231626154Y-107061472D01*
X231633646Y-107052343D01*
X231691392Y-107013008D01*
X231761237Y-107011137D01*
X231821005Y-107047324D01*
X231851721Y-107110080D01*
X231853500Y-107131007D01*
X231853500Y-118874717D01*
X231833815Y-118941756D01*
X231817181Y-118962398D01*
X230946309Y-119833269D01*
X230926454Y-119849394D01*
X230917045Y-119855541D01*
X230917041Y-119855545D01*
X230897212Y-119881020D01*
X230887066Y-119892512D01*
X230886899Y-119892678D01*
X230886879Y-119892702D01*
X230885442Y-119894715D01*
X230884647Y-119895338D01*
X230883577Y-119896602D01*
X230883316Y-119896381D01*
X230830462Y-119937830D01*
X230760900Y-119944376D01*
X230698841Y-119912274D01*
X230692893Y-119906183D01*
X230689727Y-119902710D01*
X230538463Y-119764815D01*
X230538462Y-119764814D01*
X230413906Y-119687692D01*
X230364428Y-119657056D01*
X230364426Y-119657055D01*
X230330703Y-119643990D01*
X230275302Y-119601416D01*
X230251714Y-119535648D01*
X230251500Y-119528365D01*
X230251500Y-119266556D01*
X230271185Y-119199517D01*
X230323989Y-119153762D01*
X230325066Y-119153276D01*
X230337447Y-119147763D01*
X230339662Y-119146777D01*
X230480133Y-119044719D01*
X230596316Y-118915685D01*
X230683132Y-118765315D01*
X230736787Y-118600181D01*
X230754937Y-118427500D01*
X230736787Y-118254819D01*
X230683132Y-118089685D01*
X230596316Y-117939315D01*
X230480133Y-117810281D01*
X230461153Y-117796491D01*
X230339666Y-117708225D01*
X230339661Y-117708222D01*
X230181045Y-117637601D01*
X230181040Y-117637599D01*
X230047302Y-117609173D01*
X230011203Y-117601500D01*
X229837571Y-117601500D01*
X229807799Y-117607827D01*
X229667733Y-117637599D01*
X229667732Y-117637599D01*
X229597182Y-117669011D01*
X229527932Y-117678295D01*
X229464656Y-117648666D01*
X229427443Y-117589531D01*
X229423426Y-117542773D01*
X229430550Y-117475000D01*
X229412400Y-117302319D01*
X229358745Y-117137185D01*
X229271929Y-116986815D01*
X229155746Y-116857781D01*
X229153273Y-116855984D01*
X229015279Y-116755725D01*
X229015274Y-116755722D01*
X228856658Y-116685101D01*
X228856653Y-116685099D01*
X228722915Y-116656673D01*
X228686816Y-116649000D01*
X228513184Y-116649000D01*
X228483412Y-116655327D01*
X228343346Y-116685099D01*
X228343341Y-116685101D01*
X228184725Y-116755722D01*
X228184720Y-116755725D01*
X228044254Y-116857780D01*
X227928070Y-116986816D01*
X227841254Y-117137186D01*
X227787601Y-117302314D01*
X227787600Y-117302317D01*
X227769450Y-117475000D01*
X227787600Y-117647682D01*
X227787601Y-117647685D01*
X227840431Y-117810281D01*
X227841255Y-117812815D01*
X227928071Y-117963185D01*
X228044254Y-118092219D01*
X228167388Y-118181681D01*
X228210051Y-118237007D01*
X228218500Y-118281996D01*
X228218500Y-119684571D01*
X228198815Y-119751610D01*
X228146011Y-119797365D01*
X228076853Y-119807309D01*
X228013297Y-119778284D01*
X228010964Y-119776211D01*
X228006702Y-119772326D01*
X227998462Y-119764814D01*
X227998459Y-119764812D01*
X227998458Y-119764811D01*
X227824430Y-119657057D01*
X227824424Y-119657054D01*
X227636687Y-119584325D01*
X227633556Y-119583112D01*
X227432347Y-119545500D01*
X227227653Y-119545500D01*
X227026444Y-119583112D01*
X227026441Y-119583112D01*
X227026441Y-119583113D01*
X226835575Y-119657054D01*
X226835569Y-119657057D01*
X226661539Y-119764812D01*
X226661537Y-119764814D01*
X226510269Y-119902712D01*
X226386912Y-120066064D01*
X226295673Y-120249295D01*
X226239654Y-120446183D01*
X226220768Y-120649999D01*
X226220768Y-120650000D01*
X225899232Y-120650000D01*
X225880345Y-120446179D01*
X225824328Y-120249299D01*
X225733088Y-120066065D01*
X225655754Y-119963658D01*
X225609730Y-119902712D01*
X225458462Y-119764814D01*
X225458460Y-119764812D01*
X225284430Y-119657057D01*
X225284424Y-119657054D01*
X225096687Y-119584325D01*
X225093556Y-119583112D01*
X224892347Y-119545500D01*
X224687653Y-119545500D01*
X224486444Y-119583112D01*
X224486441Y-119583112D01*
X224486441Y-119583113D01*
X224295575Y-119657054D01*
X224295569Y-119657057D01*
X224121539Y-119764812D01*
X224121537Y-119764814D01*
X223970269Y-119902712D01*
X223846912Y-120066064D01*
X223755673Y-120249295D01*
X223699654Y-120446183D01*
X223680768Y-120649999D01*
X223680768Y-120650000D01*
X223699654Y-120853816D01*
X223699654Y-120853818D01*
X223699655Y-120853821D01*
X223753428Y-121042815D01*
X223755673Y-121050704D01*
X223846912Y-121233935D01*
X223970269Y-121397287D01*
X224121537Y-121535185D01*
X224121539Y-121535187D01*
X224243292Y-121610573D01*
X224289928Y-121662601D01*
X224301032Y-121731582D01*
X224273079Y-121795617D01*
X224214944Y-121834373D01*
X224178015Y-121840000D01*
X223892155Y-121840000D01*
X223832627Y-121846401D01*
X223832620Y-121846403D01*
X223697913Y-121896645D01*
X223697906Y-121896649D01*
X223582812Y-121982809D01*
X223582809Y-121982812D01*
X223496649Y-122097906D01*
X223496645Y-122097913D01*
X223446403Y-122232620D01*
X223446401Y-122232627D01*
X223440000Y-122292155D01*
X223440000Y-122940000D01*
X224356314Y-122940000D01*
X224330507Y-122980156D01*
X224290000Y-123118111D01*
X224290000Y-123261889D01*
X224330507Y-123399844D01*
X224356314Y-123440000D01*
X223440000Y-123440000D01*
X223440000Y-124087844D01*
X171389500Y-124087844D01*
X171389500Y-116964000D01*
X171409185Y-116896961D01*
X171461989Y-116851206D01*
X171513500Y-116840000D01*
X186566000Y-116840000D01*
X186633039Y-116859685D01*
X186678794Y-116912489D01*
X186690000Y-116964000D01*
X186690000Y-123825000D01*
X219710000Y-123825000D01*
X219710000Y-111017523D01*
X219729685Y-110950484D01*
X219746319Y-110929842D01*
X220166094Y-110510067D01*
X222694829Y-107981331D01*
X222705179Y-107972082D01*
X222731683Y-107950947D01*
X222773685Y-107902870D01*
X222779377Y-107896784D01*
X222786010Y-107890152D01*
X222811225Y-107859947D01*
X222812963Y-107857913D01*
X222874630Y-107787332D01*
X222876613Y-107784012D01*
X222887880Y-107768131D01*
X222890366Y-107765154D01*
X222936634Y-107683610D01*
X222937980Y-107681301D01*
X222941441Y-107675507D01*
X222986064Y-107600822D01*
X222987428Y-107597185D01*
X222995672Y-107579563D01*
X222997587Y-107576190D01*
X223028537Y-107487735D01*
X223029456Y-107485200D01*
X223062405Y-107397411D01*
X223063098Y-107393588D01*
X223068063Y-107374778D01*
X223069345Y-107371118D01*
X223084016Y-107278484D01*
X223084452Y-107275918D01*
X223101199Y-107183639D01*
X223101199Y-107179752D01*
X223102726Y-107160353D01*
X223103332Y-107156529D01*
X223101230Y-107062853D01*
X223101199Y-107060071D01*
X223101199Y-106345000D01*
X227020398Y-106345000D01*
X227040757Y-106551716D01*
X227101056Y-106750496D01*
X227198969Y-106933677D01*
X227198974Y-106933684D01*
X227330747Y-107094252D01*
X227439667Y-107183639D01*
X227491317Y-107226027D01*
X227491320Y-107226028D01*
X227491322Y-107226030D01*
X227674503Y-107323943D01*
X227674505Y-107323943D01*
X227674508Y-107323945D01*
X227873282Y-107384242D01*
X228080000Y-107404602D01*
X228286718Y-107384242D01*
X228485492Y-107323945D01*
X228668683Y-107226027D01*
X228829252Y-107094252D01*
X228961027Y-106933683D01*
X229058945Y-106750492D01*
X229119242Y-106551718D01*
X229139602Y-106345000D01*
X229119242Y-106138282D01*
X229058945Y-105939508D01*
X229058943Y-105939505D01*
X229058943Y-105939503D01*
X228961030Y-105756322D01*
X228961028Y-105756320D01*
X228961027Y-105756317D01*
X228891655Y-105671786D01*
X228829252Y-105595747D01*
X228668684Y-105463974D01*
X228668677Y-105463969D01*
X228485496Y-105366056D01*
X228286716Y-105305757D01*
X228080000Y-105285398D01*
X227873283Y-105305757D01*
X227674503Y-105366056D01*
X227491322Y-105463969D01*
X227491315Y-105463974D01*
X227330747Y-105595747D01*
X227198974Y-105756315D01*
X227198969Y-105756322D01*
X227101056Y-105939503D01*
X227040757Y-106138283D01*
X227020398Y-106345000D01*
X223101199Y-106345000D01*
X223101199Y-103505000D01*
X225635398Y-103505000D01*
X225655757Y-103711716D01*
X225716056Y-103910496D01*
X225813969Y-104093677D01*
X225813974Y-104093684D01*
X225945747Y-104254252D01*
X225976175Y-104279223D01*
X226106317Y-104386027D01*
X226106320Y-104386028D01*
X226106322Y-104386030D01*
X226289503Y-104483943D01*
X226289505Y-104483943D01*
X226289508Y-104483945D01*
X226488282Y-104544242D01*
X226695000Y-104564602D01*
X226901718Y-104544242D01*
X227100492Y-104483945D01*
X227142050Y-104461732D01*
X227283677Y-104386030D01*
X227283675Y-104386030D01*
X227283683Y-104386027D01*
X227444252Y-104254252D01*
X227576027Y-104093683D01*
X227634777Y-103983768D01*
X227673943Y-103910496D01*
X227673943Y-103910495D01*
X227673945Y-103910492D01*
X227734242Y-103711718D01*
X227754602Y-103505002D01*
X228160034Y-103505002D01*
X228179858Y-103731599D01*
X228179860Y-103731610D01*
X228238730Y-103951317D01*
X228238735Y-103951331D01*
X228334863Y-104157478D01*
X228385974Y-104230472D01*
X228981923Y-103634523D01*
X229005507Y-103714844D01*
X229083239Y-103835798D01*
X229191900Y-103929952D01*
X229322685Y-103989680D01*
X229332466Y-103991086D01*
X228739526Y-104584025D01*
X228812513Y-104635132D01*
X228812521Y-104635136D01*
X229018668Y-104731264D01*
X229018682Y-104731269D01*
X229238389Y-104790139D01*
X229238400Y-104790141D01*
X229464998Y-104809966D01*
X229465002Y-104809966D01*
X229691599Y-104790141D01*
X229691610Y-104790139D01*
X229911317Y-104731269D01*
X229911331Y-104731264D01*
X230117478Y-104635136D01*
X230190471Y-104584024D01*
X229597533Y-103991086D01*
X229607315Y-103989680D01*
X229738100Y-103929952D01*
X229846761Y-103835798D01*
X229924493Y-103714844D01*
X229948076Y-103634523D01*
X230544024Y-104230471D01*
X230595136Y-104157478D01*
X230691264Y-103951331D01*
X230691269Y-103951317D01*
X230750139Y-103731610D01*
X230750141Y-103731599D01*
X230769966Y-103505002D01*
X230769966Y-103504997D01*
X230750141Y-103278400D01*
X230750139Y-103278389D01*
X230691269Y-103058682D01*
X230691264Y-103058668D01*
X230595136Y-102852521D01*
X230595132Y-102852513D01*
X230544025Y-102779526D01*
X229948076Y-103375475D01*
X229924493Y-103295156D01*
X229846761Y-103174202D01*
X229738100Y-103080048D01*
X229607315Y-103020320D01*
X229597533Y-103018913D01*
X230190472Y-102425974D01*
X230117478Y-102374863D01*
X229911331Y-102278735D01*
X229911317Y-102278730D01*
X229691610Y-102219860D01*
X229691599Y-102219858D01*
X229465002Y-102200034D01*
X229464998Y-102200034D01*
X229238400Y-102219858D01*
X229238389Y-102219860D01*
X229018682Y-102278730D01*
X229018673Y-102278734D01*
X228812516Y-102374866D01*
X228812512Y-102374868D01*
X228739526Y-102425973D01*
X228739526Y-102425974D01*
X229332466Y-103018913D01*
X229322685Y-103020320D01*
X229191900Y-103080048D01*
X229083239Y-103174202D01*
X229005507Y-103295156D01*
X228981923Y-103375475D01*
X228385974Y-102779526D01*
X228385973Y-102779526D01*
X228334868Y-102852512D01*
X228334866Y-102852516D01*
X228238734Y-103058673D01*
X228238730Y-103058682D01*
X228179860Y-103278389D01*
X228179858Y-103278400D01*
X228160034Y-103504997D01*
X228160034Y-103505002D01*
X227754602Y-103505002D01*
X227754602Y-103505000D01*
X227734242Y-103298282D01*
X227673945Y-103099508D01*
X227673943Y-103099505D01*
X227673943Y-103099503D01*
X227576030Y-102916322D01*
X227576028Y-102916320D01*
X227576027Y-102916317D01*
X227498062Y-102821316D01*
X227444252Y-102755747D01*
X227283684Y-102623974D01*
X227283677Y-102623969D01*
X227100496Y-102526056D01*
X226901716Y-102465757D01*
X226695000Y-102445398D01*
X226488283Y-102465757D01*
X226289503Y-102526056D01*
X226106322Y-102623969D01*
X226106315Y-102623974D01*
X225945747Y-102755747D01*
X225813974Y-102916315D01*
X225813969Y-102916322D01*
X225716056Y-103099503D01*
X225655757Y-103298283D01*
X225635398Y-103505000D01*
X223101199Y-103505000D01*
X223101199Y-96009000D01*
X223120884Y-95941961D01*
X223173688Y-95896206D01*
X223225199Y-95885000D01*
X242064500Y-95885000D01*
X242131539Y-95904685D01*
G37*
%TD.AperFunction*%
%TD*%
M02*
