M48
; DRILL file {KiCad 7.0.10-7.0.10~ubuntu22.04.1} date Thu 25 Jan 2024 03:18:23 PM EST
; FORMAT={-:-/ absolute / inch / decimal}
; #@! TF.CreationDate,2024-01-25T15:18:23-05:00
; #@! TF.GenerationSoftware,Kicad,Pcbnew,7.0.10-7.0.10~ubuntu22.04.1
; #@! TF.FileFunction,Plated,1,4,PTH
FMAT,2
INCH
; #@! TA.AperFunction,Plated,PTH,ComponentDrill
T1C0.0236
; #@! TA.AperFunction,Plated,PTH,ViaDrill
T2C0.0250
; #@! TA.AperFunction,Plated,PTH,ComponentDrill
T3C0.0276
; #@! TA.AperFunction,Plated,PTH,ComponentDrill
T4C0.0354
; #@! TA.AperFunction,Plated,PTH,ComponentDrill
T5C0.0394
; #@! TA.AperFunction,Plated,PTH,ComponentDrill
T6C0.0400
; #@! TA.AperFunction,Plated,PTH,ComponentDrill
T7C0.0430
; #@! TA.AperFunction,Plated,PTH,ComponentDrill
T8C0.0551
; #@! TA.AperFunction,Plated,PTH,ComponentDrill
T9C0.0598
; #@! TA.AperFunction,Plated,PTH,ViaDrill
T10C0.0650
; #@! TA.AperFunction,Plated,PTH,ComponentDrill
T11C0.0701
; #@! TA.AperFunction,Plated,PTH,ComponentDrill
T12C0.0750
; #@! TA.AperFunction,Plated,PTH,ComponentDrill
T13C0.1457
%
G90
G05
T2
X3.3Y-1.575
X3.4038Y-1.6212
X3.974Y-1.4768
X4.6Y-1.35
X6.0Y-1.9
X6.1Y-1.475
X6.7711Y-1.6349
X6.825Y-1.625
X6.85Y-1.5437
X6.905Y-1.58
X7.075Y-3.425
X7.35Y-3.475
X7.4Y-4.775
X7.4566Y-4.8303
X7.4822Y-4.7816
X7.5372Y-4.7827
X7.625Y-3.1
X7.7Y-2.6
X7.8Y-3.1
X8.175Y-2.6
X8.3Y-3.05
X8.725Y-2.625
X8.875Y-2.6
X9.55Y-3.925
X9.625Y-3.975
X9.6827Y-4.0673
T3
X5.0Y-1.225
X5.0Y-1.35
X5.3Y-1.225
X5.3Y-1.35
X5.7Y-1.225
X5.7Y-1.35
X6.0Y-1.225
X6.0Y-1.35
X6.95Y-2.775
X7.25Y-2.775
X7.5Y-2.775
X7.8Y-2.775
X8.05Y-2.775
X8.35Y-2.775
X8.6Y-2.775
X8.9Y-2.775
T4
X4.6Y-1.0
X4.7Y-1.0
X5.0Y-1.0
X5.1Y-1.0
X5.4Y-1.0
X5.5Y-1.0
X5.8Y-1.0
X5.9Y-1.0
T5
X7.075Y-2.4
X7.175Y-2.4
X7.2494Y-1.325
X7.275Y-2.4
X7.3Y-3.2
X7.3Y-3.3
X7.3494Y-1.325
X7.4Y-3.2
X7.4Y-3.3
X7.4494Y-1.325
X7.5Y-3.2
X7.5Y-3.3
X7.6Y-3.2
X7.6Y-3.3
X7.625Y-2.4
X7.7Y-3.2
X7.7Y-3.3
X7.725Y-2.4
X7.8Y-1.325
X7.8Y-3.2
X7.8Y-3.3
X7.825Y-2.4
X7.9Y-1.325
X7.9Y-3.2
X7.9Y-3.3
X8.0Y-1.325
X8.0Y-3.2
X8.0Y-3.3
X8.1Y-3.2
X8.1Y-3.3
X8.175Y-2.4
X8.2Y-3.2
X8.2Y-3.3
X8.275Y-2.4
X8.3Y-3.2
X8.3Y-3.3
X8.35Y-1.325
X8.375Y-2.4
X8.4Y-3.2
X8.4Y-3.3
X8.45Y-1.325
X8.55Y-1.325
X8.725Y-2.4
X8.775Y-4.675
X8.775Y-4.925
X8.825Y-2.4
X8.875Y-4.675
X8.875Y-4.925
X8.9Y-1.325
X8.925Y-2.4
X8.975Y-4.675
X8.975Y-4.925
X9.0Y-1.325
X9.075Y-4.675
X9.075Y-4.925
X9.1Y-1.325
X9.175Y-4.675
X9.175Y-4.925
X9.275Y-4.675
X9.275Y-4.925
X9.375Y-4.675
X9.375Y-4.925
X9.475Y-4.675
X9.475Y-4.925
X9.575Y-4.675
X9.575Y-4.925
X9.675Y-4.675
X9.675Y-4.925
T6
X3.3Y-1.0
X3.4Y-1.0
X3.5Y-1.0
X3.875Y-1.0
X3.975Y-1.0
X4.075Y-1.0
X7.075Y-1.975
X7.175Y-1.975
X7.25Y-0.9991
X7.275Y-1.975
X7.35Y-0.9991
X7.45Y-0.9991
X7.625Y-1.975
X7.725Y-1.975
X7.8Y-0.9991
X7.825Y-1.975
X7.9Y-0.9991
X8.0Y-0.9991
X8.175Y-1.975
X8.275Y-1.975
X8.35Y-0.9991
X8.375Y-1.975
X8.45Y-0.9991
X8.55Y-0.9991
X8.725Y-1.975
X8.825Y-1.975
X8.9Y-0.9991
X8.925Y-1.975
X9.0Y-0.9991
X9.1Y-0.9991
X9.6377Y-3.15
X9.6377Y-3.25
X9.6377Y-3.35
T7
X8.925Y-4.075
X8.9795Y-4.1868
X9.0341Y-4.075
X9.0886Y-4.1868
X9.1431Y-4.075
X9.1976Y-4.1868
X9.2522Y-4.075
X9.3067Y-4.1868
X9.3612Y-4.075
T8
X7.1441Y-5.35
X7.3Y-5.35
X7.4559Y-5.35
X7.6118Y-5.35
X7.7677Y-5.35
X7.9236Y-5.35
T9
X1.4441Y-5.4
X1.6Y-5.4
X1.8941Y-5.4
X2.05Y-5.4
X2.3441Y-5.4
X2.5Y-5.4
X2.7941Y-5.4
X2.95Y-5.4
X3.2441Y-5.4
X3.4Y-5.4
X3.6941Y-5.4
X3.85Y-5.4
X4.2941Y-5.4
X4.45Y-5.4
X4.7441Y-5.4
X4.9Y-5.4
X5.1941Y-5.4
X5.35Y-5.4
X5.6441Y-5.4
X5.8Y-5.4
X6.0941Y-5.4
X6.25Y-5.4
X6.55Y-5.4
X6.7059Y-5.4
X7.3691Y-4.26
X7.3707Y-3.7899
X7.525Y-4.26
X7.5266Y-3.7899
X7.8691Y-4.25
X7.8707Y-3.7899
X8.025Y-4.25
X8.0266Y-3.7899
X8.3941Y-5.35
X8.55Y-5.35
X8.9441Y-5.35
X9.1Y-5.35
X9.65Y-1.675
X9.65Y-1.8309
T10
X6.6876Y-5.025
T11
X7.8411Y-4.75
X7.997Y-4.75
X8.153Y-4.75
X8.3089Y-4.75
X9.6481Y-2.2911
X9.6481Y-2.447
X9.6481Y-2.603
X9.6481Y-2.7589
T12
X2.005Y-4.755
X2.305Y-2.055
X2.505Y-4.755
X3.005Y-2.055
X3.005Y-4.755
X4.805Y-4.755
X5.105Y-2.055
X5.305Y-4.755
X5.805Y-2.055
X5.805Y-4.755
T13
X1.0Y-0.9
X1.0Y-5.5
X9.6Y-0.9
X9.6Y-5.5
T1
G00X6.2663Y-1.226
M15
G01X6.2663Y-1.1433
M16
G05
G00X6.4593Y-1.1728
M15
G01X6.4593Y-1.0902
M16
G05
G00X6.475Y-1.0291
M15
G01X6.475Y-0.9465
M16
G05
G00X6.6719Y-1.0291
M15
G01X6.6719Y-0.9465
M16
G05
G00X6.6876Y-1.1728
M15
G01X6.6876Y-1.0902
M16
G05
G00X6.8805Y-1.226
M15
G01X6.8805Y-1.1433
M16
G05
T5
G00X6.597Y-0.7713
M15
G01X6.5498Y-0.7713
M16
G05
M30
