M48
; DRILL file {KiCad 7.0.10-7.0.10~ubuntu22.04.1} date Tue 16 Jan 2024 02:22:27 PM EST
; FORMAT={-:-/ absolute / inch / decimal}
; #@! TF.CreationDate,2024-01-16T14:22:27-05:00
; #@! TF.GenerationSoftware,Kicad,Pcbnew,7.0.10-7.0.10~ubuntu22.04.1
; #@! TF.FileFunction,Plated,1,2,PTH
FMAT,2
INCH
; #@! TA.AperFunction,Plated,PTH,ComponentDrill
T1C0.0236
; #@! TA.AperFunction,Plated,PTH,ComponentDrill
T2C0.0276
; #@! TA.AperFunction,Plated,PTH,ComponentDrill
T3C0.0354
; #@! TA.AperFunction,Plated,PTH,ComponentDrill
T4C0.0394
; #@! TA.AperFunction,Plated,PTH,ComponentDrill
T5C0.0400
; #@! TA.AperFunction,Plated,PTH,ComponentDrill
T6C0.0551
; #@! TA.AperFunction,Plated,PTH,ComponentDrill
T7C0.0598
; #@! TA.AperFunction,Plated,PTH,ComponentDrill
T8C0.0750
; #@! TA.AperFunction,Plated,PTH,ComponentDrill
T9C0.1457
%
G90
G05
T2
X5.0Y-1.225
X5.0Y-1.35
X5.3Y-1.225
X5.3Y-1.35
X5.7Y-1.225
X5.7Y-1.35
X6.0Y-1.225
X6.0Y-1.35
X8.4Y-2.5
X8.4Y-2.8
X8.6Y-2.5
X8.6Y-2.8
X8.8Y-2.5
X8.8Y-2.8
X9.0Y-2.5
X9.0Y-2.8
T3
X4.6Y-1.0
X4.7Y-1.0
X5.0Y-1.0
X5.1Y-1.0
X5.4Y-1.0
X5.5Y-1.0
X5.8Y-1.0
X5.9Y-1.0
T4
X7.2Y-3.3
X7.2Y-3.4
X7.3Y-3.3
X7.3Y-3.4
X7.4Y-2.1
X7.4Y-2.2
X7.4Y-2.3
X7.4Y-3.3
X7.4Y-3.4
X7.5Y-3.3
X7.5Y-3.4
X7.6Y-2.1
X7.6Y-2.2
X7.6Y-2.3
X7.6Y-3.3
X7.6Y-3.4
X7.7Y-3.3
X7.7Y-3.4
X7.8Y-2.1
X7.8Y-2.2
X7.8Y-2.3
X7.8Y-3.3
X7.8Y-3.4
X7.9Y-3.3
X7.9Y-3.4
X8.0Y-2.1
X8.0Y-2.2
X8.0Y-2.3
X8.0Y-3.3
X8.0Y-3.4
X8.1Y-3.3
X8.1Y-3.4
X8.2Y-3.3
X8.2Y-3.4
X8.3Y-3.3
X8.3Y-3.4
X8.4Y-2.1
X8.4Y-2.2
X8.4Y-2.3
X8.6Y-2.1
X8.6Y-2.2
X8.6Y-2.3
X8.8Y-2.1
X8.8Y-2.2
X8.8Y-2.3
X9.0Y-2.1
X9.0Y-2.2
X9.0Y-2.3
T5
X7.3Y-0.9991
X7.3Y-1.55
X7.4Y-0.9991
X7.4Y-1.55
X7.5Y-0.9991
X7.5Y-1.55
X7.85Y-0.9991
X7.85Y-1.55
X7.95Y-0.9991
X7.95Y-1.55
X8.05Y-0.9991
X8.05Y-1.55
X8.4Y-0.9991
X8.4Y-1.55
X8.5Y-0.9991
X8.5Y-1.55
X8.6Y-0.9991
X8.6Y-1.55
X8.95Y-0.9991
X8.95Y-1.55
X9.05Y-0.9991
X9.05Y-1.55
X9.15Y-0.9991
X9.15Y-1.55
T6
X7.1441Y-5.35
X7.3Y-5.35
X7.4559Y-5.35
X7.6118Y-5.35
X7.7677Y-5.35
X7.9236Y-5.35
T7
X1.4441Y-5.4
X1.6Y-5.4
X1.8941Y-5.4
X2.05Y-5.4
X2.3441Y-5.4
X2.5Y-5.4
X2.7941Y-5.4
X2.95Y-5.4
X3.2441Y-5.4
X3.4Y-5.4
X3.6941Y-5.4
X3.85Y-5.4
X4.2941Y-5.4
X4.45Y-5.4
X4.7441Y-5.4
X4.9Y-5.4
X5.1941Y-5.4
X5.35Y-5.4
X5.6441Y-5.4
X5.8Y-5.4
X6.0941Y-5.4
X6.25Y-5.4
X6.55Y-5.4
X6.7059Y-5.4
X7.3882Y-4.2
X7.5441Y-4.2
X7.8882Y-4.2
X8.0441Y-4.2
X8.3941Y-5.35
X8.55Y-5.35
X8.5941Y-4.2
X8.75Y-4.2
X8.9441Y-5.35
X9.0941Y-3.4
X9.0941Y-4.2
X9.1Y-5.35
X9.25Y-3.4
X9.25Y-4.2
T8
X1.985Y-4.755
X2.305Y-2.055
X2.495Y-4.755
X3.005Y-2.055
X3.005Y-4.755
X4.785Y-4.755
X5.105Y-2.055
X5.295Y-4.755
X5.805Y-2.055
X5.805Y-4.755
T9
X1.0Y-0.9
X1.0Y-5.2
X9.6Y-0.9
X9.6Y-5.5
T1
G00X6.2663Y-1.2132
M15
G01X6.2663Y-1.1305
M16
G05
G00X6.4593Y-1.16
M15
G01X6.4593Y-1.0774
M16
G05
G00X6.475Y-1.0163
M15
G01X6.475Y-0.9337
M16
G05
G00X6.6719Y-1.0163
M15
G01X6.6719Y-0.9337
M16
G05
G00X6.6876Y-1.16
M15
G01X6.6876Y-1.0774
M16
G05
G00X6.8805Y-1.2132
M15
G01X6.8805Y-1.1305
M16
G05
T4
G00X6.597Y-0.7585
M15
G01X6.5498Y-0.7585
M16
G05
M30
