%TF.GenerationSoftware,KiCad,Pcbnew,7.0.9-7.0.9~ubuntu20.04.1*%
%TF.CreationDate,2024-01-29T08:29:47-05:00*%
%TF.ProjectId,power-board,706f7765-722d-4626-9f61-72642e6b6963,rev?*%
%TF.SameCoordinates,Original*%
%TF.FileFunction,Copper,L4,Bot*%
%TF.FilePolarity,Positive*%
%FSLAX46Y46*%
G04 Gerber Fmt 4.6, Leading zero omitted, Abs format (unit mm)*
G04 Created by KiCad (PCBNEW 7.0.9-7.0.9~ubuntu20.04.1) date 2024-01-29 08:29:47*
%MOMM*%
%LPD*%
G01*
G04 APERTURE LIST*
G04 Aperture macros list*
%AMRoundRect*
0 Rectangle with rounded corners*
0 $1 Rounding radius*
0 $2 $3 $4 $5 $6 $7 $8 $9 X,Y pos of 4 corners*
0 Add a 4 corners polygon primitive as box body*
4,1,4,$2,$3,$4,$5,$6,$7,$8,$9,$2,$3,0*
0 Add four circle primitives for the rounded corners*
1,1,$1+$1,$2,$3*
1,1,$1+$1,$4,$5*
1,1,$1+$1,$6,$7*
1,1,$1+$1,$8,$9*
0 Add four rect primitives between the rounded corners*
20,1,$1+$1,$2,$3,$4,$5,0*
20,1,$1+$1,$4,$5,$6,$7,0*
20,1,$1+$1,$6,$7,$8,$9,0*
20,1,$1+$1,$8,$9,$2,$3,0*%
G04 Aperture macros list end*
%TA.AperFunction,ComponentPad*%
%ADD10R,1.530000X1.530000*%
%TD*%
%TA.AperFunction,ComponentPad*%
%ADD11C,1.530000*%
%TD*%
%TA.AperFunction,ComponentPad*%
%ADD12C,1.400000*%
%TD*%
%TA.AperFunction,ComponentPad*%
%ADD13O,1.400000X1.400000*%
%TD*%
%TA.AperFunction,ComponentPad*%
%ADD14C,7.400000*%
%TD*%
%TA.AperFunction,ComponentPad*%
%ADD15R,1.870000X1.870000*%
%TD*%
%TA.AperFunction,ComponentPad*%
%ADD16C,1.870000*%
%TD*%
%TA.AperFunction,ComponentPad*%
%ADD17R,1.524000X1.524000*%
%TD*%
%TA.AperFunction,ComponentPad*%
%ADD18C,1.524000*%
%TD*%
%TA.AperFunction,ComponentPad*%
%ADD19C,3.048000*%
%TD*%
%TA.AperFunction,ComponentPad*%
%ADD20R,1.800000X1.800000*%
%TD*%
%TA.AperFunction,ComponentPad*%
%ADD21C,1.800000*%
%TD*%
%TA.AperFunction,ComponentPad*%
%ADD22R,2.670000X2.670000*%
%TD*%
%TA.AperFunction,ComponentPad*%
%ADD23C,2.670000*%
%TD*%
%TA.AperFunction,ComponentPad*%
%ADD24R,1.700000X1.700000*%
%TD*%
%TA.AperFunction,ComponentPad*%
%ADD25O,1.700000X1.700000*%
%TD*%
%TA.AperFunction,ComponentPad*%
%ADD26RoundRect,0.250001X-0.949999X-0.949999X0.949999X-0.949999X0.949999X0.949999X-0.949999X0.949999X0*%
%TD*%
%TA.AperFunction,ComponentPad*%
%ADD27C,2.400000*%
%TD*%
%TA.AperFunction,ComponentPad*%
%ADD28O,1.600000X3.200000*%
%TD*%
%TA.AperFunction,ComponentPad*%
%ADD29O,3.500000X1.750000*%
%TD*%
%TA.AperFunction,ComponentPad*%
%ADD30R,1.600000X1.600000*%
%TD*%
%TA.AperFunction,ComponentPad*%
%ADD31C,1.600000*%
%TD*%
%TA.AperFunction,ViaPad*%
%ADD32C,1.143000*%
%TD*%
%TA.AperFunction,ViaPad*%
%ADD33C,2.159000*%
%TD*%
%TA.AperFunction,Conductor*%
%ADD34C,0.200000*%
%TD*%
%TA.AperFunction,Conductor*%
%ADD35C,0.254000*%
%TD*%
%TA.AperFunction,Conductor*%
%ADD36C,1.905000*%
%TD*%
%TA.AperFunction,Conductor*%
%ADD37C,2.540000*%
%TD*%
G04 APERTURE END LIST*
D10*
%TO.P,J36,1,Pin_1*%
%TO.N,+6V*%
X223520000Y-125730000D03*
D11*
%TO.P,J36,2,Pin_2*%
%TO.N,GND*%
X226060000Y-125730000D03*
%TO.P,J36,3,Pin_3*%
%TO.N,/HV_MON2+*%
X228600000Y-125730000D03*
%TO.P,J36,4,Pin_4*%
%TO.N,/HV_MON2-*%
X231140000Y-125730000D03*
%TO.P,J36,5,Pin_5*%
%TO.N,/TS_1*%
X233680000Y-125730000D03*
%TO.P,J36,6,Pin_6*%
%TO.N,/TS_2*%
X236220000Y-125730000D03*
%TO.P,J36,7,Pin_7*%
%TO.N,/TS_3*%
X238760000Y-125730000D03*
%TO.P,J36,8,Pin_8*%
%TO.N,unconnected-(J36-Pin_8-Pad8)*%
X241300000Y-125730000D03*
%TO.P,J36,9,Pin_9*%
%TO.N,unconnected-(J36-Pin_9-Pad9)*%
X243840000Y-125730000D03*
%TO.P,J36,10,Pin_10*%
%TO.N,unconnected-(J36-Pin_10-Pad10)*%
X246380000Y-125730000D03*
%TD*%
D10*
%TO.P,J20,1,Pin_1*%
%TO.N,+6V*%
X223520000Y-117475000D03*
D11*
%TO.P,J20,2,Pin_2*%
%TO.N,GND*%
X226060000Y-117475000D03*
%TO.P,J20,3,Pin_3*%
%TO.N,/HV_MON1+*%
X228600000Y-117475000D03*
%TO.P,J20,4,Pin_4*%
%TO.N,/HV_MON1-*%
X231140000Y-117475000D03*
%TO.P,J20,5,Pin_5*%
%TO.N,/TS_1*%
X233680000Y-117475000D03*
%TO.P,J20,6,Pin_6*%
%TO.N,/TS_2*%
X236220000Y-117475000D03*
%TO.P,J20,7,Pin_7*%
%TO.N,/TS_3*%
X238760000Y-117475000D03*
%TO.P,J20,8,Pin_8*%
%TO.N,unconnected-(J20-Pin_8-Pad8)*%
X241300000Y-117475000D03*
%TO.P,J20,9,Pin_9*%
%TO.N,unconnected-(J20-Pin_9-Pad9)*%
X243840000Y-117475000D03*
%TO.P,J20,10,Pin_10*%
%TO.N,unconnected-(J20-Pin_10-Pad10)*%
X246380000Y-117475000D03*
%TD*%
D12*
%TO.P,R7,1*%
%TO.N,+5V*%
X204470000Y-70485000D03*
D13*
%TO.P,R7,2*%
%TO.N,/GPIO_IN_2*%
X212090000Y-70485000D03*
%TD*%
D14*
%TO.P,H4,1*%
%TO.N,N/C*%
X243840000Y-139700000D03*
%TD*%
D15*
%TO.P,J14,1,Pin_1*%
%TO.N,+5V*%
X191176500Y-96264000D03*
D16*
%TO.P,J14,2,Pin_2*%
%TO.N,GND*%
X187216500Y-96264000D03*
%TD*%
D17*
%TO.P,TP2,1,Pin_1*%
%TO.N,/HV_MON1+*%
X83820000Y-25400000D03*
D18*
%TO.P,TP2,2,Pin_2*%
%TO.N,/HV_MON1-*%
X86360000Y-25400000D03*
%TO.P,TP2,3,Pin_3*%
%TO.N,GND*%
X88900000Y-25400000D03*
%TD*%
D12*
%TO.P,R3,1*%
%TO.N,+6V*%
X134620000Y-34290000D03*
D13*
%TO.P,R3,2*%
%TO.N,Net-(D1-A)*%
X127000000Y-34290000D03*
%TD*%
D12*
%TO.P,R1,1*%
%TO.N,+5V*%
X134620000Y-31115000D03*
D13*
%TO.P,R1,2*%
%TO.N,Net-(D2-A)*%
X127000000Y-31115000D03*
%TD*%
D14*
%TO.P,H3,1*%
%TO.N,N/C*%
X25400000Y-139700000D03*
%TD*%
D15*
%TO.P,J6,1,Pin_1*%
%TO.N,+12V*%
X245110000Y-42545000D03*
D16*
%TO.P,J6,2,Pin_2*%
%TO.N,GND*%
X245110000Y-46505000D03*
%TD*%
D15*
%TO.P,J22,1,Pin_1*%
%TO.N,Net-(J22-Pin_1)*%
X217170000Y-135890000D03*
D16*
%TO.P,J22,2,Pin_2*%
%TO.N,+12V*%
X213210000Y-135890000D03*
%TD*%
D15*
%TO.P,J17,1,Pin_1*%
%TO.N,+12V*%
X191135000Y-108204000D03*
D16*
%TO.P,J17,2,Pin_2*%
%TO.N,GND*%
X187175000Y-108204000D03*
%TD*%
D17*
%TO.P,J7,1,Pin_1*%
%TO.N,+5V*%
X179705000Y-50165000D03*
D18*
%TO.P,J7,2,Pin_2*%
%TO.N,Net-(J7-Pin_2)*%
X182245000Y-50165000D03*
%TO.P,J7,3,Pin_3*%
%TO.N,GND*%
X184785000Y-50165000D03*
%TD*%
D17*
%TO.P,J1,1,Pin_1*%
%TO.N,+5V*%
X184150000Y-25376500D03*
D18*
%TO.P,J1,2,Pin_2*%
%TO.N,Net-(J1-Pin_2)*%
X186690000Y-25376500D03*
%TO.P,J1,3,Pin_3*%
%TO.N,GND*%
X189230000Y-25376500D03*
%TD*%
D17*
%TO.P,J12,1,Pin_1*%
%TO.N,/TS_1*%
X244797500Y-85090000D03*
D18*
%TO.P,J12,2,Pin_2*%
%TO.N,/TS_2*%
X244797500Y-82550000D03*
%TO.P,J12,3,Pin_3*%
%TO.N,/TS_3*%
X244797500Y-80010000D03*
%TD*%
D19*
%TO.P,U1,1,IN+*%
%TO.N,+12V*%
X58547000Y-52197000D03*
%TO.P,U1,2,IN-*%
%TO.N,GND*%
X76327000Y-52197000D03*
%TO.P,U1,3,OUT+*%
%TO.N,+6V*%
X50927000Y-120777000D03*
%TO.P,U1,4,T/C*%
%TO.N,unconnected-(U1-T{slash}C-Pad4)*%
X63627000Y-120777000D03*
%TO.P,U1,5,OUT-*%
%TO.N,GND*%
X76327000Y-120777000D03*
%TD*%
D12*
%TO.P,R8,1*%
%TO.N,+5V*%
X218440000Y-70485000D03*
D13*
%TO.P,R8,2*%
%TO.N,/GPIO_IN_3*%
X226060000Y-70485000D03*
%TD*%
D17*
%TO.P,J9,1,Pin_1*%
%TO.N,+5V*%
X207645000Y-50165000D03*
D18*
%TO.P,J9,2,Pin_2*%
%TO.N,Net-(J9-Pin_2)*%
X210185000Y-50165000D03*
%TO.P,J9,3,Pin_3*%
%TO.N,GND*%
X212725000Y-50165000D03*
%TD*%
D17*
%TO.P,J2,1,Pin_1*%
%TO.N,+5V*%
X198120000Y-25376500D03*
D18*
%TO.P,J2,2,Pin_2*%
%TO.N,Net-(J2-Pin_2)*%
X200660000Y-25376500D03*
%TO.P,J2,3,Pin_3*%
%TO.N,GND*%
X203200000Y-25376500D03*
%TD*%
D20*
%TO.P,D4,1,K*%
%TO.N,GND*%
X149860000Y-25400000D03*
D21*
%TO.P,D4,2,A*%
%TO.N,Net-(D4-A)*%
X147320000Y-25400000D03*
%TD*%
D15*
%TO.P,J18,1,Pin_1*%
%TO.N,+12V*%
X203835000Y-107950000D03*
D16*
%TO.P,J18,2,Pin_2*%
%TO.N,GND*%
X199875000Y-107950000D03*
%TD*%
D22*
%TO.P,J11,1,Pin_1*%
%TO.N,/FAN+*%
X245062500Y-70075000D03*
D23*
%TO.P,J11,2,Pin_2*%
%TO.N,/FAN-*%
X245062500Y-66115000D03*
%TO.P,J11,3,Pin_3*%
%TO.N,/TEC+*%
X245062500Y-62155000D03*
%TO.P,J11,4,Pin_4*%
%TO.N,/TEC-*%
X245062500Y-58195000D03*
%TD*%
D17*
%TO.P,TP1,1,Pin_1*%
%TO.N,/HV_MON2+*%
X98425000Y-25400000D03*
D18*
%TO.P,TP1,2,Pin_2*%
%TO.N,/HV_MON2-*%
X100965000Y-25400000D03*
%TO.P,TP1,3,Pin_3*%
%TO.N,GND*%
X103505000Y-25400000D03*
%TD*%
D15*
%TO.P,J31,1,Pin_1*%
%TO.N,+5V*%
X124460000Y-137160000D03*
D16*
%TO.P,J31,2,Pin_2*%
%TO.N,GND*%
X120500000Y-137160000D03*
%TD*%
D20*
%TO.P,D3,1,K*%
%TO.N,GND*%
X139700000Y-25400000D03*
D21*
%TO.P,D3,2,A*%
%TO.N,Net-(D3-A)*%
X137160000Y-25400000D03*
%TD*%
D24*
%TO.P,JP1,1,A*%
%TO.N,/GPIO_OUT_0*%
X184135000Y-33655000D03*
D25*
%TO.P,JP1,2,C*%
%TO.N,Net-(J1-Pin_2)*%
X186675000Y-33655000D03*
%TO.P,JP1,3,B*%
%TO.N,/GPIO_IN_0*%
X189215000Y-33655000D03*
%TD*%
D15*
%TO.P,J25,1,Pin_1*%
%TO.N,+5VL*%
X52070000Y-137160000D03*
D16*
%TO.P,J25,2,Pin_2*%
%TO.N,GND*%
X48110000Y-137160000D03*
%TD*%
D24*
%TO.P,JP7,1,A*%
%TO.N,/GPIO_OUT_6*%
X207645000Y-60960000D03*
D25*
%TO.P,JP7,2,C*%
%TO.N,Net-(J9-Pin_2)*%
X210185000Y-60960000D03*
%TO.P,JP7,3,B*%
%TO.N,/GPIO_IN_2*%
X212725000Y-60960000D03*
%TD*%
D19*
%TO.P,U2,1,IN+*%
%TO.N,+12V*%
X129667000Y-52197000D03*
%TO.P,U2,2,IN-*%
%TO.N,GND*%
X147447000Y-52197000D03*
%TO.P,U2,3,OUT+*%
%TO.N,+5V*%
X122047000Y-120777000D03*
%TO.P,U2,4,T/C*%
%TO.N,unconnected-(U2-T{slash}C-Pad4)*%
X134747000Y-120777000D03*
%TO.P,U2,5,OUT-*%
%TO.N,GND*%
X147447000Y-120777000D03*
%TD*%
D24*
%TO.P,JP4,1,A*%
%TO.N,/GPIO_OUT_3*%
X226060000Y-33655000D03*
D25*
%TO.P,JP4,2,C*%
%TO.N,Net-(J4-Pin_2)*%
X228600000Y-33655000D03*
%TO.P,JP4,3,B*%
%TO.N,/GPIO_IN_3*%
X231140000Y-33655000D03*
%TD*%
D15*
%TO.P,J23,1,Pin_1*%
%TO.N,+5V*%
X231140000Y-135890000D03*
D16*
%TO.P,J23,2,Pin_2*%
%TO.N,+5VL*%
X227180000Y-135890000D03*
%TD*%
D15*
%TO.P,J32,1,Pin_1*%
%TO.N,+5V*%
X135890000Y-137160000D03*
D16*
%TO.P,J32,2,Pin_2*%
%TO.N,GND*%
X131930000Y-137160000D03*
%TD*%
D26*
%TO.P,J21,1,Pin_1*%
%TO.N,+12V*%
X181460000Y-135890000D03*
D27*
%TO.P,J21,2,Pin_2*%
X185420000Y-135890000D03*
%TO.P,J21,3,Pin_3*%
X189380000Y-135890000D03*
%TO.P,J21,4,Pin_4*%
%TO.N,GND*%
X193340000Y-135890000D03*
%TO.P,J21,5,Pin_5*%
X197300000Y-135890000D03*
%TO.P,J21,6,Pin_6*%
X201260000Y-135890000D03*
%TD*%
D12*
%TO.P,R5,1*%
%TO.N,+5V*%
X176530000Y-70485000D03*
D13*
%TO.P,R5,2*%
%TO.N,/GPIO_IN_0*%
X184150000Y-70485000D03*
%TD*%
D15*
%TO.P,J24,1,Pin_1*%
%TO.N,+5VL*%
X40640000Y-137160000D03*
D16*
%TO.P,J24,2,Pin_2*%
%TO.N,GND*%
X36680000Y-137160000D03*
%TD*%
D12*
%TO.P,R4,1*%
%TO.N,+12V*%
X152400000Y-34290000D03*
D13*
%TO.P,R4,2*%
%TO.N,Net-(D3-A)*%
X144780000Y-34290000D03*
%TD*%
D24*
%TO.P,J13,1,Pin_1*%
%TO.N,/GPIO_OUT_0*%
X185420000Y-83820000D03*
D25*
%TO.P,J13,2,Pin_2*%
%TO.N,GND*%
X185420000Y-81280000D03*
%TO.P,J13,3,Pin_3*%
%TO.N,/GPIO_OUT_1*%
X187960000Y-83820000D03*
%TO.P,J13,4,Pin_4*%
%TO.N,GND*%
X187960000Y-81280000D03*
%TO.P,J13,5,Pin_5*%
%TO.N,/GPIO_OUT_2*%
X190500000Y-83820000D03*
%TO.P,J13,6,Pin_6*%
%TO.N,GND*%
X190500000Y-81280000D03*
%TO.P,J13,7,Pin_7*%
%TO.N,/GPIO_OUT_3*%
X193040000Y-83820000D03*
%TO.P,J13,8,Pin_8*%
%TO.N,GND*%
X193040000Y-81280000D03*
%TO.P,J13,9,Pin_9*%
%TO.N,/GPIO_OUT_4*%
X195580000Y-83820000D03*
%TO.P,J13,10,Pin_10*%
%TO.N,GND*%
X195580000Y-81280000D03*
%TO.P,J13,11,Pin_11*%
%TO.N,/GPIO_OUT_5*%
X198120000Y-83820000D03*
%TO.P,J13,12,Pin_12*%
%TO.N,GND*%
X198120000Y-81280000D03*
%TO.P,J13,13,Pin_13*%
%TO.N,/GPIO_OUT_6*%
X200660000Y-83820000D03*
%TO.P,J13,14,Pin_14*%
%TO.N,GND*%
X200660000Y-81280000D03*
%TO.P,J13,15,Pin_15*%
%TO.N,/GPIO_OUT_7*%
X203200000Y-83820000D03*
%TO.P,J13,16,Pin_16*%
%TO.N,GND*%
X203200000Y-81280000D03*
%TO.P,J13,17,Pin_17*%
%TO.N,/GPIO_IN_0*%
X205740000Y-83820000D03*
%TO.P,J13,18,Pin_18*%
%TO.N,GND*%
X205740000Y-81280000D03*
%TO.P,J13,19,Pin_19*%
%TO.N,/GPIO_IN_1*%
X208280000Y-83820000D03*
%TO.P,J13,20,Pin_20*%
%TO.N,GND*%
X208280000Y-81280000D03*
%TO.P,J13,21,Pin_21*%
%TO.N,/GPIO_IN_2*%
X210820000Y-83820000D03*
%TO.P,J13,22,Pin_22*%
%TO.N,GND*%
X210820000Y-81280000D03*
%TO.P,J13,23,Pin_23*%
%TO.N,/GPIO_IN_3*%
X213360000Y-83820000D03*
%TO.P,J13,24,Pin_24*%
%TO.N,GND*%
X213360000Y-81280000D03*
%TD*%
D15*
%TO.P,J15,1,Pin_1*%
%TO.N,+5V*%
X203876500Y-96264000D03*
D16*
%TO.P,J15,2,Pin_2*%
%TO.N,GND*%
X199916500Y-96264000D03*
%TD*%
D24*
%TO.P,JP3,1,A*%
%TO.N,/GPIO_OUT_2*%
X212090000Y-33655000D03*
D25*
%TO.P,JP3,2,C*%
%TO.N,Net-(J3-Pin_2)*%
X214630000Y-33655000D03*
%TO.P,JP3,3,B*%
%TO.N,/GPIO_IN_2*%
X217170000Y-33655000D03*
%TD*%
D14*
%TO.P,H1,1*%
%TO.N,N/C*%
X25400000Y-22860000D03*
%TD*%
D17*
%TO.P,J3,1,Pin_1*%
%TO.N,+5V*%
X212090000Y-25376500D03*
D18*
%TO.P,J3,2,Pin_2*%
%TO.N,Net-(J3-Pin_2)*%
X214630000Y-25376500D03*
%TO.P,J3,3,Pin_3*%
%TO.N,GND*%
X217170000Y-25376500D03*
%TD*%
D15*
%TO.P,J29,1,Pin_1*%
%TO.N,+5VL*%
X97790000Y-137160000D03*
D16*
%TO.P,J29,2,Pin_2*%
%TO.N,GND*%
X93830000Y-137160000D03*
%TD*%
D12*
%TO.P,R6,1*%
%TO.N,+5V*%
X190500000Y-70485000D03*
D13*
%TO.P,R6,2*%
%TO.N,/GPIO_IN_1*%
X198120000Y-70485000D03*
%TD*%
D15*
%TO.P,J30,1,Pin_1*%
%TO.N,+5V*%
X113030000Y-137160000D03*
D16*
%TO.P,J30,2,Pin_2*%
%TO.N,GND*%
X109070000Y-137160000D03*
%TD*%
D28*
%TO.P,J5,1*%
%TO.N,Net-(J22-Pin_1)*%
X169865000Y-28740000D03*
%TO.P,J5,2*%
X164065000Y-28740000D03*
%TO.P,J5,3*%
%TO.N,GND*%
X169465000Y-25090000D03*
%TO.P,J5,4*%
X164465000Y-25090000D03*
D29*
%TO.P,J5,S1*%
%TO.N,N/C*%
X166965000Y-19590000D03*
D28*
%TO.P,J5,S2*%
X174765000Y-30090000D03*
%TO.P,J5,S3*%
X159165000Y-30090000D03*
%TD*%
D15*
%TO.P,J27,1,Pin_1*%
%TO.N,+5VL*%
X74930000Y-137160000D03*
D16*
%TO.P,J27,2,Pin_2*%
%TO.N,GND*%
X70970000Y-137160000D03*
%TD*%
D15*
%TO.P,J34,1,Pin_1*%
%TO.N,+5V*%
X158750000Y-137160000D03*
D16*
%TO.P,J34,2,Pin_2*%
%TO.N,GND*%
X154790000Y-137160000D03*
%TD*%
D24*
%TO.P,JP5,1,A*%
%TO.N,/GPIO_OUT_4*%
X179705000Y-60960000D03*
D25*
%TO.P,JP5,2,C*%
%TO.N,Net-(J7-Pin_2)*%
X182245000Y-60960000D03*
%TO.P,JP5,3,B*%
%TO.N,/GPIO_IN_0*%
X184785000Y-60960000D03*
%TD*%
D15*
%TO.P,J28,1,Pin_1*%
%TO.N,+5VL*%
X86360000Y-137160000D03*
D16*
%TO.P,J28,2,Pin_2*%
%TO.N,GND*%
X82400000Y-137160000D03*
%TD*%
D22*
%TO.P,J19,1,Pin_1*%
%TO.N,/FAN+*%
X211045000Y-120650000D03*
D23*
%TO.P,J19,2,Pin_2*%
%TO.N,/FAN-*%
X207085000Y-120650000D03*
%TO.P,J19,3,Pin_3*%
%TO.N,/TEC+*%
X203125000Y-120650000D03*
%TO.P,J19,4,Pin_4*%
%TO.N,/TEC-*%
X199165000Y-120650000D03*
%TD*%
D20*
%TO.P,D2,1,K*%
%TO.N,GND*%
X129540000Y-25400000D03*
D21*
%TO.P,D2,2,A*%
%TO.N,Net-(D2-A)*%
X127000000Y-25400000D03*
%TD*%
D15*
%TO.P,J35,1,Pin_1*%
%TO.N,+5V*%
X170330000Y-137160000D03*
D16*
%TO.P,J35,2,Pin_2*%
%TO.N,GND*%
X166370000Y-137160000D03*
%TD*%
D30*
%TO.P,J16,1,1*%
%TO.N,/TS_2*%
X237775000Y-103505000D03*
D31*
%TO.P,J16,2,2*%
%TO.N,/TS_1*%
X235005000Y-103505000D03*
%TO.P,J16,3,3*%
%TO.N,/TS_3*%
X232235000Y-103505000D03*
%TO.P,J16,4,4*%
%TO.N,+6V*%
X229465000Y-103505000D03*
%TO.P,J16,5,5*%
%TO.N,GND*%
X226695000Y-103505000D03*
%TO.P,J16,6,6*%
%TO.N,/FAN+*%
X236390000Y-106345000D03*
%TO.P,J16,7,7*%
%TO.N,/FAN-*%
X233620000Y-106345000D03*
%TO.P,J16,8,8*%
%TO.N,/TEC+*%
X230850000Y-106345000D03*
%TO.P,J16,9,9*%
%TO.N,/TEC-*%
X228080000Y-106345000D03*
%TD*%
D24*
%TO.P,JP2,1,A*%
%TO.N,/GPIO_OUT_1*%
X198120000Y-33655000D03*
D25*
%TO.P,JP2,2,C*%
%TO.N,Net-(J2-Pin_2)*%
X200660000Y-33655000D03*
%TO.P,JP2,3,B*%
%TO.N,/GPIO_IN_1*%
X203200000Y-33655000D03*
%TD*%
D14*
%TO.P,H2,1*%
%TO.N,N/C*%
X243840000Y-22860000D03*
%TD*%
D20*
%TO.P,D1,1,K*%
%TO.N,GND*%
X119380000Y-25400000D03*
D21*
%TO.P,D1,2,A*%
%TO.N,Net-(D1-A)*%
X116840000Y-25400000D03*
%TD*%
D17*
%TO.P,J4,1,Pin_1*%
%TO.N,+5V*%
X226060000Y-25376500D03*
D18*
%TO.P,J4,2,Pin_2*%
%TO.N,Net-(J4-Pin_2)*%
X228600000Y-25376500D03*
%TO.P,J4,3,Pin_3*%
%TO.N,GND*%
X231140000Y-25376500D03*
%TD*%
D24*
%TO.P,JP8,1,A*%
%TO.N,/GPIO_OUT_7*%
X221615000Y-60960000D03*
D25*
%TO.P,JP8,2,C*%
%TO.N,Net-(J10-Pin_2)*%
X224155000Y-60960000D03*
%TO.P,JP8,3,B*%
%TO.N,/GPIO_IN_3*%
X226695000Y-60960000D03*
%TD*%
D17*
%TO.P,J10,1,Pin_1*%
%TO.N,+5V*%
X221615000Y-50165000D03*
D18*
%TO.P,J10,2,Pin_2*%
%TO.N,Net-(J10-Pin_2)*%
X224155000Y-50165000D03*
%TO.P,J10,3,Pin_3*%
%TO.N,GND*%
X226695000Y-50165000D03*
%TD*%
D24*
%TO.P,JP6,1,A*%
%TO.N,/GPIO_OUT_5*%
X193675000Y-60960000D03*
D25*
%TO.P,JP6,2,C*%
%TO.N,Net-(J8-Pin_2)*%
X196215000Y-60960000D03*
%TO.P,JP6,3,B*%
%TO.N,/GPIO_IN_1*%
X198755000Y-60960000D03*
%TD*%
D12*
%TO.P,R2,1*%
%TO.N,Net-(J22-Pin_1)*%
X152400000Y-31115000D03*
D13*
%TO.P,R2,2*%
%TO.N,Net-(D4-A)*%
X144780000Y-31115000D03*
%TD*%
D15*
%TO.P,J33,1,Pin_1*%
%TO.N,+5V*%
X147320000Y-137160000D03*
D16*
%TO.P,J33,2,Pin_2*%
%TO.N,GND*%
X143360000Y-137160000D03*
%TD*%
D17*
%TO.P,J8,1,Pin_1*%
%TO.N,+5V*%
X193675000Y-50165000D03*
D18*
%TO.P,J8,2,Pin_2*%
%TO.N,Net-(J8-Pin_2)*%
X196215000Y-50165000D03*
%TO.P,J8,3,Pin_3*%
%TO.N,GND*%
X198755000Y-50165000D03*
%TD*%
D15*
%TO.P,J26,1,Pin_1*%
%TO.N,+5VL*%
X63500000Y-137160000D03*
D16*
%TO.P,J26,2,Pin_2*%
%TO.N,GND*%
X59540000Y-137160000D03*
%TD*%
D32*
%TO.N,/HV_MON1-*%
X187960000Y-123317000D03*
%TO.N,/HV_MON1+*%
X187960000Y-121158000D03*
%TO.N,/HV_MON2-*%
X189738000Y-123317000D03*
%TO.N,/HV_MON2+*%
X191643000Y-124333000D03*
%TO.N,+12V*%
X152400000Y-48260000D03*
%TO.N,+5V*%
X154940000Y-37465000D03*
%TO.N,/GPIO_IN_0*%
X186690000Y-88265000D03*
%TO.N,/GPIO_IN_1*%
X198120000Y-78740000D03*
%TO.N,/GPIO_OUT_2*%
X210820000Y-77470000D03*
%TO.N,/GPIO_OUT_3*%
X225425000Y-66040000D03*
X195580000Y-66040000D03*
%TO.N,/GPIO_OUT_4*%
X179705000Y-86995000D03*
%TO.N,/GPIO_OUT_5*%
X193675000Y-78740000D03*
%TO.N,/GPIO_OUT_7*%
X221615000Y-66675000D03*
X207645000Y-66040000D03*
%TO.N,Net-(D1-A)*%
X116840000Y-34290000D03*
%TO.N,/TS_1*%
X244475000Y-100965000D03*
%TO.N,/TS_2*%
X245940500Y-103309500D03*
%TO.N,/TS_3*%
X242570000Y-99695000D03*
D33*
%TO.N,Net-(J22-Pin_1)*%
X169865000Y-127635000D03*
D32*
%TO.N,/HV_MON1+*%
X173355000Y-41275000D03*
X83820000Y-40005000D03*
%TO.N,/HV_MON1-*%
X86456000Y-41179000D03*
X171984770Y-41525849D03*
%TO.N,/HV_MON2+*%
X175387000Y-40132000D03*
%TO.N,/HV_MON2-*%
X100940506Y-37509834D03*
X173990000Y-39210500D03*
%TD*%
D34*
%TO.N,/HV_MON1-*%
X231140000Y-117475000D02*
X225806000Y-122809000D01*
X190121355Y-122391500D02*
X188885500Y-122391500D01*
X225806000Y-122809000D02*
X190538855Y-122809000D01*
X190538855Y-122809000D02*
X190121355Y-122391500D01*
X188885500Y-122391500D02*
X187960000Y-123317000D01*
%TO.N,/HV_MON1+*%
X228600000Y-117475000D02*
X223736000Y-122339000D01*
X197284393Y-121158000D02*
X187960000Y-121158000D01*
X223736000Y-122339000D02*
X198465393Y-122339000D01*
X198465393Y-122339000D02*
X197284393Y-121158000D01*
%TO.N,/HV_MON2-*%
X231140000Y-125730000D02*
X229571000Y-124161000D01*
X229571000Y-124161000D02*
X222214604Y-124161000D01*
X222214604Y-124161000D02*
X221915604Y-124460000D01*
X221915604Y-124460000D02*
X193073198Y-124460000D01*
X193073198Y-124460000D02*
X191930198Y-123317000D01*
X191930198Y-123317000D02*
X189738000Y-123317000D01*
%TO.N,/HV_MON2+*%
X228600000Y-125730000D02*
X227481000Y-124611000D01*
X227481000Y-124611000D02*
X222401000Y-124611000D01*
X222401000Y-124611000D02*
X222044000Y-124968000D01*
X192278000Y-124968000D02*
X191643000Y-124333000D01*
X222044000Y-124968000D02*
X192278000Y-124968000D01*
D35*
%TO.N,/TS_2*%
X237775000Y-103505000D02*
X237775000Y-115920000D01*
X237775000Y-115920000D02*
X236220000Y-117475000D01*
%TO.N,+12V*%
X136525000Y-48260000D02*
X135890000Y-48895000D01*
X152400000Y-48260000D02*
X136525000Y-48260000D01*
%TO.N,+5V*%
X134620000Y-31115000D02*
X140970000Y-37465000D01*
X140970000Y-37465000D02*
X154940000Y-37465000D01*
%TO.N,/GPIO_IN_0*%
X205740000Y-83820000D02*
X201295000Y-88265000D01*
X201295000Y-88265000D02*
X186690000Y-88265000D01*
%TO.N,/GPIO_IN_1*%
X207010000Y-82550000D02*
X208280000Y-83820000D01*
X198120000Y-78740000D02*
X206375000Y-78740000D01*
X207010000Y-79375000D02*
X207010000Y-82550000D01*
X206375000Y-78740000D02*
X207010000Y-79375000D01*
%TO.N,/GPIO_OUT_2*%
X193040000Y-77470000D02*
X191770000Y-78740000D01*
X191770000Y-78740000D02*
X191770000Y-82550000D01*
X191770000Y-82550000D02*
X190500000Y-83820000D01*
X210820000Y-77470000D02*
X193040000Y-77470000D01*
%TO.N,/GPIO_OUT_3*%
X196532500Y-65087500D02*
X224472500Y-65087500D01*
X195580000Y-66040000D02*
X196532500Y-65087500D01*
X224472500Y-65087500D02*
X225425000Y-66040000D01*
%TO.N,/GPIO_OUT_4*%
X179705000Y-86995000D02*
X192405000Y-86995000D01*
X192405000Y-86995000D02*
X195580000Y-83820000D01*
%TO.N,/GPIO_OUT_5*%
X196850000Y-80809103D02*
X196850000Y-82550000D01*
X193675000Y-78740000D02*
X194780897Y-78740000D01*
X194780897Y-78740000D02*
X196850000Y-80809103D01*
X196850000Y-82550000D02*
X198120000Y-83820000D01*
%TO.N,/GPIO_OUT_7*%
X208280000Y-66675000D02*
X221615000Y-66675000D01*
X207645000Y-66040000D02*
X208280000Y-66675000D01*
%TO.N,Net-(D1-A)*%
X116840000Y-34290000D02*
X127000000Y-34290000D01*
%TO.N,Net-(D3-A)*%
X140970000Y-34290000D02*
X144780000Y-34290000D01*
X137160000Y-25400000D02*
X137160000Y-30480000D01*
X137160000Y-30480000D02*
X140970000Y-34290000D01*
%TO.N,/TS_1*%
X244475000Y-100965000D02*
X237545000Y-100965000D01*
X237545000Y-100965000D02*
X235005000Y-103505000D01*
%TO.N,/TS_2*%
X245940500Y-103309500D02*
X245745000Y-103505000D01*
X245745000Y-103505000D02*
X237775000Y-103505000D01*
%TO.N,/TS_3*%
X242570000Y-99695000D02*
X234315000Y-99695000D01*
X232235000Y-101775000D02*
X232235000Y-103505000D01*
X234315000Y-99695000D02*
X232235000Y-101775000D01*
D36*
%TO.N,/FAN+*%
X236390000Y-114130000D02*
X235585000Y-114935000D01*
X235585000Y-114935000D02*
X216760000Y-114935000D01*
X236390000Y-106345000D02*
X236390000Y-114130000D01*
X216760000Y-114935000D02*
X211045000Y-120650000D01*
%TO.N,/FAN-*%
X233560000Y-112395000D02*
X214433288Y-112395000D01*
X233620000Y-112335000D02*
X233560000Y-112395000D01*
X214433288Y-112395000D02*
X207085000Y-119743288D01*
X233620000Y-106345000D02*
X233620000Y-112335000D01*
X207085000Y-119743288D02*
X207085000Y-120650000D01*
%TO.N,/TEC+*%
X213920000Y-109855000D02*
X203125000Y-120650000D01*
X230850000Y-106345000D02*
X230850000Y-107476370D01*
X230850000Y-107476370D02*
X228471370Y-109855000D01*
X228471370Y-109855000D02*
X213920000Y-109855000D01*
%TO.N,/TEC-*%
X228080000Y-106345000D02*
X213470000Y-106345000D01*
X213470000Y-106345000D02*
X199165000Y-120650000D01*
D35*
%TO.N,Net-(J22-Pin_1)*%
X152400000Y-31115000D02*
X152400000Y-29210000D01*
D37*
X217170000Y-135890000D02*
X217170000Y-132415000D01*
X217170000Y-132415000D02*
X212390000Y-127635000D01*
D35*
X152400000Y-29210000D02*
X154940000Y-26670000D01*
X162320000Y-26670000D02*
X164065000Y-28415000D01*
D37*
X212390000Y-127635000D02*
X169865000Y-127635000D01*
D35*
X154940000Y-26670000D02*
X162320000Y-26670000D01*
D34*
%TO.N,/HV_MON1+*%
X139006012Y-40586000D02*
X172666000Y-40586000D01*
X138425012Y-40005000D02*
X139006012Y-40586000D01*
X83820000Y-40005000D02*
X138425012Y-40005000D01*
X172666000Y-40586000D02*
X173355000Y-41275000D01*
%TO.N,/HV_MON1-*%
X86456000Y-41179000D02*
X171637921Y-41179000D01*
X171637921Y-41179000D02*
X171984770Y-41525849D01*
X86360000Y-41275000D02*
X86456000Y-41179000D01*
%TO.N,/HV_MON2+*%
X139194064Y-40132000D02*
X137493398Y-38431334D01*
X98425000Y-38095105D02*
X98425000Y-25400000D01*
X98761229Y-38431334D02*
X98425000Y-38095105D01*
X137493398Y-38431334D02*
X98761229Y-38431334D01*
X175387000Y-40132000D02*
X139194064Y-40132000D01*
D35*
%TO.N,/HV_MON2-*%
X173990000Y-39210500D02*
X138952800Y-39210500D01*
X137252134Y-37509834D02*
X100940506Y-37509834D01*
X138952800Y-39210500D02*
X137252134Y-37509834D01*
%TD*%
%TA.AperFunction,Conductor*%
%TO.N,+12V*%
G36*
X137103039Y-47009685D02*
G01*
X137148794Y-47062489D01*
X137160000Y-47114000D01*
X137160000Y-101600000D01*
X205616000Y-101600000D01*
X205683039Y-101619685D01*
X205728794Y-101672489D01*
X205740000Y-101724000D01*
X205740000Y-111636000D01*
X205720315Y-111703039D01*
X205667511Y-111748794D01*
X205616000Y-111760000D01*
X186690000Y-111760000D01*
X186690000Y-125986500D01*
X186670315Y-126053539D01*
X186617511Y-126099294D01*
X186566000Y-126110500D01*
X169803558Y-126110500D01*
X169619657Y-126125345D01*
X169380671Y-126184250D01*
X169154227Y-126280728D01*
X168946184Y-126412287D01*
X168761951Y-126575503D01*
X168606280Y-126766166D01*
X168606277Y-126766169D01*
X168483209Y-126979330D01*
X168395927Y-127209473D01*
X168346691Y-127450640D01*
X168346690Y-127450647D01*
X168336779Y-127696578D01*
X168336779Y-127696579D01*
X168366447Y-127940923D01*
X168366449Y-127940930D01*
X168434928Y-128177348D01*
X168434929Y-128177351D01*
X168540449Y-128399731D01*
X168680274Y-128602301D01*
X168680277Y-128602305D01*
X168850777Y-128779815D01*
X169047550Y-128927680D01*
X169047552Y-128927681D01*
X169047556Y-128927684D01*
X169161047Y-128987249D01*
X169265500Y-129042071D01*
X169265502Y-129042071D01*
X169265503Y-129042072D01*
X169498976Y-129120017D01*
X169741927Y-129159499D01*
X169741929Y-129159500D01*
X169741930Y-129159500D01*
X186566000Y-129159500D01*
X186633039Y-129179185D01*
X186678794Y-129231989D01*
X186690000Y-129283500D01*
X186690000Y-132080000D01*
X214627669Y-132080000D01*
X214694708Y-132099685D01*
X214715350Y-132116319D01*
X215609181Y-133010150D01*
X215642666Y-133071473D01*
X215645500Y-133097831D01*
X215645500Y-135951442D01*
X215660345Y-136135342D01*
X215719250Y-136374328D01*
X215719251Y-136374331D01*
X215737774Y-136417806D01*
X215808854Y-136584639D01*
X215815730Y-136600776D01*
X215947284Y-136808811D01*
X215947285Y-136808812D01*
X215957281Y-136820095D01*
X215986084Y-136878134D01*
X215995266Y-136924301D01*
X216051515Y-137008484D01*
X216085234Y-137031014D01*
X216135699Y-137064734D01*
X216188167Y-137075170D01*
X216242397Y-137100736D01*
X216301167Y-137148721D01*
X216301172Y-137148724D01*
X216514330Y-137271790D01*
X216514332Y-137271791D01*
X216744478Y-137359074D01*
X216985644Y-137408309D01*
X217059426Y-137411282D01*
X217231578Y-137418220D01*
X217231579Y-137418220D01*
X217231580Y-137418219D01*
X217231585Y-137418220D01*
X217475931Y-137388551D01*
X217712354Y-137320070D01*
X217934730Y-137214551D01*
X217934730Y-137214550D01*
X217934732Y-137214550D01*
X218013760Y-137160000D01*
X218109416Y-137093973D01*
X218155661Y-137074407D01*
X218204301Y-137064734D01*
X218288484Y-137008484D01*
X218344734Y-136924301D01*
X218355424Y-136870553D01*
X218377908Y-136820258D01*
X218462684Y-136707444D01*
X218577072Y-136489497D01*
X218655017Y-136256024D01*
X218694500Y-136013070D01*
X218694500Y-132430383D01*
X218696670Y-132322654D01*
X218686113Y-132248264D01*
X218685699Y-132244539D01*
X218683232Y-132213975D01*
X218697460Y-132145570D01*
X218746412Y-132095715D01*
X218806830Y-132080000D01*
X222126000Y-132080000D01*
X222193039Y-132099685D01*
X222238794Y-132152489D01*
X222250000Y-132204000D01*
X222250000Y-144020500D01*
X222230315Y-144087539D01*
X222177511Y-144133294D01*
X222126000Y-144144500D01*
X144904000Y-144144500D01*
X144836961Y-144124815D01*
X144791206Y-144072011D01*
X144780000Y-144020500D01*
X144780000Y-138120063D01*
X146130500Y-138120063D01*
X146145266Y-138194301D01*
X146201515Y-138278484D01*
X146235234Y-138301014D01*
X146285699Y-138334734D01*
X146285702Y-138334734D01*
X146285703Y-138334735D01*
X146310666Y-138339700D01*
X146359933Y-138349500D01*
X148280066Y-138349499D01*
X148354301Y-138334734D01*
X148438484Y-138278484D01*
X148494734Y-138194301D01*
X148509500Y-138120067D01*
X148509499Y-137160000D01*
X153595404Y-137160000D01*
X153615743Y-137379501D01*
X153615743Y-137379503D01*
X153615744Y-137379506D01*
X153676072Y-137591538D01*
X153676073Y-137591541D01*
X153774330Y-137788868D01*
X153774335Y-137788876D01*
X153907184Y-137964796D01*
X154070094Y-138113307D01*
X154070096Y-138113309D01*
X154257519Y-138229356D01*
X154257525Y-138229359D01*
X154280670Y-138238325D01*
X154463083Y-138308993D01*
X154679777Y-138349500D01*
X154679779Y-138349500D01*
X154900221Y-138349500D01*
X154900223Y-138349500D01*
X155116917Y-138308993D01*
X155322477Y-138229358D01*
X155498995Y-138120063D01*
X157560500Y-138120063D01*
X157575266Y-138194301D01*
X157631515Y-138278484D01*
X157665234Y-138301014D01*
X157715699Y-138334734D01*
X157715702Y-138334734D01*
X157715703Y-138334735D01*
X157740666Y-138339700D01*
X157789933Y-138349500D01*
X159710066Y-138349499D01*
X159784301Y-138334734D01*
X159868484Y-138278484D01*
X159924734Y-138194301D01*
X159939500Y-138120067D01*
X159939499Y-137160000D01*
X165175404Y-137160000D01*
X165195743Y-137379501D01*
X165195743Y-137379503D01*
X165195744Y-137379506D01*
X165256072Y-137591538D01*
X165256073Y-137591541D01*
X165354330Y-137788868D01*
X165354335Y-137788876D01*
X165487184Y-137964796D01*
X165650094Y-138113307D01*
X165650096Y-138113309D01*
X165837519Y-138229356D01*
X165837525Y-138229359D01*
X165860670Y-138238325D01*
X166043083Y-138308993D01*
X166259777Y-138349500D01*
X166259779Y-138349500D01*
X166480221Y-138349500D01*
X166480223Y-138349500D01*
X166696917Y-138308993D01*
X166902477Y-138229358D01*
X167078995Y-138120063D01*
X169140500Y-138120063D01*
X169155266Y-138194301D01*
X169211515Y-138278484D01*
X169245234Y-138301014D01*
X169295699Y-138334734D01*
X169295702Y-138334734D01*
X169295703Y-138334735D01*
X169320666Y-138339700D01*
X169369933Y-138349500D01*
X171290066Y-138349499D01*
X171364301Y-138334734D01*
X171448484Y-138278484D01*
X171504734Y-138194301D01*
X171519500Y-138120067D01*
X171519499Y-136889985D01*
X179760000Y-136889985D01*
X179770493Y-136992689D01*
X179770494Y-136992696D01*
X179825641Y-137159118D01*
X179825643Y-137159123D01*
X179917684Y-137308344D01*
X180041655Y-137432315D01*
X180190876Y-137524356D01*
X180190881Y-137524358D01*
X180357303Y-137579505D01*
X180357310Y-137579506D01*
X180460014Y-137589999D01*
X180460027Y-137590000D01*
X181210000Y-137590000D01*
X181210000Y-136543837D01*
X181291249Y-136574651D01*
X181417660Y-136590000D01*
X181502340Y-136590000D01*
X181628751Y-136574651D01*
X181710000Y-136543837D01*
X181710000Y-137590000D01*
X182459973Y-137590000D01*
X182459985Y-137589999D01*
X182562689Y-137579506D01*
X182562696Y-137579505D01*
X182729118Y-137524358D01*
X182729123Y-137524356D01*
X182878344Y-137432315D01*
X183002315Y-137308344D01*
X183094356Y-137159123D01*
X183094358Y-137159118D01*
X183149505Y-136992696D01*
X183149506Y-136992689D01*
X183159999Y-136889985D01*
X183160000Y-136889972D01*
X183160000Y-136140000D01*
X182119329Y-136140000D01*
X182160000Y-135974995D01*
X182160000Y-135890004D01*
X183715233Y-135890004D01*
X183734273Y-136144079D01*
X183790968Y-136392477D01*
X183790973Y-136392494D01*
X183884058Y-136629671D01*
X183884057Y-136629671D01*
X184011457Y-136850332D01*
X184053452Y-136902993D01*
X184053453Y-136902993D01*
X184779859Y-136176586D01*
X184839680Y-136290566D01*
X184952405Y-136417806D01*
X185092305Y-136514371D01*
X185133541Y-136530010D01*
X184406813Y-137256737D01*
X184567623Y-137366375D01*
X184567624Y-137366376D01*
X184797176Y-137476921D01*
X184797174Y-137476921D01*
X185040652Y-137552024D01*
X185040658Y-137552026D01*
X185292595Y-137589999D01*
X185292604Y-137590000D01*
X185547396Y-137590000D01*
X185547404Y-137589999D01*
X185799341Y-137552026D01*
X185799347Y-137552024D01*
X186042824Y-137476921D01*
X186272381Y-137366373D01*
X186433185Y-137256737D01*
X185706457Y-136530010D01*
X185747695Y-136514371D01*
X185887595Y-136417806D01*
X186000320Y-136290566D01*
X186060139Y-136176587D01*
X186786545Y-136902993D01*
X186828545Y-136850327D01*
X186955941Y-136629671D01*
X187049026Y-136392494D01*
X187049031Y-136392477D01*
X187105726Y-136144079D01*
X187124767Y-135890004D01*
X187675233Y-135890004D01*
X187694273Y-136144079D01*
X187750968Y-136392477D01*
X187750973Y-136392494D01*
X187844058Y-136629671D01*
X187844057Y-136629671D01*
X187971457Y-136850332D01*
X188013452Y-136902993D01*
X188013453Y-136902993D01*
X188739859Y-136176586D01*
X188799680Y-136290566D01*
X188912405Y-136417806D01*
X189052305Y-136514371D01*
X189093541Y-136530010D01*
X188366813Y-137256737D01*
X188527623Y-137366375D01*
X188527624Y-137366376D01*
X188757176Y-137476921D01*
X188757174Y-137476921D01*
X189000652Y-137552024D01*
X189000658Y-137552026D01*
X189252595Y-137589999D01*
X189252604Y-137590000D01*
X189507396Y-137590000D01*
X189507404Y-137589999D01*
X189759341Y-137552026D01*
X189759347Y-137552024D01*
X190002824Y-137476921D01*
X190232381Y-137366373D01*
X190393185Y-137256737D01*
X189666457Y-136530010D01*
X189707695Y-136514371D01*
X189847595Y-136417806D01*
X189960320Y-136290566D01*
X190020139Y-136176587D01*
X190746545Y-136902993D01*
X190788545Y-136850327D01*
X190915941Y-136629671D01*
X191009026Y-136392494D01*
X191009031Y-136392477D01*
X191065726Y-136144079D01*
X191084767Y-135890006D01*
X191880515Y-135890006D01*
X191900418Y-136130215D01*
X191900420Y-136130226D01*
X191959593Y-136363892D01*
X192056421Y-136584639D01*
X192150383Y-136728458D01*
X192188261Y-136786434D01*
X192246839Y-136850067D01*
X192351520Y-136963780D01*
X192351524Y-136963783D01*
X192520687Y-137095448D01*
X192541737Y-137111832D01*
X192541739Y-137111833D01*
X192541742Y-137111835D01*
X192630744Y-137160000D01*
X192753732Y-137226557D01*
X192981718Y-137304825D01*
X193219477Y-137344500D01*
X193219478Y-137344500D01*
X193460522Y-137344500D01*
X193460523Y-137344500D01*
X193698282Y-137304825D01*
X193926268Y-137226557D01*
X194138263Y-137111832D01*
X194328482Y-136963778D01*
X194491739Y-136786434D01*
X194623579Y-136584638D01*
X194720406Y-136363894D01*
X194779580Y-136130223D01*
X194782860Y-136090640D01*
X194799485Y-135890006D01*
X195840515Y-135890006D01*
X195860418Y-136130215D01*
X195860420Y-136130226D01*
X195919593Y-136363892D01*
X196016421Y-136584639D01*
X196110383Y-136728458D01*
X196148261Y-136786434D01*
X196206839Y-136850067D01*
X196311520Y-136963780D01*
X196311524Y-136963783D01*
X196480687Y-137095448D01*
X196501737Y-137111832D01*
X196501739Y-137111833D01*
X196501742Y-137111835D01*
X196590744Y-137160000D01*
X196713732Y-137226557D01*
X196941718Y-137304825D01*
X197179477Y-137344500D01*
X197179478Y-137344500D01*
X197420522Y-137344500D01*
X197420523Y-137344500D01*
X197658282Y-137304825D01*
X197886268Y-137226557D01*
X198098263Y-137111832D01*
X198288482Y-136963778D01*
X198451739Y-136786434D01*
X198583579Y-136584638D01*
X198680406Y-136363894D01*
X198739580Y-136130223D01*
X198742860Y-136090640D01*
X198759485Y-135890006D01*
X199800515Y-135890006D01*
X199820418Y-136130215D01*
X199820420Y-136130226D01*
X199879593Y-136363892D01*
X199976421Y-136584639D01*
X200070383Y-136728458D01*
X200108261Y-136786434D01*
X200166839Y-136850067D01*
X200271520Y-136963780D01*
X200271524Y-136963783D01*
X200440687Y-137095448D01*
X200461737Y-137111832D01*
X200461739Y-137111833D01*
X200461742Y-137111835D01*
X200550744Y-137160000D01*
X200673732Y-137226557D01*
X200901718Y-137304825D01*
X201139477Y-137344500D01*
X201139478Y-137344500D01*
X201380522Y-137344500D01*
X201380523Y-137344500D01*
X201618282Y-137304825D01*
X201846268Y-137226557D01*
X202058263Y-137111832D01*
X202248482Y-136963778D01*
X202411739Y-136786434D01*
X202543579Y-136584638D01*
X202640406Y-136363894D01*
X202699580Y-136130223D01*
X202702860Y-136090640D01*
X202719485Y-135890006D01*
X202719485Y-135890005D01*
X211770082Y-135890005D01*
X211789720Y-136126999D01*
X211848101Y-136357541D01*
X211943629Y-136575324D01*
X212033524Y-136712920D01*
X212525195Y-136221250D01*
X212547340Y-136272587D01*
X212653433Y-136415094D01*
X212789530Y-136529294D01*
X212879216Y-136574335D01*
X212386260Y-137067290D01*
X212386261Y-137067291D01*
X212422437Y-137095448D01*
X212422443Y-137095453D01*
X212631585Y-137208634D01*
X212631599Y-137208640D01*
X212856517Y-137285856D01*
X213091094Y-137325000D01*
X213328906Y-137325000D01*
X213563482Y-137285856D01*
X213788400Y-137208640D01*
X213788409Y-137208637D01*
X213997562Y-137095448D01*
X213997565Y-137095447D01*
X214033737Y-137067291D01*
X214033737Y-137067290D01*
X213543747Y-136577300D01*
X213553409Y-136573784D01*
X213701844Y-136476157D01*
X213823764Y-136346930D01*
X213895767Y-136222215D01*
X214386473Y-136712921D01*
X214476371Y-136575321D01*
X214571898Y-136357541D01*
X214630279Y-136126999D01*
X214649918Y-135890005D01*
X214649918Y-135889994D01*
X214630279Y-135653000D01*
X214571898Y-135422458D01*
X214476370Y-135204675D01*
X214386473Y-135067077D01*
X213894803Y-135558747D01*
X213872660Y-135507413D01*
X213766567Y-135364906D01*
X213630470Y-135250706D01*
X213540782Y-135205663D01*
X214033737Y-134712708D01*
X214033737Y-134712707D01*
X213997561Y-134684550D01*
X213997556Y-134684546D01*
X213788414Y-134571365D01*
X213788400Y-134571359D01*
X213563482Y-134494143D01*
X213328906Y-134455000D01*
X213091094Y-134455000D01*
X212856517Y-134494143D01*
X212631599Y-134571359D01*
X212631585Y-134571365D01*
X212422442Y-134684547D01*
X212422431Y-134684554D01*
X212386261Y-134712706D01*
X212386261Y-134712708D01*
X212876252Y-135202699D01*
X212866591Y-135206216D01*
X212718156Y-135303843D01*
X212596236Y-135433070D01*
X212524232Y-135557784D01*
X212033524Y-135067077D01*
X211943632Y-135204669D01*
X211943627Y-135204680D01*
X211848101Y-135422458D01*
X211789720Y-135653000D01*
X211770082Y-135889994D01*
X211770082Y-135890005D01*
X202719485Y-135890005D01*
X202719485Y-135889993D01*
X202699581Y-135649784D01*
X202699579Y-135649773D01*
X202644702Y-135433070D01*
X202640406Y-135416106D01*
X202543579Y-135195362D01*
X202510970Y-135145451D01*
X202411740Y-134993568D01*
X202411739Y-134993566D01*
X202248482Y-134816222D01*
X202248481Y-134816221D01*
X202248479Y-134816219D01*
X202248475Y-134816216D01*
X202058266Y-134668170D01*
X202058257Y-134668164D01*
X201846274Y-134553446D01*
X201846271Y-134553445D01*
X201846268Y-134553443D01*
X201846262Y-134553441D01*
X201846260Y-134553440D01*
X201618284Y-134475175D01*
X201459776Y-134448725D01*
X201380523Y-134435500D01*
X201139477Y-134435500D01*
X201080037Y-134445418D01*
X200901715Y-134475175D01*
X200673739Y-134553440D01*
X200673725Y-134553446D01*
X200461742Y-134668164D01*
X200461733Y-134668170D01*
X200271524Y-134816216D01*
X200271520Y-134816219D01*
X200108262Y-134993564D01*
X200108259Y-134993568D01*
X199976421Y-135195360D01*
X199879593Y-135416107D01*
X199820420Y-135649773D01*
X199820418Y-135649784D01*
X199800515Y-135889993D01*
X199800515Y-135890006D01*
X198759485Y-135890006D01*
X198759485Y-135889993D01*
X198739581Y-135649784D01*
X198739579Y-135649773D01*
X198684702Y-135433070D01*
X198680406Y-135416106D01*
X198583579Y-135195362D01*
X198550970Y-135145451D01*
X198451740Y-134993568D01*
X198451739Y-134993566D01*
X198288482Y-134816222D01*
X198288481Y-134816221D01*
X198288479Y-134816219D01*
X198288475Y-134816216D01*
X198098266Y-134668170D01*
X198098257Y-134668164D01*
X197886274Y-134553446D01*
X197886271Y-134553445D01*
X197886268Y-134553443D01*
X197886262Y-134553441D01*
X197886260Y-134553440D01*
X197658284Y-134475175D01*
X197499776Y-134448725D01*
X197420523Y-134435500D01*
X197179477Y-134435500D01*
X197120037Y-134445418D01*
X196941715Y-134475175D01*
X196713739Y-134553440D01*
X196713725Y-134553446D01*
X196501742Y-134668164D01*
X196501733Y-134668170D01*
X196311524Y-134816216D01*
X196311520Y-134816219D01*
X196148262Y-134993564D01*
X196148259Y-134993568D01*
X196016421Y-135195360D01*
X195919593Y-135416107D01*
X195860420Y-135649773D01*
X195860418Y-135649784D01*
X195840515Y-135889993D01*
X195840515Y-135890006D01*
X194799485Y-135890006D01*
X194799485Y-135889993D01*
X194779581Y-135649784D01*
X194779579Y-135649773D01*
X194724702Y-135433070D01*
X194720406Y-135416106D01*
X194623579Y-135195362D01*
X194590970Y-135145451D01*
X194491740Y-134993568D01*
X194491739Y-134993566D01*
X194328482Y-134816222D01*
X194328481Y-134816221D01*
X194328479Y-134816219D01*
X194328475Y-134816216D01*
X194138266Y-134668170D01*
X194138257Y-134668164D01*
X193926274Y-134553446D01*
X193926271Y-134553445D01*
X193926268Y-134553443D01*
X193926262Y-134553441D01*
X193926260Y-134553440D01*
X193698284Y-134475175D01*
X193539776Y-134448725D01*
X193460523Y-134435500D01*
X193219477Y-134435500D01*
X193160037Y-134445418D01*
X192981715Y-134475175D01*
X192753739Y-134553440D01*
X192753725Y-134553446D01*
X192541742Y-134668164D01*
X192541733Y-134668170D01*
X192351524Y-134816216D01*
X192351520Y-134816219D01*
X192188262Y-134993564D01*
X192188259Y-134993568D01*
X192056421Y-135195360D01*
X191959593Y-135416107D01*
X191900420Y-135649773D01*
X191900418Y-135649784D01*
X191880515Y-135889993D01*
X191880515Y-135890006D01*
X191084767Y-135890006D01*
X191084767Y-135890004D01*
X191084767Y-135889995D01*
X191065726Y-135635920D01*
X191009031Y-135387522D01*
X191009026Y-135387505D01*
X190915941Y-135150328D01*
X190915942Y-135150328D01*
X190788544Y-134929671D01*
X190746546Y-134877006D01*
X190020139Y-135603412D01*
X189960320Y-135489434D01*
X189847595Y-135362194D01*
X189707695Y-135265629D01*
X189666457Y-135249989D01*
X190393185Y-134523261D01*
X190232377Y-134413624D01*
X190232376Y-134413623D01*
X190002823Y-134303078D01*
X190002825Y-134303078D01*
X189759347Y-134227975D01*
X189759341Y-134227973D01*
X189507404Y-134190000D01*
X189252595Y-134190000D01*
X189000658Y-134227973D01*
X189000652Y-134227975D01*
X188757175Y-134303078D01*
X188527624Y-134413623D01*
X188527616Y-134413628D01*
X188366813Y-134523261D01*
X189093542Y-135249989D01*
X189052305Y-135265629D01*
X188912405Y-135362194D01*
X188799680Y-135489434D01*
X188739859Y-135603412D01*
X188013453Y-134877006D01*
X187971455Y-134929670D01*
X187844058Y-135150328D01*
X187750973Y-135387505D01*
X187750968Y-135387522D01*
X187694273Y-135635920D01*
X187675233Y-135889995D01*
X187675233Y-135890004D01*
X187124767Y-135890004D01*
X187124767Y-135889995D01*
X187105726Y-135635920D01*
X187049031Y-135387522D01*
X187049026Y-135387505D01*
X186955941Y-135150328D01*
X186955942Y-135150328D01*
X186828544Y-134929671D01*
X186786546Y-134877006D01*
X186060139Y-135603412D01*
X186000320Y-135489434D01*
X185887595Y-135362194D01*
X185747695Y-135265629D01*
X185706457Y-135249989D01*
X186433185Y-134523261D01*
X186272377Y-134413624D01*
X186272376Y-134413623D01*
X186042823Y-134303078D01*
X186042825Y-134303078D01*
X185799347Y-134227975D01*
X185799341Y-134227973D01*
X185547404Y-134190000D01*
X185292595Y-134190000D01*
X185040658Y-134227973D01*
X185040652Y-134227975D01*
X184797175Y-134303078D01*
X184567624Y-134413623D01*
X184567616Y-134413628D01*
X184406813Y-134523261D01*
X185133542Y-135249989D01*
X185092305Y-135265629D01*
X184952405Y-135362194D01*
X184839680Y-135489434D01*
X184779860Y-135603412D01*
X184053453Y-134877006D01*
X184011455Y-134929670D01*
X183884058Y-135150328D01*
X183790973Y-135387505D01*
X183790968Y-135387522D01*
X183734273Y-135635920D01*
X183715233Y-135889995D01*
X183715233Y-135890004D01*
X182160000Y-135890004D01*
X182160000Y-135805005D01*
X182119329Y-135640000D01*
X183160000Y-135640000D01*
X183160000Y-134890027D01*
X183159999Y-134890014D01*
X183149506Y-134787310D01*
X183149505Y-134787303D01*
X183094358Y-134620881D01*
X183094356Y-134620876D01*
X183002315Y-134471655D01*
X182878344Y-134347684D01*
X182729123Y-134255643D01*
X182729118Y-134255641D01*
X182562696Y-134200494D01*
X182562689Y-134200493D01*
X182459985Y-134190000D01*
X181710000Y-134190000D01*
X181710000Y-135236162D01*
X181628751Y-135205349D01*
X181502340Y-135190000D01*
X181417660Y-135190000D01*
X181291249Y-135205349D01*
X181210000Y-135236162D01*
X181210000Y-134190000D01*
X180460014Y-134190000D01*
X180357310Y-134200493D01*
X180357303Y-134200494D01*
X180190881Y-134255641D01*
X180190876Y-134255643D01*
X180041655Y-134347684D01*
X179917684Y-134471655D01*
X179825643Y-134620876D01*
X179825641Y-134620881D01*
X179770494Y-134787303D01*
X179770493Y-134787310D01*
X179760000Y-134890014D01*
X179760000Y-135640000D01*
X180800671Y-135640000D01*
X180760000Y-135805005D01*
X180760000Y-135974995D01*
X180800671Y-136140000D01*
X179760000Y-136140000D01*
X179760000Y-136889985D01*
X171519499Y-136889985D01*
X171519499Y-136199934D01*
X171504734Y-136125699D01*
X171481308Y-136090640D01*
X171448484Y-136041515D01*
X171398019Y-136007796D01*
X171364301Y-135985266D01*
X171364299Y-135985265D01*
X171364296Y-135985264D01*
X171290069Y-135970500D01*
X169369936Y-135970500D01*
X169295698Y-135985266D01*
X169211515Y-136041515D01*
X169155266Y-136125699D01*
X169155264Y-136125703D01*
X169140500Y-136199928D01*
X169140500Y-138120063D01*
X167078995Y-138120063D01*
X167089905Y-138113308D01*
X167252817Y-137964794D01*
X167385666Y-137788874D01*
X167483928Y-137591538D01*
X167544256Y-137379506D01*
X167564596Y-137160000D01*
X167544256Y-136940494D01*
X167483928Y-136728462D01*
X167482366Y-136725326D01*
X167385669Y-136531131D01*
X167385664Y-136531123D01*
X167252815Y-136355203D01*
X167089905Y-136206692D01*
X167089903Y-136206690D01*
X166902480Y-136090643D01*
X166902474Y-136090640D01*
X166816366Y-136057282D01*
X166696917Y-136011007D01*
X166480223Y-135970500D01*
X166259777Y-135970500D01*
X166043083Y-136011007D01*
X166037748Y-136013074D01*
X165837525Y-136090640D01*
X165837519Y-136090643D01*
X165650096Y-136206690D01*
X165650094Y-136206692D01*
X165487184Y-136355203D01*
X165354335Y-136531123D01*
X165354330Y-136531131D01*
X165256073Y-136728458D01*
X165195743Y-136940498D01*
X165175404Y-137159999D01*
X165175404Y-137160000D01*
X159939499Y-137160000D01*
X159939499Y-136199934D01*
X159924734Y-136125699D01*
X159901308Y-136090640D01*
X159868484Y-136041515D01*
X159818019Y-136007796D01*
X159784301Y-135985266D01*
X159784299Y-135985265D01*
X159784296Y-135985264D01*
X159710069Y-135970500D01*
X157789936Y-135970500D01*
X157715698Y-135985266D01*
X157631515Y-136041515D01*
X157575266Y-136125699D01*
X157575264Y-136125703D01*
X157560500Y-136199928D01*
X157560500Y-138120063D01*
X155498995Y-138120063D01*
X155509905Y-138113308D01*
X155672817Y-137964794D01*
X155805666Y-137788874D01*
X155903928Y-137591538D01*
X155964256Y-137379506D01*
X155984596Y-137160000D01*
X155964256Y-136940494D01*
X155903928Y-136728462D01*
X155902366Y-136725326D01*
X155805669Y-136531131D01*
X155805664Y-136531123D01*
X155672815Y-136355203D01*
X155509905Y-136206692D01*
X155509903Y-136206690D01*
X155322480Y-136090643D01*
X155322474Y-136090640D01*
X155236366Y-136057282D01*
X155116917Y-136011007D01*
X154900223Y-135970500D01*
X154679777Y-135970500D01*
X154463083Y-136011007D01*
X154457748Y-136013074D01*
X154257525Y-136090640D01*
X154257519Y-136090643D01*
X154070096Y-136206690D01*
X154070094Y-136206692D01*
X153907184Y-136355203D01*
X153774335Y-136531123D01*
X153774330Y-136531131D01*
X153676073Y-136728458D01*
X153615743Y-136940498D01*
X153595404Y-137159999D01*
X153595404Y-137160000D01*
X148509499Y-137160000D01*
X148509499Y-136199934D01*
X148494734Y-136125699D01*
X148471308Y-136090640D01*
X148438484Y-136041515D01*
X148388019Y-136007796D01*
X148354301Y-135985266D01*
X148354299Y-135985265D01*
X148354296Y-135985264D01*
X148280069Y-135970500D01*
X146359936Y-135970500D01*
X146285698Y-135985266D01*
X146201515Y-136041515D01*
X146145266Y-136125699D01*
X146145264Y-136125703D01*
X146130500Y-136199928D01*
X146130500Y-138120063D01*
X144780000Y-138120063D01*
X144780000Y-124529630D01*
X160781685Y-124529630D01*
X160812128Y-124806301D01*
X160812130Y-124806312D01*
X160882529Y-125075593D01*
X160882531Y-125075599D01*
X160937807Y-125205675D01*
X160987452Y-125322500D01*
X160991393Y-125331772D01*
X161065508Y-125453215D01*
X161136390Y-125569360D01*
X161136397Y-125569369D01*
X161228125Y-125679592D01*
X161314442Y-125783312D01*
X161521745Y-125969056D01*
X161753883Y-126122637D01*
X162005909Y-126240782D01*
X162005916Y-126240784D01*
X162005918Y-126240785D01*
X162272439Y-126320970D01*
X162272446Y-126320971D01*
X162272451Y-126320973D01*
X162547828Y-126361500D01*
X162547833Y-126361500D01*
X162756494Y-126361500D01*
X162809412Y-126357626D01*
X162964601Y-126346268D01*
X163078155Y-126320973D01*
X163236279Y-126285750D01*
X163236281Y-126285749D01*
X163236286Y-126285748D01*
X163496263Y-126186315D01*
X163738993Y-126050089D01*
X163959301Y-125879972D01*
X164152492Y-125679592D01*
X164314449Y-125453218D01*
X164376888Y-125331772D01*
X164441712Y-125205690D01*
X164441714Y-125205683D01*
X164441719Y-125205675D01*
X164507506Y-125012838D01*
X164531587Y-124942252D01*
X164531587Y-124942248D01*
X164531591Y-124942239D01*
X164582148Y-124668526D01*
X164592314Y-124390368D01*
X164561871Y-124113694D01*
X164491469Y-123844401D01*
X164382607Y-123588228D01*
X164237607Y-123350636D01*
X164209615Y-123317000D01*
X164059559Y-123136689D01*
X164059553Y-123136683D01*
X163852255Y-122950944D01*
X163620119Y-122797364D01*
X163581630Y-122779321D01*
X163368091Y-122679218D01*
X163368086Y-122679216D01*
X163368081Y-122679214D01*
X163101560Y-122599029D01*
X163101546Y-122599026D01*
X162982723Y-122581539D01*
X162826172Y-122558500D01*
X162617511Y-122558500D01*
X162617506Y-122558500D01*
X162409399Y-122573732D01*
X162409385Y-122573734D01*
X162137720Y-122634249D01*
X162137713Y-122634252D01*
X161877734Y-122733686D01*
X161635010Y-122869909D01*
X161635008Y-122869910D01*
X161635007Y-122869911D01*
X161575781Y-122915643D01*
X161414694Y-123040031D01*
X161221511Y-123240404D01*
X161221509Y-123240406D01*
X161059552Y-123466780D01*
X161059549Y-123466784D01*
X160932287Y-123714309D01*
X160932278Y-123714331D01*
X160842412Y-123977747D01*
X160842408Y-123977765D01*
X160791852Y-124251474D01*
X160791851Y-124251481D01*
X160781685Y-124529630D01*
X144780000Y-124529630D01*
X144780000Y-120777004D01*
X145663513Y-120777004D01*
X145683432Y-121042812D01*
X145683433Y-121042815D01*
X145742748Y-121302692D01*
X145840134Y-121550826D01*
X145973414Y-121781674D01*
X146049655Y-121877277D01*
X146139615Y-121990083D01*
X146307677Y-122146021D01*
X146335014Y-122171386D01*
X146555257Y-122321545D01*
X146795415Y-122437199D01*
X146795416Y-122437199D01*
X146795419Y-122437201D01*
X147050137Y-122515771D01*
X147313720Y-122555500D01*
X147313721Y-122555500D01*
X147580279Y-122555500D01*
X147580280Y-122555500D01*
X147843863Y-122515771D01*
X148098581Y-122437201D01*
X148338744Y-122321545D01*
X148558986Y-122171386D01*
X148754388Y-121990079D01*
X148920586Y-121781674D01*
X149053866Y-121550826D01*
X149151252Y-121302692D01*
X149210567Y-121042815D01*
X149221313Y-120899421D01*
X149230487Y-120777004D01*
X149230487Y-120776995D01*
X149210567Y-120511187D01*
X149185322Y-120400579D01*
X149151252Y-120251308D01*
X149053866Y-120003174D01*
X148920586Y-119772326D01*
X148754388Y-119563921D01*
X148754387Y-119563920D01*
X148754384Y-119563916D01*
X148558986Y-119382614D01*
X148423048Y-119289933D01*
X148338744Y-119232455D01*
X148338740Y-119232453D01*
X148338737Y-119232451D01*
X148338736Y-119232450D01*
X148098583Y-119116800D01*
X148098585Y-119116800D01*
X147843871Y-119038231D01*
X147843867Y-119038230D01*
X147843863Y-119038229D01*
X147717074Y-119019118D01*
X147580285Y-118998500D01*
X147580280Y-118998500D01*
X147313720Y-118998500D01*
X147313714Y-118998500D01*
X147149566Y-119023242D01*
X147050137Y-119038229D01*
X147050134Y-119038230D01*
X147050128Y-119038231D01*
X146795415Y-119116800D01*
X146555265Y-119232450D01*
X146555263Y-119232451D01*
X146335013Y-119382614D01*
X146139615Y-119563916D01*
X145973414Y-119772326D01*
X145840134Y-120003173D01*
X145742750Y-120251302D01*
X145742745Y-120251319D01*
X145683432Y-120511187D01*
X145663513Y-120776995D01*
X145663513Y-120777004D01*
X144780000Y-120777004D01*
X144780000Y-113030000D01*
X52194000Y-113030000D01*
X52126961Y-113010315D01*
X52081206Y-112957511D01*
X52070000Y-112906000D01*
X52070000Y-108204000D01*
X185980404Y-108204000D01*
X186000743Y-108423501D01*
X186000743Y-108423503D01*
X186000744Y-108423506D01*
X186047915Y-108589294D01*
X186061073Y-108635541D01*
X186159330Y-108832868D01*
X186159335Y-108832876D01*
X186292184Y-109008796D01*
X186455094Y-109157307D01*
X186455096Y-109157309D01*
X186642519Y-109273356D01*
X186642525Y-109273359D01*
X186665670Y-109282325D01*
X186848083Y-109352993D01*
X187064777Y-109393500D01*
X187064779Y-109393500D01*
X187285221Y-109393500D01*
X187285223Y-109393500D01*
X187501917Y-109352993D01*
X187707477Y-109273358D01*
X187847203Y-109186844D01*
X189700000Y-109186844D01*
X189706401Y-109246372D01*
X189706403Y-109246379D01*
X189756645Y-109381086D01*
X189756649Y-109381093D01*
X189842809Y-109496187D01*
X189842812Y-109496190D01*
X189957906Y-109582350D01*
X189957913Y-109582354D01*
X190092620Y-109632596D01*
X190092627Y-109632598D01*
X190152155Y-109638999D01*
X190152172Y-109639000D01*
X190885000Y-109639000D01*
X190885000Y-108925802D01*
X191046169Y-108964000D01*
X191179267Y-108964000D01*
X191311461Y-108948549D01*
X191385000Y-108921782D01*
X191385000Y-109639000D01*
X192117828Y-109639000D01*
X192117844Y-109638999D01*
X192177372Y-109632598D01*
X192177379Y-109632596D01*
X192312086Y-109582354D01*
X192312093Y-109582350D01*
X192427187Y-109496190D01*
X192427190Y-109496187D01*
X192513350Y-109381093D01*
X192513354Y-109381086D01*
X192563596Y-109246379D01*
X192563598Y-109246372D01*
X192569999Y-109186844D01*
X192570000Y-109186827D01*
X192570000Y-108454000D01*
X191853483Y-108454000D01*
X191888549Y-108336871D01*
X191898879Y-108159509D01*
X191868029Y-107984546D01*
X191854853Y-107954000D01*
X192570000Y-107954000D01*
X192570000Y-107950000D01*
X198680404Y-107950000D01*
X198700743Y-108169501D01*
X198700743Y-108169503D01*
X198700744Y-108169506D01*
X198748363Y-108336871D01*
X198761073Y-108381541D01*
X198859330Y-108578868D01*
X198859335Y-108578876D01*
X198992184Y-108754796D01*
X199155094Y-108903307D01*
X199155096Y-108903309D01*
X199342519Y-109019356D01*
X199342525Y-109019359D01*
X199365670Y-109028325D01*
X199548083Y-109098993D01*
X199764777Y-109139500D01*
X199764779Y-109139500D01*
X199985221Y-109139500D01*
X199985223Y-109139500D01*
X200201917Y-109098993D01*
X200407477Y-109019358D01*
X200547203Y-108932844D01*
X202400000Y-108932844D01*
X202406401Y-108992372D01*
X202406403Y-108992379D01*
X202456645Y-109127086D01*
X202456649Y-109127093D01*
X202542809Y-109242187D01*
X202542812Y-109242190D01*
X202657906Y-109328350D01*
X202657913Y-109328354D01*
X202792620Y-109378596D01*
X202792627Y-109378598D01*
X202852155Y-109384999D01*
X202852172Y-109385000D01*
X203585000Y-109385000D01*
X203585000Y-108671802D01*
X203746169Y-108710000D01*
X203879267Y-108710000D01*
X204011461Y-108694549D01*
X204085000Y-108667782D01*
X204085000Y-109385000D01*
X204817828Y-109385000D01*
X204817844Y-109384999D01*
X204877372Y-109378598D01*
X204877379Y-109378596D01*
X205012086Y-109328354D01*
X205012093Y-109328350D01*
X205127187Y-109242190D01*
X205127190Y-109242187D01*
X205213350Y-109127093D01*
X205213354Y-109127086D01*
X205263596Y-108992379D01*
X205263598Y-108992372D01*
X205269999Y-108932844D01*
X205270000Y-108932827D01*
X205270000Y-108200000D01*
X204553483Y-108200000D01*
X204588549Y-108082871D01*
X204598879Y-107905509D01*
X204568029Y-107730546D01*
X204554853Y-107700000D01*
X205270000Y-107700000D01*
X205270000Y-106967172D01*
X205269999Y-106967155D01*
X205263598Y-106907627D01*
X205263596Y-106907620D01*
X205213354Y-106772913D01*
X205213350Y-106772906D01*
X205127190Y-106657812D01*
X205127187Y-106657809D01*
X205012093Y-106571649D01*
X205012086Y-106571645D01*
X204877379Y-106521403D01*
X204877372Y-106521401D01*
X204817844Y-106515000D01*
X204085000Y-106515000D01*
X204085000Y-107228197D01*
X203923831Y-107190000D01*
X203790733Y-107190000D01*
X203658539Y-107205451D01*
X203585000Y-107232217D01*
X203585000Y-106515000D01*
X202852155Y-106515000D01*
X202792627Y-106521401D01*
X202792620Y-106521403D01*
X202657913Y-106571645D01*
X202657906Y-106571649D01*
X202542812Y-106657809D01*
X202542809Y-106657812D01*
X202456649Y-106772906D01*
X202456645Y-106772913D01*
X202406403Y-106907620D01*
X202406401Y-106907627D01*
X202400000Y-106967155D01*
X202400000Y-107700000D01*
X203116517Y-107700000D01*
X203081451Y-107817129D01*
X203071121Y-107994491D01*
X203101971Y-108169454D01*
X203115147Y-108200000D01*
X202400000Y-108200000D01*
X202400000Y-108932844D01*
X200547203Y-108932844D01*
X200594905Y-108903308D01*
X200757817Y-108754794D01*
X200890666Y-108578874D01*
X200988928Y-108381538D01*
X201049256Y-108169506D01*
X201069596Y-107950000D01*
X201049256Y-107730494D01*
X200988928Y-107518462D01*
X200972252Y-107484972D01*
X200890669Y-107321131D01*
X200890664Y-107321123D01*
X200757815Y-107145203D01*
X200594905Y-106996692D01*
X200594903Y-106996690D01*
X200407480Y-106880643D01*
X200407474Y-106880640D01*
X200321366Y-106847282D01*
X200201917Y-106801007D01*
X199985223Y-106760500D01*
X199764777Y-106760500D01*
X199548083Y-106801007D01*
X199498701Y-106820137D01*
X199342525Y-106880640D01*
X199342519Y-106880643D01*
X199155096Y-106996690D01*
X199155094Y-106996692D01*
X198992184Y-107145203D01*
X198859335Y-107321123D01*
X198859330Y-107321131D01*
X198761073Y-107518458D01*
X198700743Y-107730498D01*
X198680404Y-107949999D01*
X198680404Y-107950000D01*
X192570000Y-107950000D01*
X192570000Y-107221172D01*
X192569999Y-107221155D01*
X192563598Y-107161627D01*
X192563596Y-107161620D01*
X192513354Y-107026913D01*
X192513350Y-107026906D01*
X192427190Y-106911812D01*
X192427187Y-106911809D01*
X192312093Y-106825649D01*
X192312086Y-106825645D01*
X192177379Y-106775403D01*
X192177372Y-106775401D01*
X192117844Y-106769000D01*
X191385000Y-106769000D01*
X191385000Y-107482197D01*
X191223831Y-107444000D01*
X191090733Y-107444000D01*
X190958539Y-107459451D01*
X190885000Y-107486217D01*
X190885000Y-106769000D01*
X190152155Y-106769000D01*
X190092627Y-106775401D01*
X190092620Y-106775403D01*
X189957913Y-106825645D01*
X189957906Y-106825649D01*
X189842812Y-106911809D01*
X189842809Y-106911812D01*
X189756649Y-107026906D01*
X189756645Y-107026913D01*
X189706403Y-107161620D01*
X189706401Y-107161627D01*
X189700000Y-107221155D01*
X189700000Y-107954000D01*
X190416517Y-107954000D01*
X190381451Y-108071129D01*
X190371121Y-108248491D01*
X190401971Y-108423454D01*
X190415147Y-108454000D01*
X189700000Y-108454000D01*
X189700000Y-109186844D01*
X187847203Y-109186844D01*
X187894905Y-109157308D01*
X188046231Y-109019356D01*
X188057815Y-109008796D01*
X188091644Y-108964000D01*
X188190666Y-108832874D01*
X188288928Y-108635538D01*
X188349256Y-108423506D01*
X188369596Y-108204000D01*
X188349256Y-107984494D01*
X188288928Y-107772462D01*
X188252846Y-107700000D01*
X188190669Y-107575131D01*
X188190664Y-107575123D01*
X188057815Y-107399203D01*
X187894905Y-107250692D01*
X187894903Y-107250690D01*
X187707480Y-107134643D01*
X187707474Y-107134640D01*
X187619590Y-107100594D01*
X187501917Y-107055007D01*
X187285223Y-107014500D01*
X187064777Y-107014500D01*
X186848083Y-107055007D01*
X186798701Y-107074137D01*
X186642525Y-107134640D01*
X186642519Y-107134643D01*
X186455096Y-107250690D01*
X186455094Y-107250692D01*
X186292184Y-107399203D01*
X186159335Y-107575123D01*
X186159330Y-107575131D01*
X186061073Y-107772458D01*
X186000743Y-107984498D01*
X185980404Y-108203999D01*
X185980404Y-108204000D01*
X52070000Y-108204000D01*
X52070000Y-52197000D01*
X56518271Y-52197000D01*
X56537166Y-52473239D01*
X56593502Y-52744347D01*
X56593503Y-52744350D01*
X56686225Y-53005244D01*
X56686224Y-53005244D01*
X56813615Y-53251095D01*
X56948402Y-53442043D01*
X57719829Y-52670617D01*
X57789902Y-52783038D01*
X57923368Y-52923444D01*
X58071208Y-53026343D01*
X57303221Y-53794329D01*
X57303221Y-53794330D01*
X57377061Y-53854403D01*
X57377074Y-53854411D01*
X57613654Y-53998279D01*
X57867616Y-54108590D01*
X58134236Y-54183294D01*
X58134243Y-54183295D01*
X58408554Y-54221000D01*
X58685446Y-54221000D01*
X58959756Y-54183295D01*
X58959763Y-54183294D01*
X59226383Y-54108590D01*
X59480345Y-53998279D01*
X59716924Y-53854413D01*
X59790777Y-53794329D01*
X59020190Y-53023742D01*
X59093939Y-52982809D01*
X59240925Y-52856625D01*
X59359502Y-52703436D01*
X59375129Y-52671576D01*
X60145596Y-53442043D01*
X60145597Y-53442043D01*
X60280384Y-53251095D01*
X60407774Y-53005244D01*
X60500496Y-52744350D01*
X60500497Y-52744347D01*
X60556833Y-52473239D01*
X60575728Y-52197004D01*
X74543513Y-52197004D01*
X74563432Y-52462812D01*
X74618353Y-52703436D01*
X74622748Y-52722692D01*
X74720134Y-52970826D01*
X74853414Y-53201674D01*
X74987649Y-53369999D01*
X75019615Y-53410083D01*
X75204074Y-53581235D01*
X75215014Y-53591386D01*
X75435257Y-53741545D01*
X75675415Y-53857199D01*
X75675416Y-53857199D01*
X75675419Y-53857201D01*
X75930137Y-53935771D01*
X76193720Y-53975500D01*
X76193721Y-53975500D01*
X76460279Y-53975500D01*
X76460280Y-53975500D01*
X76723863Y-53935771D01*
X76978581Y-53857201D01*
X77218744Y-53741545D01*
X77438986Y-53591386D01*
X77634388Y-53410079D01*
X77800586Y-53201674D01*
X77933866Y-52970826D01*
X78031252Y-52722692D01*
X78090567Y-52462815D01*
X78110487Y-52197000D01*
X127638271Y-52197000D01*
X127657166Y-52473239D01*
X127713502Y-52744347D01*
X127713503Y-52744350D01*
X127806225Y-53005244D01*
X127806224Y-53005244D01*
X127933615Y-53251095D01*
X128068402Y-53442043D01*
X128839828Y-52670616D01*
X128909902Y-52783038D01*
X129043368Y-52923444D01*
X129191208Y-53026343D01*
X128423221Y-53794329D01*
X128423221Y-53794330D01*
X128497061Y-53854403D01*
X128497074Y-53854411D01*
X128733654Y-53998279D01*
X128987616Y-54108590D01*
X129254236Y-54183294D01*
X129254243Y-54183295D01*
X129528554Y-54221000D01*
X129805446Y-54221000D01*
X130079756Y-54183295D01*
X130079763Y-54183294D01*
X130346383Y-54108590D01*
X130600345Y-53998279D01*
X130836924Y-53854413D01*
X130910777Y-53794329D01*
X130140190Y-53023742D01*
X130213939Y-52982809D01*
X130360925Y-52856625D01*
X130479502Y-52703436D01*
X130495129Y-52671576D01*
X131265596Y-53442043D01*
X131265597Y-53442043D01*
X131400384Y-53251095D01*
X131527774Y-53005244D01*
X131620496Y-52744350D01*
X131620497Y-52744347D01*
X131676833Y-52473239D01*
X131695728Y-52197000D01*
X131676833Y-51920760D01*
X131620497Y-51649652D01*
X131620496Y-51649649D01*
X131527774Y-51388755D01*
X131527775Y-51388755D01*
X131400384Y-51142904D01*
X131265596Y-50951955D01*
X130494169Y-51723381D01*
X130424098Y-51610962D01*
X130290632Y-51470556D01*
X130142791Y-51367655D01*
X130910777Y-50599669D01*
X130836928Y-50539590D01*
X130836925Y-50539588D01*
X130600345Y-50395720D01*
X130346383Y-50285409D01*
X130079763Y-50210705D01*
X130079756Y-50210704D01*
X129805446Y-50173000D01*
X129528554Y-50173000D01*
X129254243Y-50210704D01*
X129254236Y-50210705D01*
X128987616Y-50285409D01*
X128733654Y-50395720D01*
X128497077Y-50539586D01*
X128497067Y-50539592D01*
X128423221Y-50599669D01*
X129193809Y-51370257D01*
X129120061Y-51411191D01*
X128973075Y-51537375D01*
X128854498Y-51690564D01*
X128838870Y-51722423D01*
X128068402Y-50951955D01*
X128068401Y-50951955D01*
X127933619Y-51142897D01*
X127933615Y-51142903D01*
X127806225Y-51388755D01*
X127713503Y-51649649D01*
X127713502Y-51649652D01*
X127657166Y-51920760D01*
X127638271Y-52197000D01*
X78110487Y-52197000D01*
X78090567Y-51931185D01*
X78031252Y-51671308D01*
X77933866Y-51423174D01*
X77800586Y-51192326D01*
X77634388Y-50983921D01*
X77634387Y-50983920D01*
X77634384Y-50983916D01*
X77438986Y-50802614D01*
X77218744Y-50652455D01*
X77218740Y-50652453D01*
X77218737Y-50652451D01*
X77218736Y-50652450D01*
X76978583Y-50536800D01*
X76978585Y-50536800D01*
X76723871Y-50458231D01*
X76723867Y-50458230D01*
X76723863Y-50458229D01*
X76597074Y-50439118D01*
X76460285Y-50418500D01*
X76460280Y-50418500D01*
X76193720Y-50418500D01*
X76193714Y-50418500D01*
X76029566Y-50443242D01*
X75930137Y-50458229D01*
X75930134Y-50458230D01*
X75930128Y-50458231D01*
X75675415Y-50536800D01*
X75435265Y-50652450D01*
X75435263Y-50652451D01*
X75215013Y-50802614D01*
X75019615Y-50983916D01*
X74853414Y-51192326D01*
X74720134Y-51423173D01*
X74622750Y-51671302D01*
X74622745Y-51671319D01*
X74563432Y-51931187D01*
X74543513Y-52196995D01*
X74543513Y-52197004D01*
X60575728Y-52197004D01*
X60575728Y-52197000D01*
X60556833Y-51920760D01*
X60500497Y-51649652D01*
X60500496Y-51649649D01*
X60407774Y-51388755D01*
X60407775Y-51388755D01*
X60280384Y-51142904D01*
X60145596Y-50951955D01*
X59374169Y-51723381D01*
X59304098Y-51610962D01*
X59170632Y-51470556D01*
X59022791Y-51367655D01*
X59790777Y-50599669D01*
X59716928Y-50539590D01*
X59716925Y-50539588D01*
X59480345Y-50395720D01*
X59226383Y-50285409D01*
X58959763Y-50210705D01*
X58959756Y-50210704D01*
X58685446Y-50173000D01*
X58408554Y-50173000D01*
X58134243Y-50210704D01*
X58134236Y-50210705D01*
X57867616Y-50285409D01*
X57613654Y-50395720D01*
X57377077Y-50539586D01*
X57377067Y-50539592D01*
X57303221Y-50599669D01*
X58073809Y-51370257D01*
X58000061Y-51411191D01*
X57853075Y-51537375D01*
X57734498Y-51690564D01*
X57718870Y-51722423D01*
X56948402Y-50951955D01*
X56948401Y-50951955D01*
X56813619Y-51142897D01*
X56813615Y-51142903D01*
X56686225Y-51388755D01*
X56593503Y-51649649D01*
X56593502Y-51649652D01*
X56537166Y-51920760D01*
X56518271Y-52197000D01*
X52070000Y-52197000D01*
X52070000Y-47114000D01*
X52089685Y-47046961D01*
X52142489Y-47001206D01*
X52194000Y-46990000D01*
X137036000Y-46990000D01*
X137103039Y-47009685D01*
G37*
%TD.AperFunction*%
%TD*%
M02*
